<?xml version="1.0" encoding="utf-8"?>
<!-- Generator: Adobe Illustrator 26.5.0, SVG Export Plug-In . SVG Version: 6.00 Build 0)  -->
<svg version="1.1" xmlns="http://www.w3.org/2000/svg" xmlns:xlink="http://www.w3.org/1999/xlink" x="0px" y="0px"
	 viewBox="0 0 559.6 447" style="enable-background:new 0 0 559.6 447;" xml:space="preserve">
<style type="text/css">
	.st0{fill:none;stroke:#646464;stroke-width:14.1732;stroke-linecap:round;stroke-linejoin:round;stroke-miterlimit:10;}
	.st1{fill:none;stroke:#FFD449;stroke-width:2.8346;stroke-miterlimit:10;}
	.st2{fill:none;stroke:#54C6EB;stroke-width:2.8346;stroke-miterlimit:10;}
	.st3{fill:none;stroke:#F4442E;stroke-width:2.8346;stroke-miterlimit:10;}
	.st4{fill:none;stroke:#FFFFFF;stroke-width:2.126;}
	.st5{fill:#646464;}
	.st6{fill:#FFFFFF;}
	.st10{fill:#09BC8A;}
	.st12{fill:none;stroke:#09BC8A;stroke-width:2.8346;stroke-miterlimit:10;}
	.st14{fill:#F4442E;}
	.st15{fill:#54C6EB;}
	.st16{fill:#FFD449;}
</style>
<g id="コース">
	<path class="st0" d="M485.2,351.7c0,0-429.4,0-444.3,0c-9.2,0-13-5.7-6.1-12.3c5-4.8,15.8-17.3,17.8-19.8c2-2.4,4-6.1,1.1-13.8
		c-2.9-7.7-9.2-25.2-10.8-29.4c-1.5-4.2-1.5-12.5-0.4-21.7c1.1-9.2,31.2-209,32.3-214.5s7.2-7,12.7-7s10.8,2.6,14,6.8
		c3.3,4.2,21.7,26.3,31.6,36.9s16.9,17.6,22.6,21.3c5.7,3.7,9.9,7,19.1,10.3c9.2,3.3,17.4,6.7,22,15.4c2.6,5,0.9,18,0.7,26.8
		s-3.3,20.4,13.4,33.1c16.7,12.7,55,40.5,59.3,44.1c9.7,8.3,2,16.5-10.8,16c-10.3-0.4-57.5-6.8-70.5-8.3c-13-1.5-43.9-5-54-5
		c-10.1,0-19.5,7.5-23,12.7c-3.5,5.3-10.1,13.6-11.2,15.8c-1.1,2.2-2.6,5.3,2.6,6.1c5.3,0.9,38.2,4.6,45,4.6c6.8,0,230,0,235.8,0
		s15.6-3.1,15.6-20.4s-11.9-46.1-38.2-54.2s-44.3-11.7-54.2-35.3c-8.3-20-2.2-36.7,0.7-42.6c2.9-5.9,14.5-32.5,17.1-38.9
		c2.6-6.4,9.9-12.5,13.6-14.9c3.7-2.4,12.3-7.7,20.9-0.7c8.6,7,14,16.7,17.3,22.8c3.3,6.1,144.9,238.6,146,240.6
		c1.1,2,2.2,7.5,0,10.8s-22.4,11.9-25.9,13.4C493.3,351.9,489.1,351.7,485.2,351.7z"/>
</g>
<g id="セクター">
	<path class="st1" d="M307.8,117.3c2.9-5.9,14.5-32.5,17.1-38.9c2.6-6.4,9.9-12.5,13.6-14.9c3.7-2.4,12.3-7.7,20.9-0.7
		c8.6,7,14,16.7,17.3,22.8c3.3,6.1,144.9,238.6,146,240.6c1.1,2,2.2,7.5,0,10.8s-22.4,11.9-25.9,13.4c-3.5,1.5-7.7,1.3-11.6,1.3
		c0,0-65.7,0-146.7,0"/>
	<path class="st2" d="M151.3,94.9c1.5,1.3,3,2.4,4.3,3.2c5.7,3.7,9.9,7,19.1,10.3c9.2,3.3,17.4,6.7,22,15.4c2.6,5,0.9,18,0.7,26.8
		s-3.3,20.4,13.4,33.1c16.7,12.7,55,40.5,59.3,44.1c9.7,8.3,2,16.5-10.8,16c-10.3-0.4-57.5-6.8-70.5-8.3c-13-1.5-43.9-5-54-5
		c-10.1,0-19.5,7.5-23,12.7c-3.5,5.3-10.1,13.6-11.2,15.8c-1.1,2.2-2.6,5.3,2.6,6.1c5.3,0.9,38.2,4.6,45,4.6c6.8,0,230,0,235.8,0
		s15.6-3.1,15.6-20.4s-11.9-46.1-38.2-54.2s-44.3-11.7-54.2-35.3c-8.3-20-2.2-36.7,0.7-42.6"/>
	<path class="st3" d="M338.5,351.7c-125.9,0-288.5,0-297.6,0c-9.2,0-13-5.7-6.1-12.3c5-4.8,15.8-17.3,17.8-19.8
		c2-2.4,4-6.1,1.1-13.8c-2.9-7.7-9.2-25.2-10.8-29.4c-1.5-4.2-1.5-12.5-0.4-21.7c1.1-9.2,31.2-209,32.3-214.5s7.2-7,12.7-7
		s10.8,2.6,14,6.8c3.3,4.2,21.7,26.3,31.6,36.9c7.5,8,13.4,14,18.3,18"/>
</g>
<g id="DRS-ZONES">
  <!-- DRS Zone 1 — visible white for testing (dots run right→left, corrected order) -->
  <path id="drs-1" class="drs-zone"
    fill="none" stroke="#FFF" opacity="0"
    d="M25.5,249.1 
		L26.6,241 L27.5,235.5 L28.3,229.9 L29.2,224.4 L30,218.8 L30.9,213.3 L31.7,207.8 L32.6,202.2 L33.4,196.7 L34.3,191.2 L35.1,185.6 L36,180.1 L36.8,174.6 L37.7,169 L38.5,163.5 L39.4,158 L40.2,152.4 L41.1,146.9 L41.9,141.3 L42.8,135.8 L43.7,130.3 L44.5,124.7 L45.4,119.2 L46.2,113.7 L47.1,108.1 L47.9,102.6 L48.8,97.1 L49.6,91.5 L50.5,86 L51.3,80.5 L52.2,74.9 L53,69.4 L53.9,63.8 L54.7,58.3 L55.6,52.8 L57.3,43.2
		"/>

  <!-- DRS Zone 2 — visible white for testing (dots run right→left, corrected order) -->
  <path id="drs-2" class="drs-zone"
    fill="none" stroke="#FFF" opacity="0"
    d="M109.5,283.3 
		L116.5,283.7 L122.2,284.2 L127.9,284.7 L133.5,285.2 L139.2,285.7 L144.9,286.1 L150.5,286.1 L156.2,286.2 L160.5,286.2 L167.6,286.2 L171.9,286.3 L179,286.3 L183.3,286.3 L190.4,286.4 L196,286.4 L201.7,286.4 L207.4,286.5 L213.1,286.5 L218.8,286.5 L223.1,286.6 L230.2,286.6 L235.9,286.6 L241.5,286.7 L247.2,286.7 L252.9,286.8 L258.6,286.8 L264.3,286.8 L270,286.9 L275.7,286.9 L281.4,286.9 L287.1,287 L292.7,287 L298.4,287 L304.1,287.1 L309.8,287.1 L315.5,287.1 L321.2,287.2 L326.9,287.2 L332.6,287.2 L338.2,287.3 L343.9,287.3 L349.6,287.3 L355.3,287.4 L361,287.4 L366.7,287.4 L372.4,287.5 L383.1,287.5
		"/>
  
  <!-- DRS Zone 3 — visible white for testing -->
  <path id="drs-3" class="drs-zone"
    fill="none" stroke="#FFF" opacity="0"
    d="M411.3,369.8
		L403.3,369.6 L397.6,369.6 L391.9,369.6 L386.2,369.6 L380.5,369.6 L374.8,369.6 L369.1,369.6 L363.4,369.6 L357.7,369.6 L352,369.6 L346.3,369.6 L340.6,369.6 L334.9,369.6 L329.2,369.6 L323.5,369.6 L317.8,369.6 L312.1,369.6 L306.4,369.6 L300.7,369.6 L295,369.6 L289.3,369.6 L283.6,369.6 L277.9,369.6 L272.2,369.6 L266.5,369.6 L260.8,369.6 L255.1,369.6 L249.4,369.6 L243.7,369.6 L238,369.6 L232.3,369.6 L226.6,369.6 L220.9,369.6 L215.2,369.6 L209.5,369.6 L203.8,369.6 L198.1,369.6 L192.4,369.6 L186.7,369.6 L181,369.6 L175.3,369.6 L169.6,369.6 L163.9,369.6 L158.2,369.6 L152.5,369.6 L146.8,369.6 L141.1,369.6 L135.4,369.6 L129.7,369.6 L124,369.6 L118.3,369.6 L112.6,369.6 L106.9,369.6 L101.2,369.6 L95.5,369.6 L89.8,369.6 L84.1,369.6 L78.4,369.6 L72.7,369.6 L67,369.6 L61.3,369.6 L55.6,369.6 L49.9,369.6 L39.2,369.6
		"/>
</g>
<g id="コーナー番号">
	<g>
		<g>
			<circle class="st4" cx="15.6" cy="356.4" r="8.5"/>
			<circle class="st5" cx="15.6" cy="356.4" r="8.5"/>
		</g>	
		<g>
			<path class="st6" d="M13.9,360.3v-1.6h1v-4.5H14v-1.6h2.6v6.1h0.9v1.6H13.9z"/>
		</g>
	</g>
	<g>
		<g>
			<circle class="st4" cx="73.6" cy="314.9" r="8.5"/>
			<circle class="st5" cx="73.6" cy="314.9" r="8.5"/>
		</g>
		<g>
			<path class="st6" d="M71.5,318.8v-2.6c0-0.6,0.1-1,0.6-1.2l1.9-0.8v-1.6l-0.1-0.1h-0.5l-0.1,0.1v1.1h-1.7v-1.3
				c0-0.8,0.4-1.1,0.8-1.3h2.5c0.5,0.2,0.8,0.5,0.8,1.3v1.9c0,0.6-0.1,0.9-0.6,1.2l-1.9,0.8v0.9h2.4v1.6H71.5z"/>
		</g>
	</g>
	<g>
		<g>
			<circle class="st4" cx="21.9" cy="270.4" r="8.5"/>
			<circle class="st5" cx="21.9" cy="270.4" r="8.5"/>
		</g>
		<g>
			<path class="st6" d="M20.6,274.3c-0.5-0.2-0.8-0.5-0.8-1.3v-1h1.7v0.8l0.1,0.1h0.5l0.1-0.1v-1.6l-0.1-0.1h-1v-1.3h1l0.1-0.1v-1.5
				l-0.1-0.1h-0.5l-0.1,0.1v0.8h-1.7v-1c0-0.8,0.4-1.1,0.8-1.3h2.5c0.5,0.2,0.8,0.5,0.8,1.3v1.3c0,0.6-0.2,0.9-0.6,1.2
				c0.4,0.3,0.6,0.6,0.6,1.2v1.4c0,0.8-0.4,1.1-0.8,1.3H20.6z"/>
		</g>
	</g>
	<g>
		<g>
			<circle class="st4" cx="75.4" cy="15.6" r="8.5"/>
			<circle class="st5" cx="75.4" cy="15.6" r="8.5"/>
		</g>
		<g>
			<path class="st6" d="M77,18v1.5h-1.7V18h-2.2v-1.5l1.6-4.7h1.7l-1.6,4.6h0.5V16l0.4-1H77v1.4h0.5V18H77z"/>
		</g>
	</g>
	<g>
		<g>
			<circle class="st4" cx="149.8" cy="118.1" r="8.5"/>
			<circle class="st5" cx="149.8" cy="118.1" r="8.5"/>
		</g>
		<g>
			<path class="st6" d="M148.6,122c-0.5-0.2-0.8-0.5-0.8-1.3v-1h1.6v0.8l0.1,0.1h0.6l0.1-0.1v-2.1l-0.1-0.1h-0.6l-0.1,0.1v0.4h-1.6
				v-4.5h4v1.5h-2.4v1.6l0.4-0.4h1.3c0.5,0.2,0.8,0.5,0.8,1.3v2.4c0,0.8-0.4,1.1-0.8,1.3H148.6z"/>
		</g>
	</g>
	<g>
		<circle class="st4" cx="216.7" cy="120.4" r="8.5"/>
		<circle class="st5" cx="216.7" cy="120.4" r="8.5"/>
		<g>
			<path class="st6" d="M217.9,124.3h-2.5c-0.5-0.2-0.8-0.5-0.8-1.3v-5.1c0-0.8,0.4-1.1,0.8-1.3h2.5c0.5,0.2,0.8,0.5,0.8,1.3v1h-1.7
				v-0.8L217,118h-0.5l-0.1,0.1v1.8l0.3-0.3h1.3c0.5,0.2,0.8,0.5,0.8,1.3v2.2C218.8,123.8,218.4,124.1,217.9,124.3z M217,122.9
				l0.1-0.1V121l-0.1-0.1h-0.5l-0.1,0.1v1.8l0.1,0.1H217z"/>
		</g>
	</g>
	<g>
		<circle class="st4" cx="182" cy="179.3" r="8.5"/>
		<circle class="st5" cx="182" cy="179.3" r="8.5"/>
		<g>
			<path class="st6" d="M180.1,183.1l2.1-6.2h-2.4v-1.5h4.1v1.2l-2.1,6.5H180.1z"/>
		</g>
	</g>
	<g>
		<circle class="st4" cx="291.9" cy="245.7" r="8.5"/>
		<circle class="st5" cx="291.9" cy="245.7" r="8.5"/>
		<g>
			<path class="st6" d="M290.6,249.6c-0.5-0.2-0.8-0.5-0.8-1.3v-1.4c0-0.6,0.2-0.9,0.6-1.2c-0.4-0.3-0.6-0.6-0.6-1.2v-1.3
				c0-0.8,0.4-1.1,0.8-1.3h2.5c0.5,0.2,0.8,0.5,0.8,1.3v1.3c0,0.6-0.2,0.9-0.6,1.2c0.4,0.3,0.6,0.6,0.6,1.2v1.4
				c0,0.8-0.4,1.1-0.8,1.3H290.6z M291.5,245l0.1,0.1h0.5l0.1-0.1v-1.5l-0.1-0.1h-0.5l-0.1,0.1V245z M292.2,248.1v-1.6l-0.1-0.1
				h-0.5l-0.1,0.1v1.6l0.1,0.1h0.5L292.2,248.1z"/>
		</g>
	</g>
	<g>
		<circle class="st4" cx="129.8" cy="211.8" r="8.5"/>
		<circle class="st5" cx="129.8" cy="211.8" r="8.5"/>
		<g>
			<path class="st6" d="M128.5,215.7c-0.5-0.2-0.8-0.5-0.8-1.3v-1h1.7v0.8l0.1,0.1h0.5l0.1-0.1v-1.8l-0.3,0.3h-1.3
				c-0.5-0.2-0.8-0.5-0.8-1.3v-2.2c0-0.8,0.4-1.1,0.8-1.3h2.5c0.5,0.2,0.8,0.5,0.8,1.3v5.1c0,0.8-0.4,1.1-0.8,1.3H128.5z
				 M130.1,211.4v-1.8l-0.1-0.1h-0.5l-0.1,0.1v1.8l0.1,0.1h0.5L130.1,211.4z"/>
		</g>
	</g>
	<g>
		<circle class="st4" cx="81.3" cy="272.3" r="8.5"/>
		<circle class="st5" cx="81.3" cy="272.3" r="8.5"/>
		<g>
			<path class="st6" d="M77.3,276.2v-1.6h1v-4.5h-0.9v-1.6h2.6v6.1h0.9v1.6H77.3z"/>
			<path class="st6" d="M84.9,276.2h-2.5c-0.5-0.2-0.8-0.5-0.8-1.3v-5.1c0-0.8,0.4-1.1,0.8-1.3h2.5c0.5,0.2,0.8,0.5,0.8,1.3v5.1
				C85.7,275.7,85.4,276,84.9,276.2z M84,270l-0.1-0.1h-0.5l-0.1,0.1v4.7l0.1,0.1h0.5l0.1-0.1V270z"/>
		</g>
	</g>
	<g>
		<circle class="st4" cx="420" cy="244.5" r="8.5"/>
		<circle class="st5" cx="420" cy="244.5" r="8.5"/>
		<g>
			<path class="st6" d="M415.9,248.4v-1.6h1v-4.5H416v-1.6h2.6v6.1h0.9v1.6H415.9z"/>
			<path class="st6" d="M420.6,248.4v-1.6h1v-4.5h-0.9v-1.6h2.6v6.1h0.9v1.6H420.6z"/>
		</g>
	</g>
	<g>
		<circle class="st4" cx="289.6" cy="170.3" r="8.5"/>
		<circle class="st5" cx="289.6" cy="170.3" r="8.5"/>
		<g>
			<path class="st6" d="M285.5,174.2v-1.6h1v-4.5h-0.9v-1.6h2.6v6.1h0.9v1.6H285.5z"/>
			<path class="st6" d="M289.8,174.2v-2.6c0-0.6,0.1-1,0.6-1.2l1.9-0.8v-1.6l-0.1-0.1h-0.5l-0.1,0.1v1.1h-1.7v-1.3
				c0-0.8,0.4-1.1,0.8-1.3h2.5c0.5,0.2,0.8,0.5,0.8,1.3v1.9c0,0.6-0.1,0.9-0.6,1.2l-1.8,0.8v0.9h2.4v1.6H289.8z"/>
		</g>
	</g>
	<g>
		<circle class="st4" cx="338.5" cy="40.5" r="8.5"/>
		<circle class="st5" cx="338.5" cy="40.5" r="8.5"/>
		<g>
			<path class="st6" d="M334.4,44.4v-1.6h1v-4.5h-0.9v-1.6h2.6v6.1h0.9v1.6H334.4z"/>
			<path class="st6" d="M339.6,44.4c-0.5-0.2-0.8-0.5-0.8-1.3v-1h1.7v0.8l0.1,0.1h0.5l0.1-0.1v-1.6l-0.1-0.1h-1v-1.3h1l0.1-0.1v-1.5
				l-0.1-0.1h-0.5l-0.1,0.1v0.8h-1.7v-1c0-0.8,0.4-1.1,0.8-1.3h2.5c0.5,0.2,0.8,0.5,0.8,1.3v1.3c0,0.6-0.2,0.9-0.6,1.2
				c0.4,0.3,0.6,0.6,0.6,1.2v1.4c0,0.8-0.4,1.1-0.8,1.3H339.6z"/>
		</g>
	</g>
	<g>
		<circle class="st4" cx="544" cy="332.5" r="8.5"/>
		<circle class="st5" cx="544" cy="332.5" r="8.5"/>
		<g>
			<path class="st6" d="M539.9,336.4v-1.6h1v-4.5H540v-1.6h2.6v6.1h0.9v1.6H539.9z"/>
			<path class="st6" d="M548,334.9v1.5h-1.7v-1.5H544v-1.5l1.6-4.7h1.7l-1.6,4.6h0.5v-0.4l0.4-1h1.3v1.4h0.5v1.6H548z"/>
		</g>
	</g>
	<g>
		<circle class="st4" cx="501.3" cy="369.7" r="8.5"/>
		<circle class="st5" cx="501.3" cy="369.7" r="8.5"/>
		<g>
			<path class="st6" d="M497.2,373.6V372h1v-4.5h-0.9v-1.6h2.6v6.1h0.9v1.6H497.2z"/>
			<path class="st6" d="M502.4,373.6c-0.5-0.2-0.8-0.5-0.8-1.3v-1h1.6v0.8l0.1,0.1h0.6l0.1-0.1V370l-0.1-0.1h-0.6l-0.1,0.1v0.4h-1.6
				v-4.5h4v1.5h-2.4v1.6l0.4-0.4h1.3c0.5,0.2,0.8,0.5,0.8,1.3v2.4c0,0.8-0.4,1.1-0.8,1.3H502.4z"/>
		</g>
	</g>
</g>

<g id="DRS">
	<g>
		<g>
			<g>
				<g>
					<line class="st12" x1="410.4" y1="377" x2="410.4" y2="362.1"/>
				</g>
				<g>
					<path class="st10" d="M403.3,369.6c0-0.8,0.6-1.4,1.4-1.4s1.4,0.6,1.4,1.4c0,0.8-0.6,1.4-1.4,1.4S403.3,370.4,403.3,369.6z"/>
				</g>
				<g>
					<path class="st10" d="M397.6,369.6c0-0.8,0.6-1.4,1.4-1.4s1.4,0.6,1.4,1.4c0,0.8-0.6,1.4-1.4,1.4S397.6,370.4,397.6,369.6z"/>
				</g>
				<g>
					<path class="st10" d="M391.9,369.6c0-0.8,0.6-1.4,1.4-1.4s1.4,0.6,1.4,1.4c0,0.8-0.6,1.4-1.4,1.4S391.9,370.4,391.9,369.6z"/>
				</g>
				<g>
					<path class="st10" d="M386.2,369.6c0-0.8,0.6-1.4,1.4-1.4s1.4,0.6,1.4,1.4c0,0.8-0.6,1.4-1.4,1.4S386.2,370.4,386.2,369.6z"/>
				</g>
				<g>
					<path class="st10" d="M380.5,369.6c0-0.8,0.6-1.4,1.4-1.4s1.4,0.6,1.4,1.4c0,0.8-0.6,1.4-1.4,1.4S380.5,370.4,380.5,369.6z"/>
				</g>
				<g>
					<path class="st10" d="M374.8,369.6c0-0.8,0.6-1.4,1.4-1.4s1.4,0.6,1.4,1.4c0,0.8-0.6,1.4-1.4,1.4S374.8,370.4,374.8,369.6z"/>
				</g>
				<g>
					<path class="st10" d="M369.1,369.6c0-0.8,0.6-1.4,1.4-1.4c0.8,0,1.4,0.6,1.4,1.4c0,0.8-0.6,1.4-1.4,1.4
						C369.7,371,369.1,370.4,369.1,369.6z"/>
				</g>
				<g>
					<path class="st10" d="M363.4,369.6c0-0.8,0.6-1.4,1.4-1.4s1.4,0.6,1.4,1.4c0,0.8-0.6,1.4-1.4,1.4S363.4,370.4,363.4,369.6z"/>
				</g>
				<g>
					<path class="st10" d="M357.7,369.6c0-0.8,0.6-1.4,1.4-1.4s1.4,0.6,1.4,1.4c0,0.8-0.6,1.4-1.4,1.4S357.7,370.4,357.7,369.6z"/>
				</g>
				<g>
					<path class="st10" d="M352,369.6c0-0.8,0.6-1.4,1.4-1.4s1.4,0.6,1.4,1.4c0,0.8-0.6,1.4-1.4,1.4S352,370.4,352,369.6z"/>
				</g>
				<g>
					<path class="st10" d="M346.3,369.6c0-0.8,0.6-1.4,1.4-1.4s1.4,0.6,1.4,1.4c0,0.8-0.6,1.4-1.4,1.4S346.3,370.4,346.3,369.6z"/>
				</g>
				<g>
					<path class="st10" d="M340.6,369.6c0-0.8,0.6-1.4,1.4-1.4s1.4,0.6,1.4,1.4c0,0.8-0.6,1.4-1.4,1.4S340.6,370.4,340.6,369.6z"/>
				</g>
				<g>
					<path class="st10" d="M334.9,369.6c0-0.8,0.6-1.4,1.4-1.4s1.4,0.6,1.4,1.4c0,0.8-0.6,1.4-1.4,1.4S334.9,370.4,334.9,369.6z"/>
				</g>
				<g>
					<path class="st10" d="M329.2,369.6c0-0.8,0.6-1.4,1.4-1.4s1.4,0.6,1.4,1.4c0,0.8-0.6,1.4-1.4,1.4S329.2,370.4,329.2,369.6z"/>
				</g>
				<g>
					<path class="st10" d="M323.5,369.6c0-0.8,0.6-1.4,1.4-1.4c0.8,0,1.4,0.6,1.4,1.4c0,0.8-0.6,1.4-1.4,1.4
						C324.1,371,323.5,370.4,323.5,369.6z"/>
				</g>
				<g>
					<path class="st10" d="M317.8,369.6c0-0.8,0.6-1.4,1.4-1.4s1.4,0.6,1.4,1.4c0,0.8-0.6,1.4-1.4,1.4S317.8,370.4,317.8,369.6z"/>
				</g>
				<g>
					<path class="st10" d="M312.1,369.6c0-0.8,0.6-1.4,1.4-1.4s1.4,0.6,1.4,1.4c0,0.8-0.6,1.4-1.4,1.4S312.1,370.4,312.1,369.6z"/>
				</g>
				<g>
					<path class="st10" d="M306.4,369.6c0-0.8,0.6-1.4,1.4-1.4s1.4,0.6,1.4,1.4c0,0.8-0.6,1.4-1.4,1.4S306.4,370.4,306.4,369.6z"/>
				</g>
				<g>
					<path class="st10" d="M300.7,369.6c0-0.8,0.6-1.4,1.4-1.4s1.4,0.6,1.4,1.4c0,0.8-0.6,1.4-1.4,1.4S300.7,370.4,300.7,369.6z"/>
				</g>
				<g>
					<path class="st10" d="M295,369.6c0-0.8,0.6-1.4,1.4-1.4s1.4,0.6,1.4,1.4c0,0.8-0.6,1.4-1.4,1.4S295,370.4,295,369.6z"/>
				</g>
				<g>
					<path class="st10" d="M289.3,369.6c0-0.8,0.6-1.4,1.4-1.4s1.4,0.6,1.4,1.4c0,0.8-0.6,1.4-1.4,1.4S289.3,370.4,289.3,369.6z"/>
				</g>
				<g>
					<path class="st10" d="M283.6,369.6c0-0.8,0.6-1.4,1.4-1.4c0.8,0,1.4,0.6,1.4,1.4c0,0.8-0.6,1.4-1.4,1.4
						C284.2,371,283.6,370.4,283.6,369.6z"/>
				</g>
				<g>
					<path class="st10" d="M277.9,369.6c0-0.8,0.6-1.4,1.4-1.4c0.8,0,1.4,0.6,1.4,1.4c0,0.8-0.6,1.4-1.4,1.4
						C278.5,371,277.9,370.4,277.9,369.6z"/>
				</g>
				<g>
					<path class="st10" d="M272.2,369.6c0-0.8,0.6-1.4,1.4-1.4s1.4,0.6,1.4,1.4c0,0.8-0.6,1.4-1.4,1.4S272.2,370.4,272.2,369.6z"/>
				</g>
				<g>
					<path class="st10" d="M266.5,369.6c0-0.8,0.6-1.4,1.4-1.4s1.4,0.6,1.4,1.4c0,0.8-0.6,1.4-1.4,1.4S266.5,370.4,266.5,369.6z"/>
				</g>
				<g>
					<path class="st10" d="M260.8,369.6c0-0.8,0.6-1.4,1.4-1.4s1.4,0.6,1.4,1.4c0,0.8-0.6,1.4-1.4,1.4S260.8,370.4,260.8,369.6z"/>
				</g>
				<g>
					<path class="st10" d="M255.1,369.6c0-0.8,0.6-1.4,1.4-1.4s1.4,0.6,1.4,1.4c0,0.8-0.6,1.4-1.4,1.4S255.1,370.4,255.1,369.6z"/>
				</g>
				<g>
					<path class="st10" d="M249.4,369.6c0-0.8,0.6-1.4,1.4-1.4s1.4,0.6,1.4,1.4c0,0.8-0.6,1.4-1.4,1.4S249.4,370.4,249.4,369.6z"/>
				</g>
				<g>
					<path class="st10" d="M243.7,369.6c0-0.8,0.6-1.4,1.4-1.4s1.4,0.6,1.4,1.4c0,0.8-0.6,1.4-1.4,1.4S243.7,370.4,243.7,369.6z"/>
				</g>
				<g>
					<path class="st10" d="M238,369.6c0-0.8,0.6-1.4,1.4-1.4c0.8,0,1.4,0.6,1.4,1.4c0,0.8-0.6,1.4-1.4,1.4
						C238.6,371,238,370.4,238,369.6z"/>
				</g>
				<g>
					<path class="st10" d="M232.3,369.6c0-0.8,0.6-1.4,1.4-1.4s1.4,0.6,1.4,1.4c0,0.8-0.6,1.4-1.4,1.4S232.3,370.4,232.3,369.6z"/>
				</g>
				<g>
					<path class="st10" d="M226.6,369.6c0-0.8,0.6-1.4,1.4-1.4c0.8,0,1.4,0.6,1.4,1.4c0,0.8-0.6,1.4-1.4,1.4
						C227.2,371,226.6,370.4,226.6,369.6z"/>
				</g>
				<g>
					<path class="st10" d="M220.9,369.6c0-0.8,0.6-1.4,1.4-1.4c0.8,0,1.4,0.6,1.4,1.4c0,0.8-0.6,1.4-1.4,1.4
						C221.5,371,220.9,370.4,220.9,369.6z"/>
				</g>
				<g>
					<path class="st10" d="M215.2,369.6c0-0.8,0.6-1.4,1.4-1.4s1.4,0.6,1.4,1.4c0,0.8-0.6,1.4-1.4,1.4S215.2,370.4,215.2,369.6z"/>
				</g>
				<g>
					<path class="st10" d="M209.5,369.6c0-0.8,0.6-1.4,1.4-1.4s1.4,0.6,1.4,1.4c0,0.8-0.6,1.4-1.4,1.4S209.5,370.4,209.5,369.6z"/>
				</g>
				<g>
					<path class="st10" d="M203.8,369.6c0-0.8,0.6-1.4,1.4-1.4c0.8,0,1.4,0.6,1.4,1.4c0,0.8-0.6,1.4-1.4,1.4
						C204.4,371,203.8,370.4,203.8,369.6z"/>
				</g>
				<g>
					<path class="st10" d="M198.1,369.6c0-0.8,0.6-1.4,1.4-1.4c0.8,0,1.4,0.6,1.4,1.4c0,0.8-0.6,1.4-1.4,1.4
						C198.7,371,198.1,370.4,198.1,369.6z"/>
				</g>
				<g>
					<path class="st10" d="M192.4,369.6c0-0.8,0.6-1.4,1.4-1.4s1.4,0.6,1.4,1.4c0,0.8-0.6,1.4-1.4,1.4S192.4,370.4,192.4,369.6z"/>
				</g>
				<g>
					<path class="st10" d="M186.7,369.6c0-0.8,0.6-1.4,1.4-1.4s1.4,0.6,1.4,1.4c0,0.8-0.6,1.4-1.4,1.4S186.7,370.4,186.7,369.6z"/>
				</g>
				<g>
					<path class="st10" d="M181,369.6c0-0.8,0.6-1.4,1.4-1.4c0.8,0,1.4,0.6,1.4,1.4c0,0.8-0.6,1.4-1.4,1.4
						C181.6,371,181,370.4,181,369.6z"/>
				</g>
				<g>
					<path class="st10" d="M175.3,369.6c0-0.8,0.6-1.4,1.4-1.4c0.8,0,1.4,0.6,1.4,1.4c0,0.8-0.6,1.4-1.4,1.4
						C175.9,371,175.3,370.4,175.3,369.6z"/>
				</g>
				<g>
					<path class="st10" d="M169.6,369.6c0-0.8,0.6-1.4,1.4-1.4s1.4,0.6,1.4,1.4c0,0.8-0.6,1.4-1.4,1.4S169.6,370.4,169.6,369.6z"/>
				</g>
				<g>
					<path class="st10" d="M163.9,369.6c0-0.8,0.6-1.4,1.4-1.4s1.4,0.6,1.4,1.4c0,0.8-0.6,1.4-1.4,1.4S163.9,370.4,163.9,369.6z"/>
				</g>
				<g>
					<path class="st10" d="M158.2,369.6c0-0.8,0.6-1.4,1.4-1.4c0.8,0,1.4,0.6,1.4,1.4c0,0.8-0.6,1.4-1.4,1.4
						C158.8,371,158.2,370.4,158.2,369.6z"/>
				</g>
				<g>
					<path class="st10" d="M152.5,369.6c0-0.8,0.6-1.4,1.4-1.4s1.4,0.6,1.4,1.4c0,0.8-0.6,1.4-1.4,1.4S152.5,370.4,152.5,369.6z"/>
				</g>
				<g>
					<path class="st10" d="M146.8,369.6c0-0.8,0.6-1.4,1.4-1.4s1.4,0.6,1.4,1.4c0,0.8-0.6,1.4-1.4,1.4S146.8,370.4,146.8,369.6z"/>
				</g>
				<g>
					<path class="st10" d="M141.1,369.6c0-0.8,0.6-1.4,1.4-1.4s1.4,0.6,1.4,1.4c0,0.8-0.6,1.4-1.4,1.4S141.1,370.4,141.1,369.6z"/>
				</g>
				<g>
					<path class="st10" d="M135.4,369.6c0-0.8,0.6-1.4,1.4-1.4c0.8,0,1.4,0.6,1.4,1.4c0,0.8-0.6,1.4-1.4,1.4
						C136,371,135.4,370.4,135.4,369.6z"/>
				</g>
				<g>
					<path class="st10" d="M129.7,369.6c0-0.8,0.6-1.4,1.4-1.4s1.4,0.6,1.4,1.4c0,0.8-0.6,1.4-1.4,1.4S129.7,370.4,129.7,369.6z"/>
				</g>
				<g>
					<path class="st10" d="M124,369.6c0-0.8,0.6-1.4,1.4-1.4s1.4,0.6,1.4,1.4c0,0.8-0.6,1.4-1.4,1.4S124,370.4,124,369.6z"/>
				</g>
				<g>
					<path class="st10" d="M118.3,369.6c0-0.8,0.6-1.4,1.4-1.4s1.4,0.6,1.4,1.4c0,0.8-0.6,1.4-1.4,1.4S118.3,370.4,118.3,369.6z"/>
				</g>
				<g>
					<path class="st10" d="M112.6,369.6c0-0.8,0.6-1.4,1.4-1.4c0.8,0,1.4,0.6,1.4,1.4c0,0.8-0.6,1.4-1.4,1.4
						C113.2,371,112.6,370.4,112.6,369.6z"/>
				</g>
				<g>
					<path class="st10" d="M106.9,369.6c0-0.8,0.6-1.4,1.4-1.4c0.8,0,1.4,0.6,1.4,1.4c0,0.8-0.6,1.4-1.4,1.4
						C107.5,371,106.9,370.4,106.9,369.6z"/>
				</g>
				<g>
					<path class="st10" d="M101.2,369.6c0-0.8,0.6-1.4,1.4-1.4s1.4,0.6,1.4,1.4c0,0.8-0.6,1.4-1.4,1.4S101.2,370.4,101.2,369.6z"/>
				</g>
				<g>
					<path class="st10" d="M95.5,369.6c0-0.8,0.6-1.4,1.4-1.4c0.8,0,1.4,0.6,1.4,1.4c0,0.8-0.6,1.4-1.4,1.4
						C96.1,371,95.5,370.4,95.5,369.6z"/>
				</g>
				<g>
					<path class="st10" d="M89.8,369.6c0-0.8,0.6-1.4,1.4-1.4s1.4,0.6,1.4,1.4c0,0.8-0.6,1.4-1.4,1.4S89.8,370.4,89.8,369.6z"/>
				</g>
				<g>
					<path class="st10" d="M84.1,369.6c0-0.8,0.6-1.4,1.4-1.4c0.8,0,1.4,0.6,1.4,1.4c0,0.8-0.6,1.4-1.4,1.4
						C84.8,371,84.1,370.4,84.1,369.6z"/>
				</g>
				<g>
					<path class="st10" d="M78.4,369.6c0-0.8,0.6-1.4,1.4-1.4s1.4,0.6,1.4,1.4c0,0.8-0.6,1.4-1.4,1.4S78.4,370.4,78.4,369.6z"/>
				</g>
				<g>
					<path class="st10" d="M72.7,369.6c0-0.8,0.6-1.4,1.4-1.4c0.8,0,1.4,0.6,1.4,1.4c0,0.8-0.6,1.4-1.4,1.4
						C73.4,371,72.7,370.4,72.7,369.6z"/>
				</g>
				<g>
					<path class="st10" d="M67,369.6c0-0.8,0.6-1.4,1.4-1.4s1.4,0.6,1.4,1.4c0,0.8-0.6,1.4-1.4,1.4S67,370.4,67,369.6z"/>
				</g>
				<g>
					<path class="st10" d="M61.3,369.6c0-0.8,0.6-1.4,1.4-1.4c0.8,0,1.4,0.6,1.4,1.4c0,0.8-0.6,1.4-1.4,1.4
						C62,371,61.3,370.4,61.3,369.6z"/>
				</g>
				<g>
					<path class="st10" d="M55.6,369.6c0-0.8,0.6-1.4,1.4-1.4s1.4,0.6,1.4,1.4c0,0.8-0.6,1.4-1.4,1.4S55.6,370.4,55.6,369.6z"/>
				</g>
				<g>
					<path class="st10" d="M49.9,369.6c0-0.8,0.6-1.4,1.4-1.4c0.8,0,1.4,0.6,1.4,1.4c0,0.8-0.6,1.4-1.4,1.4
						C50.6,371,49.9,370.4,49.9,369.6z"/>
				</g>
				<g>
					<path class="st10" d="M44.2,369.6c0-0.8,0.6-1.4,1.4-1.4s1.4,0.6,1.4,1.4c0,0.8-0.6,1.4-1.4,1.4S44.2,370.4,44.2,369.6z"/>
				</g>
				<g>
					<line class="st12" x1="39.9" y1="377" x2="39.9" y2="362.1"/>
				</g>
			</g>
		</g>
	</g>
	<g>
		<g>
			<g>
				<g>
					<line class="st12" x1="18.2" y1="246.8" x2="32.9" y2="249"/>
				</g>
				<g>
					<path class="st10" d="M26.6,241c0.8,0.1,1.3,0.8,1.2,1.6s-0.8,1.3-1.6,1.2c-0.8-0.1-1.3-0.8-1.2-1.6S25.8,240.9,26.6,241z"/>
				</g>
				<g>
					<path class="st10" d="M27.5,235.5c0.8,0.1,1.3,0.8,1.2,1.6s-0.8,1.3-1.6,1.2c-0.8-0.1-1.3-0.8-1.2-1.6S26.7,235.3,27.5,235.5z"
						/>
				</g>
				<g>
					<path class="st10" d="M28.3,229.9c0.8,0.1,1.3,0.8,1.2,1.6s-0.8,1.3-1.6,1.2c-0.8-0.1-1.3-0.8-1.2-1.6
						C26.8,230.3,27.5,229.8,28.3,229.9z"/>
				</g>
				<g>
					<path class="st10" d="M29.2,224.4c0.8,0.1,1.3,0.8,1.2,1.6s-0.8,1.3-1.6,1.2c-0.8-0.1-1.3-0.8-1.2-1.6S28.4,224.3,29.2,224.4z"
						/>
				</g>
				<g>
					<path class="st10" d="M30,218.8c0.8,0.1,1.3,0.8,1.2,1.6s-0.8,1.3-1.6,1.2c-0.8-0.1-1.3-0.8-1.2-1.6S29.2,218.7,30,218.8z"/>
				</g>
				<g>
					<path class="st10" d="M30.9,213.3c0.8,0.1,1.3,0.8,1.2,1.6c-0.1,0.8-0.8,1.3-1.6,1.2s-1.3-0.8-1.2-1.6S30.1,213.2,30.9,213.3z"
						/>
				</g>
				<g>
					<path class="st10" d="M31.7,207.8c0.8,0.1,1.3,0.8,1.2,1.6s-0.8,1.3-1.6,1.2c-0.8-0.1-1.3-0.8-1.2-1.6S30.9,207.7,31.7,207.8z"
						/>
				</g>
				<g>
					<path class="st10" d="M32.6,202.2c0.8,0.1,1.3,0.8,1.2,1.6s-0.8,1.3-1.6,1.2c-0.8-0.1-1.3-0.8-1.2-1.6S31.8,202.1,32.6,202.2z"
						/>
				</g>
				<g>
					<path class="st10" d="M33.4,196.7c0.8,0.1,1.3,0.8,1.2,1.6s-0.8,1.3-1.6,1.2c-0.8-0.1-1.3-0.8-1.2-1.6S32.7,196.6,33.4,196.7z"
						/>
				</g>
				<g>
					<path class="st10" d="M34.3,191.2c0.8,0.1,1.3,0.8,1.2,1.6s-0.8,1.3-1.6,1.2c-0.8-0.1-1.3-0.8-1.2-1.6S33.5,191,34.3,191.2z"/>
				</g>
				<g>
					<path class="st10" d="M35.1,185.6c0.8,0.1,1.3,0.8,1.2,1.6s-0.8,1.3-1.6,1.2c-0.8-0.1-1.3-0.8-1.2-1.6S34.4,185.5,35.1,185.6z"
						/>
				</g>
				<g>
					<path class="st10" d="M36,180.1c0.8,0.1,1.3,0.8,1.2,1.6s-0.8,1.3-1.6,1.2c-0.8-0.1-1.3-0.8-1.2-1.6S35.2,180,36,180.1z"/>
				</g>
				<g>
					<path class="st10" d="M36.8,174.6c0.8,0.1,1.3,0.8,1.2,1.6s-0.8,1.3-1.6,1.2c-0.8-0.1-1.3-0.8-1.2-1.6S36.1,174.4,36.8,174.6z"
						/>
				</g>
				<g>
					<path class="st10" d="M37.7,169c0.8,0.1,1.3,0.8,1.2,1.6s-0.8,1.3-1.6,1.2c-0.8-0.1-1.3-0.8-1.2-1.6S36.9,168.9,37.7,169z"/>
				</g>
				<g>
					<path class="st10" d="M38.5,163.5c0.8,0.1,1.3,0.8,1.2,1.6s-0.8,1.3-1.6,1.2c-0.8-0.1-1.3-0.8-1.2-1.6S37.8,163.4,38.5,163.5z"
						/>
				</g>
				<g>
					<path class="st10" d="M39.4,158c0.8,0.1,1.3,0.8,1.2,1.6s-0.8,1.3-1.6,1.2c-0.8-0.1-1.3-0.8-1.2-1.6S38.6,157.8,39.4,158z"/>
				</g>
				<g>
					<path class="st10" d="M40.2,152.4c0.8,0.1,1.3,0.8,1.2,1.6s-0.8,1.3-1.6,1.2c-0.8-0.1-1.3-0.8-1.2-1.6S39.5,152.3,40.2,152.4z"
						/>
				</g>
				<g>
					<path class="st10" d="M41.1,146.9c0.8,0.1,1.3,0.8,1.2,1.6s-0.8,1.3-1.6,1.2c-0.8-0.1-1.3-0.8-1.2-1.6S40.3,146.8,41.1,146.9z"
						/>
				</g>
				<g>
					<path class="st10" d="M41.9,141.3c0.8,0.1,1.3,0.8,1.2,1.6s-0.8,1.3-1.6,1.2c-0.8-0.1-1.3-0.8-1.2-1.6S41.2,141.2,41.9,141.3z"
						/>
				</g>
				<g>
					<path class="st10" d="M42.8,135.8c0.8,0.1,1.3,0.8,1.2,1.6c-0.1,0.8-0.8,1.3-1.6,1.2c-0.8-0.1-1.3-0.8-1.2-1.6
						S42,135.7,42.8,135.8z"/>
				</g>
				<g>
					<path class="st10" d="M43.7,130.3c0.8,0.1,1.3,0.8,1.2,1.6c-0.1,0.8-0.8,1.3-1.6,1.2c-0.8-0.1-1.3-0.8-1.2-1.6
						S42.9,130.2,43.7,130.3z"/>
				</g>
				<g>
					<path class="st10" d="M44.5,124.7c0.8,0.1,1.3,0.8,1.2,1.6c-0.1,0.8-0.8,1.3-1.6,1.2c-0.8-0.1-1.3-0.8-1.2-1.6
						S43.7,124.6,44.5,124.7z"/>
				</g>
				<g>
					<path class="st10" d="M45.4,119.2c0.8,0.1,1.3,0.8,1.2,1.6c-0.1,0.8-0.8,1.3-1.6,1.2c-0.8-0.1-1.3-0.8-1.2-1.6
						C43.9,119.6,44.6,119.1,45.4,119.2z"/>
				</g>
				<g>
					<path class="st10" d="M46.2,113.7c0.8,0.1,1.3,0.8,1.2,1.6c-0.1,0.8-0.8,1.3-1.6,1.2s-1.3-0.8-1.2-1.6
						C44.7,114.1,45.4,113.5,46.2,113.7z"/>
				</g>
				<g>
					<path class="st10" d="M47.1,108.1c0.8,0.1,1.3,0.8,1.2,1.6c-0.1,0.8-0.8,1.3-1.6,1.2c-0.8-0.1-1.3-0.8-1.2-1.6
						C45.6,108.5,46.3,108,47.1,108.1z"/>
				</g>
				<g>
					<path class="st10" d="M47.9,102.6c0.8,0.1,1.3,0.8,1.2,1.6c-0.1,0.8-0.8,1.3-1.6,1.2s-1.3-0.8-1.2-1.6
						C46.4,103,47.1,102.5,47.9,102.6z"/>
				</g>
				<g>
					<path class="st10" d="M48.8,97.1c0.8,0.1,1.3,0.8,1.2,1.6c-0.1,0.8-0.8,1.3-1.6,1.2c-0.8-0.1-1.3-0.8-1.2-1.6
						C47.3,97.5,48,96.9,48.8,97.1z"/>
				</g>
				<g>
					<path class="st10" d="M49.6,91.5c0.8,0.1,1.3,0.8,1.2,1.6c-0.1,0.8-0.8,1.3-1.6,1.2c-0.8-0.1-1.3-0.8-1.2-1.6
						C48.1,91.9,48.8,91.4,49.6,91.5z"/>
				</g>
				<g>
					<path class="st10" d="M50.5,86c0.8,0.1,1.3,0.8,1.2,1.6c-0.1,0.8-0.8,1.3-1.6,1.2c-0.8-0.1-1.3-0.8-1.2-1.6
						C49,86.4,49.7,85.9,50.5,86z"/>
				</g>
				<g>
					<path class="st10" d="M51.3,80.5c0.8,0.1,1.3,0.8,1.2,1.6c-0.1,0.8-0.8,1.3-1.6,1.2c-0.8-0.1-1.3-0.8-1.2-1.6
						C49.8,80.9,50.5,80.3,51.3,80.5z"/>
				</g>
				<g>
					<path class="st10" d="M52.2,74.9c0.8,0.1,1.3,0.8,1.2,1.6c-0.1,0.8-0.8,1.3-1.6,1.2s-1.3-0.8-1.2-1.6
						C50.7,75.3,51.4,74.8,52.2,74.9z"/>
				</g>
				<g>
					<path class="st10" d="M53,69.4c0.8,0.1,1.3,0.8,1.2,1.6c-0.1,0.8-0.8,1.3-1.6,1.2c-0.8-0.1-1.3-0.8-1.2-1.6
						C51.5,69.8,52.3,69.3,53,69.4z"/>
				</g>
				<g>
					<path class="st10" d="M53.9,63.8c0.8,0.1,1.3,0.8,1.2,1.6c-0.1,0.8-0.8,1.3-1.6,1.2s-1.3-0.8-1.2-1.6
						C52.4,64.2,53.1,63.7,53.9,63.8z"/>
				</g>
				<g>
					<path class="st10" d="M54.7,58.3c0.8,0.1,1.3,0.8,1.2,1.6c-0.1,0.8-0.8,1.3-1.6,1.2c-0.8-0.1-1.3-0.8-1.2-1.6
						C53.2,58.7,54,58.2,54.7,58.3z"/>
				</g>
				<g>
					<path class="st10" d="M55.6,52.8c0.8,0.1,1.3,0.8,1.2,1.6c-0.1,0.8-0.8,1.3-1.6,1.2c-0.8-0.1-1.3-0.8-1.2-1.6
						C54.1,53.2,54.8,52.7,55.6,52.8z"/>
				</g>
				<g>
					<path class="st10" d="M56.4,47.2c0.8,0.1,1.3,0.8,1.2,1.6c-0.1,0.8-0.8,1.3-1.6,1.2s-1.3-0.8-1.2-1.6
						C54.9,47.6,55.7,47.1,56.4,47.2z"/>
				</g>
				<g>
					<line class="st12" x1="49.7" y1="42" x2="64.4" y2="44.2"/>
				</g>
			</g>
		</g>
	</g>
	<g>
		<g>
			<g>
				<g>
					<line class="st12" x1="110.1" y1="275.6" x2="108.8" y2="290.5"/>
				</g>
				<g>
					<path class="st10" d="M116.5,283.7c-0.1,0.8-0.8,1.4-1.5,1.3c-0.8-0.1-1.4-0.8-1.3-1.5c0.1-0.8,0.8-1.4,1.5-1.3
						C116,282.2,116.6,282.9,116.5,283.7z"/>
				</g>
				<g>
					<path class="st10" d="M122.2,284.2c-0.1,0.8-0.8,1.4-1.5,1.3c-0.8-0.1-1.4-0.8-1.3-1.5c0.1-0.8,0.8-1.4,1.5-1.3
						C121.7,282.7,122.3,283.4,122.2,284.2z"/>
				</g>
				<g>
					<path class="st10" d="M127.9,284.7c-0.1,0.8-0.8,1.4-1.5,1.3c-0.8-0.1-1.4-0.8-1.3-1.5c0.1-0.8,0.8-1.4,1.5-1.3
						C127.4,283.2,127.9,283.9,127.9,284.7z"/>
				</g>
				<g>
					<path class="st10" d="M133.5,285.2c-0.1,0.8-0.8,1.4-1.5,1.3c-0.8-0.1-1.4-0.8-1.3-1.5c0.1-0.8,0.8-1.4,1.5-1.3
						C133,283.7,133.6,284.4,133.5,285.2z"/>
				</g>
				<g>
					<path class="st10" d="M139.2,285.7c-0.1,0.8-0.8,1.4-1.5,1.3c-0.8-0.1-1.4-0.8-1.3-1.5s0.8-1.4,1.5-1.3
						C138.7,284.2,139.3,284.9,139.2,285.7z"/>
				</g>
				<g>
					<path class="st10" d="M144.9,286.1c0,0.7-0.4,1.2-1.1,1.4c-0.2,0-0.3,0-0.4,0c-0.8-0.1-1.4-0.8-1.3-1.5s0.8-1.4,1.5-1.3
						c0.1,0,0.3,0,0.3,0.1C144.4,284.9,144.9,285.4,144.9,286.1z"/>
				</g>
				<g>
					<path class="st10" d="M150.5,286.1c0,0.8-0.6,1.4-1.4,1.4c-0.8,0-1.4-0.6-1.4-1.4s0.6-1.4,1.4-1.4
						C149.9,284.7,150.6,285.3,150.5,286.1z"/>
				</g>
				<g>
					<path class="st10" d="M156.2,286.2c0,0.8-0.6,1.4-1.4,1.4s-1.4-0.6-1.4-1.4c0-0.8,0.6-1.4,1.4-1.4
						C155.6,284.7,156.2,285.4,156.2,286.2z"/>
				</g>
				<g>
					
						<ellipse transform="matrix(5.794118e-03 -1 1 5.794118e-03 -126.6055 445.0246)" class="st10" cx="160.5" cy="286.2" rx="1.4" ry="1.4"/>
				</g>
				<g>
					<path class="st10" d="M167.6,286.2c0,0.8-0.6,1.4-1.4,1.4c-0.8,0-1.4-0.6-1.4-1.4c0-0.8,0.6-1.4,1.4-1.4
						C167,284.8,167.6,285.4,167.6,286.2z"/>
				</g>
				<g>
					
						<ellipse transform="matrix(5.794118e-03 -1 1 5.794118e-03 -115.3662 456.4689)" class="st10" cx="171.9" cy="286.3" rx="1.4" ry="1.4"/>
				</g>
				<g>
					<path class="st10" d="M179,286.3c0,0.8-0.6,1.4-1.4,1.4c-0.8,0-1.4-0.6-1.4-1.4s0.6-1.4,1.4-1.4S179,285.5,179,286.3z"/>
				</g>
				<g>
					
						<ellipse transform="matrix(5.794118e-03 -1 1 5.794118e-03 -104.1269 467.9132)" class="st10" cx="183.3" cy="286.3" rx="1.4" ry="1.4"/>
				</g>
				<g>
					<path class="st10" d="M190.4,286.4c0,0.8-0.6,1.4-1.4,1.4c-0.8,0-1.4-0.6-1.4-1.4s0.6-1.4,1.4-1.4S190.4,285.6,190.4,286.4z"/>
				</g>
				<g>
					<path class="st10" d="M196,286.4c0,0.8-0.6,1.4-1.4,1.4c-0.8,0-1.4-0.6-1.4-1.4s0.6-1.4,1.4-1.4
						C195.4,285,196.1,285.6,196,286.4z"/>
				</g>
				<g>
					<path class="st10" d="M201.7,286.4c0,0.8-0.6,1.4-1.4,1.4c-0.8,0-1.4-0.6-1.4-1.4s0.6-1.4,1.4-1.4
						C201.1,285,201.7,285.7,201.7,286.4z"/>
				</g>
				<g>
					<path class="st10" d="M207.4,286.5c0,0.8-0.6,1.4-1.4,1.4s-1.4-0.6-1.4-1.4c0-0.8,0.6-1.4,1.4-1.4
						C206.8,285,207.4,285.7,207.4,286.5z"/>
				</g>
				<g>
					<path class="st10" d="M213.1,286.5c0,0.8-0.6,1.4-1.4,1.4c-0.8,0-1.4-0.6-1.4-1.4c0-0.8,0.6-1.4,1.4-1.4
						C212.5,285.1,213.1,285.7,213.1,286.5z"/>
				</g>
				<g>
					<path class="st10" d="M218.8,286.5c0,0.8-0.6,1.4-1.4,1.4c-0.8,0-1.4-0.6-1.4-1.4c0-0.8,0.6-1.4,1.4-1.4
						C218.2,285.1,218.8,285.8,218.8,286.5z"/>
				</g>
				<g>
					
						<ellipse transform="matrix(5.812587e-03 -1 1 5.812587e-03 -64.7932 507.9629)" class="st10" cx="223.1" cy="286.6" rx="1.4" ry="1.4"/>
				</g>
				<g>
					<path class="st10" d="M230.2,286.6c0,0.8-0.6,1.4-1.4,1.4c-0.8,0-1.4-0.6-1.4-1.4c0-0.8,0.6-1.4,1.4-1.4
						S230.2,285.8,230.2,286.6z"/>
				</g>
				<g>
					<path class="st10" d="M235.9,286.6c0,0.8-0.6,1.4-1.4,1.4c-0.8,0-1.4-0.6-1.4-1.4s0.6-1.4,1.4-1.4
						C235.2,285.2,235.9,285.9,235.9,286.6z"/>
				</g>
				<g>
					<path class="st10" d="M241.5,286.7c0,0.8-0.6,1.4-1.4,1.4c-0.8,0-1.4-0.6-1.4-1.4c0-0.8,0.6-1.4,1.4-1.4
						C240.9,285.3,241.6,285.9,241.5,286.7z"/>
				</g>
				<g>
					<path class="st10" d="M247.2,286.7c0,0.8-0.6,1.4-1.4,1.4c-0.8,0-1.4-0.6-1.4-1.4c0-0.8,0.6-1.4,1.4-1.4
						C246.6,285.3,247.2,285.9,247.2,286.7z"/>
				</g>
				<g>
					<path class="st10" d="M252.9,286.8c0,0.8-0.6,1.4-1.4,1.4s-1.4-0.6-1.4-1.4c0-0.8,0.6-1.4,1.4-1.4S252.9,286,252.9,286.8z"/>
				</g>
				<g>
					<path class="st10" d="M258.6,286.8c0,0.8-0.6,1.4-1.4,1.4s-1.4-0.6-1.4-1.4c0-0.8,0.6-1.4,1.4-1.4S258.6,286,258.6,286.8z"/>
				</g>
				<g>
					<path class="st10" d="M264.3,286.8c0,0.8-0.6,1.4-1.4,1.4s-1.4-0.6-1.4-1.4s0.6-1.4,1.4-1.4C263.7,285.4,264.3,286,264.3,286.8z
						"/>
				</g>
				<g>
					<path class="st10" d="M270,286.9c0,0.8-0.6,1.4-1.4,1.4c-0.8,0-1.4-0.6-1.4-1.4c0-0.8,0.6-1.4,1.4-1.4
						C269.4,285.4,270,286.1,270,286.9z"/>
				</g>
				<g>
					<path class="st10" d="M275.7,286.9c0,0.8-0.6,1.4-1.4,1.4c-0.8,0-1.4-0.6-1.4-1.4c0-0.8,0.6-1.4,1.4-1.4
						S275.7,286.1,275.7,286.9z"/>
				</g>
				<g>
					<path class="st10" d="M281.4,286.9c0,0.8-0.6,1.4-1.4,1.4s-1.4-0.6-1.4-1.4c0-0.8,0.6-1.4,1.4-1.4S281.4,286.1,281.4,286.9z"/>
				</g>
				<g>
					<path class="st10" d="M287.1,287c0,0.8-0.6,1.4-1.4,1.4s-1.4-0.6-1.4-1.4c0-0.8,0.6-1.4,1.4-1.4S287.1,286.2,287.1,287z"/>
				</g>
				<g>
					<path class="st10" d="M292.7,287c0,0.8-0.6,1.4-1.4,1.4c-0.8,0-1.4-0.6-1.4-1.4c0-0.8,0.6-1.4,1.4-1.4
						C292.1,285.6,292.7,286.2,292.7,287z"/>
				</g>
				<g>
					<path class="st10" d="M298.4,287c0,0.8-0.6,1.4-1.4,1.4c-0.8,0-1.4-0.6-1.4-1.4c0-0.8,0.6-1.4,1.4-1.4
						C297.8,285.6,298.4,286.2,298.4,287z"/>
				</g>
				<g>
					<path class="st10" d="M304.1,287.1c0,0.8-0.6,1.4-1.4,1.4s-1.4-0.6-1.4-1.4c0-0.8,0.6-1.4,1.4-1.4
						C303.5,285.6,304.1,286.3,304.1,287.1z"/>
				</g>
				<g>
					<path class="st10" d="M309.8,287.1c0,0.8-0.6,1.4-1.4,1.4s-1.4-0.6-1.4-1.4c0-0.8,0.6-1.4,1.4-1.4S309.8,286.3,309.8,287.1z"/>
				</g>
				<g>
					<path class="st10" d="M315.5,287.1c0,0.8-0.6,1.4-1.4,1.4s-1.4-0.6-1.4-1.4c0-0.8,0.6-1.4,1.4-1.4
						C314.9,285.7,315.5,286.4,315.5,287.1z"/>
				</g>
				<g>
					<path class="st10" d="M321.2,287.2c0,0.8-0.6,1.4-1.4,1.4c-0.8,0-1.4-0.6-1.4-1.4c0-0.8,0.6-1.4,1.4-1.4
						C320.5,285.7,321.2,286.4,321.2,287.2z"/>
				</g>
				<g>
					<path class="st10" d="M326.9,287.2c0,0.8-0.6,1.4-1.4,1.4c-0.8,0-1.4-0.6-1.4-1.4c0-0.8,0.6-1.4,1.4-1.4
						S326.9,286.4,326.9,287.2z"/>
				</g>
				<g>
					<path class="st10" d="M332.6,287.2c0,0.8-0.6,1.4-1.4,1.4s-1.4-0.6-1.4-1.4c0-0.8,0.6-1.4,1.4-1.4S332.6,286.5,332.6,287.2z"/>
				</g>
				<g>
					<path class="st10" d="M338.2,287.3c0,0.8-0.6,1.4-1.4,1.4s-1.4-0.6-1.4-1.4c0-0.8,0.6-1.4,1.4-1.4S338.2,286.5,338.2,287.3z"/>
				</g>
				<g>
					<path class="st10" d="M343.9,287.3c0,0.8-0.6,1.4-1.4,1.4c-0.8,0-1.4-0.6-1.4-1.4c0-0.8,0.6-1.4,1.4-1.4
						C343.3,285.9,343.9,286.5,343.9,287.3z"/>
				</g>
				<g>
					<path class="st10" d="M349.6,287.3c0,0.8-0.6,1.4-1.4,1.4c-0.8,0-1.4-0.6-1.4-1.4c0-0.8,0.6-1.4,1.4-1.4
						C349,285.9,349.6,286.6,349.6,287.3z"/>
				</g>
				<g>
					<path class="st10" d="M355.3,287.4c0,0.8-0.6,1.4-1.4,1.4s-1.4-0.6-1.4-1.4c0-0.8,0.6-1.4,1.4-1.4S355.3,286.6,355.3,287.4z"/>
				</g>
				<g>
					<path class="st10" d="M361,287.4c0,0.8-0.6,1.4-1.4,1.4s-1.4-0.6-1.4-1.4c0-0.8,0.6-1.4,1.4-1.4S361,286.6,361,287.4z"/>
				</g>
				<g>
					<path class="st10" d="M366.7,287.4c0,0.8-0.6,1.4-1.4,1.4s-1.4-0.6-1.4-1.4s0.6-1.4,1.4-1.4C366,286,366.7,286.7,366.7,287.4z"
						/>
				</g>
				<g>
					<path class="st10" d="M372.4,287.5c0,0.8-0.6,1.4-1.4,1.4c-0.8,0-1.4-0.6-1.4-1.4c0-0.8,0.6-1.4,1.4-1.4
						C371.7,286.1,372.4,286.7,372.4,287.5z"/>
				</g>
				<g>
					<path class="st10" d="M378.1,287.5c0,0.8-0.6,1.4-1.4,1.4c-0.8,0-1.4-0.6-1.4-1.4c0-0.8,0.6-1.4,1.4-1.4
						S378.1,286.7,378.1,287.5z"/>
				</g>
				<g>
					<line class="st12" x1="382.4" y1="280.1" x2="382.3" y2="295"/>
				</g>
			</g>
		</g>
	</g>
</g>
<g id="アイコン">
	<g>
		<rect x="331.4" y="322.9" class="st5" width="2.8" height="2.8"/>
		<rect x="337.1" y="322.9" class="st5" width="2.8" height="2.8"/>
		<rect x="334.2" y="325.7" class="st5" width="2.8" height="2.8"/>
		<rect x="339.9" y="325.7" class="st5" width="2.8" height="2.8"/>
		<rect x="334.2" y="331.4" class="st5" width="2.8" height="2.8"/>
		<rect x="339.9" y="331.4" class="st5" width="2.8" height="2.8"/>
		<rect x="342.7" y="322.9" class="st5" width="2.8" height="2.8"/>
		<rect x="339.9" y="322.9" class="st6" width="2.8" height="2.8"/>
		<rect x="334.2" y="322.9" class="st6" width="2.8" height="2.8"/>
		<rect x="331.4" y="325.7" class="st6" width="2.8" height="2.8"/>
		<rect x="337.1" y="325.7" class="st6" width="2.8" height="2.8"/>
		<rect x="342.7" y="325.7" class="st6" width="2.8" height="2.8"/>
		<rect x="339.9" y="328.5" class="st6" width="2.8" height="2.8"/>
		<rect x="334.2" y="328.5" class="st6" width="2.8" height="2.8"/>
		<rect x="339.9" y="334.2" class="st6" width="2.8" height="2.8"/>
		<rect x="334.2" y="334.2" class="st6" width="2.8" height="2.8"/>
		<rect x="331.4" y="331.4" class="st6" width="2.8" height="2.8"/>
		<rect x="337.1" y="331.4" class="st6" width="2.8" height="2.8"/>
		<rect x="342.7" y="331.4" class="st6" width="2.8" height="2.8"/>
		<rect x="331.4" y="328.5" class="st5" width="2.8" height="2.8"/>
		<rect x="337.1" y="328.5" class="st5" width="2.8" height="2.8"/>
		<rect x="337.1" y="334.2" class="st5" width="2.8" height="2.8"/>
		<rect x="342.7" y="328.5" class="st5" width="2.8" height="2.8"/>
		<rect x="331.4" y="334.2" class="st5" width="2.8" height="2.8"/>
		<rect x="342.7" y="334.2" class="st5" width="2.8" height="2.8"/>
	</g>
	<g>
		<defs>
			<rect id="SVGID_1_" x="304.8" y="325.7" width="22.3" height="8.5"/>
		</defs>
		<clipPath id="SVGID_00000160167392251705775710000009804585467691050372_">
			<use xlink:href="#SVGID_1_"  style="overflow:visible;"/>
		</clipPath>
		<g style="clip-path:url(#SVGID_00000160167392251705775710000009804585467691050372_);">
			<polygon class="st14" points="325.8,337 323,337 317.3,329.9 323,322.9 325.8,322.9 320.2,329.9 			"/>
			<polygon class="st15" points="320.2,337 317.3,337 311.7,329.9 317.3,322.9 320.2,322.9 314.5,329.9 			"/>
			<polygon class="st16" points="314.5,337 311.7,337 306,329.9 311.7,322.9 314.5,322.9 308.8,329.9 			"/>
		</g>
	</g>
</g>
</svg>
