<?xml version="1.0" encoding="utf-8"?>
<!-- Generator: Adobe Illustrator 26.5.0, SVG Export Plug-In . SVG Version: 6.00 Build 0)  -->
<svg version="1.1" xmlns="http://www.w3.org/2000/svg" xmlns:xlink="http://www.w3.org/1999/xlink" x="0px" y="0px"
	 viewBox="0 0 610.6 333.6" style="enable-background:new 0 0 610.6 333.6;" xml:space="preserve">
<style type="text/css">
	.st0{fill:none;stroke:#646464;stroke-width:14.1732;stroke-linecap:round;stroke-linejoin:round;stroke-miterlimit:10;}
	.st1{fill:none;stroke:#FFD449;stroke-width:2.8346;stroke-miterlimit:10;}
	.st2{fill:none;stroke:#54C6EB;stroke-width:2.8346;stroke-miterlimit:10;}
	.st3{fill:none;stroke:#F4442E;stroke-width:2.8346;stroke-miterlimit:10;}
	.st4{fill:none;stroke:#FFFFFF;stroke-width:2.126;}
	.st5{fill:#646464;}
	.st6{fill:#FFFFFF;}
	.st7{fill:none;stroke:#646464;stroke-width:2.8346;stroke-miterlimit:10;}
	.st8{fill:#FF3380;}
	.st9{fill:none;stroke:#FF3380;stroke-width:1.9843;stroke-miterlimit:10;}
	.st10{fill:#09BC8A;}
	.st11{fill:none;stroke:#09BC8A;stroke-width:1.9843;stroke-miterlimit:10;}
	.st12{fill:none;stroke:#09BC8A;stroke-width:2.2097;stroke-miterlimit:10;}
	.st13{fill:none;stroke:#646464;stroke-width:0.7087;stroke-miterlimit:10;}
	.st14{fill:none;stroke:#F4442E;stroke-width:5.6693;stroke-miterlimit:10;}
	.st15{fill:none;stroke:#54C6EB;stroke-width:5.6693;stroke-miterlimit:10;}
	.st16{fill:none;stroke:#FFD449;stroke-width:5.6693;stroke-miterlimit:10;}
	.st17{fill:none;stroke:#09BC8A;stroke-width:2.8346;stroke-miterlimit:10;}
	.st18{clip-path:url(#SVGID_00000176724608870033538480000006893627680905905084_);}
	.st19{fill:#F4442E;}
	.st20{fill:#54C6EB;}
	.st21{fill:#FFD449;}
</style>
<g id="コース">
	<path class="st0" d="M265.4,178c0,0,195.2,113.9,198.7,115.6s6.4,2.3,8.8-2.3c2.3-4.7,28.4-51.2,29.9-53.6c1.5-2.3,3.5-3.2-2.3-7.3
		c-5.9-4.1-53.3-34-63.5-39.2c-10.2-5.3-85.5-47.4-87.2-48.3c-1.8-0.9-2.3-1.5-5,2.3c-2.6,3.8-19.9,30.7-21.1,33.7
		c-1.2,2.9-4.1,3.8-7.3,2c-3.2-1.8-23.7-14-28.1-16.1c-4.4-2-24-9.1-26.6-10.2c-2.6-1.2-6.7-1.2-8.8,2.9c-2,4.1-1.5,7-6.1,5.6
		c-4.7-1.5-61.5-17.9-65.9-18.7c-4.4-0.9-6-1-7.6-0.8c-1.6,0.1-4.7-3.1-1.6-7.1c0,0,19.2-27.8,20.1-29.1c0.9-1.3,1.5-3.8,0.2-5.2
		c-1.3-1.3-1.3-3.1-1.4-4c-0.1-0.9-0.2-2.7-1.5-4.2c-1.3-1.4-2.5-3.7-3.4-4.5c-0.9-0.8-1.6-4.1,0.1-5.8c1.8-1.8,3.5-4.9,4.2-5.9
		c0.7-1,1.3-3.2-0.4-4.6c-1.8-1.4-19.3-13.5-31.6-19.9c-12.3-6.4-32.6-14.7-34.7-15.6c-2.1-0.9-8.8-1.5-12.6-0.2s-30.7,11.3-32.7,12
		c-2,0.7-4,1.4-5.8,3.3C70,54.6,55.9,68,52.8,70.3c-3.1,2.3-12.1,8.5-13.6,9.3c-1.5,0.9-3,0.9-2.3,4.7s6.7,32.9,7.4,39.3
		c0.7,6.4,3.5,22.9,3.7,25.5c0.2,2.5,0.7,7.1,6.6,6.1s25.6-5.2,28.9-5.6s9.9-2.2,19.3,0s28,6.5,31.7,7.2c3.7,0.8,10.9,0,14.9-1.6
		c4.1-1.6,13.5-4.8,15.5-5.6c2-0.8,7.7-2,12.5-0.7c4.8,1.3,58,15.7,61.5,16.8c3.5,1.1,9.4,3.1,11.9,4.2
		C253.1,171.1,263.9,177.3,265.4,178z"/>
</g>
<g id="セクター">
	<path class="st1" d="M47.9,148.1c0.1,0.4,0.1,0.8,0.1,1c0.2,2.5,0.7,7.1,6.6,6.1s25.6-5.2,28.9-5.6s9.9-2.2,19.3,0s28,6.5,31.7,7.2
		c3.7,0.8,10.9,0,14.9-1.6c4.1-1.6,13.5-4.8,15.5-5.6c2-0.8,7.7-2,12.5-0.7c4.8,1.3,58,15.7,61.5,16.8c3.5,1.1,9.4,3.1,11.9,4.2
		c2.4,1.1,13.2,7.3,14.7,8c0,0,76,44.3,134,78.1"/>
	<path class="st2" d="M266.6,156.5c-2.4-0.9-4.3-1.6-5-1.9c-2.6-1.2-6.7-1.2-8.8,2.9c-2,4.1-1.5,7-6.1,5.6
		c-4.7-1.5-61.5-17.9-65.9-18.7c-4.4-0.9-6-1-7.6-0.8c-1.6,0.1-4.7-3.1-1.6-7.1c0,0,19.2-27.8,20.1-29.1c0.9-1.3,1.5-3.8,0.2-5.2
		c-1.3-1.3-1.3-3.1-1.4-4c-0.1-0.9-0.2-2.7-1.5-4.2c-1.3-1.4-2.5-3.7-3.4-4.5c-0.9-0.8-1.6-4.1,0.1-5.8c1.8-1.8,3.5-4.9,4.2-5.9
		c0.7-1,1.3-3.2-0.4-4.6c-1.8-1.4-19.3-13.5-31.6-19.9c-12.3-6.4-32.6-14.7-34.7-15.6c-2.1-0.9-8.8-1.5-12.6-0.2s-30.7,11.3-32.7,12
		c-2,0.7-4,1.4-5.8,3.3C70,54.6,55.9,68,52.8,70.3c-3.1,2.3-12.1,8.5-13.6,9.3c-1.5,0.9-3,0.9-2.3,4.7s6.7,32.9,7.4,39.3
		c0.6,5.8,3,20.1,3.6,24.5"/>
	<path class="st3" d="M399.4,256.1c35,20.3,63.4,36.9,64.7,37.5c3.5,1.8,6.4,2.3,8.8-2.3c2.3-4.7,28.4-51.2,29.9-53.6
		c1.5-2.3,3.5-3.2-2.3-7.3c-5.9-4.1-53.3-34-63.5-39.2c-10.2-5.3-85.5-47.4-87.2-48.3c-1.8-0.9-2.3-1.5-5,2.3
		c-2.6,3.8-19.9,30.7-21.1,33.7c-1.2,2.9-4.1,3.8-7.3,2c-3.2-1.8-23.7-14-28.1-16.1c-3.2-1.5-14.8-5.7-21.6-8.3"/>
</g>
<g id="DRS-ZONES">

  <!-- DRS Zone 1 — visible white for testing -->
  <path id="drs-1" class="drs-zone"
    fill="none" stroke="none" opacity="0"
    d="M293.3,210.5
       L298.1,213.3 L302,215.6   L305.8,217.8 L309.7,220.1
       L313.5,222.4 L317.4,224.6 L321.2,226.9 L325.1,229.2
       L328.9,231.4 L332.7,233.7 L336.6,236   L340.4,238.2
       L344.3,240.5 L348.1,242.7 L352,245     L355.8,247.3
       L359.7,249.5 L363.5,251.8 L367.4,254.1 L371.2,256.3
       L375.1,258.6 L378.9,260.9 L382.8,263.1 L386.6,265.4
       L390.5,267.7 L394.3,269.9 L398.2,272.2 L402,274.5
       L405.9,276.7 L409.7,279   L413.6,281.3 L417.4,283.5
       L421.3,285.8 L425.1,288.1 L428.9,290.3 L432.8,292.6
       L436.6,294.9 L440.5,297.1 L444.3,299.4 L448.2,301.7
       L451.1,303.4"/>

  <!-- DRS Zone 2 — visible white for testing (dots run right→left, corrected order) -->
  <path id="drs-2" class="drs-zone"
    fill="none" stroke="none" opacity="0"
    d="M503.7,215.7 
       L499,212.7   L495.2,210.4 L491.5,208   L487.7,205.7
       L483.9,203.3 L480.1,200.9 L476.3,198.6 L472.6,196.2
       L468.8,193.9 L465,191.5   L461.2,189.2 L457.4,186.9
       L453.6,184.5 L449.8,182.2 L446,179.9   L442.2,177.6
       L438.4,175.3 L434.6,173   L430.7,170.9 L426.8,168.7
       L422.9,166.6 L419,164.4   L415.1,162.3 L411.2,160.1
       L407.3,158   L403.4,155.8 L399.5,153.7 L395.6,151.5
       L391.7,149.3 L387.8,147.2 L383.9,145   L380,142.9
       L376.1,140.7 L372.2,138.6 L368.3,136.4 L364.4,134.3
       L360.5,132.1 L357.6,130.5"/>
</g>
<g id="コーナー番号">
	<g>
		<g>
			<circle class="st4" cx="469.1" cy="317" r="8.5"/>
			<circle class="st5" cx="469.1" cy="317" r="8.5"/>
		</g>
		<g>
			<path class="st6" d="M467.4,320.8v-1.6h1v-4.5h-0.9v-1.6h2.6v6.1h0.9v1.6H467.4z"/>
		</g>
	</g>
	<g>
		<g>
			<circle class="st4" cx="524.5" cy="231" r="8.5"/>
			<circle class="st5" cx="524.5" cy="231" r="8.5"/>
		</g>
		<g>
			<path class="st6" d="M522.5,234.9v-2.6c0-0.6,0.1-1,0.6-1.2l1.9-0.8v-1.6l-0.1-0.1h-0.5l-0.1,0.1v1.1h-1.7v-1.3
				c0-0.8,0.4-1.1,0.8-1.3h2.5c0.5,0.2,0.8,0.5,0.8,1.3v1.9c0,0.6-0.1,0.9-0.6,1.2l-1.9,0.8v0.9h2.4v1.6H522.5z"/>
		</g>
	</g>
	<g>
		<g>
			<circle class="st4" cx="341.8" cy="123.9" r="8.5"/>
			<circle class="st5" cx="341.8" cy="123.9" r="8.5"/>
		</g>
		<g>
			<path class="st6" d="M340.6,127.8c-0.5-0.2-0.8-0.5-0.8-1.3v-1h1.7v0.8l0.1,0.1h0.5l0.1-0.1v-1.6l-0.1-0.1h-1v-1.3h1l0.1-0.1
				v-1.5l-0.1-0.1h-0.5l-0.1,0.1v0.8h-1.7v-1c0-0.8,0.4-1.1,0.8-1.3h2.5c0.5,0.2,0.8,0.5,0.8,1.3v1.3c0,0.6-0.2,0.9-0.6,1.2
				c0.4,0.3,0.6,0.6,0.6,1.2v1.4c0,0.8-0.4,1.1-0.8,1.3H340.6z"/>
		</g>
	</g>
	<g>
		<g>
			<circle class="st4" cx="340.5" cy="189.5" r="8.5"/>
			<circle class="st5" cx="340.5" cy="189.5" r="8.5"/>
		</g>
		<g>
			<path class="st6" d="M342.1,191.9v1.5h-1.7v-1.5h-2.2v-1.5l1.6-4.7h1.7l-1.6,4.6h0.5v-0.4l0.4-1h1.3v1.4h0.5v1.6H342.1z"/>
		</g>
	</g>
	<g>
		<g>
			<circle class="st4" cx="263.8" cy="132.4" r="8.5"/>
			<circle class="st5" cx="263.8" cy="132.4" r="8.5"/>
		</g>
		<g>
			<path class="st6" d="M262.6,136.2c-0.5-0.2-0.8-0.5-0.8-1.3v-1h1.6v0.8l0.1,0.1h0.6l0.1-0.1v-2.1l-0.1-0.1h-0.6l-0.1,0.1v0.4
				h-1.6v-4.5h4v1.5h-2.4v1.6l0.4-0.4h1.3c0.5,0.2,0.8,0.5,0.8,1.3v2.4c0,0.8-0.4,1.1-0.8,1.3H262.6z"/>
		</g>
	</g>
	<g>
		<g>
			<circle class="st4" cx="241.1" cy="141.5" r="8.5"/>
			<circle class="st5" cx="241.1" cy="141.5" r="8.5"/>
		</g>
		<g>
			<path class="st6" d="M242.3,145.3h-2.5c-0.5-0.2-0.8-0.5-0.8-1.3V139c0-0.8,0.4-1.1,0.8-1.3h2.5c0.5,0.2,0.8,0.5,0.8,1.3v1h-1.7
				v-0.8l-0.1-0.1h-0.5l-0.1,0.1v1.8l0.3-0.3h1.3c0.5,0.2,0.8,0.5,0.8,1.3v2.2C243.2,144.9,242.8,145.2,242.3,145.3z M241.4,144
				l0.1-0.1V142l-0.1-0.1h-0.5l-0.1,0.1v1.8l0.1,0.1H241.4z"/>
		</g>
	</g>
	<g>
		<g>
			<circle class="st4" cx="156.3" cy="127.6" r="8.5"/>
			<circle class="st5" cx="156.3" cy="127.6" r="8.5"/>
		</g>
		<g>
			<path class="st6" d="M154.4,131.5l2.1-6.2h-2.4v-1.5h4.1v1.2l-2.1,6.5H154.4z"/>
		</g>
	</g>
	<g>
		<g>
			<circle class="st4" cx="211.4" cy="112.1" r="8.5"/>
			<circle class="st5" cx="211.4" cy="112.1" r="8.5"/>
		</g>
		<g>
			<path class="st6" d="M210.2,116c-0.5-0.2-0.8-0.5-0.8-1.3v-1.4c0-0.6,0.2-0.9,0.6-1.2c-0.4-0.3-0.6-0.6-0.6-1.2v-1.3
				c0-0.8,0.4-1.1,0.8-1.3h2.5c0.5,0.2,0.8,0.5,0.8,1.3v1.3c0,0.6-0.2,0.9-0.6,1.2c0.4,0.3,0.6,0.6,0.6,1.2v1.4
				c0,0.8-0.4,1.1-0.8,1.3H210.2z M211.1,111.3l0.1,0.1h0.5l0.1-0.1v-1.5l-0.1-0.1h-0.5l-0.1,0.1V111.3z M211.8,114.5v-1.6l-0.1-0.1
				h-0.5l-0.1,0.1v1.6l0.1,0.1h0.5L211.8,114.5z"/>
		</g>
	</g>
	<g>
		<g>
			<circle class="st4" cx="167.4" cy="103.8" r="8.5"/>
			<circle class="st5" cx="167.4" cy="103.8" r="8.5"/>
		</g>
		<g>
			<path class="st6" d="M166.1,107.7c-0.5-0.2-0.8-0.5-0.8-1.3v-1h1.7v0.8l0.1,0.1h0.5l0.1-0.1v-1.8l-0.3,0.3h-1.3
				c-0.5-0.2-0.8-0.5-0.8-1.3v-2.2c0-0.8,0.4-1.1,0.8-1.3h2.5c0.5,0.2,0.8,0.5,0.8,1.3v5.1c0,0.8-0.4,1.1-0.8,1.3H166.1z
				 M167.7,103.4v-1.8l-0.1-0.1h-0.5l-0.1,0.1v1.8l0.1,0.1h0.5L167.7,103.4z"/>
		</g>
	</g>
	<g>
		<g>
			<circle class="st4" cx="207.5" cy="86.9" r="8.5"/>
			<circle class="st5" cx="207.5" cy="86.9" r="8.5"/>
		</g>
		<g>
			<path class="st6" d="M203.4,90.8v-1.6h1v-4.5h-0.9v-1.6h2.6v6.1h0.9v1.6H203.4z"/>
			<path class="st6" d="M211.1,90.8h-2.5c-0.5-0.2-0.8-0.5-0.8-1.3v-5.1c0-0.8,0.4-1.1,0.8-1.3h2.5c0.5,0.2,0.8,0.5,0.8,1.3v5.1
				C211.9,90.3,211.5,90.6,211.1,90.8z M210.2,84.6l-0.1-0.1h-0.5l-0.1,0.1v4.7l0.1,0.1h0.5l0.1-0.1V84.6z"/>
		</g>
	</g>
	<g>
		<g>
			<circle class="st4" cx="167" cy="81.6" r="8.5"/>
			<circle class="st5" cx="167" cy="81.6" r="8.5"/>
		</g>
		<g>
			<path class="st6" d="M163,85.5v-1.6h1v-4.5h-0.9v-1.6h2.6v6.1h0.9v1.6H163z"/>
			<path class="st6" d="M167.7,85.5v-1.6h1v-4.5h-0.9v-1.6h2.6v6.1h0.9v1.6H167.7z"/>
		</g>
	</g>
	<g>
		<g>
			<circle class="st4" cx="205.5" cy="62.4" r="8.5"/>
			<circle class="st5" cx="205.5" cy="62.4" r="8.5"/>
		</g>
		<g>
			<path class="st6" d="M201.5,66.3v-1.6h1v-4.5h-0.9v-1.6h2.6v6.1h0.9v1.6H201.5z"/>
			<path class="st6" d="M205.8,66.3v-2.6c0-0.6,0.1-1,0.6-1.2l1.9-0.8v-1.6l-0.1-0.1h-0.5l-0.1,0.1v1.1h-1.7v-1.3
				c0-0.8,0.4-1.1,0.8-1.3h2.5c0.5,0.2,0.8,0.5,0.8,1.3v1.9c0,0.6-0.1,0.9-0.6,1.2l-1.9,0.8v0.9h2.4v1.6H205.8z"/>
		</g>
	</g>
	<g>
		<g>
			<circle class="st4" cx="118" cy="16.7" r="8.5"/>
			<circle class="st5" cx="118" cy="16.7" r="8.5"/>
		</g>
		<g>
			<path class="st6" d="M113.9,20.5v-1.6h1v-4.5H114v-1.6h2.6v6.1h0.9v1.6H113.9z"/>
			<path class="st6" d="M119.1,20.5c-0.5-0.2-0.8-0.5-0.8-1.3v-1h1.7V19l0.1,0.1h0.5l0.1-0.1v-1.6l-0.1-0.1h-1V16h1l0.1-0.1v-1.5
				l-0.1-0.1H120l-0.1,0.1v0.8h-1.7v-1c0-0.8,0.4-1.1,0.8-1.3h2.5c0.5,0.2,0.8,0.5,0.8,1.3v1.3c0,0.6-0.2,0.9-0.6,1.2
				c0.4,0.3,0.6,0.6,0.6,1.2v1.4c0,0.8-0.4,1.1-0.8,1.3H119.1z"/>
		</g>
	</g>
	<g>
		<g>
			<circle class="st4" cx="62.5" cy="34.5" r="8.5"/>
			<circle class="st5" cx="62.5" cy="34.5" r="8.5"/>
		</g>
		<g>
			<path class="st6" d="M58.4,38.4v-1.6h1v-4.5h-0.9v-1.6h2.6v6.1h0.9v1.6H58.4z"/>
			<path class="st6" d="M66.5,36.9v1.5h-1.7v-1.5h-2.2v-1.5l1.6-4.7h1.7l-1.6,4.6h0.5v-0.4l0.4-1h1.3v1.4H67v1.6H66.5z"/>
		</g>
	</g>
	<g>
		<g>
			<circle class="st4" cx="140.2" cy="178.4" r="8.5"/>
			<circle class="st5" cx="140.2" cy="178.4" r="8.5"/>
		</g>
		<g>
			<path class="st6" d="M136.1,182.3v-1.6h1v-4.5h-0.9v-1.6h2.6v6.1h0.9v1.6H136.1z"/>
			<path class="st6" d="M141.3,182.3c-0.5-0.2-0.8-0.5-0.8-1.3v-1.4c0-0.6,0.2-0.9,0.6-1.2c-0.4-0.3-0.6-0.6-0.6-1.2v-1.3
				c0-0.8,0.4-1.1,0.8-1.3h2.5c0.5,0.2,0.8,0.5,0.8,1.3v1.3c0,0.6-0.2,0.9-0.6,1.2c0.4,0.3,0.6,0.6,0.6,1.2v1.4
				c0,0.8-0.4,1.1-0.8,1.3H141.3z M142.1,177.6l0.1,0.1h0.5l0.1-0.1v-1.5l-0.1-0.1h-0.5l-0.1,0.1V177.6z M142.9,180.8v-1.6l-0.1-0.1
				h-0.5l-0.1,0.1v1.6l0.1,0.1h0.5L142.9,180.8z"/>
		</g>
	</g>
	<g>
		<g>
			<circle class="st4" cx="173.3" cy="168.2" r="8.5"/>
			<circle class="st5" cx="173.3" cy="168.2" r="8.5"/>
		</g>
		<g>
			<path class="st6" d="M169.2,172.1v-1.6h1V166h-0.9v-1.6h2.6v6.1h0.9v1.6H169.2z"/>
			<path class="st6" d="M174.4,172.1c-0.5-0.2-0.8-0.5-0.8-1.3v-1h1.7v0.8l0.1,0.1h0.5l0.1-0.1v-1.8l-0.3,0.3h-1.3
				c-0.5-0.2-0.8-0.5-0.8-1.3v-2.2c0-0.8,0.4-1.1,0.8-1.3h2.5c0.5,0.2,0.8,0.5,0.8,1.3v5.1c0,0.8-0.4,1.1-0.8,1.3H174.4z M176,167.8
				v-1.8l-0.1-0.1h-0.5l-0.1,0.1v1.8l0.1,0.1h0.5L176,167.8z"/>
		</g>
	</g>
	<g>
		<g>
			<circle class="st4" cx="241.8" cy="188.1" r="8.5"/>
			<circle class="st5" cx="241.8" cy="188.1" r="8.5"/>
		</g>
		<g>
			<path class="st6" d="M237.3,192v-2.6c0-0.6,0.1-1,0.6-1.2l1.9-0.8v-1.6l-0.1-0.1h-0.5l-0.1,0.1v1.1h-1.7v-1.3
				c0-0.8,0.4-1.1,0.8-1.3h2.5c0.5,0.2,0.8,0.5,0.8,1.3v1.9c0,0.6-0.1,0.9-0.6,1.2l-1.9,0.8v0.9h2.4v1.6H237.3z"/>
			<path class="st6" d="M245.3,192h-2.5c-0.5-0.2-0.8-0.5-0.8-1.3v-5.1c0-0.8,0.4-1.1,0.8-1.3h2.5c0.5,0.2,0.8,0.5,0.8,1.3v5.1
				C246.2,191.5,245.8,191.8,245.3,192z M244.5,185.8l-0.1-0.1h-0.5l-0.1,0.1v4.7l0.1,0.1h0.5l0.1-0.1V185.8z"/>
		</g>
	</g>
	<g>
		<g>
			<circle class="st4" cx="16.7" cy="78.1" r="8.5"/>
			<circle class="st5" cx="16.7" cy="78.1" r="8.5"/>
		</g>
		<g>
			<path class="st6" d="M12.6,82v-1.6h1v-4.5h-0.9v-1.6h2.6v6.1h0.9V82H12.6z"/>
			<path class="st6" d="M17.7,82c-0.5-0.2-0.8-0.5-0.8-1.3v-1h1.6v0.8l0.1,0.1h0.6l0.1-0.1v-2.1l-0.1-0.1h-0.6l-0.1,0.1v0.4h-1.6
				v-4.5h4v1.5h-2.4v1.6l0.4-0.4h1.3c0.5,0.2,0.8,0.5,0.8,1.3v2.4c0,0.8-0.4,1.1-0.8,1.3H17.7z"/>
		</g>
	</g>
	<g>
		<g>
			<circle class="st4" cx="41.4" cy="172.2" r="8.5"/>
			<circle class="st5" cx="41.4" cy="172.2" r="8.5"/>
		</g>
		<g>
			<path class="st6" d="M37.4,176.1v-1.6h1V170h-0.9v-1.6h2.6v6.1h0.9v1.6H37.4z"/>
			<path class="st6" d="M45,176.1h-2.5c-0.5-0.2-0.8-0.5-0.8-1.3v-5.1c0-0.8,0.4-1.1,0.8-1.3H45c0.5,0.2,0.8,0.5,0.8,1.3v1h-1.7
				v-0.8l-0.1-0.1h-0.5l-0.1,0.1v1.8l0.3-0.3H45c0.5,0.2,0.8,0.5,0.8,1.3v2.2C45.9,175.6,45.5,175.9,45,176.1z M44.1,174.7l0.1-0.1
				v-1.8l-0.1-0.1h-0.5l-0.1,0.1v1.8l0.1,0.1H44.1z"/>
		</g>
	</g>
	<g>
		<g>
			<circle class="st4" cx="90.9" cy="128.8" r="8.5"/>
			<circle class="st5" cx="90.9" cy="128.8" r="8.5"/>
		</g>
		<g>
			<path class="st6" d="M86.9,132.7v-1.6h1v-4.5H87V125h2.6v6.1h0.9v1.6H86.9z"/>
			<path class="st6" d="M91.5,132.7l2.1-6.2h-2.4V125h4.1v1.2l-2.1,6.5H91.5z"/>
		</g>
	</g>
</g>

<g id="DRS">
	<g>
		<g>
			<g>
				<g>
					<line class="st12" x1="296.2" y1="205.5" x2="290.4" y2="215.5"/>
				</g>
				<g>
					<path class="st10" d="M298.1,213.3c-0.3,0.5-1,0.7-1.5,0.4c-0.5-0.3-0.7-1-0.4-1.5s1-0.7,1.5-0.4
						C298.2,212.1,298.4,212.8,298.1,213.3z"/>
				</g>
				<g>
					<path class="st10" d="M302,215.6c-0.3,0.5-1,0.7-1.5,0.4c-0.5-0.3-0.7-1-0.4-1.5s1-0.7,1.5-0.4
						C302.1,214.4,302.3,215,302,215.6z"/>
				</g>
				<g>
					<path class="st10" d="M305.8,217.8c-0.3,0.5-1,0.7-1.5,0.4c-0.5-0.3-0.7-1-0.4-1.5c0.3-0.5,1-0.7,1.5-0.4
						C305.9,216.6,306.1,217.3,305.8,217.8z"/>
				</g>
				<g>
					<path class="st10" d="M309.7,220.1c-0.3,0.5-1,0.7-1.5,0.4c-0.5-0.3-0.7-1-0.4-1.5c0.3-0.5,1-0.7,1.5-0.4
						C309.8,218.9,310,219.6,309.7,220.1z"/>
				</g>
				<g>
					<path class="st10" d="M313.5,222.4c-0.3,0.5-1,0.7-1.5,0.4c-0.5-0.3-0.7-1-0.4-1.5s1-0.7,1.5-0.4
						C313.6,221.2,313.8,221.8,313.5,222.4z"/>
				</g>
				<g>
					<path class="st10" d="M317.4,224.6c-0.3,0.5-1,0.7-1.5,0.4c-0.5-0.3-0.7-1-0.4-1.5s1-0.7,1.5-0.4
						C317.5,223.4,317.7,224.1,317.4,224.6z"/>
				</g>
				<g>
					<path class="st10" d="M321.2,226.9c-0.3,0.5-1,0.7-1.5,0.4c-0.5-0.3-0.7-1-0.4-1.5c0.3-0.5,1-0.7,1.5-0.4
						C321.3,225.7,321.5,226.4,321.2,226.9z"/>
				</g>
				<g>
					<path class="st10" d="M325.1,229.2c-0.3,0.5-1,0.7-1.5,0.4c-0.5-0.3-0.7-1-0.4-1.5c0.3-0.5,1-0.7,1.5-0.4
						C325.2,227.9,325.4,228.6,325.1,229.2z"/>
				</g>
				<g>
					<path class="st10" d="M328.9,231.4c-0.3,0.5-1,0.7-1.5,0.4s-0.7-1-0.4-1.5s1-0.7,1.5-0.4C329,230.2,329.2,230.9,328.9,231.4z"
						/>
				</g>
				<g>
					<path class="st10" d="M332.7,233.7c-0.3,0.5-1,0.7-1.5,0.4s-0.7-1-0.4-1.5s1-0.7,1.5-0.4C332.9,232.5,333.1,233.2,332.7,233.7z
						"/>
				</g>
				<g>
					<path class="st10" d="M336.6,236c-0.3,0.5-1,0.7-1.5,0.4s-0.7-1-0.4-1.5s1-0.7,1.5-0.4C336.7,234.7,336.9,235.4,336.6,236z"/>
				</g>
				<g>
					<path class="st10" d="M340.4,238.2c-0.3,0.5-1,0.7-1.5,0.4c-0.5-0.3-0.7-1-0.4-1.5c0.3-0.5,1-0.7,1.5-0.4
						C340.6,237,340.8,237.7,340.4,238.2z"/>
				</g>
				<g>
					<path class="st10" d="M344.3,240.5c-0.3,0.5-1,0.7-1.5,0.4s-0.7-1-0.4-1.5c0.3-0.5,1-0.7,1.5-0.4
						C344.4,239.3,344.6,240,344.3,240.5z"/>
				</g>
				<g>
					<path class="st10" d="M348.1,242.7c-0.3,0.5-1,0.7-1.5,0.4s-0.7-1-0.4-1.5s1-0.7,1.5-0.4C348.3,241.5,348.4,242.2,348.1,242.7z
						"/>
				</g>
				<g>
					<path class="st10" d="M352,245c-0.3,0.5-1,0.7-1.5,0.4s-0.7-1-0.4-1.5s1-0.7,1.5-0.4C352.1,243.8,352.3,244.5,352,245z"/>
				</g>
				<g>
					<path class="st10" d="M355.8,247.3c-0.3,0.5-1,0.7-1.5,0.4c-0.5-0.3-0.7-1-0.4-1.5c0.3-0.5,1-0.7,1.5-0.4
						C356,246.1,356.1,246.8,355.8,247.3z"/>
				</g>
				<g>
					<path class="st10" d="M359.7,249.5c-0.3,0.5-1,0.7-1.5,0.4c-0.5-0.3-0.7-1-0.4-1.5c0.3-0.5,1-0.7,1.5-0.4
						C359.8,248.3,360,249,359.7,249.5z"/>
				</g>
				<g>
					<path class="st10" d="M363.5,251.8c-0.3,0.5-1,0.7-1.5,0.4s-0.7-1-0.4-1.5s1-0.7,1.5-0.4C363.7,250.6,363.8,251.3,363.5,251.8z
						"/>
				</g>
				<g>
					<path class="st10" d="M367.4,254.1c-0.3,0.5-1,0.7-1.5,0.4s-0.7-1-0.4-1.5s1-0.7,1.5-0.4C367.5,252.9,367.7,253.5,367.4,254.1z
						"/>
				</g>
				<g>
					<path class="st10" d="M371.2,256.3c-0.3,0.5-1,0.7-1.5,0.4c-0.5-0.3-0.7-1-0.4-1.5c0.3-0.5,1-0.7,1.5-0.4
						C371.4,255.1,371.5,255.8,371.2,256.3z"/>
				</g>
				<g>
					<path class="st10" d="M375.1,258.6c-0.3,0.5-1,0.7-1.5,0.4c-0.5-0.3-0.7-1-0.4-1.5c0.3-0.5,1-0.7,1.5-0.4
						C375.2,257.4,375.4,258.1,375.1,258.6z"/>
				</g>
				<g>
					<path class="st10" d="M378.9,260.9c-0.3,0.5-1,0.7-1.5,0.4s-0.7-1-0.4-1.5s1-0.7,1.5-0.4C379.1,259.7,379.2,260.3,378.9,260.9z
						"/>
				</g>
				<g>
					<path class="st10" d="M382.8,263.1c-0.3,0.5-1,0.7-1.5,0.4s-0.7-1-0.4-1.5s1-0.7,1.5-0.4C382.9,261.9,383.1,262.6,382.8,263.1z
						"/>
				</g>
				<g>
					<path class="st10" d="M386.6,265.4c-0.3,0.5-1,0.7-1.5,0.4c-0.5-0.3-0.7-1-0.4-1.5c0.3-0.5,1-0.7,1.5-0.4
						C386.7,264.2,386.9,264.9,386.6,265.4z"/>
				</g>
				<g>
					<path class="st10" d="M390.5,267.7c-0.3,0.5-1,0.7-1.5,0.4c-0.5-0.3-0.7-1-0.4-1.5c0.3-0.5,1-0.7,1.5-0.4
						C390.6,266.5,390.8,267.1,390.5,267.7z"/>
				</g>
				<g>
					<path class="st10" d="M394.3,269.9c-0.3,0.5-1,0.7-1.5,0.4s-0.7-1-0.4-1.5s1-0.7,1.5-0.4C394.4,268.7,394.6,269.4,394.3,269.9z
						"/>
				</g>
				<g>
					<path class="st10" d="M398.2,272.2c-0.3,0.5-1,0.7-1.5,0.4s-0.7-1-0.4-1.5s1-0.7,1.5-0.4C398.3,271,398.5,271.7,398.2,272.2z"
						/>
				</g>
				<g>
					<path class="st10" d="M402,274.5c-0.3,0.5-1,0.7-1.5,0.4c-0.5-0.3-0.7-1-0.4-1.5c0.3-0.5,1-0.7,1.5-0.4
						C402.1,273.3,402.3,273.9,402,274.5z"/>
				</g>
				<g>
					<path class="st10" d="M405.9,276.7c-0.3,0.5-1,0.7-1.5,0.4c-0.5-0.3-0.7-1-0.4-1.5c0.3-0.5,1-0.7,1.5-0.4
						C406,275.5,406.2,276.2,405.9,276.7z"/>
				</g>
				<g>
					<path class="st10" d="M409.7,279c-0.3,0.5-1,0.7-1.5,0.4s-0.7-1-0.4-1.5s1-0.7,1.5-0.4C409.8,277.8,410,278.5,409.7,279z"/>
				</g>
				<g>
					<path class="st10" d="M413.6,281.3c-0.3,0.5-1,0.7-1.5,0.4s-0.7-1-0.4-1.5s1-0.7,1.5-0.4C413.7,280.1,413.9,280.7,413.6,281.3z
						"/>
				</g>
				<g>
					<path class="st10" d="M417.4,283.5c-0.3,0.5-1,0.7-1.5,0.4s-0.7-1-0.4-1.5c0.3-0.5,1-0.7,1.5-0.4
						C417.5,282.3,417.7,283,417.4,283.5z"/>
				</g>
				<g>
					<path class="st10" d="M421.3,285.8c-0.3,0.5-1,0.7-1.5,0.4c-0.5-0.3-0.7-1-0.4-1.5c0.3-0.5,1-0.7,1.5-0.4
						C421.4,284.6,421.6,285.3,421.3,285.8z"/>
				</g>
				<g>
					<path class="st10" d="M425.1,288.1c-0.3,0.5-1,0.7-1.5,0.4s-0.7-1-0.4-1.5s1-0.7,1.5-0.4C425.2,286.9,425.4,287.5,425.1,288.1z
						"/>
				</g>
				<g>
					<path class="st10" d="M428.9,290.3c-0.3,0.5-1,0.7-1.5,0.4s-0.7-1-0.4-1.5s1-0.7,1.5-0.4C429.1,289.1,429.3,289.8,428.9,290.3z
						"/>
				</g>
				<g>
					<path class="st10" d="M432.8,292.6c-0.3,0.5-1,0.7-1.5,0.4s-0.7-1-0.4-1.5c0.3-0.5,1-0.7,1.5-0.4
						C432.9,291.4,433.1,292.1,432.8,292.6z"/>
				</g>
				<g>
					<path class="st10" d="M436.6,294.9c-0.3,0.5-1,0.7-1.5,0.4c-0.5-0.3-0.7-1-0.4-1.5c0.3-0.5,1-0.7,1.5-0.4
						C436.8,293.6,437,294.3,436.6,294.9z"/>
				</g>
				<g>
					<path class="st10" d="M440.5,297.1c-0.3,0.5-1,0.7-1.5,0.4s-0.7-1-0.4-1.5s1-0.7,1.5-0.4C440.6,295.9,440.8,296.6,440.5,297.1z
						"/>
				</g>
				<g>
					<path class="st10" d="M444.3,299.4c-0.3,0.5-1,0.7-1.5,0.4s-0.7-1-0.4-1.5s1-0.7,1.5-0.4C444.5,298.2,444.6,298.9,444.3,299.4z
						"/>
				</g>
				<g>
					<path class="st10" d="M448.2,301.7c-0.3,0.5-1,0.7-1.5,0.4c-0.5-0.3-0.7-1-0.4-1.5c0.3-0.5,1-0.7,1.5-0.4
						C448.3,300.4,448.5,301.1,448.2,301.7z"/>
				</g>
				<g>
					<line class="st12" x1="454" y1="298.4" x2="448.1" y2="308.3"/>
				</g>
			</g>
		</g>
	</g>
	<g>
		<g>
			<g>
				<g>
					<line class="st12" x1="500.6" y1="220.6" x2="506.8" y2="210.8"/>
				</g>
				<g>
					<path class="st10" d="M499,212.7c0.3-0.5,1-0.7,1.5-0.3c0.5,0.3,0.7,1,0.4,1.5c-0.3,0.5-1,0.7-1.5,0.3
						C498.8,213.9,498.7,213.3,499,212.7z"/>
				</g>
				<g>
					<path class="st10" d="M495.2,210.4c0.3-0.5,1-0.7,1.5-0.3s0.7,1,0.4,1.5s-1,0.7-1.5,0.3S494.9,210.9,495.2,210.4z"/>
				</g>
				<g>
					<path class="st10" d="M491.5,208c0.3-0.5,1-0.7,1.5-0.3c0.5,0.3,0.7,1,0.4,1.5c-0.3,0.5-1,0.7-1.5,0.3
						C491.3,209.2,491.1,208.5,491.5,208z"/>
				</g>
				<g>
					<path class="st10" d="M487.7,205.7c0.3-0.5,1-0.7,1.5-0.3c0.5,0.3,0.7,1,0.4,1.5s-1,0.7-1.5,0.3S487.4,206.2,487.7,205.7z"/>
				</g>
				<g>
					<path class="st10" d="M483.9,203.3c0.3-0.5,1-0.7,1.5-0.3c0.5,0.3,0.7,1,0.4,1.5c-0.3,0.5-1,0.7-1.5,0.3
						C483.7,204.5,483.6,203.8,483.9,203.3z"/>
				</g>
				<g>
					<path class="st10" d="M480.1,200.9c0.3-0.5,1-0.7,1.5-0.3s0.7,1,0.4,1.5c-0.3,0.5-1,0.7-1.5,0.3S479.8,201.5,480.1,200.9z"/>
				</g>
				<g>
					<path class="st10" d="M476.3,198.6c0.3-0.5,1-0.7,1.5-0.3c0.5,0.3,0.7,1,0.4,1.5c-0.3,0.5-1,0.7-1.5,0.3
						C476.2,199.8,476,199.1,476.3,198.6z"/>
				</g>
				<g>
					<path class="st10" d="M472.6,196.2c0.3-0.5,1-0.7,1.5-0.4c0.5,0.3,0.7,1,0.4,1.5c-0.3,0.5-1,0.7-1.5,0.4
						C472.4,197.4,472.2,196.8,472.6,196.2z"/>
				</g>
				<g>
					<path class="st10" d="M468.8,193.9c0.3-0.5,1-0.7,1.5-0.4c0.5,0.3,0.7,1,0.4,1.5s-1,0.7-1.5,0.4S468.5,194.4,468.8,193.9z"/>
				</g>
				<g>
					<path class="st10" d="M465,191.5c0.3-0.5,1-0.7,1.5-0.4c0.5,0.3,0.7,1,0.4,1.5c-0.3,0.5-1,0.7-1.5,0.4
						C464.8,192.7,464.7,192.1,465,191.5z"/>
				</g>
				<g>
					<path class="st10" d="M461.2,189.2c0.3-0.5,1-0.7,1.5-0.4c0.5,0.3,0.7,1,0.4,1.5c-0.3,0.5-1,0.7-1.5,0.4
						C461.1,190.4,460.9,189.7,461.2,189.2z"/>
				</g>
				<g>
					<path class="st10" d="M457.4,186.9c0.3-0.5,1-0.7,1.5-0.4c0.5,0.3,0.7,1,0.4,1.5c-0.3,0.5-1,0.7-1.5,0.4
						C457.3,188.1,457.1,187.4,457.4,186.9z"/>
				</g>
				<g>
					<path class="st10" d="M453.6,184.5c0.3-0.5,1-0.7,1.5-0.4c0.5,0.3,0.7,1,0.4,1.5c-0.3,0.5-1,0.7-1.5,0.4
						C453.5,185.7,453.3,185.1,453.6,184.5z"/>
				</g>
				<g>
					<path class="st10" d="M449.8,182.2c0.3-0.5,1-0.7,1.5-0.4c0.5,0.3,0.7,1,0.4,1.5c-0.3,0.5-1,0.7-1.5,0.4
						C449.7,183.4,449.5,182.7,449.8,182.2z"/>
				</g>
				<g>
					<path class="st10" d="M446,179.9c0.3-0.5,1-0.7,1.5-0.4c0.5,0.3,0.7,1,0.4,1.5c-0.3,0.5-1,0.7-1.5,0.4
						C445.9,181.1,445.7,180.4,446,179.9z"/>
				</g>
				<g>
					<path class="st10" d="M442.2,177.6c0.3-0.5,1-0.7,1.5-0.4c0.5,0.3,0.7,1,0.4,1.5c-0.3,0.5-1,0.7-1.5,0.4
						C442.1,178.8,441.9,178.1,442.2,177.6z"/>
				</g>
				<g>
					<path class="st10" d="M438.4,175.3c0.3-0.5,1-0.7,1.5-0.4c0.5,0.3,0.7,1,0.4,1.5c-0.3,0.5-1,0.7-1.5,0.4
						C438.3,176.5,438.1,175.8,438.4,175.3z"/>
				</g>
				<g>
					<path class="st10" d="M434.6,173c0.3-0.5,1-0.7,1.5-0.4c0.5,0.3,0.7,1,0.4,1.5c-0.3,0.5-1,0.7-1.5,0.4
						C434.4,174.3,434.3,173.6,434.6,173z"/>
				</g>
				<g>
					<path class="st10" d="M430.7,170.9c0.3-0.5,1-0.7,1.5-0.4c0.5,0.3,0.7,1,0.4,1.5c-0.3,0.5-1,0.7-1.5,0.4
						C430.6,172.1,430.4,171.4,430.7,170.9z"/>
				</g>
				<g>
					<path class="st10" d="M426.8,168.7c0.3-0.5,1-0.7,1.5-0.4c0.5,0.3,0.7,1,0.4,1.5c-0.3,0.5-1,0.7-1.5,0.4
						S426.5,169.3,426.8,168.7z"/>
				</g>
				<g>
					<path class="st10" d="M422.9,166.6c0.3-0.5,1-0.7,1.5-0.4c0.5,0.3,0.7,1,0.4,1.5c-0.3,0.5-1,0.7-1.5,0.4
						S422.6,167.1,422.9,166.6z"/>
				</g>
				<g>
					<path class="st10" d="M419,164.4c0.3-0.5,1-0.7,1.5-0.4c0.5,0.3,0.7,1,0.4,1.5c-0.3,0.5-1,0.7-1.5,0.4S418.7,165,419,164.4z"/>
				</g>
				<g>
					<path class="st10" d="M415.1,162.3c0.3-0.5,1-0.7,1.5-0.4s0.7,1,0.4,1.5c-0.3,0.5-1,0.7-1.5,0.4S414.8,162.8,415.1,162.3z"/>
				</g>
				<g>
					<path class="st10" d="M411.2,160.1c0.3-0.5,1-0.7,1.5-0.4s0.7,1,0.4,1.5c-0.3,0.5-1,0.7-1.5,0.4S410.9,160.6,411.2,160.1z"/>
				</g>
				<g>
					<path class="st10" d="M407.3,158c0.3-0.5,1-0.7,1.5-0.4s0.7,1,0.4,1.5c-0.3,0.5-1,0.7-1.5,0.4S407,158.5,407.3,158z"/>
				</g>
				<g>
					<path class="st10" d="M403.4,155.8c0.3-0.5,1-0.7,1.5-0.4s0.7,1,0.4,1.5c-0.3,0.5-1,0.7-1.5,0.4S403.1,156.3,403.4,155.8z"/>
				</g>
				<g>
					<path class="st10" d="M399.5,153.7c0.3-0.5,1-0.7,1.5-0.4s0.7,1,0.4,1.5c-0.3,0.5-1,0.7-1.5,0.4S399.2,154.2,399.5,153.7z"/>
				</g>
				<g>
					<path class="st10" d="M395.6,151.5c0.3-0.5,1-0.7,1.5-0.4s0.7,1,0.4,1.5c-0.3,0.5-1,0.7-1.5,0.4S395.3,152,395.6,151.5z"/>
				</g>
				<g>
					<path class="st10" d="M391.7,149.3c0.3-0.5,1-0.7,1.5-0.4s0.7,1,0.4,1.5c-0.3,0.5-1,0.7-1.5,0.4S391.4,149.9,391.7,149.3z"/>
				</g>
				<g>
					<path class="st10" d="M387.8,147.2c0.3-0.5,1-0.7,1.5-0.4s0.7,1,0.4,1.5c-0.3,0.5-1,0.7-1.5,0.4S387.5,147.7,387.8,147.2z"/>
				</g>
				<g>
					<path class="st10" d="M383.9,145c0.3-0.5,1-0.7,1.5-0.4s0.7,1,0.4,1.5c-0.3,0.5-1,0.7-1.5,0.4S383.6,145.6,383.9,145z"/>
				</g>
				<g>
					<path class="st10" d="M380,142.9c0.3-0.5,1-0.7,1.5-0.4s0.7,1,0.4,1.5c-0.3,0.5-1,0.7-1.5,0.4S379.7,143.4,380,142.9z"/>
				</g>
				<g>
					<path class="st10" d="M376.1,140.7c0.3-0.5,1-0.7,1.5-0.4s0.7,1,0.4,1.5c-0.3,0.5-1,0.7-1.5,0.4S375.8,141.3,376.1,140.7z"/>
				</g>
				<g>
					<path class="st10" d="M372.2,138.6c0.3-0.5,1-0.7,1.5-0.4s0.7,1,0.4,1.5c-0.3,0.5-1,0.7-1.5,0.4S371.9,139.1,372.2,138.6z"/>
				</g>
				<g>
					<path class="st10" d="M368.3,136.4c0.3-0.5,1-0.7,1.5-0.4s0.7,1,0.4,1.5c-0.3,0.5-1,0.7-1.5,0.4S368,137,368.3,136.4z"/>
				</g>
				<g>
					<path class="st10" d="M364.4,134.3c0.3-0.5,1-0.7,1.5-0.4s0.7,1,0.4,1.5s-1,0.7-1.5,0.4S364.1,134.8,364.4,134.3z"/>
				</g>
				<g>
					<path class="st10" d="M360.5,132.1c0.3-0.5,1-0.7,1.5-0.4s0.7,1,0.4,1.5c-0.3,0.5-1,0.7-1.5,0.4S360.2,132.7,360.5,132.1z"/>
				</g>
				<g>
					<line class="st12" x1="354.8" y1="135.6" x2="360.4" y2="125.4"/>
				</g>
			</g>
		</g>
	</g>
</g>
<g id="アイコン">
	<g>
			<rect x="397.5" y="241.3" transform="matrix(0.5172 -0.8559 0.8559 0.5172 -15.1485 458.6227)" class="st5" width="2.8" height="2.8"/>
		
			<rect x="400.4" y="236.5" transform="matrix(0.5172 -0.8559 0.8559 0.5172 -9.5798 458.7892)" class="st5" width="2.8" height="2.8"/>
		
			<rect x="401.4" y="240.4" transform="matrix(0.5172 -0.8559 0.8559 0.5172 -12.4474 461.4902)" class="st5" width="2.8" height="2.8"/>
		
			<rect x="404.3" y="235.5" transform="matrix(0.5172 -0.8559 0.8559 0.5172 -6.8787 461.6567)" class="st5" width="2.8" height="2.8"/>
		
			<rect x="406.2" y="243.3" transform="matrix(0.5172 -0.8559 0.8559 0.5172 -12.6139 467.0589)" class="st5" width="2.8" height="2.8"/>
		
			<rect x="409.2" y="238.4" transform="matrix(0.5172 -0.8559 0.8559 0.5172 -7.0452 467.2254)" class="st5" width="2.8" height="2.8"/>
		
			<rect x="403.4" y="231.6" transform="matrix(0.5172 -0.8559 0.8559 0.5172 -4.0111 458.9557)" class="st5" width="2.8" height="2.8"/>
		
			<rect x="401.9" y="234" transform="matrix(0.5172 -0.8559 0.8559 0.5172 -6.7955 458.8724)" class="st6" width="2.8" height="2.8"/>
		
			<rect x="399" y="238.9" transform="matrix(0.5172 -0.8559 0.8559 0.5172 -12.3641 458.7059)" class="st6" width="2.8" height="2.8"/>
		
			<rect x="399.9" y="242.8" transform="matrix(0.5172 -0.8559 0.8559 0.5172 -15.2317 461.407)" class="st6" width="2.8" height="2.8"/>
		
			<rect x="402.8" y="237.9" transform="matrix(0.5172 -0.8559 0.8559 0.5172 -9.6631 461.5735)" class="st6" width="2.8" height="2.8"/>
		
			<rect x="405.8" y="233.1" transform="matrix(0.5172 -0.8559 0.8559 0.5172 -4.0944 461.74)" class="st6" width="2.8" height="2.8"/>
		
			<rect x="406.7" y="237" transform="matrix(0.5172 -0.8559 0.8559 0.5172 -6.962 464.4411)" class="st6" width="2.8" height="2.8"/>
		
			<rect x="403.8" y="241.8" transform="matrix(0.5172 -0.8559 0.8559 0.5172 -12.5307 464.2746)" class="st6" width="2.8" height="2.8"/>
		
			<rect x="411.6" y="239.9" transform="matrix(0.5172 -0.8559 0.8559 0.5172 -7.1285 470.0098)" class="st6" width="2.8" height="2.8"/>
		
			<rect x="408.7" y="244.8" transform="matrix(0.5172 -0.8559 0.8559 0.5172 -12.6972 469.8433)" class="st6" width="2.8" height="2.8"/>
		
			<rect x="404.8" y="245.7" transform="matrix(0.5172 -0.8559 0.8559 0.5172 -15.3982 466.9756)" class="st6" width="2.8" height="2.8"/>
		
			<rect x="407.7" y="240.9" transform="matrix(0.5172 -0.8559 0.8559 0.5172 -9.8296 467.1422)" class="st6" width="2.8" height="2.8"/>
		
			<rect x="410.6" y="236" transform="matrix(0.5172 -0.8559 0.8559 0.5172 -4.2609 467.3087)" class="st6" width="2.8" height="2.8"/>
		
			<rect x="402.3" y="244.3" transform="matrix(0.5172 -0.8559 0.8559 0.5172 -15.315 464.1913)" class="st5" width="2.8" height="2.8"/>
		
			<rect x="405.3" y="239.4" transform="matrix(0.5172 -0.8559 0.8559 0.5172 -9.7463 464.3578)" class="st5" width="2.8" height="2.8"/>
		
			<rect x="410.1" y="242.3" transform="matrix(0.5172 -0.8559 0.8559 0.5172 -9.9128 469.9265)" class="st5" width="2.8" height="2.8"/>
		
			<rect x="408.2" y="234.5" transform="matrix(0.5172 -0.8559 0.8559 0.5172 -4.1776 464.5244)" class="st5" width="2.8" height="2.8"/>
		
			<rect x="407.2" y="247.2" transform="matrix(0.5172 -0.8559 0.8559 0.5172 -15.4815 469.76)" class="st5" width="2.8" height="2.8"/>
		
			<rect x="413.1" y="237.5" transform="matrix(0.5172 -0.8559 0.8559 0.5172 -4.3442 470.093)" class="st5" width="2.8" height="2.8"/>
	</g>
	<g>
		<defs>
			
				<rect id="SVGID_1_" x="429" y="259" transform="matrix(-0.8349 -0.5504 0.5504 -0.8349 662.7486 725.3112)" width="22.3" height="8.5"/>
		</defs>
		<clipPath id="SVGID_00000085228852106952665770000006659664670074803101_">
			<use xlink:href="#SVGID_1_"  style="overflow:visible;"/>
		</clipPath>
		<g style="clip-path:url(#SVGID_00000085228852106952665770000006659664670074803101_);">
			<polygon class="st19" points="435.8,251.9 438.1,253.4 439,262.5 430.3,265.3 428,263.7 436.6,260.9 			"/>
			<polygon class="st20" points="440.5,255 442.9,256.6 443.7,265.6 435.1,268.4 432.7,266.8 441.3,264 			"/>
			<polygon class="st21" points="445.2,258.1 447.6,259.7 448.4,268.7 439.8,271.5 437.4,270 446.1,267.2 			"/>
		</g>
	</g>
</g>
</svg>
