<?xml version="1.0" encoding="utf-8"?>
<!-- Generator: Adobe Illustrator 27.2.0, SVG Export Plug-In . SVG Version: 6.00 Build 0)  -->
<svg version="1.1" xmlns="http://www.w3.org/2000/svg" xmlns:xlink="http://www.w3.org/1999/xlink" x="0px" y="0px"
	 viewBox="0 0 791.4 426.5" style="enable-background:new 0 0 791.4 426.5;" xml:space="preserve">
<style type="text/css">
	.st0{fill:none;stroke:#646464;stroke-width:14.1732;stroke-linecap:round;stroke-linejoin:round;stroke-miterlimit:10;}
	.st1{fill:none;stroke:#FFD449;stroke-width:2.8346;stroke-miterlimit:10;}
	.st2{fill:none;stroke:#54C6EB;stroke-width:2.8346;stroke-miterlimit:10;}
	.st3{fill:none;stroke:#F4442E;stroke-width:2.8346;stroke-miterlimit:10;}
	.st4{fill:none;stroke:#FFFFFF;stroke-width:2.126;}
	.st5{fill:#646464;}
	.st6{fill:#FFFFFF;}
	.st10{fill:#09BC8A;}
	.st12{fill:none;stroke:#09BC8A;stroke-width:2.8346;stroke-miterlimit:10;}
	.st14{fill:#F4442E;}
	.st15{fill:#54C6EB;}
	.st16{fill:#FFD449;}</style>
<g id="コース">
	<path class="st0" d="M727.9,128.8C751.3,136.7,757.1,159.9,757.1,170.9C757.1,181.9,757.1,215,757.1,215C757.1,220.3,757.1,242.7,757.1,257.6
		C757.1,272.5,746.5,301.9,701.3,301.9C701.3,301.9,175.3,301.9,161.3,301.9C144.6,301.9,133.2,295.7,133.2,279.5
		C133.2,264.2,134.1,245.3,115.2,237.4C96.3,229.5,72.2,220.7,62.5,215C52.9,209.3,37.5,192.6,37.5,163.6
		C37.5,150.4,45.4,131.5,60.3,117.5C78.1,100.7,108.6,89.8,131,89.8C162.2,89.8,248.2,89.8,258.3,89.8
		C271,89.8,287.7,99.9,287.7,116.6C287.7,147.7,257.8,166.6,231.9,166.6C203.8,166.6,148.9,166.6,140.1,166.6
		C131.3,166.6,120.3,171,120.3,184.6C120.3,197.4,127.3,200.4,132.6,203.5C137.9,206.6,173.9,231.1,180,235.1
		C186.1,239,214.2,259.4,245.4,259.4C276.6,259.4,284.5,259.4,293.3,259.4C302.1,259.4,317,255.4,317,239.6
		C317,234.3,317,228.6,317,224.2C317,219.8,318.3,206.6,326.2,195.2C334.1,183.8,377.9,122.1,382.4,115.3
		C388.5,106.1,417.1,93.8,436.4,104.3C460,117.2,652.9,233.8,662.1,238.6C671.3,243.4,680.5,243.8,687.1,236.8
		C693.7,229.7,693.7,213.9,686.2,195.5C678.8,177,662.1,170.9,653.3,167.8C644.5,164.7,625.2,161.2,619.9,148.5
		C614.6,135.8,617.2,120.8,624.7,112.5C632.2,104.2,646.2,101.6,655,104.2C663.8,106.8,720.9,126.4,727.9,128.8z"/>
</g>
<g id="セクター">
	<path class="st1" d="M634.5,222.4c15.2,9.1,25.5,15.2,27.5,16.2c9.2,4.8,18.4,5.3,25-1.8c6.6-7,6.6-22.8-0.9-41.3
		c-7.5-18.4-24.1-24.6-32.9-27.7c-8.8-3.1-28.1-6.6-33.4-19.3c-5.3-12.7-2.6-27.7,4.8-36c7.5-8.3,21.5-11,30.3-8.3
		c8.8,2.6,65.9,22.4,72.9,24.6c23.4,7.9,29,30.9,29,41.9s0,44.1,0,44.1c0,5.3,0,27.7,0,42.6c0,14.9-10.5,44.3-55.8,44.3
		c0,0-56.6,0-133.2,0"/>
	<path class="st2" d="M230.3,89.8c14.1,0,24.7,0,27.8,0c12.7,0,29.4,10.1,29.4,26.8c0,31.2-29.9,50-55.8,50c-28.1,0-83,0-91.8,0
		c-8.8,0-19.8,4.4-19.8,18c0,12.7,7,15.8,12.3,18.9c5.3,3.1,41.3,27.7,47.4,31.6c6.1,4,34.2,24.1,65.4,24.1s39.1,0,47.9,0
		c8.8,0,23.7-4,23.7-19.8c0-5.3,0-11,0-15.4c0-4.4,1.3-17.6,9.2-29c7.9-11.4,51.7-73.1,56.2-79.9c6.1-9.2,34.7-21.5,54-11
		c18.6,10.2,141.9,84.5,198.2,118.1"/>
	<path class="st3" d="M567.9,301.8c-156.8,0-397.3,0-406.8,0c-16.7,0-28.1-6.1-28.1-22.4c0-15.4,0.9-34.2-18-42.1
		c-18.9-7.9-43-16.7-52.7-22.4c-9.7-5.7-25-22.4-25-51.4c0-13.2,8-32.1,22.8-46.1c17.8-16.8,48.3-27.7,70.7-27.7
		c21.4,0,68.7,0,99.5,0"/>
</g>
<g id="DRS-ZONES">
  <!-- DRS Zone 1 — visible white for testing (dots run right→left, corrected order) -->
  <path id="drs-1" class="drs-zone"
    fill="none" stroke="#fff" opacity="0"
    d="M440.3,123.1 
		L444.3,126.1 L448,128.4 L451.8,130.6 L455.6,132.9 L459.4,135.1 L463.2,137.4 L467,139.7 L470.8,141.9 L474.6,144.2 L478.3,146.4 L482.1,148.7 L485.9,151 L489.7,153.2 L493.5,155.5 L497.3,157.7 L501.1,160 L504.9,162.3 L508.6,164.5 L512.4,166.8 L516.2,169 L520,171.3 L523.8,173.6 L527.6,175.8 L531.4,178.1 L535.1,180.3 L538.9,182.6 L542.7,184.9 L546.5,187.1 L550.3,189.4 L554.1,191.6 L557.9,193.9 L561.7,196.2 L565.4,198.4 L569.2,200.7 L573,202.9 L576.8,205.2 L580.6,207.5 L584.4,209.7 L588.2,212 L592,214.2 L595.7,216.5 L599.5,218.8 L603.3,221 L607.1,223.3 L610.9,225.5 L614.7,227.8 L618.5,230.1 L622.3,232.3 L626,234.6 L629.8,236.8 L633.6,239.1 L637.4,241.4 L641.2,243.6 L645,245.9 L648.8,248.1 L651.8,250.1
		"/>

  <!-- DRS Zone 2 — visible white for testing (dots run right→left, corrected order) -->
  <path id="drs-2" class="drs-zone"
    fill="none" stroke="#fff" opacity="0"
    d="M658.4,285.5 
		L652.4,285.5 L648,285.5 L643.5,285.5 L639.1,285.5 L634.7,285.5 L630.3,285.5 L625.9,285.5 L621.5,285.5 L617,285.5 L612.6,285.5 L608.2,285.5 L603.8,285.5 L599.4,285.5 L595,285.5 L590.5,285.5 L586.1,285.5 L581.7,285.5 L577.3,285.5 L572.9,285.5 L568.5,285.5 L564,285.5 L559.6,285.5 L555.2,285.5 L550.8,285.5 L546.4,285.5 L541.9,285.5 L537.5,285.5 L533.1,285.5 L528.7,285.5 L524.3,285.5 L519.9,285.5 L515.4,285.5 L511,285.5 L506.6,285.5 L502.2,285.5 L497.8,285.5 L493.4,285.5 L488.9,285.5 L484.5,285.5 L480.1,285.5 L475.7,285.5 L471.3,285.5 L466.9,285.5 L462.4,285.5 L458,285.5 L453.6,285.5 L449.2,285.5 L444.8,285.5 L440.3,285.5 L435.9,285.5 L431.5,285.5 L427.1,285.5 L422.7,285.5 L418.3,285.5 L413.8,285.5 L409.4,285.5 L405,285.5 L400.6,285.5 L396.2,285.5 L391.8,285.5 L387.3,285.5 L382.9,285.5 L378.5,285.5 L374.1,285.5 L369.7,285.5 L365.2,285.5 L360.8,285.5 L356.4,285.5 L352,285.5 L347.6,285.5 L343.2,285.5 L338.7,285.5 L334.3,285.5 L329.9,285.5 L325.5,285.5 L321.1,285.5 L316.7,285.5 L312.2,285.5 L307.8,285.5 L303.4,285.5 L299,285.5 L294.6,285.5 L290.2,285.5 L285.7,285.5 L281.3,285.5 L276.9,285.5 L272.5,285.5 L268.1,285.5 L263.6,285.5 L259.2,285.5 L254.8,285.5 L250.4,285.5 L246,285.5 L241.6,285.5 L237.1,285.5 L232.7,285.5 L228.3,285.5 L223.9,285.5 L219.5,285.5 L215.1,285.5 L210.6,285.5 L206.2,285.5 L201.8,285.5 L197.4,285.5 L193,285.5 L188.6,285.5 L184.1,285.5 L179.7,285.5 L175.3,285.5 L170.9,285.5 L166.5,285.5 L162,285.5 L158,285.5
		"/>
  
  <!-- DRS Zone 3 — visible white for testing -->
  <!-- <path id="drs-3" class="drs-zone"
    fill="none" stroke="#fff" opacity="1"
    d="M504.9,272.5
		L498.4,274.5 L494,275.6 L489.7,276.6 L485.4,277.7 L481,278.7 L476.7,279.8 L472.4,280.8 L468.1,281.8 L463.7,282.9 L459.4,283.9 L455.1,285 L450.8,286 L446.4,287.1 L442.1,288.1 L437.8,289.2 L433.5,290.2 L429.1,291.2 L424.8,292.3 L420.5,293.3 L416.2,294.4 L411.8,295.4 L407.5,296.5 L403.2,297.5 L398.9,298.6 L394.5,299.6 L390.2,300.6 L385.9,301.6 L381.5,302.6 L377.2,303.6 L372.9,304.6 L368.5,305.6 L364.2,306.6 L359.9,307.6 L355.5,308.7 L351.2,309.7 L346.8,310.7 L342.5,311.7 L338.2,312.7 L333.8,313.7 L329.5,314.7 L325.2,315.7 L320.8,316.7 L316.5,317.7 L312.2,318.8 L307.8,319.8 L303.5,320.8 L299.2,321.8 L294.8,322.8 L290.5,323.8 L286.2,324.8 L281.8,325.8 L277.5,326.8 L273.2,327.8 L264.8,329.8
		"/> -->
</g>
<g id="コーナー番号">
	<g>
		<g>
			<circle class="st4" cx="125.2" cy="311.2" r="8.5"/>
			<circle class="st5" cx="125.2" cy="311.2" r="8.5"/>
		</g>
		<g>
			<path class="st6" d="M123.5,315.1v-1.6h1V309h-0.9v-1.6h2.6v6.1h0.9v1.6H123.5z"/>
		</g>
	</g>
	<g>
		<g>
			<circle class="st4" cx="143" cy="234.9" r="8.5"/>
			<circle class="st5" cx="143" cy="234.9" r="8.5"/>
		</g>
		<g>
			<path class="st6" d="M140.9,238.8v-2.6c0-0.6,0.1-1,0.6-1.2l1.9-0.8v-1.6l-0.1-0.1h-0.5l-0.1,0.1v1.1h-1.7v-1.3
				c0-0.8,0.4-1.1,0.8-1.3h2.5c0.5,0.2,0.8,0.5,0.8,1.3v1.9c0,0.6-0.1,0.9-0.6,1.2l-1.9,0.8v0.9h2.4v1.6H140.9z"/>
		</g>
	</g>
	<g>
		<g>
			<circle class="st4" cx="16.7" cy="166" r="8.5"/>
			<circle class="st5" cx="16.7" cy="166" r="8.5"/>
		</g>
		<g>
			<path class="st6" d="M15.4,169.8c-0.5-0.2-0.8-0.5-0.8-1.3v-1h1.7v0.8l0.1,0.1h0.5l0.1-0.1v-1.6l-0.1-0.1h-1v-1.3h1l0.1-0.1v-1.5
				l-0.1-0.1h-0.5l-0.1,0.1v0.8h-1.7v-1c0-0.8,0.4-1.1,0.8-1.3h2.5c0.5,0.2,0.8,0.5,0.8,1.3v1.3c0,0.6-0.2,0.9-0.6,1.2
				c0.4,0.3,0.6,0.6,0.6,1.2v1.4c0,0.8-0.4,1.1-0.8,1.3H15.4z"/>
		</g>
	</g>
	<g>
		<g>
			<circle class="st4" cx="301.6" cy="95.5" r="8.5"/>
			<circle class="st5" cx="301.6" cy="95.5" r="8.5"/>
		</g>
		<g>
			<path class="st6" d="M303.2,97.9v1.5h-1.7v-1.5h-2.2v-1.5l1.6-4.7h1.7l-1.6,4.6h0.5v-0.4l0.4-1h1.3v1.4h0.5v1.6H303.2z"/>
		</g>
	</g>
	<g>
		<g>
			<circle class="st4" cx="103.8" cy="170.4" r="8.5"/>
			<circle class="st5" cx="103.8" cy="170.4" r="8.5"/>
		</g>
		<g>
			<path class="st6" d="M102.6,174.3c-0.5-0.2-0.8-0.5-0.8-1.3v-1h1.6v0.8l0.1,0.1h0.6l0.1-0.1v-2.1l-0.1-0.1h-0.6l-0.1,0.1v0.4
				h-1.6v-4.5h4v1.5h-2.4v1.6l0.4-0.4h1.3c0.5,0.2,0.8,0.5,0.8,1.3v2.4c0,0.8-0.4,1.1-0.8,1.3H102.6z"/>
		</g>
	</g>
	<g>
		<g>
			<circle class="st4" cx="204.5" cy="270.3" r="8.5"/>
			<circle class="st5" cx="204.5" cy="270.3" r="8.5"/>
		</g>
		<g>
			<path class="st6" d="M205.7,274.2h-2.5c-0.5-0.2-0.8-0.5-0.8-1.3v-5.1c0-0.8,0.4-1.1,0.8-1.3h2.5c0.5,0.2,0.8,0.5,0.8,1.3v1h-1.7
				V268l-0.1-0.1h-0.5l-0.1,0.1v1.8l0.3-0.3h1.3c0.5,0.2,0.8,0.5,0.8,1.3v2.2C206.6,273.7,206.2,274,205.7,274.2z M204.8,272.8
				l0.1-0.1v-1.8l-0.1-0.1h-0.5l-0.1,0.1v1.8l0.1,0.1H204.8z"/>
		</g>
	</g>
	<g>
		<g>
			<circle class="st4" cx="327.9" cy="265.5" r="8.5"/>
			<circle class="st5" cx="327.9" cy="265.5" r="8.5"/>
		</g>
		<g>
			<path class="st6" d="M326.1,269.3l2.1-6.2h-2.4v-1.5h4.1v1.2l-2.1,6.5H326.1z"/>
		</g>
	</g>
	<g>
		<g>
			<circle class="st4" cx="299" cy="200.5" r="8.5"/>
			<circle class="st5" cx="299" cy="200.5" r="8.5"/>
		</g>
		<g>
			<path class="st6" d="M297.7,204.4c-0.5-0.2-0.8-0.5-0.8-1.3v-1.4c0-0.6,0.2-0.9,0.6-1.2c-0.4-0.3-0.6-0.6-0.6-1.2V198
				c0-0.8,0.4-1.1,0.8-1.3h2.5c0.5,0.2,0.8,0.5,0.8,1.3v1.3c0,0.6-0.2,0.9-0.6,1.2c0.4,0.3,0.6,0.6,0.6,1.2v1.4
				c0,0.8-0.4,1.1-0.8,1.3H297.7z M298.6,199.7l0.1,0.1h0.5l0.1-0.1v-1.5l-0.1-0.1h-0.5l-0.1,0.1V199.7z M299.3,202.9v-1.6l-0.1-0.1
				h-0.5l-0.1,0.1v1.6l0.1,0.1h0.5L299.3,202.9z"/>
		</g>
	</g>
	<g>
		<g>
			<circle class="st4" cx="405.2" cy="80.2" r="8.5"/>
			<circle class="st5" cx="405.2" cy="80.2" r="8.5"/>
		</g>
		<g>
			<path class="st6" d="M404,84.1c-0.5-0.2-0.8-0.5-0.8-1.3v-1h1.7v0.8l0.1,0.1h0.5l0.1-0.1v-1.8l-0.3,0.3H404
				c-0.5-0.2-0.8-0.5-0.8-1.3v-2.2c0-0.8,0.4-1.1,0.8-1.3h2.5c0.5,0.2,0.8,0.5,0.8,1.3v5.1c0,0.8-0.4,1.1-0.8,1.3H404z M405.6,79.7
				v-1.8l-0.1-0.1h-0.5l-0.1,0.1v1.8l0.1,0.1h0.5L405.6,79.7z"/>
		</g>
	</g>
	<g>
		<g>
			<circle class="st4" cx="691.4" cy="259.1" r="8.5"/>
			<circle class="st5" cx="691.4" cy="259.1" r="8.5"/>
		</g>
		<g>
			<path class="st6" d="M687.3,262.9v-1.6h1v-4.5h-0.9v-1.6h2.6v6.1h0.9v1.6H687.3z"/>
			<path class="st6" d="M695,262.9h-2.5c-0.5-0.2-0.8-0.5-0.8-1.3v-5.1c0-0.8,0.4-1.1,0.8-1.3h2.5c0.5,0.2,0.8,0.5,0.8,1.3v5.1
				C695.8,262.5,695.4,262.8,695,262.9z M694.1,256.8l-0.1-0.1h-0.5l-0.1,0.1v4.7l0.1,0.1h0.5l0.1-0.1V256.8z"/>
		</g>
	</g>
	<g>
		<g>
			<circle class="st4" cx="685.1" cy="163.9" r="8.5"/>
			<circle class="st5" cx="685.1" cy="163.9" r="8.5"/>
		</g>
		<g>
			<path class="st6" d="M681,167.8v-1.6h1v-4.5h-0.9v-1.6h2.6v6.1h0.9v1.6H681z"/>
			<path class="st6" d="M685.7,167.8v-1.6h1v-4.5h-0.9v-1.6h2.6v6.1h0.9v1.6H685.7z"/>
		</g>
	</g>
	<g>
		<g>
			<circle class="st4" cx="598.2" cy="117.7" r="8.5"/>
			<circle class="st5" cx="598.2" cy="117.7" r="8.5"/>
		</g>
		<g>
			<path class="st6" d="M594.1,121.6V120h1v-4.5h-0.9v-1.6h2.6v6.1h0.9v1.6H594.1z"/>
			<path class="st6" d="M598.4,121.6V119c0-0.6,0.1-1,0.6-1.2l1.9-0.8v-1.6l-0.1-0.1h-0.5l-0.1,0.1v1.1h-1.7v-1.3
				c0-0.8,0.4-1.1,0.8-1.3h2.5c0.5,0.2,0.8,0.5,0.8,1.3v1.9c0,0.6-0.1,0.9-0.6,1.2l-1.9,0.8v0.9h2.4v1.6H598.4z"/>
		</g>
	</g>
	<g>
		<g>
			<circle class="st4" cx="765.4" cy="136.7" r="8.5"/>
			<circle class="st5" cx="765.4" cy="136.7" r="8.5"/>
		</g>
		<g>
			<path class="st6" d="M761.4,140.6V139h1v-4.5h-0.8v-1.6h2.6v6.1h0.9v1.6H761.4z"/>
			<path class="st6" d="M766.5,140.6c-0.5-0.2-0.8-0.5-0.8-1.3v-1h1.7v0.8l0.1,0.1h0.5l0.1-0.1v-1.6l-0.1-0.1h-1v-1.3h1l0.1-0.1
				v-1.5l-0.1-0.1h-0.5l-0.1,0.1v0.8h-1.7v-1c0-0.8,0.4-1.1,0.8-1.3h2.5c0.5,0.2,0.8,0.5,0.8,1.3v1.3c0,0.6-0.2,0.9-0.6,1.2
				c0.4,0.3,0.6,0.6,0.6,1.2v1.4c0,0.8-0.4,1.1-0.8,1.3H766.5z"/>
		</g>
	</g>
	<g>
		<g>
			<circle class="st4" cx="759.6" cy="298.6" r="8.5"/>
			<circle class="st5" cx="759.6" cy="298.6" r="8.5"/>
		</g>
		<g>
			<path class="st6" d="M755.5,302.4v-1.6h1v-4.5h-0.9v-1.6h2.6v6.1h0.9v1.6H755.5z"/>
			<path class="st6" d="M763.5,301v1.5h-1.7V301h-2.2v-1.5l1.6-4.7h1.7l-1.6,4.6h0.5v-0.4l0.4-1h1.3v1.4h0.5v1.6H763.5z"/>
		</g>
	</g>
	<g>
		<g>
			<circle class="st4" cx="178.1" cy="135.3" r="8.5"/>
			<circle class="st5" cx="178.1" cy="135.3" r="8.5"/>
		</g>
		<g>
			<path class="st6" d="M174.1,139.2v-1.6h1v-4.5h-0.9v-1.6h2.6v6.1h0.9v1.6H174.1z"/>
			<path class="st6" d="M179.2,139.2c-0.5-0.2-0.8-0.5-0.8-1.3v-1.4c0-0.6,0.2-0.9,0.6-1.2c-0.4-0.3-0.6-0.6-0.6-1.2v-1.3
				c0-0.8,0.4-1.1,0.8-1.3h2.5c0.5,0.2,0.8,0.5,0.8,1.3v1.3c0,0.6-0.2,0.9-0.6,1.2c0.4,0.3,0.6,0.6,0.6,1.2v1.4
				c0,0.8-0.4,1.1-0.8,1.3H179.2z M180.1,134.5l0.1,0.1h0.5l0.1-0.1V133l-0.1-0.1h-0.5l-0.1,0.1V134.5z M180.9,137.7V136l-0.1-0.1
				h-0.5l-0.1,0.1v1.6l0.1,0.1h0.5L180.9,137.7z"/>
		</g>
	</g>
	<g>
		<g>
			<circle class="st4" cx="258.4" cy="108.7" r="8.5"/>
			<circle class="st5" cx="258.4" cy="108.7" r="8.5"/>
		</g>
		<g>
			<path class="st6" d="M254.4,112.6V111h1v-4.5h-0.9v-1.6h2.6v6.1h0.9v1.6H254.4z"/>
			<path class="st6" d="M259.5,112.6c-0.5-0.2-0.8-0.5-0.8-1.3v-1h1.7v0.8l0.1,0.1h0.5l0.1-0.1v-1.8l-0.3,0.3h-1.3
				c-0.5-0.2-0.8-0.5-0.8-1.3v-2.2c0-0.8,0.4-1.1,0.8-1.3h2.5c0.5,0.2,0.8,0.5,0.8,1.3v5.1c0,0.8-0.4,1.1-0.8,1.3H259.5z
				 M261.1,108.3v-1.8l-0.1-0.1h-0.5l-0.1,0.1v1.8l0.1,0.1h0.5L261.1,108.3z"/>
		</g>
	</g>
</g>
<g id="DRS">
	<g>
		<path class="st11" d="M695.5,360.3"/>
	</g>
	<g>
		<g>
			<g>
				<g>
					<line class="st12" x1="657.9" y1="291.3" x2="657.9" y2="279.7"/>
				</g>
				<g>
					<path class="st10" d="M652.4,285.5c0-0.6,0.5-1.1,1.1-1.1s1.1,0.5,1.1,1.1c0,0.6-0.5,1.1-1.1,1.1S652.4,286.1,652.4,285.5z"/>
				</g>
				<g>
					<path class="st10" d="M648,285.5c0-0.6,0.5-1.1,1.1-1.1s1.1,0.5,1.1,1.1c0,0.6-0.5,1.1-1.1,1.1S648,286.1,648,285.5z"/>
				</g>
				<g>
					<path class="st10" d="M643.5,285.5c0-0.6,0.5-1.1,1.1-1.1s1.1,0.5,1.1,1.1c0,0.6-0.5,1.1-1.1,1.1S643.5,286.1,643.5,285.5z"/>
				</g>
				<g>
					<path class="st10" d="M639.1,285.5c0-0.6,0.5-1.1,1.1-1.1s1.1,0.5,1.1,1.1c0,0.6-0.5,1.1-1.1,1.1S639.1,286.1,639.1,285.5z"/>
				</g>
				<g>
					<path class="st10" d="M634.7,285.5c0-0.6,0.5-1.1,1.1-1.1s1.1,0.5,1.1,1.1c0,0.6-0.5,1.1-1.1,1.1S634.7,286.1,634.7,285.5z"/>
				</g>
				<g>
					<path class="st10" d="M630.3,285.5c0-0.6,0.5-1.1,1.1-1.1s1.1,0.5,1.1,1.1c0,0.6-0.5,1.1-1.1,1.1S630.3,286.1,630.3,285.5z"/>
				</g>
				<g>
					<path class="st10" d="M625.9,285.5c0-0.6,0.5-1.1,1.1-1.1s1.1,0.5,1.1,1.1c0,0.6-0.5,1.1-1.1,1.1S625.9,286.1,625.9,285.5z"/>
				</g>
				<g>
					<path class="st10" d="M621.5,285.5c0-0.6,0.5-1.1,1.1-1.1s1.1,0.5,1.1,1.1c0,0.6-0.5,1.1-1.1,1.1S621.5,286.1,621.5,285.5z"/>
				</g>
				<g>
					<path class="st10" d="M617,285.5c0-0.6,0.5-1.1,1.1-1.1s1.1,0.5,1.1,1.1c0,0.6-0.5,1.1-1.1,1.1S617,286.1,617,285.5z"/>
				</g>
				<g>
					<path class="st10" d="M612.6,285.5c0-0.6,0.5-1.1,1.1-1.1s1.1,0.5,1.1,1.1c0,0.6-0.5,1.1-1.1,1.1S612.6,286.1,612.6,285.5z"/>
				</g>
				<g>
					<path class="st10" d="M608.2,285.5c0-0.6,0.5-1.1,1.1-1.1s1.1,0.5,1.1,1.1c0,0.6-0.5,1.1-1.1,1.1S608.2,286.1,608.2,285.5z"/>
				</g>
				<g>
					<path class="st10" d="M603.8,285.5c0-0.6,0.5-1.1,1.1-1.1s1.1,0.5,1.1,1.1c0,0.6-0.5,1.1-1.1,1.1S603.8,286.1,603.8,285.5z"/>
				</g>
				<g>
					<path class="st10" d="M599.4,285.5c0-0.6,0.5-1.1,1.1-1.1s1.1,0.5,1.1,1.1c0,0.6-0.5,1.1-1.1,1.1S599.4,286.1,599.4,285.5z"/>
				</g>
				<g>
					<path class="st10" d="M595,285.5c0-0.6,0.5-1.1,1.1-1.1s1.1,0.5,1.1,1.1c0,0.6-0.5,1.1-1.1,1.1S595,286.1,595,285.5z"/>
				</g>
				<g>
					<path class="st10" d="M590.5,285.5c0-0.6,0.5-1.1,1.1-1.1s1.1,0.5,1.1,1.1c0,0.6-0.5,1.1-1.1,1.1S590.5,286.1,590.5,285.5z"/>
				</g>
				<g>
					<path class="st10" d="M586.1,285.5c0-0.6,0.5-1.1,1.1-1.1s1.1,0.5,1.1,1.1c0,0.6-0.5,1.1-1.1,1.1S586.1,286.1,586.1,285.5z"/>
				</g>
				<g>
					<path class="st10" d="M581.7,285.5c0-0.6,0.5-1.1,1.1-1.1s1.1,0.5,1.1,1.1c0,0.6-0.5,1.1-1.1,1.1S581.7,286.1,581.7,285.5z"/>
				</g>
				<g>
					<path class="st10" d="M577.3,285.5c0-0.6,0.5-1.1,1.1-1.1s1.1,0.5,1.1,1.1c0,0.6-0.5,1.1-1.1,1.1S577.3,286.1,577.3,285.5z"/>
				</g>
				<g>
					<path class="st10" d="M572.9,285.5c0-0.6,0.5-1.1,1.1-1.1s1.1,0.5,1.1,1.1c0,0.6-0.5,1.1-1.1,1.1S572.9,286.1,572.9,285.5z"/>
				</g>
				<g>
					<path class="st10" d="M568.5,285.5c0-0.6,0.5-1.1,1.1-1.1s1.1,0.5,1.1,1.1c0,0.6-0.5,1.1-1.1,1.1S568.5,286.1,568.5,285.5z"/>
				</g>
				<g>
					<path class="st10" d="M564,285.5c0-0.6,0.5-1.1,1.1-1.1s1.1,0.5,1.1,1.1c0,0.6-0.5,1.1-1.1,1.1S564,286.1,564,285.5z"/>
				</g>
				<g>
					<path class="st10" d="M559.6,285.5c0-0.6,0.5-1.1,1.1-1.1s1.1,0.5,1.1,1.1c0,0.6-0.5,1.1-1.1,1.1S559.6,286.1,559.6,285.5z"/>
				</g>
				<g>
					<path class="st10" d="M555.2,285.5c0-0.6,0.5-1.1,1.1-1.1s1.1,0.5,1.1,1.1c0,0.6-0.5,1.1-1.1,1.1S555.2,286.1,555.2,285.5z"/>
				</g>
				<g>
					<path class="st10" d="M550.8,285.5c0-0.6,0.5-1.1,1.1-1.1s1.1,0.5,1.1,1.1c0,0.6-0.5,1.1-1.1,1.1S550.8,286.1,550.8,285.5z"/>
				</g>
				<g>
					<path class="st10" d="M546.4,285.5c0-0.6,0.5-1.1,1.1-1.1s1.1,0.5,1.1,1.1c0,0.6-0.5,1.1-1.1,1.1S546.4,286.1,546.4,285.5z"/>
				</g>
				<g>
					<path class="st10" d="M541.9,285.5c0-0.6,0.5-1.1,1.1-1.1s1.1,0.5,1.1,1.1c0,0.6-0.5,1.1-1.1,1.1S541.9,286.1,541.9,285.5z"/>
				</g>
				<g>
					<path class="st10" d="M537.5,285.5c0-0.6,0.5-1.1,1.1-1.1s1.1,0.5,1.1,1.1c0,0.6-0.5,1.1-1.1,1.1S537.5,286.1,537.5,285.5z"/>
				</g>
				<g>
					<path class="st10" d="M533.1,285.5c0-0.6,0.5-1.1,1.1-1.1s1.1,0.5,1.1,1.1c0,0.6-0.5,1.1-1.1,1.1S533.1,286.1,533.1,285.5z"/>
				</g>
				<g>
					<path class="st10" d="M528.7,285.5c0-0.6,0.5-1.1,1.1-1.1s1.1,0.5,1.1,1.1c0,0.6-0.5,1.1-1.1,1.1S528.7,286.1,528.7,285.5z"/>
				</g>
				<g>
					<path class="st10" d="M524.3,285.5c0-0.6,0.5-1.1,1.1-1.1s1.1,0.5,1.1,1.1c0,0.6-0.5,1.1-1.1,1.1S524.3,286.1,524.3,285.5z"/>
				</g>
				<g>
					<path class="st10" d="M519.9,285.5c0-0.6,0.5-1.1,1.1-1.1s1.1,0.5,1.1,1.1c0,0.6-0.5,1.1-1.1,1.1S519.9,286.1,519.9,285.5z"/>
				</g>
				<g>
					<path class="st10" d="M515.4,285.5c0-0.6,0.5-1.1,1.1-1.1s1.1,0.5,1.1,1.1c0,0.6-0.5,1.1-1.1,1.1S515.4,286.1,515.4,285.5z"/>
				</g>
				<g>
					<path class="st10" d="M511,285.5c0-0.6,0.5-1.1,1.1-1.1s1.1,0.5,1.1,1.1c0,0.6-0.5,1.1-1.1,1.1S511,286.1,511,285.5z"/>
				</g>
				<g>
					<path class="st10" d="M506.6,285.5c0-0.6,0.5-1.1,1.1-1.1c0.6,0,1.1,0.5,1.1,1.1c0,0.6-0.5,1.1-1.1,1.1
						C507.1,286.6,506.6,286.1,506.6,285.5z"/>
				</g>
				<g>
					<path class="st10" d="M502.2,285.5c0-0.6,0.5-1.1,1.1-1.1s1.1,0.5,1.1,1.1c0,0.6-0.5,1.1-1.1,1.1S502.2,286.1,502.2,285.5z"/>
				</g>
				<g>
					<path class="st10" d="M497.8,285.5c0-0.6,0.5-1.1,1.1-1.1s1.1,0.5,1.1,1.1c0,0.6-0.5,1.1-1.1,1.1S497.8,286.1,497.8,285.5z"/>
				</g>
				<g>
					<path class="st10" d="M493.4,285.5c0-0.6,0.5-1.1,1.1-1.1s1.1,0.5,1.1,1.1c0,0.6-0.5,1.1-1.1,1.1S493.4,286.1,493.4,285.5z"/>
				</g>
				<g>
					<path class="st10" d="M488.9,285.5c0-0.6,0.5-1.1,1.1-1.1s1.1,0.5,1.1,1.1c0,0.6-0.5,1.1-1.1,1.1S488.9,286.1,488.9,285.5z"/>
				</g>
				<g>
					<path class="st10" d="M484.5,285.5c0-0.6,0.5-1.1,1.1-1.1s1.1,0.5,1.1,1.1c0,0.6-0.5,1.1-1.1,1.1S484.5,286.1,484.5,285.5z"/>
				</g>
				<g>
					<path class="st10" d="M480.1,285.5c0-0.6,0.5-1.1,1.1-1.1s1.1,0.5,1.1,1.1c0,0.6-0.5,1.1-1.1,1.1S480.1,286.1,480.1,285.5z"/>
				</g>
				<g>
					<path class="st10" d="M475.7,285.5c0-0.6,0.5-1.1,1.1-1.1s1.1,0.5,1.1,1.1c0,0.6-0.5,1.1-1.1,1.1S475.7,286.1,475.7,285.5z"/>
				</g>
				<g>
					<path class="st10" d="M471.3,285.5c0-0.6,0.5-1.1,1.1-1.1s1.1,0.5,1.1,1.1c0,0.6-0.5,1.1-1.1,1.1S471.3,286.1,471.3,285.5z"/>
				</g>
				<g>
					<path class="st10" d="M466.9,285.5c0-0.6,0.5-1.1,1.1-1.1s1.1,0.5,1.1,1.1c0,0.6-0.5,1.1-1.1,1.1S466.9,286.1,466.9,285.5z"/>
				</g>
				<g>
					<path class="st10" d="M462.4,285.5c0-0.6,0.5-1.1,1.1-1.1s1.1,0.5,1.1,1.1c0,0.6-0.5,1.1-1.1,1.1S462.4,286.1,462.4,285.5z"/>
				</g>
				<g>
					<path class="st10" d="M458,285.5c0-0.6,0.5-1.1,1.1-1.1s1.1,0.5,1.1,1.1c0,0.6-0.5,1.1-1.1,1.1S458,286.1,458,285.5z"/>
				</g>
				<g>
					<path class="st10" d="M453.6,285.5c0-0.6,0.5-1.1,1.1-1.1s1.1,0.5,1.1,1.1c0,0.6-0.5,1.1-1.1,1.1S453.6,286.1,453.6,285.5z"/>
				</g>
				<g>
					<path class="st10" d="M449.2,285.5c0-0.6,0.5-1.1,1.1-1.1s1.1,0.5,1.1,1.1c0,0.6-0.5,1.1-1.1,1.1S449.2,286.1,449.2,285.5z"/>
				</g>
				<g>
					<path class="st10" d="M444.8,285.5c0-0.6,0.5-1.1,1.1-1.1s1.1,0.5,1.1,1.1c0,0.6-0.5,1.1-1.1,1.1S444.8,286.1,444.8,285.5z"/>
				</g>
				<g>
					<path class="st10" d="M440.3,285.5c0-0.6,0.5-1.1,1.1-1.1s1.1,0.5,1.1,1.1c0,0.6-0.5,1.1-1.1,1.1S440.3,286.1,440.3,285.5z"/>
				</g>
				<g>
					<path class="st10" d="M435.9,285.5c0-0.6,0.5-1.1,1.1-1.1s1.1,0.5,1.1,1.1c0,0.6-0.5,1.1-1.1,1.1S435.9,286.1,435.9,285.5z"/>
				</g>
				<g>
					<path class="st10" d="M431.5,285.5c0-0.6,0.5-1.1,1.1-1.1s1.1,0.5,1.1,1.1c0,0.6-0.5,1.1-1.1,1.1S431.5,286.1,431.5,285.5z"/>
				</g>
				<g>
					<path class="st10" d="M427.1,285.5c0-0.6,0.5-1.1,1.1-1.1s1.1,0.5,1.1,1.1c0,0.6-0.5,1.1-1.1,1.1S427.1,286.1,427.1,285.5z"/>
				</g>
				<g>
					<path class="st10" d="M422.7,285.5c0-0.6,0.5-1.1,1.1-1.1s1.1,0.5,1.1,1.1c0,0.6-0.5,1.1-1.1,1.1S422.7,286.1,422.7,285.5z"/>
				</g>
				<g>
					<path class="st10" d="M418.3,285.5c0-0.6,0.5-1.1,1.1-1.1s1.1,0.5,1.1,1.1c0,0.6-0.5,1.1-1.1,1.1S418.3,286.1,418.3,285.5z"/>
				</g>
				<g>
					<path class="st10" d="M413.8,285.5c0-0.6,0.5-1.1,1.1-1.1s1.1,0.5,1.1,1.1c0,0.6-0.5,1.1-1.1,1.1S413.8,286.1,413.8,285.5z"/>
				</g>
				<g>
					<path class="st10" d="M409.4,285.5c0-0.6,0.5-1.1,1.1-1.1s1.1,0.5,1.1,1.1c0,0.6-0.5,1.1-1.1,1.1S409.4,286.1,409.4,285.5z"/>
				</g>
				<g>
					<path class="st10" d="M405,285.5c0-0.6,0.5-1.1,1.1-1.1s1.1,0.5,1.1,1.1c0,0.6-0.5,1.1-1.1,1.1S405,286.1,405,285.5z"/>
				</g>
				<g>
					<path class="st10" d="M400.6,285.5c0-0.6,0.5-1.1,1.1-1.1s1.1,0.5,1.1,1.1c0,0.6-0.5,1.1-1.1,1.1S400.6,286.1,400.6,285.5z"/>
				</g>
				<g>
					<path class="st10" d="M396.2,285.5c0-0.6,0.5-1.1,1.1-1.1s1.1,0.5,1.1,1.1c0,0.6-0.5,1.1-1.1,1.1S396.2,286.1,396.2,285.5z"/>
				</g>
				<g>
					<path class="st10" d="M391.8,285.5c0-0.6,0.5-1.1,1.1-1.1s1.1,0.5,1.1,1.1c0,0.6-0.5,1.1-1.1,1.1S391.8,286.1,391.8,285.5z"/>
				</g>
				<g>
					<path class="st10" d="M387.3,285.5c0-0.6,0.5-1.1,1.1-1.1s1.1,0.5,1.1,1.1c0,0.6-0.5,1.1-1.1,1.1S387.3,286.1,387.3,285.5z"/>
				</g>
				<g>
					<path class="st10" d="M382.9,285.5c0-0.6,0.5-1.1,1.1-1.1s1.1,0.5,1.1,1.1c0,0.6-0.5,1.1-1.1,1.1S382.9,286.1,382.9,285.5z"/>
				</g>
				<g>
					<path class="st10" d="M378.5,285.5c0-0.6,0.5-1.1,1.1-1.1s1.1,0.5,1.1,1.1c0,0.6-0.5,1.1-1.1,1.1S378.5,286.1,378.5,285.5z"/>
				</g>
				<g>
					<path class="st10" d="M374.1,285.5c0-0.6,0.5-1.1,1.1-1.1s1.1,0.5,1.1,1.1c0,0.6-0.5,1.1-1.1,1.1S374.1,286.1,374.1,285.5z"/>
				</g>
				<g>
					<path class="st10" d="M369.7,285.5c0-0.6,0.5-1.1,1.1-1.1c0.6,0,1.1,0.5,1.1,1.1c0,0.6-0.5,1.1-1.1,1.1
						C370.2,286.6,369.7,286.1,369.7,285.5z"/>
				</g>
				<g>
					<path class="st10" d="M365.2,285.5c0-0.6,0.5-1.1,1.1-1.1s1.1,0.5,1.1,1.1c0,0.6-0.5,1.1-1.1,1.1S365.2,286.1,365.2,285.5z"/>
				</g>
				<g>
					<path class="st10" d="M360.8,285.5c0-0.6,0.5-1.1,1.1-1.1s1.1,0.5,1.1,1.1c0,0.6-0.5,1.1-1.1,1.1S360.8,286.1,360.8,285.5z"/>
				</g>
				<g>
					<path class="st10" d="M356.4,285.5c0-0.6,0.5-1.1,1.1-1.1s1.1,0.5,1.1,1.1c0,0.6-0.5,1.1-1.1,1.1S356.4,286.1,356.4,285.5z"/>
				</g>
				<g>
					<path class="st10" d="M352,285.5c0-0.6,0.5-1.1,1.1-1.1s1.1,0.5,1.1,1.1c0,0.6-0.5,1.1-1.1,1.1S352,286.1,352,285.5z"/>
				</g>
				<g>
					<path class="st10" d="M347.6,285.5c0-0.6,0.5-1.1,1.1-1.1s1.1,0.5,1.1,1.1c0,0.6-0.5,1.1-1.1,1.1S347.6,286.1,347.6,285.5z"/>
				</g>
				<g>
					<path class="st10" d="M343.2,285.5c0-0.6,0.5-1.1,1.1-1.1s1.1,0.5,1.1,1.1c0,0.6-0.5,1.1-1.1,1.1S343.2,286.1,343.2,285.5z"/>
				</g>
				<g>
					<path class="st10" d="M338.7,285.5c0-0.6,0.5-1.1,1.1-1.1s1.1,0.5,1.1,1.1c0,0.6-0.5,1.1-1.1,1.1S338.7,286.1,338.7,285.5z"/>
				</g>
				<g>
					<path class="st10" d="M334.3,285.5c0-0.6,0.5-1.1,1.1-1.1s1.1,0.5,1.1,1.1c0,0.6-0.5,1.1-1.1,1.1S334.3,286.1,334.3,285.5z"/>
				</g>
				<g>
					<path class="st10" d="M329.9,285.5c0-0.6,0.5-1.1,1.1-1.1s1.1,0.5,1.1,1.1c0,0.6-0.5,1.1-1.1,1.1S329.9,286.1,329.9,285.5z"/>
				</g>
				<g>
					<path class="st10" d="M325.5,285.5c0-0.6,0.5-1.1,1.1-1.1s1.1,0.5,1.1,1.1c0,0.6-0.5,1.1-1.1,1.1S325.5,286.1,325.5,285.5z"/>
				</g>
				<g>
					<path class="st10" d="M321.1,285.5c0-0.6,0.5-1.1,1.1-1.1s1.1,0.5,1.1,1.1c0,0.6-0.5,1.1-1.1,1.1S321.1,286.1,321.1,285.5z"/>
				</g>
				<g>
					<path class="st10" d="M316.7,285.5c0-0.6,0.5-1.1,1.1-1.1s1.1,0.5,1.1,1.1c0,0.6-0.5,1.1-1.1,1.1S316.7,286.1,316.7,285.5z"/>
				</g>
				<g>
					<path class="st10" d="M312.2,285.5c0-0.6,0.5-1.1,1.1-1.1s1.1,0.5,1.1,1.1c0,0.6-0.5,1.1-1.1,1.1S312.2,286.1,312.2,285.5z"/>
				</g>
				<g>
					<path class="st10" d="M307.8,285.5c0-0.6,0.5-1.1,1.1-1.1s1.1,0.5,1.1,1.1c0,0.6-0.5,1.1-1.1,1.1S307.8,286.1,307.8,285.5z"/>
				</g>
				<g>
					<path class="st10" d="M303.4,285.5c0-0.6,0.5-1.1,1.1-1.1s1.1,0.5,1.1,1.1c0,0.6-0.5,1.1-1.1,1.1S303.4,286.1,303.4,285.5z"/>
				</g>
				<g>
					<path class="st10" d="M299,285.5c0-0.6,0.5-1.1,1.1-1.1s1.1,0.5,1.1,1.1c0,0.6-0.5,1.1-1.1,1.1S299,286.1,299,285.5z"/>
				</g>
				<g>
					<path class="st10" d="M294.6,285.5c0-0.6,0.5-1.1,1.1-1.1s1.1,0.5,1.1,1.1c0,0.6-0.5,1.1-1.1,1.1S294.6,286.1,294.6,285.5z"/>
				</g>
				<g>
					<path class="st10" d="M290.2,285.5c0-0.6,0.5-1.1,1.1-1.1s1.1,0.5,1.1,1.1c0,0.6-0.5,1.1-1.1,1.1S290.2,286.1,290.2,285.5z"/>
				</g>
				<g>
					<path class="st10" d="M285.7,285.5c0-0.6,0.5-1.1,1.1-1.1c0.6,0,1.1,0.5,1.1,1.1c0,0.6-0.5,1.1-1.1,1.1
						C286.2,286.6,285.7,286.1,285.7,285.5z"/>
				</g>
				<g>
					<path class="st10" d="M281.3,285.5c0-0.6,0.5-1.1,1.1-1.1s1.1,0.5,1.1,1.1c0,0.6-0.5,1.1-1.1,1.1S281.3,286.1,281.3,285.5z"/>
				</g>
				<g>
					<path class="st10" d="M276.9,285.5c0-0.6,0.5-1.1,1.1-1.1s1.1,0.5,1.1,1.1c0,0.6-0.5,1.1-1.1,1.1S276.9,286.1,276.9,285.5z"/>
				</g>
				<g>
					<path class="st10" d="M272.5,285.5c0-0.6,0.5-1.1,1.1-1.1s1.1,0.5,1.1,1.1c0,0.6-0.5,1.1-1.1,1.1S272.5,286.1,272.5,285.5z"/>
				</g>
				<g>
					<path class="st10" d="M268.1,285.5c0-0.6,0.5-1.1,1.1-1.1s1.1,0.5,1.1,1.1c0,0.6-0.5,1.1-1.1,1.1S268.1,286.1,268.1,285.5z"/>
				</g>
				<g>
					<path class="st10" d="M263.6,285.5c0-0.6,0.5-1.1,1.1-1.1s1.1,0.5,1.1,1.1c0,0.6-0.5,1.1-1.1,1.1S263.6,286.1,263.6,285.5z"/>
				</g>
				<g>
					<path class="st10" d="M259.2,285.5c0-0.6,0.5-1.1,1.1-1.1s1.1,0.5,1.1,1.1c0,0.6-0.5,1.1-1.1,1.1S259.2,286.1,259.2,285.5z"/>
				</g>
				<g>
					<path class="st10" d="M254.8,285.5c0-0.6,0.5-1.1,1.1-1.1s1.1,0.5,1.1,1.1c0,0.6-0.5,1.1-1.1,1.1S254.8,286.1,254.8,285.5z"/>
				</g>
				<g>
					<path class="st10" d="M250.4,285.5c0-0.6,0.5-1.1,1.1-1.1c0.6,0,1.1,0.5,1.1,1.1c0,0.6-0.5,1.1-1.1,1.1
						C250.9,286.6,250.4,286.1,250.4,285.5z"/>
				</g>
				<g>
					<path class="st10" d="M246,285.5c0-0.6,0.5-1.1,1.1-1.1s1.1,0.5,1.1,1.1c0,0.6-0.5,1.1-1.1,1.1S246,286.1,246,285.5z"/>
				</g>
				<g>
					<path class="st10" d="M241.6,285.5c0-0.6,0.5-1.1,1.1-1.1s1.1,0.5,1.1,1.1c0,0.6-0.5,1.1-1.1,1.1S241.6,286.1,241.6,285.5z"/>
				</g>
				<g>
					<path class="st10" d="M237.1,285.5c0-0.6,0.5-1.1,1.1-1.1s1.1,0.5,1.1,1.1c0,0.6-0.5,1.1-1.1,1.1S237.1,286.1,237.1,285.5z"/>
				</g>
				<g>
					<path class="st10" d="M232.7,285.5c0-0.6,0.5-1.1,1.1-1.1s1.1,0.5,1.1,1.1c0,0.6-0.5,1.1-1.1,1.1S232.7,286.1,232.7,285.5z"/>
				</g>
				<g>
					<path class="st10" d="M228.3,285.5c0-0.6,0.5-1.1,1.1-1.1s1.1,0.5,1.1,1.1c0,0.6-0.5,1.1-1.1,1.1S228.3,286.1,228.3,285.5z"/>
				</g>
				<g>
					<path class="st10" d="M223.9,285.5c0-0.6,0.5-1.1,1.1-1.1s1.1,0.5,1.1,1.1c0,0.6-0.5,1.1-1.1,1.1S223.9,286.1,223.9,285.5z"/>
				</g>
				<g>
					<path class="st10" d="M219.5,285.5c0-0.6,0.5-1.1,1.1-1.1s1.1,0.5,1.1,1.1c0,0.6-0.5,1.1-1.1,1.1S219.5,286.1,219.5,285.5z"/>
				</g>
				<g>
					<path class="st10" d="M215.1,285.5c0-0.6,0.5-1.1,1.1-1.1s1.1,0.5,1.1,1.1c0,0.6-0.5,1.1-1.1,1.1S215.1,286.1,215.1,285.5z"/>
				</g>
				<g>
					<path class="st10" d="M210.6,285.5c0-0.6,0.5-1.1,1.1-1.1c0.6,0,1.1,0.5,1.1,1.1c0,0.6-0.5,1.1-1.1,1.1
						C211.1,286.6,210.6,286.1,210.6,285.5z"/>
				</g>
				<g>
					<path class="st10" d="M206.2,285.5c0-0.6,0.5-1.1,1.1-1.1s1.1,0.5,1.1,1.1c0,0.6-0.5,1.1-1.1,1.1S206.2,286.1,206.2,285.5z"/>
				</g>
				<g>
					<path class="st10" d="M201.8,285.5c0-0.6,0.5-1.1,1.1-1.1c0.6,0,1.1,0.5,1.1,1.1c0,0.6-0.5,1.1-1.1,1.1
						C202.3,286.6,201.8,286.1,201.8,285.5z"/>
				</g>
				<g>
					<path class="st10" d="M197.4,285.5c0-0.6,0.5-1.1,1.1-1.1s1.1,0.5,1.1,1.1c0,0.6-0.5,1.1-1.1,1.1S197.4,286.1,197.4,285.5z"/>
				</g>
				<g>
					<path class="st10" d="M193,285.5c0-0.6,0.5-1.1,1.1-1.1s1.1,0.5,1.1,1.1c0,0.6-0.5,1.1-1.1,1.1S193,286.1,193,285.5z"/>
				</g>
				<g>
					<path class="st10" d="M188.6,285.5c0-0.6,0.5-1.1,1.1-1.1s1.1,0.5,1.1,1.1c0,0.6-0.5,1.1-1.1,1.1S188.6,286.1,188.6,285.5z"/>
				</g>
				<g>
					<path class="st10" d="M184.1,285.5c0-0.6,0.5-1.1,1.1-1.1s1.1,0.5,1.1,1.1c0,0.6-0.5,1.1-1.1,1.1S184.1,286.1,184.1,285.5z"/>
				</g>
				<g>
					<path class="st10" d="M179.7,285.5c0-0.6,0.5-1.1,1.1-1.1s1.1,0.5,1.1,1.1c0,0.6-0.5,1.1-1.1,1.1S179.7,286.1,179.7,285.5z"/>
				</g>
				<g>
					<path class="st10" d="M175.3,285.5c0-0.6,0.5-1.1,1.1-1.1s1.1,0.5,1.1,1.1c0,0.6-0.5,1.1-1.1,1.1S175.3,286.1,175.3,285.5z"/>
				</g>
				<g>
					<path class="st10" d="M170.9,285.5c0-0.6,0.5-1.1,1.1-1.1c0.6,0,1.1,0.5,1.1,1.1c0,0.6-0.5,1.1-1.1,1.1
						C171.4,286.6,170.9,286.1,170.9,285.5z"/>
				</g>
				<g>
					<path class="st10" d="M166.5,285.5c0-0.6,0.5-1.1,1.1-1.1s1.1,0.5,1.1,1.1c0,0.6-0.5,1.1-1.1,1.1S166.5,286.1,166.5,285.5z"/>
				</g>
				<g>
					<path class="st10" d="M162,285.5c0-0.6,0.5-1.1,1.1-1.1s1.1,0.5,1.1,1.1c0,0.6-0.5,1.1-1.1,1.1S162,286.1,162,285.5z"/>
				</g>
				<g>
					<line class="st12" x1="158.7" y1="291.3" x2="158.7" y2="279.7"/>
				</g>
			</g>
		</g>
	</g>
	<g>
		<g>
			<g>
				<g>
					<line class="st12" x1="442.5" y1="118.3" x2="436.6" y2="128.3"/>
				</g>
				<g>
					<path class="st10" d="M444.3,126.1c-0.3,0.5-1,0.7-1.5,0.4c-0.5-0.3-0.7-1-0.4-1.5c0.3-0.5,1-0.7,1.5-0.4
						C444.4,124.9,444.6,125.6,444.3,126.1z"/>
				</g>
				<g>
					<path class="st10" d="M448,128.4c-0.3,0.5-1,0.7-1.5,0.4s-0.7-1-0.4-1.5c0.3-0.5,1-0.7,1.5-0.4
						C448.2,127.2,448.4,127.8,448,128.4z"/>
				</g>
				<g>
					<path class="st10" d="M451.8,130.6c-0.3,0.5-1,0.7-1.5,0.4c-0.5-0.3-0.7-1-0.4-1.5c0.3-0.5,1-0.7,1.5-0.4
						S452.1,130.1,451.8,130.6z"/>
				</g>
				<g>
					<path class="st10" d="M455.6,132.9c-0.3,0.5-1,0.7-1.5,0.4c-0.5-0.3-0.7-1-0.4-1.5c0.3-0.5,1-0.7,1.5-0.4
						C455.8,131.7,455.9,132.4,455.6,132.9z"/>
				</g>
				<g>
					<path class="st10" d="M459.4,135.1c-0.3,0.5-1,0.7-1.5,0.4s-0.7-1-0.4-1.5c0.3-0.5,1-0.7,1.5-0.4
						C459.6,133.9,459.7,134.6,459.4,135.1z"/>
				</g>
				<g>
					<path class="st10" d="M463.2,137.4c-0.3,0.5-1,0.7-1.5,0.4c-0.5-0.3-0.7-1-0.4-1.5c0.3-0.5,1-0.7,1.5-0.4
						S463.5,136.9,463.2,137.4z"/>
				</g>
				<g>
					<path class="st10" d="M467,139.7c-0.3,0.5-1,0.7-1.5,0.4c-0.5-0.3-0.7-1-0.4-1.5c0.3-0.5,1-0.7,1.5-0.4
						C467.1,138.5,467.3,139.1,467,139.7z"/>
				</g>
				<g>
					<path class="st10" d="M470.8,141.9c-0.3,0.5-1,0.7-1.5,0.4c-0.5-0.3-0.7-1-0.4-1.5c0.3-0.5,1-0.7,1.5-0.4
						C470.9,140.7,471.1,141.4,470.8,141.9z"/>
				</g>
				<g>
					<path class="st10" d="M474.6,144.2c-0.3,0.5-1,0.7-1.5,0.4c-0.5-0.3-0.7-1-0.4-1.5c0.3-0.5,1-0.7,1.5-0.4
						S474.9,143.7,474.6,144.2z"/>
				</g>
				<g>
					<path class="st10" d="M478.3,146.4c-0.3,0.5-1,0.7-1.5,0.4c-0.5-0.3-0.7-1-0.4-1.5c0.3-0.5,1-0.7,1.5-0.4
						S478.7,145.9,478.3,146.4z"/>
				</g>
				<g>
					<path class="st10" d="M482.1,148.7c-0.3,0.5-1,0.7-1.5,0.4c-0.5-0.3-0.7-1-0.4-1.5c0.3-0.5,1-0.7,1.5-0.4
						C482.3,147.5,482.4,148.2,482.1,148.7z"/>
				</g>
				<g>
					<path class="st10" d="M485.9,151c-0.3,0.5-1,0.7-1.5,0.4c-0.5-0.3-0.7-1-0.4-1.5c0.3-0.5,1-0.7,1.5-0.4
						C486.1,149.8,486.2,150.4,485.9,151z"/>
				</g>
				<g>
					<path class="st10" d="M489.7,153.2c-0.3,0.5-1,0.7-1.5,0.4c-0.5-0.3-0.7-1-0.4-1.5c0.3-0.5,1-0.7,1.5-0.4
						S490,152.7,489.7,153.2z"/>
				</g>
				<g>
					<path class="st10" d="M493.5,155.5c-0.3,0.5-1,0.7-1.5,0.4c-0.5-0.3-0.7-1-0.4-1.5c0.3-0.5,1-0.7,1.5-0.4
						C493.6,154.3,493.8,155,493.5,155.5z"/>
				</g>
				<g>
					<path class="st10" d="M497.3,157.7c-0.3,0.5-1,0.7-1.5,0.4c-0.5-0.3-0.7-1-0.4-1.5c0.3-0.5,1-0.7,1.5-0.4
						C497.4,156.5,497.6,157.2,497.3,157.7z"/>
				</g>
				<g>
					<path class="st10" d="M501.1,160c-0.3,0.5-1,0.7-1.5,0.4c-0.5-0.3-0.7-1-0.4-1.5c0.3-0.5,1-0.7,1.5-0.4S501.4,159.5,501.1,160z
						"/>
				</g>
				<g>
					<path class="st10" d="M504.9,162.3c-0.3,0.5-1,0.7-1.5,0.4c-0.5-0.3-0.7-1-0.4-1.5c0.3-0.5,1-0.7,1.5-0.4
						C505,161.1,505.2,161.7,504.9,162.3z"/>
				</g>
				<g>
					<path class="st10" d="M508.6,164.5c-0.3,0.5-1,0.7-1.5,0.4c-0.5-0.3-0.7-1-0.4-1.5c0.3-0.5,1-0.7,1.5-0.4
						C508.8,163.3,509,164,508.6,164.5z"/>
				</g>
				<g>
					<path class="st10" d="M512.4,166.8c-0.3,0.5-1,0.7-1.5,0.4c-0.5-0.3-0.7-1-0.4-1.5c0.3-0.5,1-0.7,1.5-0.4
						C512.6,165.6,512.7,166.3,512.4,166.8z"/>
				</g>
				<g>
					<path class="st10" d="M516.2,169c-0.3,0.5-1,0.7-1.5,0.4c-0.5-0.3-0.7-1-0.4-1.5c0.3-0.5,1-0.7,1.5-0.4
						C516.4,167.8,516.5,168.5,516.2,169z"/>
				</g>
				<g>
					<path class="st10" d="M520,171.3c-0.3,0.5-1,0.7-1.5,0.4s-0.7-1-0.4-1.5c0.3-0.5,1-0.7,1.5-0.4
						C520.1,170.1,520.3,170.8,520,171.3z"/>
				</g>
				<g>
					<path class="st10" d="M523.8,173.6c-0.3,0.5-1,0.7-1.5,0.4c-0.5-0.3-0.7-1-0.4-1.5c0.3-0.5,1-0.7,1.5-0.4
						S524.1,173,523.8,173.6z"/>
				</g>
				<g>
					<path class="st10" d="M527.6,175.8c-0.3,0.5-1,0.7-1.5,0.4c-0.5-0.3-0.7-1-0.4-1.5c0.3-0.5,1-0.7,1.5-0.4
						C527.7,174.6,527.9,175.3,527.6,175.8z"/>
				</g>
				<g>
					<path class="st10" d="M531.4,178.1c-0.3,0.5-1,0.7-1.5,0.4c-0.5-0.3-0.7-1-0.4-1.5c0.3-0.5,1-0.7,1.5-0.4
						C531.5,176.9,531.7,177.6,531.4,178.1z"/>
				</g>
				<g>
					<path class="st10" d="M535.1,180.3c-0.3,0.5-1,0.7-1.5,0.4c-0.5-0.3-0.7-1-0.4-1.5c0.3-0.5,1-0.7,1.5-0.4
						S535.5,179.8,535.1,180.3z"/>
				</g>
				<g>
					<path class="st10" d="M538.9,182.6c-0.3,0.5-1,0.7-1.5,0.4c-0.5-0.3-0.7-1-0.4-1.5c0.3-0.5,1-0.7,1.5-0.4
						C539.1,181.4,539.2,182.1,538.9,182.6z"/>
				</g>
				<g>
					<path class="st10" d="M542.7,184.9c-0.3,0.5-1,0.7-1.5,0.4s-0.7-1-0.4-1.5c0.3-0.5,1-0.7,1.5-0.4
						C542.9,183.7,543,184.3,542.7,184.9z"/>
				</g>
				<g>
					<path class="st10" d="M546.5,187.1c-0.3,0.5-1,0.7-1.5,0.4c-0.5-0.3-0.7-1-0.4-1.5c0.3-0.5,1-0.7,1.5-0.4
						S546.8,186.6,546.5,187.1z"/>
				</g>
				<g>
					<path class="st10" d="M550.3,189.4c-0.3,0.5-1,0.7-1.5,0.4c-0.5-0.3-0.7-1-0.4-1.5c0.3-0.5,1-0.7,1.5-0.4
						C550.4,188.2,550.6,188.9,550.3,189.4z"/>
				</g>
				<g>
					<path class="st10" d="M554.1,191.6c-0.3,0.5-1,0.7-1.5,0.4s-0.7-1-0.4-1.5c0.3-0.5,1-0.7,1.5-0.4
						C554.2,190.4,554.4,191.1,554.1,191.6z"/>
				</g>
				<g>
					<path class="st10" d="M557.9,193.9c-0.3,0.5-1,0.7-1.5,0.4c-0.5-0.3-0.7-1-0.4-1.5c0.3-0.5,1-0.7,1.5-0.4
						S558.2,193.4,557.9,193.9z"/>
				</g>
				<g>
					<path class="st10" d="M561.7,196.2c-0.3,0.5-1,0.7-1.5,0.4c-0.5-0.3-0.7-1-0.4-1.5c0.3-0.5,1-0.7,1.5-0.4
						C561.8,195,562,195.6,561.7,196.2z"/>
				</g>
				<g>
					<path class="st10" d="M565.4,198.4c-0.3,0.5-1,0.7-1.5,0.4s-0.7-1-0.4-1.5c0.3-0.5,1-0.7,1.5-0.4
						C565.6,197.2,565.8,197.9,565.4,198.4z"/>
				</g>
				<g>
					<path class="st10" d="M569.2,200.7c-0.3,0.5-1,0.7-1.5,0.4s-0.7-1-0.4-1.5c0.3-0.5,1-0.7,1.5-0.4S569.5,200.2,569.2,200.7z"/>
				</g>
				<g>
					<path class="st10" d="M573,202.9c-0.3,0.5-1,0.7-1.5,0.4c-0.5-0.3-0.7-1-0.4-1.5c0.3-0.5,1-0.7,1.5-0.4
						C573.2,201.7,573.3,202.4,573,202.9z"/>
				</g>
				<g>
					<path class="st10" d="M576.8,205.2c-0.3,0.5-1,0.7-1.5,0.4c-0.5-0.3-0.7-1-0.4-1.5c0.3-0.5,1-0.7,1.5-0.4
						C576.9,204,577.1,204.7,576.8,205.2z"/>
				</g>
				<g>
					<path class="st10" d="M580.6,207.5c-0.3,0.5-1,0.7-1.5,0.4c-0.5-0.3-0.7-1-0.4-1.5c0.3-0.5,1-0.7,1.5-0.4
						S580.9,206.9,580.6,207.5z"/>
				</g>
				<g>
					<path class="st10" d="M584.4,209.7c-0.3,0.5-1,0.7-1.5,0.4c-0.5-0.3-0.7-1-0.4-1.5c0.3-0.5,1-0.7,1.5-0.4
						S584.7,209.2,584.4,209.7z"/>
				</g>
				<g>
					<path class="st10" d="M588.2,212c-0.3,0.5-1,0.7-1.5,0.4c-0.5-0.3-0.7-1-0.4-1.5c0.3-0.5,1-0.7,1.5-0.4
						C588.3,210.8,588.5,211.5,588.2,212z"/>
				</g>
				<g>
					<path class="st10" d="M592,214.2c-0.3,0.5-1,0.7-1.5,0.4s-0.7-1-0.4-1.5c0.3-0.5,1-0.7,1.5-0.4
						C592.1,213,592.3,213.7,592,214.2z"/>
				</g>
				<g>
					<path class="st10" d="M595.7,216.5c-0.3,0.5-1,0.7-1.5,0.4c-0.5-0.3-0.7-1-0.4-1.5c0.3-0.5,1-0.7,1.5-0.4
						S596.1,216,595.7,216.5z"/>
				</g>
				<g>
					<path class="st10" d="M599.5,218.8c-0.3,0.5-1,0.7-1.5,0.4c-0.5-0.3-0.7-1-0.4-1.5c0.3-0.5,1-0.7,1.5-0.4
						C599.7,217.6,599.8,218.2,599.5,218.8z"/>
				</g>
				<g>
					<path class="st10" d="M603.3,221c-0.3,0.5-1,0.7-1.5,0.4c-0.5-0.3-0.7-1-0.4-1.5c0.3-0.5,1-0.7,1.5-0.4
						C603.5,219.8,603.6,220.5,603.3,221z"/>
				</g>
				<g>
					<path class="st10" d="M607.1,223.3c-0.3,0.5-1,0.7-1.5,0.4c-0.5-0.3-0.7-1-0.4-1.5c0.3-0.5,1-0.7,1.5-0.4
						S607.4,222.8,607.1,223.3z"/>
				</g>
				<g>
					<path class="st10" d="M610.9,225.5c-0.3,0.5-1,0.7-1.5,0.4c-0.5-0.3-0.7-1-0.4-1.5c0.3-0.5,1-0.7,1.5-0.4
						C611,224.3,611.2,225,610.9,225.5z"/>
				</g>
				<g>
					<path class="st10" d="M614.7,227.8c-0.3,0.5-1,0.7-1.5,0.4s-0.7-1-0.4-1.5c0.3-0.5,1-0.7,1.5-0.4
						C614.8,226.6,615,227.3,614.7,227.8z"/>
				</g>
				<g>
					<path class="st10" d="M618.5,230.1c-0.3,0.5-1,0.7-1.5,0.4c-0.5-0.3-0.7-1-0.4-1.5c0.3-0.5,1-0.7,1.5-0.4
						S618.8,229.5,618.5,230.1z"/>
				</g>
				<g>
					<path class="st10" d="M622.3,232.3c-0.3,0.5-1,0.7-1.5,0.4c-0.5-0.3-0.7-1-0.4-1.5c0.3-0.5,1-0.7,1.5-0.4
						C622.4,231.1,622.6,231.8,622.3,232.3z"/>
				</g>
				<g>
					<path class="st10" d="M626,234.6c-0.3,0.5-1,0.7-1.5,0.4c-0.5-0.3-0.7-1-0.4-1.5c0.3-0.5,1-0.7,1.5-0.4
						C626.2,233.4,626.4,234.1,626,234.6z"/>
				</g>
				<g>
					<path class="st10" d="M629.8,236.8c-0.3,0.5-1,0.7-1.5,0.4c-0.5-0.3-0.7-1-0.4-1.5c0.3-0.5,1-0.7,1.5-0.4
						S630.1,236.3,629.8,236.8z"/>
				</g>
				<g>
					<path class="st10" d="M633.6,239.1c-0.3,0.5-1,0.7-1.5,0.4c-0.5-0.3-0.7-1-0.4-1.5c0.3-0.5,1-0.7,1.5-0.4
						C633.8,237.9,633.9,238.6,633.6,239.1z"/>
				</g>
				<g>
					<path class="st10" d="M637.4,241.4c-0.3,0.5-1,0.7-1.5,0.4s-0.7-1-0.4-1.5c0.3-0.5,1-0.7,1.5-0.4
						C637.5,240.2,637.7,240.8,637.4,241.4z"/>
				</g>
				<g>
					<path class="st10" d="M641.2,243.6c-0.3,0.5-1,0.7-1.5,0.4c-0.5-0.3-0.7-1-0.4-1.5c0.3-0.5,1-0.7,1.5-0.4
						S641.5,243.1,641.2,243.6z"/>
				</g>
				<g>
					<path class="st10" d="M645,245.9c-0.3,0.5-1,0.7-1.5,0.4c-0.5-0.3-0.7-1-0.4-1.5c0.3-0.5,1-0.7,1.5-0.4
						C645.1,244.7,645.3,245.4,645,245.9z"/>
				</g>
				<g>
					<path class="st10" d="M648.8,248.1c-0.3,0.5-1,0.7-1.5,0.4c-0.5-0.3-0.7-1-0.4-1.5c0.3-0.5,1-0.7,1.5-0.4
						C648.9,246.9,649.1,247.6,648.8,248.1z"/>
				</g>
				<g>
					<line class="st12" x1="654.6" y1="244.9" x2="648.6" y2="254.8"/>
				</g>
			</g>
		</g>
	</g>
</g>
<g id="アイコン">
	<g>
		
			<rect x="560.8" y="324.1" transform="matrix(6.031981e-11 -1 1 6.031981e-11 236.7156 887.7278)" class="st5" width="2.8" height="2.8"/>
		
			<rect x="560.8" y="318.4" transform="matrix(5.967855e-11 -1 1 5.967855e-11 242.3849 882.0585)" class="st5" width="2.8" height="2.8"/>
		
			<rect x="563.6" y="321.3" transform="matrix(6.031981e-11 -1 1 6.031981e-11 242.3849 887.7278)" class="st5" width="2.8" height="2.8"/>
		
			<rect x="563.6" y="315.6" transform="matrix(5.903639e-11 -1 1 5.903639e-11 248.0542 882.0585)" class="st5" width="2.8" height="2.8"/>
		
			<rect x="569.3" y="321.3" transform="matrix(6.160323e-11 -1 1 6.160323e-11 248.0542 893.397)" class="st5" width="2.8" height="2.8"/>
		
			<rect x="569.3" y="315.6" transform="matrix(5.903639e-11 -1 1 5.903639e-11 253.7234 887.7278)" class="st5" width="2.8" height="2.8"/>
		
			<rect x="560.8" y="312.8" transform="matrix(5.903639e-11 -1 1 5.903639e-11 248.0542 876.3892)" class="st5" width="2.8" height="2.8"/>
		
			<rect x="560.8" y="315.6" transform="matrix(5.967855e-11 -1 1 5.967855e-11 245.2195 879.2238)" class="st6" width="2.8" height="2.8"/>
		
			<rect x="560.8" y="321.3" transform="matrix(6.096108e-11 -1 1 6.096108e-11 239.5502 884.8931)" class="st6" width="2.8" height="2.8"/>
		
			<rect x="563.6" y="324.1" transform="matrix(5.967855e-11 -1 1 5.967855e-11 239.5502 890.5624)" class="st6" width="2.8" height="2.8"/>
		
			<rect x="563.6" y="318.4" transform="matrix(5.967855e-11 -1 1 5.967855e-11 245.2195 884.8931)" class="st6" width="2.8" height="2.8"/>
		
			<rect x="563.6" y="312.8" transform="matrix(6.031981e-11 -1 1 6.031981e-11 250.8888 879.2238)" class="st6" width="2.8" height="2.8"/>
		
			<rect x="566.5" y="315.6" transform="matrix(6.031981e-11 -1 1 6.031981e-11 250.8888 884.8931)" class="st6" width="2.8" height="2.8"/>
		
			<rect x="566.5" y="321.3" transform="matrix(6.031981e-11 -1 1 6.031981e-11 245.2195 890.5624)" class="st6" width="2.8" height="2.8"/>
		
			<rect x="572.1" y="315.6" transform="matrix(6.031981e-11 -1 1 6.031981e-11 256.5581 890.5624)" class="st6" width="2.8" height="2.8"/>
		
			<rect x="572.1" y="321.3" transform="matrix(5.839424e-11 -1 1 5.839424e-11 250.8888 896.2317)" class="st6" width="2.8" height="2.8"/>
		
			<rect x="569.3" y="324.1" transform="matrix(5.839424e-11 -1 1 5.839424e-11 245.2195 896.2317)" class="st6" width="2.8" height="2.8"/>
		
			<rect x="569.3" y="318.4" transform="matrix(6.031981e-11 -1 1 6.031981e-11 250.8888 890.5624)" class="st6" width="2.8" height="2.8"/>
		
			<rect x="569.3" y="312.8" transform="matrix(6.031981e-11 -1 1 6.031981e-11 256.5581 884.8931)" class="st6" width="2.8" height="2.8"/>
		
			<rect x="566.5" y="324.1" transform="matrix(5.967855e-11 -1 1 5.967855e-11 242.3849 893.397)" class="st5" width="2.8" height="2.8"/>
		
			<rect x="566.5" y="318.4" transform="matrix(5.903639e-11 -1 1 5.903639e-11 248.0542 887.7278)" class="st5" width="2.8" height="2.8"/>
		
			<rect x="572.1" y="318.4" transform="matrix(6.031981e-11 -1 1 6.031981e-11 253.7234 893.397)" class="st5" width="2.8" height="2.8"/>
		
			<rect x="566.5" y="312.8" transform="matrix(6.031981e-11 -1 1 6.031981e-11 253.7234 882.0585)" class="st5" width="2.8" height="2.8"/>
		
			<rect x="572.1" y="324.1" transform="matrix(6.096108e-11 -1 1 6.096108e-11 248.0542 899.0663)" class="st5" width="2.8" height="2.8"/>
		
			<rect x="572.1" y="312.8" transform="matrix(5.903639e-11 -1 1 5.903639e-11 259.3927 887.7278)" class="st5" width="2.8" height="2.8"/>
	</g>
	<g>
		<defs>
			<rect id="SVGID_1_" x="491.6" y="314.2" width="22.3" height="8.5"/>
		</defs>
		<clipPath id="SVGID_00000006709420238189570770000011597165265386380688_">
			<use xlink:href="#SVGID_1_"  style="overflow:visible;"/>
		</clipPath>
		<g style="clip-path:url(#SVGID_00000006709420238189570770000011597165265386380688_);">
			<polygon class="st14" points="512.7,325.5 509.9,325.5 504.2,318.4 509.9,311.3 512.7,311.3 507,318.4 			"/>
			<polygon class="st15" points="507,325.5 504.2,325.5 498.5,318.4 504.2,311.3 507,311.3 501.4,318.4 			"/>
			<polygon class="st16" points="501.4,325.5 498.5,325.5 492.9,318.4 498.5,311.3 501.4,311.3 495.7,318.4 			"/>
		</g>
	</g>
</g>
</svg>
