<?xml version="1.0" encoding="utf-8"?>
<!-- Generator: Adobe Illustrator 26.5.0, SVG Export Plug-In . SVG Version: 6.00 Build 0)  -->
<svg version="1.1" xmlns="http://www.w3.org/2000/svg" xmlns:xlink="http://www.w3.org/1999/xlink" x="0px" y="0px"
	 viewBox="0 0 425.8 443.7" style="enable-background:new 0 0 425.8 443.7;" xml:space="preserve">
<style type="text/css">
	.st0{fill:none;stroke:#646464;stroke-width:14.1732;stroke-miterlimit:10;}
	.st1{fill:none;stroke:#FFD449;stroke-width:2.8346;stroke-miterlimit:10;}
	.st2{fill:none;stroke:#54C6EB;stroke-width:2.8346;stroke-miterlimit:10;}
	.st3{fill:none;stroke:#F4442E;stroke-width:2.8346;stroke-miterlimit:10;}
	.st4{fill:none;stroke:#FFFFFF;stroke-width:2.126;}
	.st5{fill:#646464;}
	.st6{fill:#FFFFFF;}
	.st7{fill:none;stroke:#646464;stroke-width:2.8346;stroke-miterlimit:10;}
	.st8{fill:#09BC8A;}
	.st9{fill:none;stroke:#09BC8A;stroke-width:1.9843;stroke-miterlimit:10;}
	.st10{fill:none;stroke:#09BC8A;stroke-width:2.2097;stroke-miterlimit:10;}
	.st11{fill:#FF3380;}
	.st12{fill:none;stroke:#FF3380;stroke-width:1.9843;stroke-miterlimit:10;}
	.st13{clip-path:url(#SVGID_00000158025279802474530770000003080184091865051046_);}
	.st14{fill:#F4442E;}
	.st15{fill:#54C6EB;}
	.st16{fill:#FFD449;}
	.st17{fill:none;stroke:#646464;stroke-width:0.7087;stroke-miterlimit:10;}
	.st18{fill:none;stroke:#F4442E;stroke-width:5.6693;stroke-miterlimit:10;}
	.st19{fill:none;stroke:#54C6EB;stroke-width:5.6693;stroke-miterlimit:10;}
	.st20{fill:none;stroke:#FFD449;stroke-width:5.6693;stroke-miterlimit:10;}
	.st21{fill:none;stroke:#09BC8A;stroke-width:2.8346;stroke-miterlimit:10;}
</style>
<g id="コース">
	<path class="st0" d="M284.4,322.9c0,0-224.9,0-231.8,0s-9.1-3.6-9.1-7s0.8-5.5,4.7-8.8c4-3.3,14-10.3,18.2-13.1s19-9.2,33.8-9.2
		s60.6,0,65.4,0c4.8,0,14.7-4.3,14.7-14.5c0-10.2-9.1-13.9-12.2-15.5s-21.2-8.6-24-10c-2.9-1.4-8.5-3.4-10-12.6
		c-1.5-9.2-18.9-90.8-19.9-96.4s-2-13.9-1.8-20.5c0.2-6.6,0.3-10,0.3-13.1s0.1-5-2.4-6.9c-2.5-1.9-35.9-25.8-40.4-29.7
		s-8.5-9.1-6.5-20c2-10.9,11.7-13.3,25.2-14c13.5-0.8,26.1,1.9,32.7,2.7c6.6,0.9,23.5,3.5,26.5,4.1c3,0.5,4.5,1.1,5.9,2.7
		c1.4,1.6,0.7,3.8,0.7,5.9s-0.9,5.7,1.8,7.9s30.1,22.9,33.5,25c3.4,2.1,8.7,4.4,13.6,1.6s20-11.6,22.4-12.8s10.3-1.6,13.8,1.9
		c3.5,3.5,17.5,27.2,19.3,31.4s7.8,13,10.8,15.5s12.5,6.6,21.2,9.3s14.3,4.1,18.3,5.6c4.1,1.5,13.2,6.5,13.1,18
		c-0.1,11.5-5.6,106.2-5.8,109.6s-2.7,8-11.1,6.8c-8.3-1.2-31.9-5.4-49.5-5.5c-10.5-0.1-15.5,6-15.3,12.6
		c0.2,5.5,4.1,11.6,12.5,11.6c18.5,0,30.7,0,40.8,0c10.1,0,16.5,10.1,16.5,18.4c0,9.8-6.5,18.8-17.1,18.8
		C290.9,322.9,284.4,322.9,284.4,322.9z"/>
</g>
<g id="セクター">
	<path class="st3" d="M233.7,322.9c-66.8,0-176.3,0-181.1,0c-7,0-9.1-3.6-9.1-7s0.8-5.5,4.7-8.8c4-3.3,14-10.3,18.2-13.1
		s19-9.2,33.8-9.2s60.6,0,65.4,0s14.7-4.3,14.7-14.5c0-10.2-9.1-13.9-12.2-15.5s-21.2-8.6-24-10c-2.9-1.4-8.5-3.4-10-12.6
		c-1.4-8.4-15.9-76.7-19.2-93.1"/>
	<path class="st1" d="M321.3,172.9c-1.6,31.8-4.7,84.7-4.8,87.2c-0.2,3.4-2.7,8-11.1,6.8c-8.3-1.2-31.9-5.4-49.5-5.5
		c-10.5-0.1-15.5,6-15.3,12.6c0.2,5.5,4.1,11.6,12.5,11.6c18.5,0,30.7,0,40.8,0s16.5,10.1,16.5,18.4c0,9.8-6.5,18.8-17.1,18.8
		c-2.4,0-8.9,0-8.9,0s-21.2,0-50.7,0"/>
	<path class="st2" d="M114.9,139.1c-0.3-1.6-0.5-2.7-0.6-3.2c-1-5.6-2-13.9-1.8-20.5c0.2-6.6,0.3-10,0.3-13.1s0.1-5-2.4-6.9
		S74.5,69.6,70,65.6c-4.5-4-8.5-9.1-6.5-20c2-10.9,11.7-13.3,25.2-14c13.5-0.8,26.1,1.9,32.7,2.7c6.6,0.9,23.5,3.5,26.5,4.1
		c3,0.5,4.5,1.1,5.9,2.7c1.4,1.6,0.7,3.8,0.7,5.9s-0.9,5.7,1.8,7.9s30.1,22.9,33.5,25c3.4,2.1,8.7,4.4,13.6,1.6
		c4.9-2.7,20-11.6,22.4-12.8c2.4-1.2,10.3-1.6,13.8,1.9c3.5,3.5,17.5,27.2,19.3,31.4c1.9,4.2,7.8,13,10.8,15.5s12.5,6.6,21.2,9.3
		s14.3,4.1,18.3,5.6c4.1,1.5,13.2,6.5,13.1,18c0,3-0.4,11.4-1,22.4"/>
</g>
<g id="DRS-ZONES">
  <!-- DRS Zone 1 — visible white for testing (dots run right→left, corrected order) -->
  <path id="drs-1" class="drs-zone"
    fill="none" stroke="#fff" opacity="0"
    d="M42.2,295.1 
		L46.2,291.5 L49.9,288.9 L53.5,286.4 L57.2,283.8 L60.9,281.3 L64.8,279 L68.8,277 L73,275.4 L77.3,274.1 L81.6,273.1 L86.1,272.4 L90.5,272 L95,271.7 L99.5,271.7 L104,271.7 L108.4,271.7 L112.9,271.7 L117.4,271.7 L121.9,271.7 L126.4,271.7 L130.8,271.7 L135.3,271.7 L139.8,271.7 L144.3,271.7 L148.8,271.7 L153.2,271.7 L156.2,271.7
		"/>

  <!-- DRS Zone 2 — visible white for testing (dots run right→left, corrected order) -->
  <path id="drs-2" class="drs-zone"
    fill="none" stroke="#fff" opacity="0"
    d="M287.6,337.5 
		L281.6,337.7 L277.2,337.7 L272.9,337.7 L269.6,337.7 L265.2,337.7 L259.7,337.7 L255.3,337.7 L251,337.7 L247.7,337.7 L243.3,337.7 L238.9,337.7 L234.5,337.7 L230.1,337.7 L225.8,337.7 L221.4,337.7 L217,337.7 L212.6,337.7 L208.3,337.7 L203.9,337.7 L199.5,337.7 L195.1,337.7 L190.7,337.7 L186.4,337.7 L182,337.7 L177.6,337.7 L173.2,337.7 L168.8,337.7 L164.5,337.7 L160.1,337.7 L155.7,337.7 L151.3,337.7 L146.9,337.7 L142.6,337.7 L138.2,337.7 L133.8,337.7 L129.4,337.7 L125,337.7 L120.7,337.7 L116.3,337.7 L111.9,337.7 L107.5,337.7 L103.1,337.7 L98.8,337.7 L94.4,337.7 L90,337.7 L85.6,337.7 L81.2,337.7 L76.9,337.7 L72.5,337.7 L68.1,337.7 L59.7,337.7
		"/>
  
  <!-- DRS Zone 3 — visible white for testing -->
  <!-- <path id="drs-3" class="drs-zone"
    fill="none" stroke="#fff" opacity="1"
    d="M504.9,272.5
		L498.4,274.5 L494,275.6 L489.7,276.6 L485.4,277.7 L481,278.7 L476.7,279.8 L472.4,280.8 L468.1,281.8 L463.7,282.9 L459.4,283.9 L455.1,285 L450.8,286 L446.4,287.1 L442.1,288.1 L437.8,289.2 L433.5,290.2 L429.1,291.2 L424.8,292.3 L420.5,293.3 L416.2,294.4 L411.8,295.4 L407.5,296.5 L403.2,297.5 L398.9,298.6 L394.5,299.6 L390.2,300.6 L385.9,301.6 L381.5,302.6 L377.2,303.6 L372.9,304.6 L368.5,305.6 L364.2,306.6 L359.9,307.6 L355.5,308.7 L351.2,309.7 L346.8,310.7 L342.5,311.7 L338.2,312.7 L333.8,313.7 L329.5,314.7 L325.2,315.7 L320.8,316.7 L316.5,317.7 L312.2,318.8 L307.8,319.8 L303.5,320.8 L299.2,321.8 L294.8,322.8 L290.5,323.8 L286.2,324.8 L281.8,325.8 L277.5,326.8 L273.2,327.8 L264.8,329.8
		"/> -->
</g>
<g id="コーナー番号">
	<g>
		<g>
			<circle class="st4" cx="23.7" cy="322.5" r="8.5"/>
			<circle class="st5" cx="23.7" cy="322.5" r="8.5"/>
		</g>
		<g>
			<path class="st6" d="M22,326.4v-1.6h1v-4.5h-0.9v-1.6h2.6v6.1h0.9v1.6H22z"/>
		</g>
	</g>
	<g>
		<g>
			<circle class="st4" cx="199" cy="270.2" r="8.5"/>
			<circle class="st5" cx="199" cy="270.2" r="8.5"/>
		</g>
		<g>
			<path class="st6" d="M196.9,274.1v-2.6c0-0.6,0.1-1,0.6-1.2l1.9-0.8v-1.6l-0.1-0.1h-0.5l-0.1,0.1v1.1h-1.7v-1.3
				c0-0.8,0.4-1.1,0.8-1.3h2.5c0.5,0.2,0.8,0.5,0.8,1.3v1.9c0,0.6-0.1,0.9-0.6,1.2l-1.9,0.8v0.9h2.4v1.6H196.9z"/>
		</g>
	</g>
	<g>
		<g>
			<circle class="st4" cx="119.2" cy="250.1" r="8.5"/>
			<circle class="st5" cx="119.2" cy="250.1" r="8.5"/>
		</g>
		<g>
			<path class="st6" d="M118,254c-0.5-0.2-0.8-0.5-0.8-1.3v-1h1.7v0.8l0.1,0.1h0.5l0.1-0.1v-1.6l-0.1-0.1h-1v-1.3h1l0.1-0.1v-1.5
				l-0.1-0.1H119l-0.1,0.1v0.8h-1.7v-1c0-0.8,0.4-1.1,0.8-1.3h2.5c0.5,0.2,0.8,0.5,0.8,1.3v1.3c0,0.6-0.2,0.9-0.6,1.2
				c0.4,0.3,0.6,0.6,0.6,1.2v1.4c0,0.8-0.4,1.1-0.8,1.3H118z"/>
		</g>
	</g>
	<g>
		<g>
			<circle class="st4" cx="130.4" cy="91.4" r="8.5"/>
			<circle class="st5" cx="130.4" cy="91.4" r="8.5"/>
		</g>
		<g>
			<path class="st6" d="M132.1,93.8v1.5h-1.7v-1.5h-2.2v-1.5l1.6-4.7h1.7l-1.6,4.6h0.5v-0.4l0.4-1h1.3v1.4h0.5v1.6H132.1z"/>
		</g>
	</g>
	<g>
		<g>
			<circle class="st4" cx="44.2" cy="41.9" r="8.5"/>
			<circle class="st5" cx="44.2" cy="41.9" r="8.5"/>
		</g>
		<g>
			<path class="st6" d="M43,45.8c-0.5-0.2-0.8-0.5-0.8-1.3v-1h1.6v0.8l0.1,0.1h0.6l0.1-0.1v-2.1l-0.1-0.1h-0.6l-0.1,0.1v0.4h-1.6
				v-4.5h4v1.5h-2.4v1.6l0.4-0.4h1.3c0.5,0.2,0.8,0.5,0.8,1.3v2.4c0,0.8-0.4,1.1-0.8,1.3H43z"/>
		</g>
	</g>
	<g>
		<g>
			<circle class="st4" cx="167.6" cy="23.7" r="8.5"/>
			<circle class="st5" cx="167.6" cy="23.7" r="8.5"/>
		</g>
		<g>
			<path class="st6" d="M168.8,27.6h-2.5c-0.5-0.2-0.8-0.5-0.8-1.3v-5.1c0-0.8,0.4-1.1,0.8-1.3h2.5c0.5,0.2,0.8,0.5,0.8,1.3v1H168
				v-0.8l-0.1-0.1h-0.5l-0.1,0.1v1.8l0.3-0.3h1.3c0.5,0.2,0.8,0.5,0.8,1.3v2.2C169.7,27.2,169.3,27.5,168.8,27.6z M167.9,26.2
				l0.1-0.1v-1.8l-0.1-0.1h-0.5l-0.1,0.1v1.8l0.1,0.1H167.9z"/>
		</g>
	</g>
	<g>
		<g>
			<circle class="st4" cx="138.3" cy="63.4" r="8.5"/>
			<circle class="st5" cx="138.3" cy="63.4" r="8.5"/>
		</g>
		<g>
			<path class="st6" d="M136.5,67.3l2.1-6.2h-2.4v-1.5h4.1v1.2l-2.1,6.5H136.5z"/>
		</g>
	</g>
	<g>
		<g>
			<circle class="st4" cx="199.8" cy="102" r="8.5"/>
			<circle class="st5" cx="199.8" cy="102" r="8.5"/>
		</g>
		<g>
			<path class="st6" d="M198.6,105.8c-0.5-0.2-0.8-0.5-0.8-1.3v-1.4c0-0.6,0.2-0.9,0.6-1.2c-0.4-0.3-0.6-0.6-0.6-1.2v-1.3
				c0-0.8,0.4-1.1,0.8-1.3h2.5c0.5,0.2,0.8,0.5,0.8,1.3v1.3c0,0.6-0.2,0.9-0.6,1.2c0.4,0.3,0.6,0.6,0.6,1.2v1.4
				c0,0.8-0.4,1.1-0.8,1.3H198.6z M199.5,101.2l0.1,0.1h0.5l0.1-0.1v-1.5l-0.1-0.1h-0.5l-0.1,0.1V101.2z M200.2,104.3v-1.6l-0.1-0.1
				h-0.5l-0.1,0.1v1.6l0.1,0.1h0.5L200.2,104.3z"/>
		</g>
	</g>
	<g>
		<g>
			<circle class="st4" cx="237" cy="48.2" r="8.5"/>
			<circle class="st5" cx="237" cy="48.2" r="8.5"/>
		</g>
		<g>
			<path class="st6" d="M235.7,52c-0.5-0.2-0.8-0.5-0.8-1.3v-1h1.7v0.8l0.1,0.1h0.5l0.1-0.1v-1.8l-0.3,0.3h-1.3
				c-0.5-0.2-0.8-0.5-0.8-1.3v-2.2c0-0.8,0.4-1.1,0.8-1.3h2.5c0.5,0.2,0.8,0.5,0.8,1.3v5.1c0,0.8-0.4,1.1-0.8,1.3H235.7z
				 M237.3,47.7v-1.8l-0.1-0.1h-0.5l-0.1,0.1v1.8l0.1,0.1h0.5L237.3,47.7z"/>
		</g>
	</g>
	<g>
		<g>
			<circle class="st4" cx="262.2" cy="136.3" r="8.5"/>
			<circle class="st5" cx="262.2" cy="136.3" r="8.5"/>
		</g>
		<g>
			<path class="st6" d="M258.2,140.2v-1.6h1v-4.5h-0.9v-1.6h2.6v6.1h0.9v1.6H258.2z"/>
			<path class="st6" d="M265.8,140.2h-2.5c-0.5-0.2-0.8-0.5-0.8-1.3v-5.1c0-0.8,0.4-1.1,0.8-1.3h2.5c0.5,0.2,0.8,0.5,0.8,1.3v5.1
				C266.7,139.8,266.3,140.1,265.8,140.2z M265,134.1l-0.1-0.1h-0.5l-0.1,0.1v4.7l0.1,0.1h0.5l0.1-0.1V134.1z"/>
		</g>
	</g>
	<g>
		<g>
			<circle class="st4" cx="338.7" cy="133.1" r="8.5"/>
			<circle class="st5" cx="338.7" cy="133.1" r="8.5"/>
		</g>
		<g>
			<path class="st6" d="M334.7,136.9v-1.6h1v-4.5h-0.9v-1.6h2.6v6.1h0.9v1.6H334.7z"/>
			<path class="st6" d="M339.4,136.9v-1.6h1v-4.5h-0.9v-1.6h2.6v6.1h0.9v1.6H339.4z"/>
		</g>
	</g>
	<g>
		<g>
			<circle class="st4" cx="296.4" cy="246.3" r="8.5"/>
			<circle class="st5" cx="296.4" cy="246.3" r="8.5"/>
		</g>
		<g>
			<path class="st6" d="M292.4,250.2v-1.6h1v-4.5h-0.9v-1.6h2.6v6.1h0.9v1.6H292.4z"/>
			<path class="st6" d="M296.7,250.2v-2.6c0-0.6,0.1-1,0.6-1.2l1.9-0.8V244l-0.1-0.1h-0.5l-0.1,0.1v1.1h-1.7v-1.3
				c0-0.8,0.4-1.1,0.8-1.3h2.5c0.5,0.2,0.8,0.5,0.8,1.3v1.9c0,0.6-0.1,0.9-0.6,1.2l-1.9,0.8v0.9h2.4v1.6H296.7z"/>
		</g>
	</g>
	<g>
		<g>
			<circle class="st4" cx="221.1" cy="272" r="8.5"/>
			<circle class="st5" cx="221.1" cy="272" r="8.5"/>
		</g>
		<g>
			<path class="st6" d="M217.1,275.9v-1.6h1v-4.5h-0.9v-1.6h2.6v6.1h0.9v1.6H217.1z"/>
			<path class="st6" d="M222.2,275.9c-0.5-0.2-0.8-0.5-0.8-1.3v-1h1.7v0.8l0.1,0.1h0.5l0.1-0.1v-1.6l-0.1-0.1h-1v-1.3h1l0.1-0.1
				v-1.5l-0.1-0.1h-0.5l-0.1,0.1v0.8h-1.7v-1c0-0.8,0.4-1.1,0.8-1.3h2.5c0.5,0.2,0.8,0.5,0.8,1.3v1.3c0,0.6-0.2,0.9-0.6,1.2
				c0.4,0.3,0.6,0.6,0.6,1.2v1.4c0,0.8-0.4,1.1-0.8,1.3H222.2z"/>
		</g>
	</g>
	<g>
		<g>
			<circle class="st4" cx="332.5" cy="307.3" r="8.5"/>
			<circle class="st5" cx="332.5" cy="307.3" r="8.5"/>
		</g>
		<g>
			<path class="st6" d="M328.5,311.2v-1.6h1v-4.5h-0.9v-1.6h2.6v6.1h0.9v1.6H328.5z"/>
			<path class="st6" d="M336.5,309.7v1.5h-1.7v-1.5h-2.2v-1.5l1.6-4.7h1.7l-1.6,4.6h0.5v-0.4l0.4-1h1.3v1.4h0.5v1.6H336.5z"/>
		</g>
	</g>
</g>
<g id="DRS">


	<g>
		<g>
			<g>
				<g>
					<line class="st10" x1="287.1" y1="343.5" x2="287.1" y2="331.9"/>
				</g>
				<g>
					<path class="st8" d="M281.6,337.7c0-0.6,0.5-1.1,1.1-1.1s1.1,0.5,1.1,1.1c0,0.6-0.5,1.1-1.1,1.1S281.6,338.3,281.6,337.7z"/>
				</g>
				<g>
					<path class="st8" d="M277.2,337.7c0-0.6,0.5-1.1,1.1-1.1c0.6,0,1.1,0.5,1.1,1.1c0,0.6-0.5,1.1-1.1,1.1
						C277.7,338.8,277.2,338.3,277.2,337.7z"/>
				</g>
				<g>
					<path class="st8" d="M272.9,337.7c0-0.6,0.5-1.1,1.1-1.1c0.6,0,1.1,0.5,1.1,1.1c0,0.6-0.5,1.1-1.1,1.1
						C273.3,338.8,272.9,338.3,272.9,337.7z"/>
				</g>
				<g>
					<ellipse class="st8" cx="269.6" cy="337.7" rx="1.1" ry="1.1"/>
				</g>
				<g>
					<ellipse class="st8" cx="265.2" cy="337.7" rx="1.1" ry="1.1"/>
				</g>
				<g>
					<path class="st8" d="M259.7,337.7c0-0.6,0.5-1.1,1.1-1.1c0.6,0,1.1,0.5,1.1,1.1c0,0.6-0.5,1.1-1.1,1.1
						C260.2,338.8,259.7,338.3,259.7,337.7z"/>
				</g>
				<g>
					<path class="st8" d="M255.3,337.7c0-0.6,0.5-1.1,1.1-1.1c0.6,0,1.1,0.5,1.1,1.1c0,0.6-0.5,1.1-1.1,1.1
						C255.8,338.8,255.3,338.3,255.3,337.7z"/>
				</g>
				<g>
					<path class="st8" d="M251,337.7c0-0.6,0.5-1.1,1.1-1.1c0.6,0,1.1,0.5,1.1,1.1c0,0.6-0.5,1.1-1.1,1.1
						C251.4,338.8,251,338.3,251,337.7z"/>
				</g>
				<g>
					<ellipse class="st8" cx="247.7" cy="337.7" rx="1.1" ry="1.1"/>
				</g>
				<g>
					<ellipse class="st8" cx="243.3" cy="337.7" rx="1.1" ry="1.1"/>
				</g>
				<g>
					<ellipse class="st8" cx="238.9" cy="337.7" rx="1.1" ry="1.1"/>
				</g>
				<g>
					<ellipse class="st8" cx="234.5" cy="337.7" rx="1.1" ry="1.1"/>
				</g>
				<g>
					<ellipse class="st8" cx="230.1" cy="337.7" rx="1.1" ry="1.1"/>
				</g>
				<g>
					<ellipse class="st8" cx="225.8" cy="337.7" rx="1.1" ry="1.1"/>
				</g>
				<g>
					<ellipse class="st8" cx="221.4" cy="337.7" rx="1.1" ry="1.1"/>
				</g>
				<g>
					<ellipse class="st8" cx="217" cy="337.7" rx="1.1" ry="1.1"/>
				</g>
				<g>
					<ellipse class="st8" cx="212.6" cy="337.7" rx="1.1" ry="1.1"/>
				</g>
				<g>
					<ellipse class="st8" cx="208.3" cy="337.7" rx="1.1" ry="1.1"/>
				</g>
				<g>
					<ellipse class="st8" cx="203.9" cy="337.7" rx="1.1" ry="1.1"/>
				</g>
				<g>
					<ellipse class="st8" cx="199.5" cy="337.7" rx="1.1" ry="1.1"/>
				</g>
				<g>
					<ellipse class="st8" cx="195.1" cy="337.7" rx="1.1" ry="1.1"/>
				</g>
				<g>
					<ellipse class="st8" cx="190.7" cy="337.7" rx="1.1" ry="1.1"/>
				</g>
				<g>
					<ellipse class="st8" cx="186.4" cy="337.7" rx="1.1" ry="1.1"/>
				</g>
				<g>
					<ellipse class="st8" cx="182" cy="337.7" rx="1.1" ry="1.1"/>
				</g>
				<g>
					<ellipse class="st8" cx="177.6" cy="337.7" rx="1.1" ry="1.1"/>
				</g>
				<g>
					<ellipse class="st8" cx="173.2" cy="337.7" rx="1.1" ry="1.1"/>
				</g>
				<g>
					<ellipse class="st8" cx="168.8" cy="337.7" rx="1.1" ry="1.1"/>
				</g>
				<g>
					<ellipse class="st8" cx="164.5" cy="337.7" rx="1.1" ry="1.1"/>
				</g>
				<g>
					<ellipse class="st8" cx="160.1" cy="337.7" rx="1.1" ry="1.1"/>
				</g>
				<g>
					<ellipse class="st8" cx="155.7" cy="337.7" rx="1.1" ry="1.1"/>
				</g>
				<g>
					<ellipse class="st8" cx="151.3" cy="337.7" rx="1.1" ry="1.1"/>
				</g>
				<g>
					<ellipse class="st8" cx="146.9" cy="337.7" rx="1.1" ry="1.1"/>
				</g>
				<g>
					<ellipse class="st8" cx="142.6" cy="337.7" rx="1.1" ry="1.1"/>
				</g>
				<g>
					<ellipse class="st8" cx="138.2" cy="337.7" rx="1.1" ry="1.1"/>
				</g>
				<g>
					<ellipse class="st8" cx="133.8" cy="337.7" rx="1.1" ry="1.1"/>
				</g>
				<g>
					<ellipse class="st8" cx="129.4" cy="337.7" rx="1.1" ry="1.1"/>
				</g>
				<g>
					<ellipse class="st8" cx="125" cy="337.7" rx="1.1" ry="1.1"/>
				</g>
				<g>
					<ellipse class="st8" cx="120.7" cy="337.7" rx="1.1" ry="1.1"/>
				</g>
				<g>
					<ellipse class="st8" cx="116.3" cy="337.7" rx="1.1" ry="1.1"/>
				</g>
				<g>
					<ellipse class="st8" cx="111.9" cy="337.7" rx="1.1" ry="1.1"/>
				</g>
				<g>
					<ellipse class="st8" cx="107.5" cy="337.7" rx="1.1" ry="1.1"/>
				</g>
				<g>
					<ellipse class="st8" cx="103.1" cy="337.7" rx="1.1" ry="1.1"/>
				</g>
				<g>
					<ellipse class="st8" cx="98.8" cy="337.7" rx="1.1" ry="1.1"/>
				</g>
				<g>
					<ellipse class="st8" cx="94.4" cy="337.7" rx="1.1" ry="1.1"/>
				</g>
				<g>
					<ellipse class="st8" cx="90" cy="337.7" rx="1.1" ry="1.1"/>
				</g>
				<g>
					<ellipse class="st8" cx="85.6" cy="337.7" rx="1.1" ry="1.1"/>
				</g>
				<g>
					<ellipse class="st8" cx="81.2" cy="337.7" rx="1.1" ry="1.1"/>
				</g>
				<g>
					<ellipse class="st8" cx="76.9" cy="337.7" rx="1.1" ry="1.1"/>
				</g>
				<g>
					<ellipse class="st8" cx="72.5" cy="337.7" rx="1.1" ry="1.1"/>
				</g>
				<g>
					<ellipse class="st8" cx="68.1" cy="337.7" rx="1.1" ry="1.1"/>
				</g>
				<g>
					<ellipse class="st8" cx="63.7" cy="337.7" rx="1.1" ry="1.1"/>
				</g>
				<g>
					<line class="st10" x1="59.3" y1="343.5" x2="59.3" y2="331.9"/>
				</g>
			</g>
		</g>
	</g>
	<g>
		<g>
			<g>
				<g>
					<line class="st10" x1="38.2" y1="289.9" x2="44.9" y2="299.4"/>
				</g>
				<g>
					<path class="st8" d="M46.2,291.5c0.4,0.5,0.2,1.2-0.3,1.5c-0.5,0.4-1.2,0.2-1.6-0.3c-0.4-0.5-0.2-1.2,0.3-1.5
						C45.1,290.8,45.8,291,46.2,291.5z"/>
				</g>
				<g>
					<path class="st8" d="M49.9,288.9c0.3,0.5,0.2,1.2-0.3,1.5c-0.5,0.4-1.2,0.2-1.6-0.3c-0.3-0.5-0.2-1.2,0.3-1.5
						C48.8,288.3,49.5,288.4,49.9,288.9z"/>
				</g>
				<g>
					<path class="st8" d="M53.5,286.4c0.3,0.5,0.2,1.2-0.3,1.5s-1.2,0.2-1.5-0.3c-0.3-0.5-0.2-1.2,0.3-1.5
						C52.5,285.8,53.2,285.9,53.5,286.4z"/>
				</g>
				<g>
					<path class="st8" d="M57.2,283.8c0.3,0.5,0.2,1.2-0.3,1.5s-1.2,0.2-1.5-0.3c-0.3-0.5-0.2-1.2,0.3-1.5
						C56.2,283.2,56.9,283.3,57.2,283.8z"/>
				</g>
				<g>
					<path class="st8" d="M60.9,281.3c0.3,0.5,0.2,1.2-0.3,1.5c-0.5,0.4-1.2,0.2-1.5-0.3c-0.3-0.5-0.2-1.2,0.3-1.6
						C59.9,280.7,60.6,280.8,60.9,281.3z"/>
				</g>
				<g>
					<path class="st8" d="M64.8,279c0.3,0.5,0.1,1.2-0.4,1.5c-0.5,0.3-1.2,0.1-1.5-0.4c-0.3-0.5-0.1-1.2,0.4-1.5
						C63.8,278.3,64.5,278.5,64.8,279z"/>
				</g>
				<g>
					<path class="st8" d="M68.8,277c0.2,0.6,0,1.2-0.5,1.5c-0.5,0.3-1.2,0-1.5-0.5c-0.3-0.5,0-1.2,0.5-1.5
						C67.9,276.2,68.6,276.5,68.8,277z"/>
				</g>
				<g>
					<path class="st8" d="M73,275.4c0.2,0.6-0.1,1.2-0.7,1.4c-0.6,0.2-1.2-0.1-1.4-0.6c-0.2-0.6,0.1-1.2,0.7-1.4
						C72.1,274.5,72.8,274.8,73,275.4z"/>
				</g>
				<g>
					<path class="st8" d="M77.3,274.1c0.2,0.6-0.2,1.2-0.8,1.3c-0.6,0.2-1.2-0.2-1.4-0.7c-0.2-0.6,0.2-1.2,0.8-1.4
						C76.5,273.1,77.1,273.5,77.3,274.1z"/>
				</g>
				<g>
					<path class="st8" d="M81.6,273.1c0.1,0.6-0.3,1.2-0.9,1.3c-0.6,0.1-1.2-0.2-1.3-0.8c-0.1-0.6,0.3-1.2,0.9-1.3
						C80.9,272.1,81.5,272.5,81.6,273.1z"/>
				</g>
				<g>
					<path class="st8" d="M86.1,272.4c0.1,0.6-0.4,1.2-1,1.3c-0.6,0.1-1.2-0.3-1.3-0.9c-0.1-0.6,0.3-1.2,1-1.3
						C85.4,271.4,86,271.8,86.1,272.4z"/>
				</g>
				<g>
					<path class="st8" d="M90.5,272c0,0.6-0.4,1.1-1,1.2c-0.6,0-1.1-0.4-1.2-1c-0.1-0.6,0.4-1.2,1-1.2
						C89.9,270.9,90.5,271.4,90.5,272z"/>
				</g>
				<g>
					<path class="st8" d="M95,271.7c0,0.6-0.5,1.1-1.1,1.1c-0.6,0-1.1-0.4-1.2-1c0-0.6,0.4-1.1,1.1-1.2
						C94.4,270.7,95,271.1,95,271.7z"/>
				</g>
				<g>
					<path class="st8" d="M99.5,271.7c0,0.6-0.5,1.1-1.1,1.1c-0.6,0-1.1-0.5-1.1-1.1s0.5-1.1,1.1-1.1
						C99,270.6,99.5,271.1,99.5,271.7z"/>
				</g>
				<g>
					<path class="st8" d="M104,271.7c0,0.6-0.5,1.1-1.1,1.1s-1.1-0.5-1.1-1.1c0-0.6,0.5-1.1,1.1-1.1S104,271.1,104,271.7z"/>
				</g>
				<g>
					<path class="st8" d="M108.4,271.7c0,0.6-0.5,1.1-1.1,1.1s-1.1-0.5-1.1-1.1c0-0.6,0.5-1.1,1.1-1.1S108.4,271.1,108.4,271.7z"/>
				</g>
				<g>
					<path class="st8" d="M112.9,271.7c0,0.6-0.5,1.1-1.1,1.1s-1.1-0.5-1.1-1.1c0-0.6,0.5-1.1,1.1-1.1S112.9,271.1,112.9,271.7z"/>
				</g>
				<g>
					<path class="st8" d="M117.4,271.7c0,0.6-0.5,1.1-1.1,1.1s-1.1-0.5-1.1-1.1c0-0.6,0.5-1.1,1.1-1.1S117.4,271.1,117.4,271.7z"/>
				</g>
				<g>
					<path class="st8" d="M121.9,271.7c0,0.6-0.5,1.1-1.1,1.1s-1.1-0.5-1.1-1.1c0-0.6,0.5-1.1,1.1-1.1S121.9,271.1,121.9,271.7z"/>
				</g>
				<g>
					<path class="st8" d="M126.4,271.7c0,0.6-0.5,1.1-1.1,1.1s-1.1-0.5-1.1-1.1c0-0.6,0.5-1.1,1.1-1.1S126.4,271.1,126.4,271.7z"/>
				</g>
				<g>
					<path class="st8" d="M130.8,271.7c0,0.6-0.5,1.1-1.1,1.1s-1.1-0.5-1.1-1.1c0-0.6,0.5-1.1,1.1-1.1S130.8,271.1,130.8,271.7z"/>
				</g>
				<g>
					<path class="st8" d="M135.3,271.7c0,0.6-0.5,1.1-1.1,1.1s-1.1-0.5-1.1-1.1c0-0.6,0.5-1.1,1.1-1.1S135.3,271.1,135.3,271.7z"/>
				</g>
				<g>
					<path class="st8" d="M139.8,271.7c0,0.6-0.5,1.1-1.1,1.1s-1.1-0.5-1.1-1.1c0-0.6,0.5-1.1,1.1-1.1S139.8,271.1,139.8,271.7z"/>
				</g>
				<g>
					<path class="st8" d="M144.3,271.7c0,0.6-0.5,1.1-1.1,1.1s-1.1-0.5-1.1-1.1c0-0.6,0.5-1.1,1.1-1.1S144.3,271.1,144.3,271.7z"/>
				</g>
				<g>
					<path class="st8" d="M148.8,271.7c0,0.6-0.5,1.1-1.1,1.1s-1.1-0.5-1.1-1.1c0-0.6,0.5-1.1,1.1-1.1S148.8,271.1,148.8,271.7z"/>
				</g>
				<g>
					<path class="st8" d="M153.2,271.7c0,0.6-0.5,1.1-1.1,1.1s-1.1-0.5-1.1-1.1c0-0.6,0.5-1.1,1.1-1.1S153.2,271.1,153.2,271.7z"/>
				</g>
				<g>
					<line class="st10" x1="156.6" y1="265.9" x2="156.6" y2="277.5"/>
				</g>
			</g>
		</g>
	</g>
</g>
<g id="アイコン">
	<g>
		
			<rect x="225" y="352.7" transform="matrix(-4.187617e-03 -1 1 -4.187617e-03 -126.7321 582.0726)" class="st5" width="2.8" height="2.8"/>
		
			<rect x="225" y="347.1" transform="matrix(-4.187617e-03 -1 1 -4.187617e-03 -121.0868 576.3559)" class="st5" width="2.8" height="2.8"/>
		
			<rect x="227.9" y="349.9" transform="matrix(-4.187617e-03 -1 1 -4.187617e-03 -121.0511 582.0369)" class="st5" width="2.8" height="2.8"/>
		
			<rect x="227.8" y="344.2" transform="matrix(-4.187617e-03 -1 1 -4.187617e-03 -115.4057 576.3202)" class="st5" width="2.8" height="2.8"/>
		
			<rect x="233.5" y="349.9" transform="matrix(-4.187617e-03 -1 1 -4.187617e-03 -115.3344 587.6823)" class="st5" width="2.8" height="2.8"/>
		
			<rect x="233.5" y="344.2" transform="matrix(-4.187617e-03 -1 1 -4.187617e-03 -109.689 581.9655)" class="st5" width="2.8" height="2.8"/>
		
			<rect x="225" y="341.4" transform="matrix(-4.187617e-03 -1 1 -4.187617e-03 -115.4414 570.6392)" class="st5" width="2.8" height="2.8"/>
		
			<rect x="225" y="344.2" transform="matrix(-4.187617e-03 -1 1 -4.187617e-03 -118.2641 573.4975)" class="st6" width="2.8" height="2.8"/>
		
			<rect x="225" y="349.9" transform="matrix(-4.187617e-03 -1 1 -4.187617e-03 -123.9094 579.2142)" class="st6" width="2.8" height="2.8"/>
		
			<rect x="227.9" y="352.7" transform="matrix(-4.187617e-03 -1 1 -4.187617e-03 -123.8738 584.8953)" class="st6" width="2.8" height="2.8"/>
		
			<rect x="227.8" y="347" transform="matrix(-4.187617e-03 -1 1 -4.187617e-03 -118.2284 579.1785)" class="st6" width="2.8" height="2.8"/>
		
			<rect x="227.8" y="341.4" transform="matrix(-4.187617e-03 -1 1 -4.187617e-03 -112.5831 573.4618)" class="st6" width="2.8" height="2.8"/>
		
			<rect x="230.7" y="344.2" transform="matrix(-4.187617e-03 -1 1 -4.187617e-03 -112.5474 579.1429)" class="st6" width="2.8" height="2.8"/>
		
			<rect x="230.7" y="349.9" transform="matrix(-4.187617e-03 -1 1 -4.187617e-03 -118.1927 584.8596)" class="st6" width="2.8" height="2.8"/>
		
			<rect x="236.3" y="344.2" transform="matrix(-4.187617e-03 -1 1 -4.187617e-03 -106.8307 584.7882)" class="st6" width="2.8" height="2.8"/>
		
			<rect x="236.4" y="349.8" transform="matrix(-4.187617e-03 -1 1 -4.187617e-03 -112.476 590.5049)" class="st6" width="2.8" height="2.8"/>
		
			<rect x="233.5" y="352.7" transform="matrix(-4.187617e-03 -1 1 -4.187617e-03 -118.157 590.5406)" class="st6" width="2.8" height="2.8"/>
		
			<rect x="233.5" y="347" transform="matrix(-4.187617e-03 -1 1 -4.187617e-03 -112.5117 584.8239)" class="st6" width="2.8" height="2.8"/>
		
			<rect x="233.5" y="341.3" transform="matrix(-4.187617e-03 -1 1 -4.187617e-03 -106.8663 579.1072)" class="st6" width="2.8" height="2.8"/>
		
			<rect x="230.7" y="352.7" transform="matrix(-4.187617e-03 -1 1 -4.187617e-03 -121.0154 587.718)" class="st5" width="2.8" height="2.8"/>
		
			<rect x="230.7" y="347" transform="matrix(-4.187617e-03 -1 1 -4.187617e-03 -115.37 582.0012)" class="st5" width="2.8" height="2.8"/>
		
			<rect x="236.4" y="347" transform="matrix(-4.187617e-03 -1 1 -4.187617e-03 -109.6533 587.6465)" class="st5" width="2.8" height="2.8"/>
		
			<rect x="230.7" y="341.4" transform="matrix(-4.187617e-03 -1 1 -4.187617e-03 -109.7247 576.2845)" class="st5" width="2.8" height="2.8"/>
		
			<rect x="236.4" y="352.7" transform="matrix(-4.187617e-03 -1 1 -4.187617e-03 -115.2987 593.3633)" class="st5" width="2.8" height="2.8"/>
		
			<rect x="236.3" y="341.3" transform="matrix(-4.187617e-03 -1 1 -4.187617e-03 -104.008 581.9299)" class="st5" width="2.8" height="2.8"/>
	</g>
	<g>
		<defs>
			
				<rect id="SVGID_1_" x="180.3" y="341.5" transform="matrix(0.9999 -1.001973e-02 1.001973e-02 0.9999 -3.455 1.9361)" width="22.3" height="8.5"/>
		</defs>
		<clipPath id="SVGID_00000003813591854223802300000010905345164517429127_">
			<use xlink:href="#SVGID_1_"  style="overflow:visible;"/>
		</clipPath>
		<g style="clip-path:url(#SVGID_00000003813591854223802300000010905345164517429127_);">
			<polygon class="st14" points="201.5,352.8 198.7,352.8 192.9,345.8 198.5,338.6 201.3,338.6 195.7,345.7 			"/>
			<polygon class="st15" points="195.8,352.8 193,352.9 187.2,345.8 192.8,338.7 195.7,338.7 190.1,345.8 			"/>
			<polygon class="st16" points="190.2,352.9 187.3,352.9 181.6,345.9 187.2,338.7 190,338.7 184.4,345.9 			"/>
		</g>
	</g>

</g>
</svg>
