<?xml version="1.0" encoding="utf-8"?>
<!-- Generator: Adobe Illustrator 26.5.0, SVG Export Plug-In . SVG Version: 6.00 Build 0)  -->
<svg version="1.1" xmlns="http://www.w3.org/2000/svg" xmlns:xlink="http://www.w3.org/1999/xlink" x="0px" y="0px"
	 viewBox="0 0 779.9 453.8" style="enable-background:new 0 0 779.9 453.8;" xml:space="preserve">
<style type="text/css">
	.st0{fill:none;stroke:#646464;stroke-width:14.1732;stroke-linecap:round;stroke-linejoin:round;stroke-miterlimit:10;}
	.st1{fill:none;stroke:#FFD449;stroke-width:2.8346;stroke-miterlimit:10;}
	.st2{fill:none;stroke:#54C6EB;stroke-width:2.8346;stroke-miterlimit:10;}
	.st3{fill:none;stroke:#F4442E;stroke-width:2.8346;stroke-miterlimit:10;}
	.st4{fill:none;stroke:#FFFFFF;stroke-width:2.126;}
	.st5{fill:#646464;}
	.st6{fill:#FFFFFF;}
	.st7{fill:none;stroke:#646464;stroke-width:2.8346;stroke-miterlimit:10;}
	.st8{fill:#FF3380;}
	.st9{fill:none;stroke:#FF3380;stroke-width:1.9843;stroke-miterlimit:10;}
	.st10{fill:#09BC8A;}
	.st11{fill:none;stroke:#09BC8A;stroke-width:2.8346;stroke-miterlimit:10;}
	.st12{fill:none;stroke:#09BC8A;stroke-width:1.9843;stroke-miterlimit:10;}
	.st13{clip-path:url(#SVGID_00000143601421425968450250000013188824974950788758_);}
	.st14{fill:#F4442E;}
	.st15{fill:#54C6EB;}
	.st16{fill:#FFD449;}
	.st17{fill:none;stroke:#646464;stroke-width:0.7087;stroke-miterlimit:10;}
	.st18{fill:none;stroke:#F4442E;stroke-width:5.6693;stroke-miterlimit:10;}
	.st19{fill:none;stroke:#54C6EB;stroke-width:5.6693;stroke-miterlimit:10;}
	.st20{fill:none;stroke:#FFD449;stroke-width:5.6693;stroke-miterlimit:10;}
</style>
<g id="コース">
	<path class="st0" d="M576.1,84.5c-21.8,0.8-83,1.9-97.6,2.4C464,87.4,447,83.1,431,80.6c-16-2.4-48.5-10.2-73.8-10.2
		s-83.5,7.8-97.1,10.2c-13.6,2.4-35,9.7-41.7,12.1c-6.8,2.4-6.3,7.3-7.8,14.6c-1.5,7.3-2.9,14.1-14.1,19.4
		c-11.2,5.3-21.8,9.7-26.7,13.1c-4.9,3.4-10.7,8.7-15,21.8c-4.4,13.1-47.1,131.1-50,137.9c-2.9,6.8-0.5,16,1.5,20.4
		c1.9,4.4,9.2,17.5-0.5,25.7s-58.5,54.8-65.5,59.7c-8.5,5.9-6.2,26.3,8.3,24.8c12.2-1.3,94.7-15.5,104.4-17
		c9.7-1.5,31.1-5.3,52.4-2.9s39.3,5.8,48.5,7.3c9.2,1.5,21.4,3.4,28.6-11.2s9.7-19.9,12.1-29.1c2.4-9.2,6.3-22.8,1.9-41.3
		c-4.4-18.4-14.1-52.9-15.5-59.2c-1.5-6.3-1-14.6,2.9-19.9c3.9-5.3,12.9-19.4,14.5-22c1.5-2.6,4.8-8.1,14-3.5
		c3.1,1.5,8.3,5.5,13.6,5.7s163.5-6.4,166.4-6.4c2.9,0,6.6-1.1,8.8,4.4c2.2,5.5,4.4,7.9,9,6.1c4.6-1.8,38.6-17.8,49.4-22.4
		c10.8-4.6,32.3-16,45.9-28.8c13.6-12.7,62.1-64.1,65.9-67.8c3.7-3.7,14.3-11.6,27.7-17.8c13.4-6.1,34.9-15.8,38.6-17.8
		c3.7-2,9.9-5.7,6.4-14s-10.8-24.4-14-29.6c-3.3-5.3-9.9-11.4-22.6-5.7s-78.1,33.6-86.9,37.5c-8.8,4-20.4,7.2-26.3,8.1
		C588.1,83.8,581,84.3,576.1,84.5z"/>
</g>
<g id="セクター">
	<path class="st1" d="M422,233.5c36.2-1.5,69.2-2.8,70.4-2.8c2.9,0,6.6-1.1,8.8,4.4c2.2,5.5,4.4,7.9,9,6.1
		c4.6-1.8,38.6-17.8,49.4-22.4c10.8-4.6,32.3-16,45.9-28.8c13.6-12.7,62.1-64.1,65.9-67.8c3.7-3.7,14.3-11.6,27.7-17.8
		c13.4-6.1,34.9-15.8,38.6-17.8c3.7-2,9.9-5.7,6.4-14s-10.8-24.4-14-29.6c-3.3-5.3-9.9-11.4-22.6-5.7s-78.1,33.6-86.9,37.5
		c-8.8,4-20.4,7.2-26.3,8.1c-5.9,0.9-13,1.4-17.9,1.6c-2.8,0.1-6.4,0.2-10.4,0.3"/>
	<path class="st2" d="M71,377.7c-14,13-27.4,25.3-30.9,27.7c-8.5,5.9-6.2,26.3,8.3,24.8c12.2-1.3,94.7-15.5,104.4-17
		c9.7-1.5,31.1-5.3,52.4-2.9s39.3,5.8,48.5,7.3c9.2,1.5,21.4,3.4,28.6-11.2s9.7-19.9,12.1-29.1c2.4-9.2,6.3-22.8,1.9-41.3
		c-4.4-18.4-14.1-52.9-15.5-59.2c-1.5-6.3-1-14.6,2.9-19.9c3.9-5.3,12.9-19.4,14.5-22c1.5-2.6,4.8-8.1,14-3.5
		c3.1,1.5,8.3,5.5,13.6,5.7c2.9,0.1,51.9-1.8,95.9-3.6"/>
	<path class="st3" d="M565.8,84.9c-26.6,0.8-74.6,1.7-87.2,2.1C464,87.4,447,83.1,431,80.6c-16-2.4-48.5-10.2-73.8-10.2
		s-83.5,7.8-97.1,10.2c-13.6,2.4-35,9.7-41.7,12.1c-6.8,2.4-6.3,7.3-7.8,14.6c-1.5,7.3-2.9,14.1-14.1,19.4
		c-11.2,5.3-21.8,9.7-26.7,13.1c-4.9,3.4-10.7,8.7-15,21.8c-4.4,13.1-47.1,131.1-50,137.9c-2.9,6.8-0.5,16,1.5,20.4
		c1.9,4.4,9.2,17.5-0.5,25.7c-5,4.2-20.1,18.4-34.7,32"/>
</g>
<g id="DRS-ZONES">
  <!-- DRS Zone 1 — visible white for testing (dots run right→left, corrected order) -->
  <path id="drs-1" class="drs-zone"
    fill="none" stroke="#fff" opacity="0"
    d="M615.3,56.4 
		L608.3,59.7 L603.1,61.8 L597.6,63.4 L592,64.6 L586.4,65.3 L580.7,65.6 L575,65.9 L569.3,66.1 L563.6,66.3 L557.9,66.4 L552.3,66.6 L546.6,66.8 L540.9,67 L535.2,67.1 L529.5,67.3 L523.8,67.5 L518.1,67.6 L512.4,67.8 L506.7,67.9 L501,68.1 L495.4,68.3 L489.7,68.4 L484,68.6 L478.3,68.7 L472.6,68.7 L466.9,68.1 L461.3,67.3 L455.7,66.4 L450.1,65.4 L444.5,64.3 L438.9,63.3 L433.3,62.3 L427.7,61.3 L422.1,60.3 L416.5,59.3 L410.9,58.3 L405.3,57.3 L399.6,56.3 L394,55.3 L388.4,54.4 L382.8,53.4 L377.2,52.6 L371.5,52.1 L365.8,51.8 L360.1,51.6 L354.5,51.6 L348.8,51.6 L343.1,51.8 L337.4,52.2 L331.7,52.8 L326.1,53.5 L320.4,54.2 L314.8,54.8 L309.1,55.5 L303.5,56.3 L297.8,57 L292.2,57.7 L286.5,58.4 L280.9,59.2 L275.3,60 L269.6,60.8 L264,61.7 L258.4,62.9 L252.9,64.2 L247.4,65.6 L241.9,67.1 L236.4,68.6 L230.9,70.2 L225.5,71.8 L220.5,73.8
		"/>

  <!-- DRS Zone 2 — visible white for testing (dots run right→left, corrected order) -->
  <!-- <path id="drs-2" class="drs-zone"
    fill="none" stroke="#fff" opacity="1"
    d="M88.2,10.5 
		L93.2,10.3 L97.6,10.2 L102,10.1 L106.4,10.1 L110.8,10.1 L115.2,10.2 L119.6,10.4 L124,10.6 L128.4,10.8 L132.8,11.1 L137.2,11.5 L141.5,11.9 L145.9,12.4 L150.3,12.9 L154.7,13.4 L159,14 L163.4,14.7 L167.7,15.4 L172,16.2 L176.4,17 L180.7,17.8 L185,18.7 L189.3,19.7 L193.6,20.6 L197.9,21.5 L202.2,22.5 L206.5,23.5 L210.7,24.5 L215,25.5 L219.3,26.5 L223.6,27.5 L227.9,28.5 L232.1,29.5 L236.4,30.6 L240.7,31.6 L245,32.6 L249.3,33.6 L253.5,34.7 L257.8,35.7 L262.1,36.7 L266.4,37.6 L270.7,38.6 L275,39.4 L279.3,40.1 L283.7,40.7 L288.1,41.2 L292.5,41.7 L296.8,42.1 L301.2,42.6 L305.6,43 L310,43.5 L314.3,43.9 L318.7,44.3 L323.1,44.7 L327.5,45.1 L331.9,45.5 L336.2,45.9 L340.6,46.3 L345,46.6 L349.4,47 L353.8,47.3 L358.2,47.7 L362.5,48 L371.1,48.2
		"/> -->
  
  <!-- DRS Zone 3 — visible white for testing -->
  <!-- <path id="drs-3" class="drs-zone"
    fill="none" stroke="#fff" opacity="1"
    d="M504.9,272.5
		L498.4,274.5 L494,275.6 L489.7,276.6 L485.4,277.7 L481,278.7 L476.7,279.8 L472.4,280.8 L468.1,281.8 L463.7,282.9 L459.4,283.9 L455.1,285 L450.8,286 L446.4,287.1 L442.1,288.1 L437.8,289.2 L433.5,290.2 L429.1,291.2 L424.8,292.3 L420.5,293.3 L416.2,294.4 L411.8,295.4 L407.5,296.5 L403.2,297.5 L398.9,298.6 L394.5,299.6 L390.2,300.6 L385.9,301.6 L381.5,302.6 L377.2,303.6 L372.9,304.6 L368.5,305.6 L364.2,306.6 L359.9,307.6 L355.5,308.7 L351.2,309.7 L346.8,310.7 L342.5,311.7 L338.2,312.7 L333.8,313.7 L329.5,314.7 L325.2,315.7 L320.8,316.7 L316.5,317.7 L312.2,318.8 L307.8,319.8 L303.5,320.8 L299.2,321.8 L294.8,322.8 L290.5,323.8 L286.2,324.8 L281.8,325.8 L277.5,326.8 L273.2,327.8 L264.8,329.8
		"/> -->
</g>
<g id="コーナー番号">
	<g>
		<g>
			<circle class="st4" cx="467" cy="106.1" r="8.5"/>
			<circle class="st5" cx="467" cy="106.1" r="8.5"/>
		</g>
		<g>
			<path class="st6" d="M465.3,110v-1.6h1V104h-0.9v-1.6h2.6v6.1h0.9v1.6H465.3z"/>
		</g>
	</g>
	<g>
		<g>
			<circle class="st4" cx="195" cy="84.3" r="8.5"/>
			<circle class="st5" cx="195" cy="84.3" r="8.5"/>
		</g>
		<g>
			<path class="st6" d="M192.9,88.2v-2.6c0-0.6,0.1-1,0.6-1.2l1.9-0.8v-1.6l-0.1-0.1h-0.5l-0.1,0.1v1.1h-1.7v-1.3
				c0-0.8,0.4-1.1,0.8-1.3h2.5c0.5,0.2,0.8,0.5,0.8,1.3v1.9c0,0.6-0.1,0.9-0.6,1.2l-1.9,0.8v0.9h2.4v1.6H192.9z"/>
		</g>
	</g>
	<g>
		<g>
			<circle class="st4" cx="219.5" cy="136.2" r="8.5"/>
			<circle class="st5" cx="219.5" cy="136.2" r="8.5"/>
		</g>
		<g>
			<path class="st6" d="M218.2,140c-0.5-0.2-0.8-0.5-0.8-1.3v-1h1.7v0.8l0.1,0.1h0.5l0.1-0.1v-1.6l-0.1-0.1h-1v-1.3h1l0.1-0.1v-1.5
				l-0.1-0.1h-0.5l-0.1,0.1v0.8h-1.7v-1c0-0.8,0.4-1.1,0.8-1.3h2.5c0.5,0.2,0.8,0.5,0.8,1.3v1.3c0,0.6-0.2,0.9-0.6,1.2
				c0.4,0.3,0.6,0.6,0.6,1.2v1.4c0,0.8-0.4,1.1-0.8,1.3H218.2z"/>
		</g>
	</g>
	<g>
		<g>
			<circle class="st4" cx="144.6" cy="135" r="8.5"/>
			<circle class="st5" cx="144.6" cy="135" r="8.5"/>
		</g>
		<g>
			<path class="st6" d="M146.2,137.3v1.5h-1.7v-1.5h-2.2v-1.5l1.6-4.7h1.7l-1.6,4.6h0.5v-0.4l0.4-1h1.3v1.4h0.5v1.6H146.2z"/>
		</g>
	</g>
	<g>
		<g>
			<circle class="st4" cx="84.5" cy="305.5" r="8.5"/>
			<circle class="st5" cx="84.5" cy="305.5" r="8.5"/>
		</g>
		<g>
			<path class="st6" d="M83.2,309.3c-0.5-0.2-0.8-0.5-0.8-1.3v-1H84v0.8l0.1,0.1h0.6l0.1-0.1v-2.1l-0.1-0.1h-0.6l-0.1,0.1v0.4h-1.6
				v-4.5h4v1.5H84v1.6l0.4-0.4h1.3c0.5,0.2,0.8,0.5,0.8,1.3v2.4c0,0.8-0.4,1.1-0.8,1.3H83.2z"/>
		</g>
	</g>
	<g>
		<g>
			<circle class="st4" cx="129.9" cy="346" r="8.5"/>
			<circle class="st5" cx="129.9" cy="346" r="8.5"/>
		</g>
		<g>
			<path class="st6" d="M131.2,349.9h-2.5c-0.5-0.2-0.8-0.5-0.8-1.3v-5.1c0-0.8,0.4-1.1,0.8-1.3h2.5c0.5,0.2,0.8,0.5,0.8,1.3v1h-1.7
				v-0.8l-0.1-0.1h-0.5l-0.1,0.1v1.8l0.3-0.3h1.3c0.5,0.2,0.8,0.5,0.8,1.3v2.2C132,349.4,131.6,349.7,131.2,349.9z M130.2,348.5
				l0.1-0.1v-1.8l-0.1-0.1h-0.5l-0.1,0.1v1.8l0.1,0.1H130.2z"/>
		</g>
	</g>
	<g>
		<g>
			<circle class="st4" cx="16.7" cy="432.1" r="8.5"/>
			<circle class="st5" cx="16.7" cy="432.1" r="8.5"/>
		</g>
		<g>
			<path class="st6" d="M14.8,436l2.1-6.2h-2.4v-1.5h4.1v1.2l-2.1,6.5H14.8z"/>
		</g>
	</g>
	<g>
		<g>
			<circle class="st4" cx="185.5" cy="389.2" r="8.5"/>
			<circle class="st5" cx="185.5" cy="389.2" r="8.5"/>
		</g>
		<g>
			<path class="st6" d="M184.2,393c-0.5-0.2-0.8-0.5-0.8-1.3v-1.4c0-0.6,0.2-0.9,0.6-1.2c-0.4-0.3-0.6-0.6-0.6-1.2v-1.3
				c0-0.8,0.4-1.1,0.8-1.3h2.5c0.5,0.2,0.8,0.5,0.8,1.3v1.3c0,0.6-0.2,0.9-0.6,1.2c0.4,0.3,0.6,0.6,0.6,1.2v1.4
				c0,0.8-0.4,1.1-0.8,1.3H184.2z M185.1,388.4l0.1,0.1h0.5l0.1-0.1v-1.5l-0.1-0.1h-0.5l-0.1,0.1V388.4z M185.8,391.6v-1.6l-0.1-0.1
				h-0.5l-0.1,0.1v1.6l0.1,0.1h0.5L185.8,391.6z"/>
		</g>
	</g>
	<g>
		<g>
			<circle class="st4" cx="282" cy="437.2" r="8.5"/>
			<circle class="st5" cx="282" cy="437.2" r="8.5"/>
		</g>
		<g>
			<path class="st6" d="M280.8,441c-0.5-0.2-0.8-0.5-0.8-1.3v-1h1.7v0.8l0.1,0.1h0.5l0.1-0.1v-1.8l-0.3,0.3h-1.3
				c-0.5-0.2-0.8-0.5-0.8-1.3v-2.2c0-0.8,0.4-1.1,0.8-1.3h2.5c0.5,0.2,0.8,0.5,0.8,1.3v5.1c0,0.8-0.4,1.1-0.8,1.3H280.8z
				 M282.4,436.7v-1.8l-0.1-0.1h-0.5l-0.1,0.1v1.8l0.1,0.1h0.5L282.4,436.7z"/>
		</g>
	</g>
	<g>
		<g>
			<circle class="st4" cx="319.5" cy="352.3" r="8.5"/>
			<circle class="st5" cx="319.5" cy="352.3" r="8.5"/>
		</g>
		<g>
			<path class="st6" d="M315.5,356.2v-1.6h1v-4.5h-0.9v-1.6h2.6v6.1h0.9v1.6H315.5z"/>
			<path class="st6" d="M323.1,356.2h-2.5c-0.5-0.2-0.8-0.5-0.8-1.3v-5.1c0-0.8,0.4-1.1,0.8-1.3h2.5c0.5,0.2,0.8,0.5,0.8,1.3v5.1
				C323.9,355.7,323.6,356,323.1,356.2z M322.2,350l-0.1-0.1h-0.5l-0.1,0.1v4.7l0.1,0.1h0.5l0.1-0.1V350z"/>
		</g>
	</g>
	<g>
		<g>
			<circle class="st4" cx="257.8" cy="266.9" r="8.5"/>
			<circle class="st5" cx="257.8" cy="266.9" r="8.5"/>
		</g>
		<g>
			<path class="st6" d="M253.7,270.8v-1.6h1v-4.5h-0.9v-1.6h2.6v6.1h0.9v1.6H253.7z"/>
			<path class="st6" d="M258.4,270.8v-1.6h1v-4.5h-0.9v-1.6h2.6v6.1h0.9v1.6H258.4z"/>
		</g>
	</g>
	<g>
		<g>
			<circle class="st4" cx="298.1" cy="210.4" r="8.5"/>
			<circle class="st5" cx="298.1" cy="210.4" r="8.5"/>
		</g>
		<g>
			<path class="st6" d="M294,214.2v-1.6h1v-4.5h-0.9v-1.6h2.6v6.1h0.9v1.6H294z"/>
			<path class="st6" d="M298.3,214.2v-2.6c0-0.6,0.1-1,0.6-1.2l1.9-0.8v-1.6l-0.1-0.1h-0.5l-0.1,0.1v1.1h-1.7v-1.3
				c0-0.8,0.4-1.1,0.8-1.3h2.5c0.5,0.2,0.8,0.5,0.8,1.3v1.9c0,0.6-0.1,0.9-0.6,1.2l-1.9,0.8v0.9h2.4v1.6H298.3z"/>
		</g>
	</g>
	<g>
		<g>
			<circle class="st4" cx="324.8" cy="256.6" r="8.5"/>
			<circle class="st5" cx="324.8" cy="256.6" r="8.5"/>
		</g>
		<g>
			<path class="st6" d="M320.8,260.5v-1.6h1v-4.5h-0.9v-1.6h2.6v6.1h0.9v1.6H320.8z"/>
			<path class="st6" d="M325.9,260.5c-0.5-0.2-0.8-0.5-0.8-1.3v-1h1.7v0.8l0.1,0.1h0.5l0.1-0.1v-1.6l-0.1-0.1h-1V256h1l0.1-0.1v-1.5
				l-0.1-0.1h-0.5l-0.1,0.1v0.8h-1.7v-1c0-0.8,0.4-1.1,0.8-1.3h2.5c0.5,0.2,0.8,0.5,0.8,1.3v1.3c0,0.6-0.2,0.9-0.6,1.2
				c0.4,0.3,0.6,0.6,0.6,1.2v1.4c0,0.8-0.4,1.1-0.8,1.3H325.9z"/>
		</g>
	</g>
	<g>
		<g>
			<circle class="st4" cx="497.3" cy="209.4" r="8.5"/>
			<circle class="st5" cx="497.3" cy="209.4" r="8.5"/>
		</g>
		<g>
			<path class="st6" d="M493.3,213.3v-1.6h1v-4.5h-0.9v-1.6h2.6v6.1h0.9v1.6H493.3z"/>
			<path class="st6" d="M501.3,211.8v1.5h-1.7v-1.5h-2.2v-1.5l1.6-4.7h1.7l-1.6,4.6h0.5v-0.4l0.4-1h1.3v1.4h0.5v1.6H501.3z"/>
		</g>
	</g>
	<g>
		<g>
			<circle class="st4" cx="505.9" cy="263" r="8.5"/>
			<circle class="st5" cx="505.9" cy="263" r="8.5"/>
		</g>
		<g>
			<path class="st6" d="M501.9,266.9v-1.6h1v-4.5H502v-1.6h2.6v6.1h0.9v1.6H501.9z"/>
			<path class="st6" d="M507,266.9c-0.5-0.2-0.8-0.5-0.8-1.3v-1h1.6v0.8l0.1,0.1h0.6l0.1-0.1v-2.1l-0.1-0.1h-0.6l-0.1,0.1v0.4h-1.6
				v-4.5h4v1.5h-2.4v1.6l0.4-0.4h1.3c0.5,0.2,0.8,0.5,0.8,1.3v2.4c0,0.8-0.4,1.1-0.8,1.3H507z"/>
		</g>
	</g>
	<g>
		<g>
			<circle class="st4" cx="668.6" cy="98.5" r="8.5"/>
			<circle class="st5" cx="668.6" cy="98.5" r="8.5"/>
		</g>
		<g>
			<path class="st6" d="M664.6,102.4v-1.6h1v-4.5h-0.9v-1.6h2.6v6.1h0.9v1.6H664.6z"/>
			<path class="st6" d="M672.2,102.4h-2.5c-0.5-0.2-0.8-0.5-0.8-1.3V96c0-0.8,0.4-1.1,0.8-1.3h2.5c0.5,0.2,0.8,0.5,0.8,1.3v1h-1.7
				v-0.8l-0.1-0.1h-0.5l-0.1,0.1V98l0.3-0.3h1.3c0.5,0.2,0.8,0.5,0.8,1.3v2.2C673,101.9,672.7,102.2,672.2,102.4z M671.2,101
				l0.1-0.1V99l-0.1-0.1h-0.5l-0.1,0.1v1.8l0.1,0.1H671.2z"/>
		</g>
	</g>
	<g>
		<g>
			<circle class="st4" cx="763.2" cy="84.8" r="8.5"/>
			<circle class="st5" cx="763.2" cy="84.8" r="8.5"/>
		</g>
		<g>
			<path class="st6" d="M759.2,88.7v-1.6h1v-4.5h-0.9V81h2.6v6.1h0.9v1.6H759.2z"/>
			<path class="st6" d="M763.7,88.7l2.1-6.2h-2.4V81h4.1v1.2l-2.1,6.5H763.7z"/>
		</g>
	</g>
	<g>
		<g>
			<circle class="st4" cx="723.4" cy="16.7" r="8.5"/>
			<circle class="st5" cx="723.4" cy="16.7" r="8.5"/>
		</g>
		<g>
			<path class="st6" d="M719.4,20.5v-1.6h1v-4.5h-0.9v-1.6h2.6v6.1h0.9v1.6H719.4z"/>
			<path class="st6" d="M724.5,20.5c-0.5-0.2-0.8-0.5-0.8-1.3v-1.4c0-0.6,0.2-0.9,0.6-1.2c-0.4-0.3-0.6-0.6-0.6-1.2v-1.3
				c0-0.8,0.4-1.1,0.8-1.3h2.5c0.5,0.2,0.8,0.5,0.8,1.3v1.3c0,0.6-0.2,0.9-0.6,1.2c0.4,0.3,0.6,0.6,0.6,1.2v1.4
				c0,0.8-0.4,1.1-0.8,1.3H724.5z M725.4,15.9l0.1,0.1h0.5l0.1-0.1v-1.5l-0.1-0.1h-0.5l-0.1,0.1V15.9z M726.1,19v-1.6l-0.1-0.1h-0.5
				l-0.1,0.1V19l0.1,0.1h0.5L726.1,19z"/>
		</g>
	</g>
	<g>
		<g>
			<circle class="st4" cx="599.3" cy="101.2" r="8.5"/>
			<circle class="st5" cx="599.3" cy="101.2" r="8.5"/>
		</g>
		<g>
			<path class="st6" d="M595.3,105.1v-1.6h1v-4.5h-0.9v-1.6h2.6v6.1h0.9v1.6H595.3z"/>
			<path class="st6" d="M600.4,105.1c-0.5-0.2-0.8-0.5-0.8-1.3v-1h1.7v0.8l0.1,0.1h0.5l0.1-0.1v-1.8l-0.3,0.3h-1.3
				c-0.5-0.2-0.8-0.5-0.8-1.3v-2.2c0-0.8,0.4-1.1,0.8-1.3h2.5c0.5,0.2,0.8,0.5,0.8,1.3v5.1c0,0.8-0.4,1.1-0.8,1.3H600.4z
				 M602.1,100.8v-1.8l-0.1-0.1h-0.5l-0.1,0.1v1.8l0.1,0.1h0.5L602.1,100.8z"/>
		</g>
	</g>
</g>

<g id="DRS">

	<g>
		<g>
			<g>
				<g>
					<line class="st11" x1="618.3" y1="63" x2="611.1" y2="50"/>
				</g>
				<g>
					<path class="st10" d="M608.3,59.7c-0.3-0.7,0-1.5,0.7-1.9c0.7-0.3,1.5,0,1.9,0.7c0.4,0.7,0.1,1.6-0.7,1.9
						C609.5,60.7,608.7,60.4,608.3,59.7z"/>
				</g>
				<g>
					<path class="st10" d="M603.1,61.8c-0.3-0.7,0.1-1.5,0.8-1.8c0.7-0.3,1.5,0.1,1.8,0.8s-0.1,1.5-0.8,1.8
						C604.1,62.9,603.3,62.5,603.1,61.8z"/>
				</g>
				<g>
					<path class="st10" d="M597.6,63.4c-0.2-0.8,0.3-1.5,1-1.7c0.7-0.2,1.5,0.2,1.7,1c0.2,0.8-0.2,1.5-1,1.8
						C598.6,64.7,597.8,64.2,597.6,63.4z"/>
				</g>
				<g>
					<path class="st10" d="M592,64.6c-0.1-0.8,0.4-1.5,1.1-1.6c0.8-0.1,1.5,0.4,1.7,1.1c0.2,0.8-0.3,1.5-1.1,1.7
						C592.9,65.9,592.2,65.4,592,64.6z"/>
				</g>
				<g>
					<path class="st10" d="M586.4,65.3c-0.1-0.8,0.5-1.5,1.3-1.5c0.8-0.1,1.5,0.5,1.6,1.2c0.1,0.8-0.5,1.5-1.3,1.6
						C587.1,66.6,586.4,66.1,586.4,65.3z"/>
				</g>
				<g>
					<path class="st10" d="M580.7,65.6c0-0.8,0.6-1.4,1.3-1.5c0.8,0,1.4,0.6,1.5,1.3c0,0.8-0.6,1.4-1.3,1.5
						C581.4,67,580.7,66.4,580.7,65.6z"/>
				</g>
				<g>
					<path class="st10" d="M575,65.9c0-0.8,0.6-1.4,1.4-1.5c0.8,0,1.4,0.6,1.5,1.4c0,0.8-0.6,1.4-1.4,1.5
						C575.7,67.2,575,66.6,575,65.9z"/>
				</g>
				<g>
					<path class="st10" d="M569.3,66.1c0-0.8,0.6-1.4,1.4-1.5c0.8,0,1.4,0.6,1.5,1.4c0,0.8-0.6,1.4-1.4,1.5
						C570,67.5,569.4,66.8,569.3,66.1z"/>
				</g>
				<g>
					<path class="st10" d="M563.6,66.3c0-0.8,0.6-1.4,1.4-1.5c0.8,0,1.4,0.6,1.5,1.4c0,0.8-0.6,1.4-1.4,1.5
						C564.3,67.7,563.7,67,563.6,66.3z"/>
				</g>
				<g>
					<path class="st10" d="M557.9,66.4c0-0.8,0.6-1.4,1.4-1.5s1.4,0.6,1.5,1.4c0,0.8-0.6,1.4-1.4,1.5
						C558.6,67.8,558,67.2,557.9,66.4z"/>
				</g>
				<g>
					<path class="st10" d="M552.3,66.6c0-0.8,0.6-1.4,1.4-1.5c0.8,0,1.4,0.6,1.5,1.4c0,0.8-0.6,1.4-1.4,1.5
						C552.9,68,552.3,67.4,552.3,66.6z"/>
				</g>
				<g>
					<path class="st10" d="M546.6,66.8c0-0.8,0.6-1.4,1.4-1.5c0.8,0,1.4,0.6,1.5,1.4c0,0.8-0.6,1.4-1.4,1.5
						C547.2,68.2,546.6,67.6,546.6,66.8z"/>
				</g>
				<g>
					<path class="st10" d="M540.9,67c0-0.8,0.6-1.4,1.4-1.5c0.8,0,1.4,0.6,1.5,1.4c0,0.8-0.6,1.4-1.4,1.5
						C541.6,68.4,540.9,67.8,540.9,67z"/>
				</g>
				<g>
					<path class="st10" d="M535.2,67.1c0-0.8,0.6-1.4,1.4-1.5c0.8,0,1.4,0.6,1.5,1.4c0,0.8-0.6,1.4-1.4,1.5
						C535.9,68.5,535.2,67.9,535.2,67.1z"/>
				</g>
				<g>
					<path class="st10" d="M529.5,67.3c0-0.8,0.6-1.4,1.4-1.5s1.4,0.6,1.5,1.4c0,0.8-0.6,1.4-1.4,1.5
						C530.2,68.7,529.5,68.1,529.5,67.3z"/>
				</g>
				<g>
					<path class="st10" d="M523.8,67.5c0-0.8,0.6-1.4,1.4-1.5c0.8,0,1.4,0.6,1.5,1.4c0,0.8-0.6,1.4-1.4,1.5
						C524.5,68.9,523.8,68.2,523.8,67.5z"/>
				</g>
				<g>
					<path class="st10" d="M518.1,67.6c0-0.8,0.6-1.4,1.4-1.5s1.4,0.6,1.5,1.4c0,0.8-0.6,1.4-1.4,1.5
						C518.8,69,518.1,68.4,518.1,67.6z"/>
				</g>
				<g>
					<path class="st10" d="M512.4,67.8c0-0.8,0.6-1.4,1.4-1.5c0.8,0,1.4,0.6,1.5,1.4c0,0.8-0.6,1.4-1.4,1.5
						C513.1,69.2,512.4,68.6,512.4,67.8z"/>
				</g>
				<g>
					<path class="st10" d="M506.7,67.9c0-0.8,0.6-1.4,1.4-1.5c0.8,0,1.4,0.6,1.5,1.4c0,0.8-0.6,1.4-1.4,1.5S506.8,68.7,506.7,67.9z"
						/>
				</g>
				<g>
					<path class="st10" d="M501,68.1c0-0.8,0.6-1.4,1.4-1.5c0.8,0,1.4,0.6,1.5,1.4s-0.6,1.4-1.4,1.5C501.7,69.5,501.1,68.9,501,68.1
						z"/>
				</g>
				<g>
					<path class="st10" d="M495.4,68.3c0-0.8,0.6-1.4,1.4-1.5c0.8,0,1.4,0.6,1.5,1.4s-0.6,1.4-1.4,1.5C496,69.7,495.4,69,495.4,68.3
						z"/>
				</g>
				<g>
					<path class="st10" d="M489.7,68.4c0-0.8,0.6-1.4,1.4-1.5c0.8,0,1.4,0.6,1.5,1.4c0,0.8-0.6,1.4-1.4,1.5
						C490.3,69.8,489.7,69.2,489.7,68.4z"/>
				</g>
				<g>
					<path class="st10" d="M484,68.6c0-0.8,0.6-1.4,1.4-1.5s1.4,0.6,1.5,1.4s-0.6,1.4-1.4,1.5S484,69.4,484,68.6z"/>
				</g>
				<g>
					<path class="st10" d="M478.3,68.7c0-0.8,0.6-1.4,1.4-1.5c0.8,0,1.4,0.6,1.5,1.4c0,0.8-0.6,1.4-1.4,1.5
						C479,70.1,478.3,69.5,478.3,68.7z"/>
				</g>
				<g>
					<path class="st10" d="M472.6,68.7c0.1-0.8,0.7-1.4,1.5-1.3c0.8,0,1.4,0.7,1.4,1.5c0,0.8-0.7,1.4-1.5,1.4
						C473.1,70.1,472.5,69.4,472.6,68.7z"/>
				</g>
				<g>
					<path class="st10" d="M466.9,68.1c0.1-0.8,0.8-1.3,1.6-1.2c0.8,0.1,1.3,0.8,1.3,1.6c-0.1,0.8-0.8,1.4-1.6,1.3
						C467.4,69.6,466.8,68.9,466.9,68.1z"/>
				</g>
				<g>
					<path class="st10" d="M461.3,67.3c0.1-0.8,0.8-1.3,1.6-1.2c0.8,0.1,1.3,0.8,1.2,1.6c-0.1,0.8-0.8,1.3-1.6,1.2
						C461.7,68.8,461.2,68.1,461.3,67.3z"/>
				</g>
				<g>
					<path class="st10" d="M455.7,66.4c0.1-0.8,0.9-1.3,1.6-1.2c0.8,0.1,1.3,0.9,1.2,1.6c-0.1,0.8-0.9,1.3-1.6,1.2
						C456.1,67.9,455.5,67.2,455.7,66.4z"/>
				</g>
				<g>
					<path class="st10" d="M450.1,65.4c0.2-0.8,0.9-1.3,1.7-1.1c0.8,0.1,1.3,0.9,1.1,1.7c-0.1,0.8-0.9,1.3-1.7,1.1
						C450.4,66.9,449.9,66.2,450.1,65.4z"/>
				</g>
				<g>
					<path class="st10" d="M444.5,64.3c0.1-0.8,0.9-1.3,1.7-1.1c0.8,0.1,1.3,0.9,1.1,1.7c-0.1,0.8-0.9,1.3-1.7,1.1
						C444.8,65.8,444.3,65.1,444.5,64.3z"/>
				</g>
				<g>
					<path class="st10" d="M438.9,63.3c0.1-0.8,0.9-1.3,1.7-1.1c0.8,0.1,1.3,0.9,1.1,1.7c-0.1,0.8-0.9,1.3-1.7,1.1
						C439.3,64.8,438.7,64.1,438.9,63.3z"/>
				</g>
				<g>
					<path class="st10" d="M433.3,62.3c0.1-0.8,0.9-1.3,1.7-1.1c0.8,0.1,1.3,0.9,1.1,1.6c-0.1,0.8-0.9,1.3-1.7,1.1
						C433.7,63.8,433.1,63.1,433.3,62.3z"/>
				</g>
				<g>
					<path class="st10" d="M427.7,61.3c0.1-0.8,0.9-1.3,1.7-1.1c0.8,0.1,1.3,0.9,1.2,1.6c-0.1,0.8-0.9,1.3-1.7,1.1
						C428.1,62.8,427.5,62,427.7,61.3z"/>
				</g>
				<g>
					<path class="st10" d="M422.1,60.3c0.1-0.8,0.9-1.3,1.6-1.1s1.3,0.9,1.2,1.6c-0.1,0.8-0.9,1.3-1.6,1.1S421.9,61,422.1,60.3z"/>
				</g>
				<g>
					<path class="st10" d="M416.5,59.3c0.1-0.8,0.9-1.3,1.6-1.1c0.8,0.1,1.3,0.9,1.2,1.6c-0.1,0.8-0.9,1.3-1.6,1.1
						S416.3,60.1,416.5,59.3z"/>
				</g>
				<g>
					<path class="st10" d="M410.9,58.3c0.1-0.8,0.9-1.3,1.6-1.1c0.8,0.1,1.3,0.9,1.2,1.6c-0.1,0.8-0.9,1.3-1.6,1.1
						C411.2,59.8,410.7,59.1,410.9,58.3z"/>
				</g>
				<g>
					<path class="st10" d="M405.3,57.3c0.1-0.8,0.9-1.3,1.6-1.1c0.8,0.1,1.3,0.9,1.2,1.6s-0.9,1.3-1.6,1.1
						C405.6,58.8,405.1,58.1,405.3,57.3z"/>
				</g>
				<g>
					<path class="st10" d="M399.6,56.3c0.1-0.8,0.9-1.3,1.6-1.2c0.8,0.1,1.3,0.9,1.2,1.6c-0.1,0.8-0.9,1.3-1.6,1.2
						C400,57.8,399.5,57.1,399.6,56.3z"/>
				</g>
				<g>
					<path class="st10" d="M394,55.3c0.1-0.8,0.9-1.3,1.6-1.2c0.8,0.1,1.3,0.9,1.2,1.6c-0.1,0.8-0.9,1.3-1.6,1.2
						C394.4,56.8,393.9,56.1,394,55.3z"/>
				</g>
				<g>
					<path class="st10" d="M388.4,54.4c0.1-0.8,0.9-1.3,1.6-1.2c0.8,0.1,1.3,0.9,1.2,1.6c-0.1,0.8-0.9,1.3-1.6,1.2
						C388.8,55.9,388.3,55.1,388.4,54.4z"/>
				</g>
				<g>
					<path class="st10" d="M382.8,53.4c0.1-0.8,0.9-1.3,1.6-1.2c0.8,0.1,1.3,0.9,1.2,1.6c-0.1,0.8-0.9,1.3-1.6,1.2
						C383.2,54.9,382.7,54.2,382.8,53.4z"/>
				</g>
				<g>
					<path class="st10" d="M377.2,52.6c0.1-0.8,0.8-1.3,1.6-1.2c0.8,0.1,1.3,0.8,1.2,1.6c-0.1,0.8-0.8,1.3-1.6,1.2
						C377.6,54,377.1,53.4,377.2,52.6z"/>
				</g>
				<g>
					<path class="st10" d="M371.5,52.1c0-0.8,0.7-1.4,1.5-1.3c0.8,0.1,1.4,0.7,1.3,1.5c-0.1,0.8-0.7,1.4-1.5,1.3
						C372.1,53.5,371.5,52.9,371.5,52.1z"/>
				</g>
				<g>
					<path class="st10" d="M365.8,51.8c0-0.8,0.7-1.4,1.5-1.4c0.8,0,1.4,0.7,1.4,1.5c0,0.8-0.7,1.4-1.5,1.3
						C366.4,53.3,365.8,52.6,365.8,51.8z"/>
				</g>
				<g>
					<path class="st10" d="M360.1,51.6c0-0.8,0.7-1.4,1.5-1.4c0.8,0,1.4,0.7,1.4,1.5c0,0.8-0.7,1.4-1.5,1.4
						C360.7,53.1,360.1,52.4,360.1,51.6z"/>
				</g>
				<g>
					<path class="st10" d="M354.5,51.6c0-0.8,0.6-1.4,1.4-1.4c0.8,0,1.4,0.6,1.4,1.4c0,0.8-0.7,1.4-1.4,1.4
						C355.1,53,354.5,52.4,354.5,51.6z"/>
				</g>
				<g>
					<path class="st10" d="M348.8,51.6c0-0.8,0.6-1.4,1.4-1.4c0.8,0,1.4,0.6,1.4,1.4c0,0.8-0.6,1.4-1.4,1.4
						C349.4,53,348.8,52.4,348.8,51.6z"/>
				</g>
				<g>
					<path class="st10" d="M343.1,51.8c0-0.8,0.6-1.4,1.4-1.5c0.8,0,1.5,0.6,1.5,1.4c0,0.8-0.6,1.4-1.4,1.5
						C343.8,53.2,343.1,52.6,343.1,51.8z"/>
				</g>
				<g>
					<path class="st10" d="M337.4,52.2c-0.1-0.8,0.5-1.5,1.3-1.5c0.8-0.1,1.5,0.5,1.5,1.3c0.1,0.8-0.5,1.5-1.3,1.5
						C338.2,53.6,337.5,53,337.4,52.2z"/>
				</g>
				<g>
					<path class="st10" d="M331.7,52.8c-0.1-0.8,0.5-1.5,1.3-1.6c0.8-0.1,1.5,0.5,1.6,1.3c0.1,0.8-0.5,1.5-1.3,1.6
						C332.5,54.2,331.8,53.6,331.7,52.8z"/>
				</g>
				<g>
					<path class="st10" d="M326.1,53.5c-0.1-0.8,0.5-1.5,1.2-1.6c0.8-0.1,1.5,0.5,1.6,1.2c0.1,0.8-0.5,1.5-1.2,1.6
						C326.9,54.8,326.2,54.3,326.1,53.5z"/>
				</g>
				<g>
					<path class="st10" d="M320.4,54.2c-0.1-0.8,0.5-1.5,1.2-1.6c0.8-0.1,1.5,0.5,1.6,1.2c0.1,0.8-0.5,1.5-1.2,1.6
						C321.2,55.5,320.5,54.9,320.4,54.2z"/>
				</g>
				<g>
					<path class="st10" d="M314.8,54.8c-0.1-0.8,0.5-1.5,1.2-1.6c0.8-0.1,1.5,0.5,1.6,1.2c0.1,0.8-0.5,1.5-1.2,1.6
						C315.6,56.2,314.9,55.6,314.8,54.8z"/>
				</g>
				<g>
					<path class="st10" d="M309.1,55.5c-0.1-0.8,0.5-1.5,1.2-1.6c0.8-0.1,1.5,0.5,1.6,1.2c0.1,0.8-0.5,1.5-1.2,1.6
						C309.9,56.9,309.2,56.3,309.1,55.5z"/>
				</g>
				<g>
					<path class="st10" d="M303.5,56.3c-0.1-0.8,0.5-1.5,1.2-1.6c0.8-0.1,1.5,0.5,1.6,1.2c0.1,0.8-0.5,1.5-1.2,1.6
						C304.3,57.6,303.6,57,303.5,56.3z"/>
				</g>
				<g>
					<path class="st10" d="M297.8,57c-0.1-0.8,0.5-1.5,1.2-1.6c0.8-0.1,1.5,0.4,1.6,1.2c0.1,0.8-0.5,1.5-1.2,1.6
						C298.6,58.3,297.9,57.8,297.8,57z"/>
				</g>
				<g>
					<path class="st10" d="M292.2,57.7c-0.1-0.8,0.4-1.5,1.2-1.6c0.8-0.1,1.5,0.4,1.6,1.2c0.1,0.8-0.5,1.5-1.2,1.6
						C293,59,292.3,58.5,292.2,57.7z"/>
				</g>
				<g>
					<path class="st10" d="M286.5,58.4c-0.1-0.8,0.4-1.5,1.2-1.6c0.8-0.1,1.5,0.4,1.6,1.2c0.1,0.8-0.4,1.5-1.2,1.6
						C287.4,59.8,286.6,59.2,286.5,58.4z"/>
				</g>
				<g>
					<path class="st10" d="M280.9,59.2c-0.1-0.8,0.4-1.5,1.2-1.6c0.8-0.1,1.5,0.4,1.6,1.2c0.1,0.8-0.4,1.5-1.2,1.6
						C281.7,60.5,281,60,280.9,59.2z"/>
				</g>
				<g>
					<path class="st10" d="M275.3,60c-0.1-0.8,0.4-1.5,1.2-1.6c0.8-0.1,1.5,0.4,1.6,1.2s-0.4,1.5-1.2,1.6
						C276.1,61.3,275.4,60.7,275.3,60z"/>
				</g>
				<g>
					<path class="st10" d="M269.6,60.8c-0.1-0.8,0.4-1.5,1.2-1.6c0.8-0.1,1.5,0.4,1.6,1.2c0.1,0.8-0.4,1.5-1.2,1.6
						C270.5,62.1,269.7,61.5,269.6,60.8z"/>
				</g>
				<g>
					<path class="st10" d="M264,61.7c-0.1-0.8,0.4-1.5,1.2-1.6c0.8-0.1,1.5,0.4,1.6,1.2c0.1,0.8-0.4,1.5-1.2,1.6
						C264.9,62.9,264.1,62.4,264,61.7z"/>
				</g>
				<g>
					<path class="st10" d="M258.4,62.9c-0.2-0.8,0.3-1.5,1.1-1.7c0.8-0.2,1.5,0.3,1.7,1.1c0.2,0.8-0.3,1.5-1.1,1.7
						C259.4,64.1,258.6,63.6,258.4,62.9z"/>
				</g>
				<g>
					<path class="st10" d="M252.9,64.2c-0.2-0.8,0.3-1.5,1-1.7c0.8-0.2,1.5,0.3,1.7,1c0.2,0.8-0.3,1.5-1,1.7
						C253.9,65.4,253.1,65,252.9,64.2z"/>
				</g>
				<g>
					<path class="st10" d="M247.4,65.6c-0.2-0.8,0.3-1.5,1-1.7c0.8-0.2,1.5,0.3,1.7,1s-0.3,1.5-1,1.7
						C248.4,66.8,247.6,66.4,247.4,65.6z"/>
				</g>
				<g>
					<path class="st10" d="M241.9,67.1c-0.2-0.8,0.2-1.5,1-1.7c0.8-0.2,1.5,0.2,1.7,1c0.2,0.8-0.2,1.5-1,1.7
						C242.9,68.3,242.1,67.9,241.9,67.1z"/>
				</g>
				<g>
					<path class="st10" d="M236.4,68.6c-0.2-0.8,0.2-1.5,1-1.7c0.8-0.2,1.5,0.2,1.8,1c0.2,0.8-0.2,1.5-1,1.7
						C237.4,69.8,236.6,69.4,236.4,68.6z"/>
				</g>
				<g>
					<path class="st10" d="M230.9,70.2c-0.2-0.8,0.2-1.5,1-1.8c0.8-0.2,1.5,0.2,1.8,1c0.2,0.8-0.2,1.5-1,1.8
						C231.9,71.3,231.1,70.9,230.9,70.2z"/>
				</g>
				<g>
					<path class="st10" d="M225.5,71.8c-0.2-0.7,0.2-1.5,1-1.8c0.8-0.2,1.6,0.2,1.8,0.9c0.2,0.8-0.2,1.5-1,1.8
						C226.5,73,225.7,72.5,225.5,71.8z"/>
				</g>
				<g>
					<line class="st11" x1="223.8" y1="80.1" x2="219" y2="66.1"/>
				</g>
			</g>
		</g>
	</g>


</g>
<g id="アイコン">
	<g>
		<rect x="558.9" y="97.1" class="st5" width="2.8" height="2.8"/>
		<rect x="564.6" y="97.1" class="st5" width="2.8" height="2.8"/>
		<rect x="561.7" y="99.9" class="st5" width="2.8" height="2.8"/>
		<rect x="567.4" y="99.9" class="st5" width="2.8" height="2.8"/>
		<rect x="561.7" y="105.6" class="st5" width="2.8" height="2.8"/>
		<rect x="567.4" y="105.6" class="st5" width="2.8" height="2.8"/>
		<rect x="570.2" y="97.1" class="st5" width="2.8" height="2.8"/>
		<rect x="567.4" y="97.1" class="st6" width="2.8" height="2.8"/>
		<rect x="561.7" y="97.1" class="st6" width="2.8" height="2.8"/>
		<rect x="558.9" y="99.9" class="st6" width="2.8" height="2.8"/>
		<rect x="564.6" y="99.9" class="st6" width="2.8" height="2.8"/>
		<rect x="570.2" y="99.9" class="st6" width="2.8" height="2.8"/>
		<rect x="567.4" y="102.7" class="st6" width="2.8" height="2.8"/>
		<rect x="561.7" y="102.7" class="st6" width="2.8" height="2.8"/>
		<rect x="567.4" y="108.4" class="st6" width="2.8" height="2.8"/>
		<rect x="561.7" y="108.4" class="st6" width="2.8" height="2.8"/>
		<rect x="558.9" y="105.6" class="st6" width="2.8" height="2.8"/>
		<rect x="564.6" y="105.6" class="st6" width="2.8" height="2.8"/>
		<rect x="570.2" y="105.6" class="st6" width="2.8" height="2.8"/>
		<rect x="558.9" y="102.7" class="st5" width="2.8" height="2.8"/>
		<rect x="564.6" y="102.7" class="st5" width="2.8" height="2.8"/>
		<rect x="564.6" y="108.4" class="st5" width="2.8" height="2.8"/>
		<rect x="570.2" y="102.7" class="st5" width="2.8" height="2.8"/>
		<rect x="558.9" y="108.4" class="st5" width="2.8" height="2.8"/>
		<rect x="570.2" y="108.4" class="st5" width="2.8" height="2.8"/>
	</g>
	<g>
		<defs>
			
				<rect id="SVGID_1_" x="488.3" y="99.2" transform="matrix(1 -2.438543e-03 2.438543e-03 1 -0.2507 1.2182)" width="22.3" height="8.5"/>
		</defs>
		<clipPath id="SVGID_00000106862446244492694280000009687910073906979241_">
			<use xlink:href="#SVGID_1_"  style="overflow:visible;"/>
		</clipPath>
		<g style="clip-path:url(#SVGID_00000106862446244492694280000009687910073906979241_);">
			<polygon class="st14" points="509.4,110.5 506.6,110.5 500.9,103.4 506.5,96.3 509.4,96.3 503.7,103.4 			"/>
			<polygon class="st15" points="503.7,110.5 500.9,110.5 495.2,103.4 500.9,96.3 503.7,96.3 498,103.4 			"/>
			<polygon class="st16" points="498.1,110.5 495.2,110.5 489.5,103.4 495.2,96.3 498,96.3 492.4,103.4 			"/>
		</g>
	</g>
</g>
</svg>
