<?xml version="1.0" encoding="utf-8"?>
<!-- Generator: Adobe Illustrator 27.2.0, SVG Export Plug-In . SVG Version: 6.00 Build 0)  -->
<svg version="1.1" xmlns="http://www.w3.org/2000/svg" xmlns:xlink="http://www.w3.org/1999/xlink" x="0px" y="0px"
	 viewBox="0 0 550 443.7" style="enable-background:new 0 0 550 443.7;" xml:space="preserve">
<style type="text/css">
	.st0{fill:none;stroke:#646464;stroke-width:14.1732;stroke-miterlimit:10;}
	.st1{fill:none;stroke:#F4442E;stroke-width:2.8346;stroke-miterlimit:10;}
	.st2{fill:none;stroke:#FFD449;stroke-width:2.8346;stroke-miterlimit:10;}
	.st3{fill:none;stroke:#54C6EB;stroke-width:2.8346;stroke-miterlimit:10;}
	.st4{fill:none;stroke:#FFFFFF;stroke-width:2.126;}
	.st5{fill:#646464;}
	.st6{fill:#FFFFFF;}
	.st7{fill:#09BC8A;}
	.st8{fill:none;stroke:#646464;stroke-width:2.8346;stroke-miterlimit:10;}
	.st9{fill:none;stroke:#09BC8A;stroke-width:2.2097;stroke-miterlimit:10;}
	.st10{fill:none;stroke:#09BC8A;stroke-width:1.9843;stroke-miterlimit:10;}
	.st11{fill:#FF3380;}
	.st12{fill:none;stroke:#FF3380;stroke-width:1.9843;stroke-miterlimit:10;}
	.st13{fill:none;stroke:#646464;stroke-width:0.7087;stroke-miterlimit:10;}
	.st14{fill:none;stroke:#F4442E;stroke-width:5.6693;stroke-miterlimit:10;}
	.st15{fill:none;stroke:#54C6EB;stroke-width:5.6693;stroke-miterlimit:10;}
	.st16{fill:none;stroke:#FFD449;stroke-width:5.6693;stroke-miterlimit:10;}
	.st17{fill:none;stroke:#09BC8A;stroke-width:2.8346;stroke-miterlimit:10;}
	.st18{clip-path:url(#SVGID_00000144325710163204993690000011819298922163627648_);}
	.st19{fill:#F4442E;}
	.st20{fill:#54C6EB;}
	.st21{fill:#FFD449;}
</style>
<g id="コース">
	<path class="st0" d="M466.6,356.7c0,0-351.7,0-368.3,0c-22,0-23.2-18.9-23.2-22c0-3.1,0.2-14.4,14.3-22c14-7.6,39.3-20.4,47.5-25.7
		s10.8-8.3,10.8-19.9c0-11.5-9.5-18.1-17.1-21.5c-7.6-3.4-36.1-18-39.8-20.1c-3.7-2.1-9.2-8.1-11.7-15.4
		C76.4,203,41.5,105.1,39.7,98.8c-1.8-6.4-1.1-18.3,8.9-22.4c10-4.1,27.2-10.4,34.1-12.6s18,1.6,21.6,10.6s23.7,63,25.8,72.3
		c2.9,12.8,21.3,13.4,23.4-0.4c1.5-9.8,9.9-90.4,11.1-99.1c1.2-8.7,7.2-19.4,22.9-18.5c15.7,0.9,18.7,9.3,19,15.5s3,22,10.8,34.8
		s25.9,28.4,30.2,32.4c4.3,4,8.1,9.1,5.9,19.3c-2.2,10.2-11,39.8-12.6,46.4c-1.6,6.6-2.5,13.8,3.7,19.2c7,6.1,27.8,3.6,41-3.6
		c13.3-7.2,42-18.8,63.3-70.5c4.6-11.2,20.3-53.5,23.4-60.8c3.1-7.4,12.8-16.9,25.8-16.9c13,0,34.9,0,40.6,0s11.7,2.3,16,9
		s23.4,40.6,25.5,44.8c3.4,6.9,4.7,13.9,0.5,20.1c-4.2,6.1-55,68.2-58.5,72.4c-4.3,5.3-7.7,13.4-2.3,22.2
		c5.4,8.8,69.7,103.3,72.5,108.1c2.9,4.8,3.6,9.3,3.6,13.6C496.2,340.5,493.2,356.7,466.6,356.7z"/>
</g>
<g id="セクター">
	<path class="st1" d="M250.9,356.7c-76.4,0-145.5,0-152.7,0c-22,0-23.2-18.9-23.2-22c0-3.1,0.2-14.4,14.3-22
		c14-7.6,39.3-20.4,47.5-25.7s10.8-8.3,10.8-19.9c0-11.5-9.5-18.1-17.1-21.5c-7.6-3.4-36.1-18-39.8-20.1c-3.7-2.1-9.2-8.1-11.7-15.4
		C76.4,203,41.5,105.1,39.7,98.8c-1.8-6.4-1.1-18.3,8.9-22.4c10-4.1,27.2-10.4,34.1-12.6s18,1.6,21.6,10.6
		c2.1,5.3,10,26.3,16.6,44.6"/>
	<path class="st2" d="M364.5,81.7c3.6-9.5,6.7-17.5,7.9-20.4c3.1-7.4,12.8-16.9,25.8-16.9c13,0,34.9,0,40.6,0s11.7,2.3,16,9
		s23.4,40.6,25.5,44.8c3.4,6.9,4.7,13.9,0.5,20.1c-4.2,6.1-55,68.2-58.5,72.4c-4.3,5.3-7.7,13.4-2.3,22.2
		c5.4,8.8,69.7,103.3,72.5,108.1c2.9,4.8,3.6,9.3,3.6,13.6c0,5.8-3,22.1-29.6,22.1c0,0-114.3,0-215.6,0"/>
	<path class="st3" d="M120.9,119c4.5,12.6,8.4,23.9,9.2,27.8c2.9,12.8,21.3,13.4,23.4-0.4c1.5-9.8,9.9-90.4,11.1-99.1
		c1.2-8.7,7.2-19.4,22.9-18.5c15.7,0.9,18.7,9.3,19,15.5s3,22,10.8,34.8s25.9,28.4,30.2,32.4c4.3,4,8.1,9.1,5.9,19.3
		c-2.2,10.2-11,39.8-12.6,46.4c-1.6,6.6-2.5,13.8,3.7,19.2c7,6.1,27.8,3.6,41-3.6c13.3-7.2,42-18.8,63.3-70.5
		c2.8-6.9,9.8-25.4,15.5-40.4"/>
</g>
<g id="DRS-ZONES">
  <!-- DRS Zone 1 — visible white for testing (dots run right→left, corrected order) -->
  <path id="drs-1" class="drs-zone"
    fill="none" stroke="#fff" opacity="0"
    d="M430.2,372.2 
		L424.2,372.2 L418.7,372.2 L414.3,372.2 L411,372.2 L406.6,372.2 L402.2,372.2 L396.8,372.2 L392.4,372.2 L389.1,372.2 L384.7,372.2 L379.2,372.2 L374.8,372.2 L371.5,372.2 L367.1,372.2 L362.7,372.2 L357.2,372.2 L352.9,372.2 L349.6,372.2 L345.2,372.2 L339.7,372.2 L335.3,372.2 L332,372.2 L327.6,372.2 L323.2,372.2 L317.7,372.2 L313.3,372.2 L310,372.2 L305.7,372.2 L301.3,372.2 L296.9,372.2 L292.5,372.2 L288.1,372.2 L283.7,372.2 L279.3,372.2 L274.9,372.2 L270.5,372.2 L266.1,372.2 L261.8,372.2 L257.4,372.2 L253,372.2 L248.6,372.2 L244.2,372.2 L239.8,372.2 L235.4,372.2 L231,372.2 L226.6,372.2 L222.2,372.2 L217.9,372.2 L213.5,372.2 L209.1,372.2 L204.7,372.2 L200.3,372.2 L195.9,372.2 L191.5,372.2 L187.1,372.2 L182.7,372.2 L178.3,372.2 L174,372.2 L169.6,372.2 L165.2,372.2 L160.8,372.2 L156.4,372.2 L152,372.2 L147.6,372.2 L143.2,372.2 L138.8,372.2 L134.4,372.2 L130,372.2 L125.7,372.2 L121.3,372.2 L116.9,372.2 L112.5,372.2 L108.1,372.2 L103.1,372.2
		"/>

  <!-- DRS Zone 2 — visible white for testing (dots run right→left, corrected order) -->
  <!-- <path id="drs-2" class="drs-zone"
    fill="none" stroke="#fff" opacity="1"
    d="M88.2,10.5 
		L93.2,10.3 L97.6,10.2 L102,10.1 L106.4,10.1 L110.8,10.1 L115.2,10.2 L119.6,10.4 L124,10.6 L128.4,10.8 L132.8,11.1 L137.2,11.5 L141.5,11.9 L145.9,12.4 L150.3,12.9 L154.7,13.4 L159,14 L163.4,14.7 L167.7,15.4 L172,16.2 L176.4,17 L180.7,17.8 L185,18.7 L189.3,19.7 L193.6,20.6 L197.9,21.5 L202.2,22.5 L206.5,23.5 L210.7,24.5 L215,25.5 L219.3,26.5 L223.6,27.5 L227.9,28.5 L232.1,29.5 L236.4,30.6 L240.7,31.6 L245,32.6 L249.3,33.6 L253.5,34.7 L257.8,35.7 L262.1,36.7 L266.4,37.6 L270.7,38.6 L275,39.4 L279.3,40.1 L283.7,40.7 L288.1,41.2 L292.5,41.7 L296.8,42.1 L301.2,42.6 L305.6,43 L310,43.5 L314.3,43.9 L318.7,44.3 L323.1,44.7 L327.5,45.1 L331.9,45.5 L336.2,45.9 L340.6,46.3 L345,46.6 L349.4,47 L353.8,47.3 L358.2,47.7 L362.5,48 L371.1,48.2
		"/> -->
  
  <!-- DRS Zone 3 — visible white for testing -->
  <!-- <path id="drs-3" class="drs-zone"
    fill="none" stroke="#fff" opacity="1"
    d="M504.9,272.5
		L498.4,274.5 L494,275.6 L489.7,276.6 L485.4,277.7 L481,278.7 L476.7,279.8 L472.4,280.8 L468.1,281.8 L463.7,282.9 L459.4,283.9 L455.1,285 L450.8,286 L446.4,287.1 L442.1,288.1 L437.8,289.2 L433.5,290.2 L429.1,291.2 L424.8,292.3 L420.5,293.3 L416.2,294.4 L411.8,295.4 L407.5,296.5 L403.2,297.5 L398.9,298.6 L394.5,299.6 L390.2,300.6 L385.9,301.6 L381.5,302.6 L377.2,303.6 L372.9,304.6 L368.5,305.6 L364.2,306.6 L359.9,307.6 L355.5,308.7 L351.2,309.7 L346.8,310.7 L342.5,311.7 L338.2,312.7 L333.8,313.7 L329.5,314.7 L325.2,315.7 L320.8,316.7 L316.5,317.7 L312.2,318.8 L307.8,319.8 L303.5,320.8 L299.2,321.8 L294.8,322.8 L290.5,323.8 L286.2,324.8 L281.8,325.8 L277.5,326.8 L273.2,327.8 L264.8,329.8
		"/> -->
</g>
<g id="コーナー番号">
	<g>
		<g>
			<circle class="st4" cx="54" cy="344" r="8.5"/>
			<circle class="st5" cx="54" cy="344" r="8.5"/>
		</g>
		<g>
			<path class="st6" d="M52.3,347.9v-1.6h1v-4.5h-0.9v-1.6h2.6v6.1h0.9v1.6H52.3z"/>
		</g>
	</g>
	<g>
		<g>
			<circle class="st4" cx="168.6" cy="268.1" r="8.5"/>
			<circle class="st5" cx="168.6" cy="268.1" r="8.5"/>
		</g>
		<g>
			<path class="st6" d="M166.5,272v-2.6c0-0.6,0.1-1,0.6-1.2l1.9-0.8v-1.6l-0.1-0.1h-0.5l-0.1,0.1v1.1h-1.7v-1.3
				c0-0.8,0.4-1.1,0.8-1.3h2.5c0.5,0.2,0.8,0.5,0.8,1.3v1.9c0,0.6-0.1,0.9-0.6,1.2l-1.9,0.8v0.9h2.4v1.6H166.5z"/>
		</g>
	</g>
	<g>
		<g>
			<circle class="st4" cx="68.6" cy="236.7" r="8.5"/>
			<circle class="st5" cx="68.6" cy="236.7" r="8.5"/>
		</g>
		<g>
			<path class="st6" d="M67.3,240.5c-0.5-0.2-0.8-0.5-0.8-1.3v-1h1.7v0.8l0.1,0.1h0.5L69,239v-1.6l-0.1-0.1h-1V236h1l0.1-0.1v-1.5
				l-0.1-0.1h-0.5l-0.1,0.1v0.8h-1.7v-1c0-0.8,0.4-1.1,0.8-1.3h2.5c0.5,0.2,0.8,0.5,0.8,1.3v1.3c0,0.6-0.2,0.9-0.6,1.2
				c0.4,0.3,0.6,0.6,0.6,1.2v1.4c0,0.8-0.4,1.1-0.8,1.3H67.3z"/>
		</g>
	</g>
	<g>
		<g>
			<circle class="st4" cx="19.3" cy="80.3" r="8.5"/>
			<circle class="st5" cx="19.3" cy="80.3" r="8.5"/>
		</g>
		<g>
			<path class="st6" d="M21,82.7v1.5h-1.7v-1.5H17v-1.5l1.6-4.7h1.7l-1.6,4.6h0.5v-0.4l0.4-1H21v1.4h0.5v1.6H21z"/>
		</g>
	</g>
	<g>
		<g>
			<circle class="st4" cx="105.8" cy="44.7" r="8.5"/>
			<circle class="st5" cx="105.8" cy="44.7" r="8.5"/>
		</g>
		<g>
			<path class="st6" d="M104.6,48.6c-0.5-0.2-0.8-0.5-0.8-1.3v-1h1.6v0.8l0.1,0.1h0.6l0.1-0.1V45l-0.1-0.1h-0.6l-0.1,0.1v0.4h-1.6
				v-4.5h4v1.5h-2.4v1.6l0.4-0.4h1.3c0.5,0.2,0.8,0.5,0.8,1.3v2.4c0,0.8-0.4,1.1-0.8,1.3H104.6z"/>
		</g>
	</g>
	<g>
		<g>
			<circle class="st4" cx="148" cy="176.7" r="8.5"/>
			<circle class="st5" cx="148" cy="176.7" r="8.5"/>
		</g>
		<g>
			<path class="st6" d="M149.2,180.6h-2.5c-0.5-0.2-0.8-0.5-0.8-1.3v-5.1c0-0.8,0.4-1.1,0.8-1.3h2.5c0.5,0.2,0.8,0.5,0.8,1.3v1h-1.7
				v-0.8l-0.1-0.1h-0.5l-0.1,0.1v1.8l0.3-0.3h1.3c0.5,0.2,0.8,0.5,0.8,1.3v2.2C150,180.1,149.7,180.4,149.2,180.6z M148.2,179.2
				l0.1-0.1v-1.8l-0.1-0.1h-0.5l-0.1,0.1v1.8l0.1,0.1H148.2z"/>
		</g>
	</g>
	<g>
		<g>
			<circle class="st4" cx="186.5" cy="10.6" r="8.5"/>
			<circle class="st5" cx="186.5" cy="10.6" r="8.5"/>
		</g>
		<g>
			<path class="st6" d="M184.7,14.5l2.1-6.2h-2.4V6.8h4.1V8l-2.1,6.5H184.7z"/>
		</g>
	</g>
	<g>
		<g>
			<circle class="st4" cx="203.7" cy="92.7" r="8.5"/>
			<circle class="st5" cx="203.7" cy="92.7" r="8.5"/>
		</g>
		<g>
			<path class="st6" d="M202.4,96.6c-0.5-0.2-0.8-0.5-0.8-1.3v-1.4c0-0.6,0.2-0.9,0.6-1.2c-0.4-0.3-0.6-0.6-0.6-1.2v-1.3
				c0-0.8,0.4-1.1,0.8-1.3h2.5c0.5,0.2,0.8,0.5,0.8,1.3v1.3c0,0.6-0.2,0.9-0.6,1.2c0.4,0.3,0.6,0.6,0.6,1.2v1.4
				c0,0.8-0.4,1.1-0.8,1.3H202.4z M203.3,91.9l0.1,0.1h0.5l0.1-0.1v-1.5l-0.1-0.1h-0.5l-0.1,0.1V91.9z M204,95.1v-1.6l-0.1-0.1h-0.5
				l-0.1,0.1v1.6l0.1,0.1h0.5L204,95.1z"/>
		</g>
	</g>
	<g>
		<g>
			<circle class="st4" cx="272.6" cy="115.1" r="8.5"/>
			<circle class="st5" cx="272.6" cy="115.1" r="8.5"/>
		</g>
		<g>
			<path class="st6" d="M271.3,118.9c-0.5-0.2-0.8-0.5-0.8-1.3v-1h1.7v0.8l0.1,0.1h0.5l0.1-0.1v-1.8l-0.3,0.3h-1.3
				c-0.5-0.2-0.8-0.5-0.8-1.3v-2.2c0-0.8,0.4-1.1,0.8-1.3h2.5c0.5,0.2,0.8,0.5,0.8,1.3v5.1c0,0.8-0.4,1.1-0.8,1.3H271.3z M273,114.6
				v-1.8l-0.1-0.1h-0.5l-0.1,0.1v1.8l0.1,0.1h0.5L273,114.6z"/>
		</g>
	</g>
	<g>
		<g>
			<circle class="st4" cx="370.5" cy="34.4" r="8.5"/>
			<circle class="st5" cx="370.5" cy="34.4" r="8.5"/>
		</g>
		<g>
			<path class="st6" d="M366.4,38.3v-1.6h1v-4.5h-0.9v-1.6h2.6v6.1h0.9v1.6H366.4z"/>
			<path class="st6" d="M370.7,38.3v-2.6c0-0.6,0.1-1,0.6-1.2l1.9-0.8v-1.6l-0.1-0.1h-0.5l-0.1,0.1v1.1h-1.7v-1.3
				c0-0.8,0.4-1.1,0.8-1.3h2.5c0.5,0.2,0.8,0.5,0.8,1.3v1.9c0,0.6-0.1,0.9-0.6,1.2l-1.9,0.8v0.9h2.4v1.6H370.7z"/>
		</g>
	</g>
	<g>
		<g>
			<circle class="st4" cx="459.2" cy="29.1" r="8.5"/>
			<circle class="st5" cx="459.2" cy="29.1" r="8.5"/>
		</g>
		<g>
			<path class="st6" d="M455.1,33v-1.6h1v-4.5h-0.9v-1.6h2.6v6.1h0.9V33H455.1z"/>
			<path class="st6" d="M460.3,33c-0.5-0.2-0.8-0.5-0.8-1.3v-1h1.7v0.8l0.1,0.1h0.5l0.1-0.1v-1.6l-0.1-0.1h-1v-1.3h1l0.1-0.1v-1.5
				l-0.1-0.1h-0.5l-0.1,0.1v0.8h-1.7v-1c0-0.8,0.4-1.1,0.8-1.3h2.5c0.5,0.2,0.8,0.5,0.8,1.3v1.3c0,0.6-0.2,0.9-0.6,1.2
				c0.4,0.3,0.6,0.6,0.6,1.2v1.4c0,0.8-0.4,1.1-0.8,1.3H460.3z"/>
		</g>
	</g>
	<g>
		<g>
			<circle class="st4" cx="501.2" cy="117.9" r="8.5"/>
			<circle class="st5" cx="501.2" cy="117.9" r="8.5"/>
		</g>
		<g>
			<path class="st6" d="M497.2,121.8v-1.6h1v-4.5h-0.9v-1.6h2.6v6.1h0.9v1.6H497.2z"/>
			<path class="st6" d="M505.2,120.3v1.5h-1.7v-1.5h-2.2v-1.5l1.6-4.7h1.7l-1.6,4.6h0.5v-0.4l0.4-1h1.3v1.4h0.5v1.6H505.2z"/>
		</g>
	</g>
	<g>
		<g>
			<circle class="st4" cx="397.5" cy="203.1" r="8.5"/>
			<circle class="st5" cx="397.5" cy="203.1" r="8.5"/>
		</g>
		<g>
			<path class="st6" d="M393.5,207v-1.6h1v-4.5h-0.9v-1.6h2.6v6.1h0.9v1.6H393.5z"/>
			<path class="st6" d="M398.6,207c-0.5-0.2-0.8-0.5-0.8-1.3v-1h1.6v0.8l0.1,0.1h0.6l0.1-0.1v-2.1l-0.1-0.1h-0.6l-0.1,0.1v0.4h-1.6
				v-4.5h4v1.5h-2.4v1.6l0.4-0.4h1.3c0.5,0.2,0.8,0.5,0.8,1.3v2.4c0,0.8-0.4,1.1-0.8,1.3H398.6z"/>
		</g>
	</g>
	<g>
		<g>
			<circle class="st4" cx="509.7" cy="355.5" r="8.5"/>
			<circle class="st5" cx="509.7" cy="355.5" r="8.5"/>
		</g>
		<g>
			<path class="st6" d="M505.7,359.4v-1.6h1v-4.5h-0.9v-1.6h2.6v6.1h0.9v1.6H505.7z"/>
			<path class="st6" d="M513.3,359.4h-2.5c-0.5-0.2-0.8-0.5-0.8-1.3V353c0-0.8,0.4-1.1,0.8-1.3h2.5c0.5,0.2,0.8,0.5,0.8,1.3v1h-1.7
				v-0.8l-0.1-0.1h-0.5l-0.1,0.1v1.8l0.3-0.3h1.3c0.5,0.2,0.8,0.5,0.8,1.3v2.2C514.1,358.9,513.8,359.2,513.3,359.4z M512.3,358
				l0.1-0.1v-1.8l-0.1-0.1h-0.5l-0.1,0.1v1.8l0.1,0.1H512.3z"/>
		</g>
	</g>
	<g>
		<g>
			<circle class="st4" cx="233.4" cy="212.7" r="8.5"/>
			<circle class="st5" cx="233.4" cy="212.7" r="8.5"/>
		</g>
		<g>
			<path class="st6" d="M229.4,216.6V215h1v-4.5h-0.9v-1.6h2.6v6.1h0.9v1.6H229.4z"/>
			<path class="st6" d="M237,216.6h-2.5c-0.5-0.2-0.8-0.5-0.8-1.3v-5.1c0-0.8,0.4-1.1,0.8-1.3h2.5c0.5,0.2,0.8,0.5,0.8,1.3v5.1
				C237.9,216.1,237.5,216.4,237,216.6z M236.1,210.4l-0.1-0.1h-0.5l-0.1,0.1v4.7l0.1,0.1h0.5l0.1-0.1V210.4z"/>
		</g>
	</g>
	<g>
		<g>
			<circle class="st4" cx="314" cy="200.6" r="8.5"/>
			<circle class="st5" cx="314" cy="200.6" r="8.5"/>
		</g>
		<g>
			<path class="st6" d="M310,204.5v-1.6h1v-4.5h-0.9v-1.6h2.6v6.1h0.9v1.6H310z"/>
			<path class="st6" d="M314.7,204.5v-1.6h1v-4.5h-0.9v-1.6h2.6v6.1h0.9v1.6H314.7z"/>
		</g>
	</g>
</g>
<g id="DRS">
	<g>
		
		
	</g>

	<g>
		<g>
			<g>
				<g>
					<line class="st9" x1="428.6" y1="378" x2="428.6" y2="366.4"/>
				</g>
				<g>
					<ellipse class="st7" cx="424.2" cy="372.2" rx="1.1" ry="1.1"/>
				</g>
				<g>
					<path class="st7" d="M418.7,372.2c0-0.6,0.5-1.1,1.1-1.1c0.6,0,1.1,0.5,1.1,1.1s-0.5,1.1-1.1,1.1
						C419.2,373.3,418.7,372.8,418.7,372.2z"/>
				</g>
				<g>
					<path class="st7" d="M414.3,372.2c0-0.6,0.5-1.1,1.1-1.1c0.6,0,1.1,0.5,1.1,1.1s-0.5,1.1-1.1,1.1
						C414.8,373.3,414.3,372.8,414.3,372.2z"/>
				</g>
				<g>
					<ellipse class="st7" cx="411" cy="372.2" rx="1.1" ry="1.1"/>
				</g>
				<g>
					<ellipse class="st7" cx="406.6" cy="372.2" rx="1.1" ry="1.1"/>
				</g>
				<g>
					<ellipse class="st7" cx="402.2" cy="372.2" rx="1.1" ry="1.1"/>
				</g>
				<g>
					<path class="st7" d="M396.8,372.2c0-0.6,0.5-1.1,1.1-1.1c0.6,0,1.1,0.5,1.1,1.1s-0.5,1.1-1.1,1.1
						C397.2,373.3,396.8,372.8,396.8,372.2z"/>
				</g>
				<g>
					<path class="st7" d="M392.4,372.2c0-0.6,0.5-1.1,1.1-1.1c0.6,0,1.1,0.5,1.1,1.1s-0.5,1.1-1.1,1.1
						C392.9,373.3,392.4,372.8,392.4,372.2z"/>
				</g>
				<g>
					<ellipse class="st7" cx="389.1" cy="372.2" rx="1.1" ry="1.1"/>
				</g>
				<g>
					<ellipse class="st7" cx="384.7" cy="372.2" rx="1.1" ry="1.1"/>
				</g>
				<g>
					<path class="st7" d="M379.2,372.2c0-0.6,0.5-1.1,1.1-1.1c0.6,0,1.1,0.5,1.1,1.1s-0.5,1.1-1.1,1.1
						C379.7,373.3,379.2,372.8,379.2,372.2z"/>
				</g>
				<g>
					<path class="st7" d="M374.8,372.2c0-0.6,0.5-1.1,1.1-1.1c0.6,0,1.1,0.5,1.1,1.1s-0.5,1.1-1.1,1.1
						C375.3,373.3,374.8,372.8,374.8,372.2z"/>
				</g>
				<g>
					<ellipse class="st7" cx="371.5" cy="372.2" rx="1.1" ry="1.1"/>
				</g>
				<g>
					<ellipse class="st7" cx="367.1" cy="372.2" rx="1.1" ry="1.1"/>
				</g>
				<g>
					<ellipse class="st7" cx="362.7" cy="372.2" rx="1.1" ry="1.1"/>
				</g>
				<g>
					<path class="st7" d="M357.2,372.2c0-0.6,0.5-1.1,1.1-1.1c0.6,0,1.1,0.5,1.1,1.1s-0.5,1.1-1.1,1.1
						C357.7,373.3,357.2,372.8,357.2,372.2z"/>
				</g>
				<g>
					<path class="st7" d="M352.9,372.2c0-0.6,0.5-1.1,1.1-1.1c0.6,0,1.1,0.5,1.1,1.1s-0.5,1.1-1.1,1.1
						C353.3,373.3,352.9,372.8,352.9,372.2z"/>
				</g>
				<g>
					<ellipse class="st7" cx="349.6" cy="372.2" rx="1.1" ry="1.1"/>
				</g>
				<g>
					<ellipse class="st7" cx="345.2" cy="372.2" rx="1.1" ry="1.1"/>
				</g>
				<g>
					<path class="st7" d="M339.7,372.2c0-0.6,0.5-1.1,1.1-1.1c0.6,0,1.1,0.5,1.1,1.1s-0.5,1.1-1.1,1.1
						C340.2,373.3,339.7,372.8,339.7,372.2z"/>
				</g>
				<g>
					<path class="st7" d="M335.3,372.2c0-0.6,0.5-1.1,1.1-1.1c0.6,0,1.1,0.5,1.1,1.1s-0.5,1.1-1.1,1.1
						C335.8,373.3,335.3,372.8,335.3,372.2z"/>
				</g>
				<g>
					<ellipse class="st7" cx="332" cy="372.2" rx="1.1" ry="1.1"/>
				</g>
				<g>
					<ellipse class="st7" cx="327.6" cy="372.2" rx="1.1" ry="1.1"/>
				</g>
				<g>
					<ellipse class="st7" cx="323.2" cy="372.2" rx="1.1" ry="1.1"/>
				</g>
				<g>
					<path class="st7" d="M317.7,372.2c0-0.6,0.5-1.1,1.1-1.1c0.6,0,1.1,0.5,1.1,1.1s-0.5,1.1-1.1,1.1
						C318.2,373.3,317.7,372.8,317.7,372.2z"/>
				</g>
				<g>
					<path class="st7" d="M313.3,372.2c0-0.6,0.5-1.1,1.1-1.1c0.6,0,1.1,0.5,1.1,1.1s-0.5,1.1-1.1,1.1
						C313.8,373.3,313.3,372.8,313.3,372.2z"/>
				</g>
				<g>
					<ellipse class="st7" cx="310" cy="372.2" rx="1.1" ry="1.1"/>
				</g>
				<g>
					<ellipse class="st7" cx="305.7" cy="372.2" rx="1.1" ry="1.1"/>
				</g>
				<g>
					<ellipse class="st7" cx="301.3" cy="372.2" rx="1.1" ry="1.1"/>
				</g>
				<g>
					<ellipse class="st7" cx="296.9" cy="372.2" rx="1.1" ry="1.1"/>
				</g>
				<g>
					<ellipse class="st7" cx="292.5" cy="372.2" rx="1.1" ry="1.1"/>
				</g>
				<g>
					<ellipse class="st7" cx="288.1" cy="372.2" rx="1.1" ry="1.1"/>
				</g>
				<g>
					<ellipse class="st7" cx="283.7" cy="372.2" rx="1.1" ry="1.1"/>
				</g>
				<g>
					<ellipse class="st7" cx="279.3" cy="372.2" rx="1.1" ry="1.1"/>
				</g>
				<g>
					<ellipse class="st7" cx="274.9" cy="372.2" rx="1.1" ry="1.1"/>
				</g>
				<g>
					<ellipse class="st7" cx="270.5" cy="372.2" rx="1.1" ry="1.1"/>
				</g>
				<g>
					<ellipse class="st7" cx="266.1" cy="372.2" rx="1.1" ry="1.1"/>
				</g>
				<g>
					<ellipse class="st7" cx="261.8" cy="372.2" rx="1.1" ry="1.1"/>
				</g>
				<g>
					<ellipse class="st7" cx="257.4" cy="372.2" rx="1.1" ry="1.1"/>
				</g>
				<g>
					<ellipse class="st7" cx="253" cy="372.2" rx="1.1" ry="1.1"/>
				</g>
				<g>
					<ellipse class="st7" cx="248.6" cy="372.2" rx="1.1" ry="1.1"/>
				</g>
				<g>
					<ellipse class="st7" cx="244.2" cy="372.2" rx="1.1" ry="1.1"/>
				</g>
				<g>
					<ellipse class="st7" cx="239.8" cy="372.2" rx="1.1" ry="1.1"/>
				</g>
				<g>
					<ellipse class="st7" cx="235.4" cy="372.2" rx="1.1" ry="1.1"/>
				</g>
				<g>
					<ellipse class="st7" cx="231" cy="372.2" rx="1.1" ry="1.1"/>
				</g>
				<g>
					<ellipse class="st7" cx="226.6" cy="372.2" rx="1.1" ry="1.1"/>
				</g>
				<g>
					<ellipse class="st7" cx="222.2" cy="372.2" rx="1.1" ry="1.1"/>
				</g>
				<g>
					<ellipse class="st7" cx="217.9" cy="372.2" rx="1.1" ry="1.1"/>
				</g>
				<g>
					<ellipse class="st7" cx="213.5" cy="372.2" rx="1.1" ry="1.1"/>
				</g>
				<g>
					<ellipse class="st7" cx="209.1" cy="372.2" rx="1.1" ry="1.1"/>
				</g>
				<g>
					<ellipse class="st7" cx="204.7" cy="372.2" rx="1.1" ry="1.1"/>
				</g>
				<g>
					<ellipse class="st7" cx="200.3" cy="372.2" rx="1.1" ry="1.1"/>
				</g>
				<g>
					<ellipse class="st7" cx="195.9" cy="372.2" rx="1.1" ry="1.1"/>
				</g>
				<g>
					<ellipse class="st7" cx="191.5" cy="372.2" rx="1.1" ry="1.1"/>
				</g>
				<g>
					<ellipse class="st7" cx="187.1" cy="372.2" rx="1.1" ry="1.1"/>
				</g>
				<g>
					<ellipse class="st7" cx="182.7" cy="372.2" rx="1.1" ry="1.1"/>
				</g>
				<g>
					<ellipse class="st7" cx="178.3" cy="372.2" rx="1.1" ry="1.1"/>
				</g>
				<g>
					<ellipse class="st7" cx="174" cy="372.2" rx="1.1" ry="1.1"/>
				</g>
				<g>
					<ellipse class="st7" cx="169.6" cy="372.2" rx="1.1" ry="1.1"/>
				</g>
				<g>
					<ellipse class="st7" cx="165.2" cy="372.2" rx="1.1" ry="1.1"/>
				</g>
				<g>
					<ellipse class="st7" cx="160.8" cy="372.2" rx="1.1" ry="1.1"/>
				</g>
				<g>
					<ellipse class="st7" cx="156.4" cy="372.2" rx="1.1" ry="1.1"/>
				</g>
				<g>
					<ellipse class="st7" cx="152" cy="372.2" rx="1.1" ry="1.1"/>
				</g>
				<g>
					<ellipse class="st7" cx="147.6" cy="372.2" rx="1.1" ry="1.1"/>
				</g>
				<g>
					<ellipse class="st7" cx="143.2" cy="372.2" rx="1.1" ry="1.1"/>
				</g>
				<g>
					<ellipse class="st7" cx="138.8" cy="372.2" rx="1.1" ry="1.1"/>
				</g>
				<g>
					<ellipse class="st7" cx="134.4" cy="372.2" rx="1.1" ry="1.1"/>
				</g>
				<g>
					<ellipse class="st7" cx="130" cy="372.2" rx="1.1" ry="1.1"/>
				</g>
				<g>
					<ellipse class="st7" cx="125.7" cy="372.2" rx="1.1" ry="1.1"/>
				</g>
				<g>
					<ellipse class="st7" cx="121.3" cy="372.2" rx="1.1" ry="1.1"/>
				</g>
				<g>
					<ellipse class="st7" cx="116.9" cy="372.2" rx="1.1" ry="1.1"/>
				</g>
				<g>
					<ellipse class="st7" cx="112.5" cy="372.2" rx="1.1" ry="1.1"/>
				</g>
				<g>
					<ellipse class="st7" cx="108.1" cy="372.2" rx="1.1" ry="1.1"/>
				</g>
				<g>
					<line class="st9" x1="103.7" y1="378" x2="103.7" y2="366.4"/>
				</g>
			</g>
		</g>
	</g>

</g>
<g id="アイコン">
	<g>
		<rect x="243.8" y="331.2" class="st5" width="2.8" height="2.8"/>
		<rect x="249.5" y="331.2" class="st5" width="2.8" height="2.8"/>
		<rect x="246.7" y="334" class="st5" width="2.8" height="2.8"/>
		<rect x="252.3" y="334" class="st5" width="2.8" height="2.8"/>
		<rect x="246.7" y="339.7" class="st5" width="2.8" height="2.8"/>
		<rect x="252.3" y="339.7" class="st5" width="2.8" height="2.8"/>
		<rect x="255.2" y="331.2" class="st5" width="2.8" height="2.8"/>
		<rect x="252.3" y="331.2" class="st6" width="2.8" height="2.8"/>
		<rect x="246.7" y="331.2" class="st6" width="2.8" height="2.8"/>
		<rect x="243.8" y="334" class="st6" width="2.8" height="2.8"/>
		<rect x="249.5" y="334" class="st6" width="2.8" height="2.8"/>
		<rect x="255.2" y="334" class="st6" width="2.8" height="2.8"/>
		<rect x="252.3" y="336.9" class="st6" width="2.8" height="2.8"/>
		<rect x="246.7" y="336.9" class="st6" width="2.8" height="2.8"/>
		<rect x="252.3" y="342.5" class="st6" width="2.8" height="2.8"/>
		<rect x="246.7" y="342.5" class="st6" width="2.8" height="2.8"/>
		<rect x="243.8" y="339.7" class="st6" width="2.8" height="2.8"/>
		<rect x="249.5" y="339.7" class="st6" width="2.8" height="2.8"/>
		<rect x="255.2" y="339.7" class="st6" width="2.8" height="2.8"/>
		<rect x="243.8" y="336.9" class="st5" width="2.8" height="2.8"/>
		<rect x="249.5" y="336.9" class="st5" width="2.8" height="2.8"/>
		<rect x="249.5" y="342.5" class="st5" width="2.8" height="2.8"/>
		<rect x="255.2" y="336.9" class="st5" width="2.8" height="2.8"/>
		<rect x="243.8" y="342.5" class="st5" width="2.8" height="2.8"/>
		<rect x="255.2" y="342.5" class="st5" width="2.8" height="2.8"/>
	</g>
	<g>
		<defs>
			<rect id="SVGID_1_" x="195.5" y="335.8" width="22.3" height="8.5"/>
		</defs>
		<clipPath id="SVGID_00000167396846343258344240000014624797769503809447_">
			<use xlink:href="#SVGID_1_"  style="overflow:visible;"/>
		</clipPath>
		<g style="clip-path:url(#SVGID_00000167396846343258344240000014624797769503809447_);">
			<polygon class="st19" points="216.5,347.1 213.7,347.1 208,340 213.7,332.9 216.5,332.9 210.9,340 			"/>
			<polygon class="st20" points="210.9,347.1 208,347.1 202.4,340 208,332.9 210.9,332.9 205.2,340 			"/>
			<polygon class="st21" points="205.2,347.1 202.4,347.1 196.7,340 202.4,332.9 205.2,332.9 199.5,340 			"/>
		</g>
	</g>
</g>
</svg>
