<?xml version="1.0" encoding="utf-8"?>
<!-- Generator: Adobe Illustrator 26.5.0, SVG Export Plug-In . SVG Version: 6.00 Build 0)  -->
<svg version="1.1" xmlns="http://www.w3.org/2000/svg" xmlns:xlink="http://www.w3.org/1999/xlink" x="0px" y="0px"
	 viewBox="0 0 794.1 434" style="enable-background:new 0 0 794.1 434;" xml:space="preserve">
<style type="text/css">
	.st0{fill:none;stroke:#646464;stroke-width:14.1732;stroke-linecap:round;stroke-linejoin:round;stroke-miterlimit:10;}
	.st1{fill:none;stroke:#FFD449;stroke-width:2.8346;stroke-miterlimit:10;}
	.st2{fill:none;stroke:#54C6EB;stroke-width:2.8346;stroke-miterlimit:10;}
	.st3{fill:none;stroke:#F4442E;stroke-width:2.8346;stroke-miterlimit:10;}
	.st4{fill:none;stroke:#09BC8A;stroke-width:2.2097;stroke-miterlimit:10;}
	.st5{fill:#09BC8A;}
	.st6{fill:none;stroke:#FFFFFF;stroke-width:2.126;}
	.st7{fill:#646464;}
	.st8{fill:#FFFFFF;}
	.st9{fill:none;stroke:#646464;stroke-width:2.8346;stroke-miterlimit:10;}
	.st10{fill:#FF3380;}
	.st11{fill:none;stroke:#FF3380;stroke-width:1.9843;stroke-miterlimit:10;}
	.st12{fill:none;stroke:#09BC8A;stroke-width:1.9843;stroke-miterlimit:10;}
	.st13{clip-path:url(#SVGID_00000140704327690876104320000012536947506265477538_);}
	.st14{fill:#F4442E;}
	.st15{fill:#54C6EB;}
	.st16{fill:#FFD449;}
	.st17{fill:none;stroke:#646464;stroke-width:0.7087;stroke-miterlimit:10;}
	.st18{fill:none;stroke:#F4442E;stroke-width:5.6693;stroke-miterlimit:10;}
	.st19{fill:none;stroke:#54C6EB;stroke-width:5.6693;stroke-miterlimit:10;}
	.st20{fill:none;stroke:#FFD449;stroke-width:5.6693;stroke-miterlimit:10;}
	.st21{fill:none;stroke:#09BC8A;stroke-width:2.8346;stroke-miterlimit:10;}
</style>
<g id="コース">
	<path class="st0" d="M316.8,101.5c15.4,9.2,159,93,165.6,97c8.1,5,10.4,9.9,10.4,14.7c0,3.6-4.3,10.7-12.4,15.1
		c-8.1,4.4-17.8,9.4-18.7,18.9s4.6,34.7-8.3,45c-13,10.3-28.3,22.8-69.8,22.8c-16.9,0-43.5-11.2-57.5-19.5
		c-14-8.3-76.4-44.8-83-48.3s-14.7-6.6-23-6.4s-21.7,4.6-30.3,11.2c-8.6,6.6-17.8,13.2-34.2,13.2c-13.8,0-26.1-14.3-29.2-17.8
		c-3.1-3.5-15.4-15.1-30.5-15.1s-34.2,5.9-43,14c-8.8,8.1-14.9,14.3-14.9,31.4s14.5,20.4,23.3,20.4c5.9,0,13-2,29.6-2
		s41.7,13.6,69.6,13.6S285,308,292.6,308c7.7,0,22.4,1.3,36.7,7c14.3,5.7,51.8,27,99.2,27c16.7,0,48.5-1.5,65.9-6.4
		s101-33.8,114.4-38.9c4.2-1.6,36.5-15.3,64.1-29c22.2-11,31.9-15.2,41.5-22.4c2.9-2.2,4.8-4.1,4.8-7.9s-5.2-6.4-7.6-8.1
		c-2.4-1.7-12.8-7.8-15.8-9.8c-3-2-11.2-7.4-11.2-19c0-11.6,7.4-21.4,19.5-21.4s19.1,0,22.9,0s11.6,0.8,18.4-8.6
		s10.6-15.7,11.1-17.4s1.9-5-0.9-6.8c-2.8-1.8-5.3-3.4-6.1-3.9s-2.5-2.7-1.3-7.8c1.2-5.1,6.7-23.3,7.1-26.9c0.4-3.6,1.2-10.9-6.2-11
		c-7.4-0.1-472.7-18.4-493.1-19.3c-20.4-0.9-117.2-4.6-122.5-4.6s-10.2,2-10.2,8.4c0,6.4,3.4,8.3,6.3,10.7
		c2.9,2.4,26,17.6,28.8,19.5s8.4,4.8,16,4.8c4.2,0,6.8,0,9.2,0c7.1,0,14.1-2.8,19.2-5.3c5.1-2.5,31.6-15.8,36.9-18
		c5.3-2.2,12.6-2.9,20.3-2.9c7.7,0,18.4,0,23.2,0s17,2.8,22.1,5.3S316.8,101.5,316.8,101.5z"/>
</g>
<g id="DRS-ZONES">
  <!-- DRS Zone 1 — visible white for testing (dots run right→left, corrected order) -->
  <path id="drs-1" class="drs-zone"
    fill="none" stroke="#fff" opacity="0"
    d="M350.3,340.5
		L355.3,343.1 L359.4,344.7 L363.5,346.3 L367.7,347.8 L371.8,349.3 L376,350.6 L380.3,351.9 L384.5,353 L388.8,354.1 L393.1,355.1 L397.4,356 L401.7,356.8 L406.1,357.5 L410.5,358.1 L414.8,358.5 L419.2,358.9 L423.6,359.2 L428,359.3 L432.4,359.4 L436.9,359.4 L441.3,359.3 L445.7,359.1 L450.1,359 L454.5,358.7 L458.9,358.4 L463.3,358 L467.6,357.5 L472,356.9 L476.4,356.2 L480.7,355.5 L485,354.7 L489.4,353.8 L493.7,352.8 L497.9,351.8 L502.2,350.6 L506.4,349.4 L510.7,348.2 L514.9,346.9 L519.1,345.5 L523.3,344.1 L527.4,342.7 L531.6,341.2 L535.7,339.7 L539.9,338.3 L544.1,336.8 L548.2,335.4 L552.4,334 L556.6,332.6 L560.8,331.2 L564.9,329.8 L569.1,328.3 L573.3,327 L577.5,325.6 L581.7,324.2 L585.8,322.8 L590,321.4 L594.2,319.9 L598.4,318.5 L602.5,317.1 L606.7,315.6 L610.8,314.1 L615,312.6 L619,310.9 L623.1,309.1 L627.1,307.3 L631.1,305.5 L635.1,303.6 L639.1,301.7 L643.1,299.8 L647,297.9 L651,296 L654.9,294 L658.9,292.1 L662.9,290.1 L666.8,288.1 L670.7,286.2 L674.7,284.2 L678.6,282.2 L682.5,280.2 L686.5,278.2 L690.4,276.2 L694.3,274.2 L698.2,272.2 L702.2,270.1 L706.1,268.1 L710,266.1 L713.9,264
		"/>

  <!-- DRS Zone 2 — visible white for testing (dots run right→left, corrected order) -->
  <path id="drs-2" class="drs-zone"
    fill="none" stroke="#fff" opacity="0"
    d="M514.9,73.5 
		L508.2,73.1 L503.8,73 L499.4,72.8 L494.9,72.6 L490.5,72.5 L486.1,72.3 L481.7,72.2 L477.3,72 L472.9,71.8 L468.4,71.7 L464,71.5 L459.6,71.3 L455.2,71.2 L450.8,71 L446.3,70.9 L441.9,70.7 L437.5,70.5 L433.1,70.4 L428.7,70.2 L424.3,70 L419.8,69.9 L415.4,69.7 L411,69.5 L406.6,69.4 L402.2,69.2 L397.8,69.1 L393.3,68.9 L388.9,68.7 L384.5,68.5 L380.1,68.3 L375.7,68.2 L371.2,68 L366.8,67.8 L362.4,67.6 L358,67.4 L353.6,67.3 L349.2,67.1 L344.7,66.9 L340.3,66.7 L335.9,66.5 L331.5,66.3 L327.1,66.2 L322.7,66 L318.2,65.8 L313.8,65.6 L309.4,65.4 L305,65.3 L300.6,65.1 L296.2,64.9 L291.7,64.7 L287.3,64.5 L282.9,64.4 L278.5,64.2 L274.1,64 L269.7,63.8 L265.2,63.6 L260.8,63.4 L256.4,63.3 L252,63.1 L247.6,62.9 L243.2,62.7 L238.7,62.5 L234.3,62.4 L229.9,62.2 L225.5,62 L221.1,61.8 L216.7,61.6 L212.2,61.5 L207.8,61.3 L203.4,61.1 L199,60.9 L194.6,60.7 L190.2,60.5 L185.7,60.4 L181.3,60.2 L176.9,60 L172.5,59.8 L168.1,59.6 L163.7,59.5 L159.2,59.3 L154.8,59.1 L150.4,58.9 L146,58.7 L141.6,58.6 L137.1,58.4 L133.1,58.1
		"/>
  
  <!-- DRS Zone 3 — visible white for testing -->
  <path id="drs-3" class="drs-zone"
    fill="none" stroke="#fff" opacity="0"
    d="M271.6,106.8
		L282.6,107.1 L287,107.8 L291.4,108.7 L295.6,109.9 L299.8,111.4 L303.9,113.1 L307.8,115.2 L311.7,117.4 L315.6,119.6 L319.4,121.8 L323.2,124 L327.1,126.2 L330.9,128.5 L334.8,130.7 L338.6,132.9 L342.4,135.2 L346.3,137.4 L350.1,139.6 L353.9,141.9 L357.8,144.1 L361.6,146.3 L365.4,148.6 L369.3,150.8 L373.1,153.1 L376.9,155.3 L380.8,157.6 L384.6,159.8 L388.4,162.1 L392.3,164.3 L396.1,166.5 L399.9,168.8 L403.7,171 L407.6,173.3 L411.4,175.5 L415.2,177.8 L419,180 L422.9,182.3 L426.7,184.5 L430.5,186.8 L434.4,189 L438.2,191.3 L442,193.5 L445.8,195.8 L449.7,198 L453.5,200.3 L457.3,202.5 L461.1,204.8 L465,207.1 L468.8,209.3 L472.6,211.6 L476.4,213.8 L478.4,215
		"/>
</g>
<g id="セクター">
	<path class="st1" d="M713.1,95.5c-110.9-4.3-440-17.2-457.1-17.9c-20.4-0.9-117.2-4.6-122.5-4.6s-10.2,2-10.2,8.4
		c0,6.4,3.4,8.3,6.3,10.7c2.9,2.4,26,17.6,28.8,19.5s8.4,4.8,16,4.8c4.2,0,6.8,0,9.2,0c7.1,0,14.1-2.8,19.2-5.3
		c5.1-2.5,31.6-15.8,36.9-18c5.3-2.2,12.6-2.9,20.3-2.9c7.7,0,18.4,0,23.2,0s17,2.8,22.1,5.3s11.6,6.1,11.6,6.1
		c6.6,3.9,36.4,21.4,69,40.5"/>
	<path class="st2" d="M108.1,299.2c14.8,4,32.8,10.6,52.1,10.6c27.9,0,124.7-1.8,132.4-1.8c7.7,0,22.4,1.3,36.7,7
		c14.3,5.7,51.8,27,99.2,27c16.7,0,48.5-1.5,65.9-6.4s101-33.8,114.4-38.9c4.2-1.6,36.5-15.3,64.1-29c22.2-11,31.9-15.2,41.5-22.4
		c2.9-2.2,4.8-4.1,4.8-7.9s-5.2-6.4-7.6-8.1c-2.4-1.7-12.8-7.8-15.8-9.8c-3-2-11.2-7.4-11.2-19c0-11.6,7.4-21.4,19.5-21.4
		s19.1,0,22.9,0s11.6,0.8,18.4-8.6s10.6-15.7,11.1-17.4s1.9-5-0.9-6.8c-2.8-1.8-5.3-3.4-6.1-3.9s-2.5-2.7-1.3-7.8
		c1.2-5.1,6.7-23.3,7.1-26.9c0.4-3.6,1.2-10.9-6.2-11c-1.2,0-14.5-0.5-36.1-1.3"/>
	<path class="st3" d="M385.8,142c43.9,25.7,92.8,54.2,96.5,56.5c8.1,5,10.4,9.9,10.4,14.7c0,3.6-4.3,10.7-12.4,15.1
		c-8.1,4.4-17.8,9.4-18.7,18.9s4.6,34.7-8.3,45c-13,10.3-28.3,22.8-69.8,22.8c-16.9,0-43.5-11.2-57.5-19.5
		c-14-8.3-76.4-44.8-83-48.3s-14.7-6.6-23-6.4s-21.7,4.6-30.3,11.2c-8.6,6.6-17.8,13.2-34.2,13.2c-13.8,0-26.1-14.3-29.2-17.8
		c-3.1-3.5-15.4-15.1-30.5-15.1s-34.2,5.9-43,14c-8.8,8.1-14.9,14.3-14.9,31.4s14.5,20.4,23.3,20.4c5.9,0,13-2,29.6-2
		c5.1,0,11,1.3,17.4,3"/>
	<g>
		<g>
			<g>
				<g>
					<line class="st4" x1="272.8" y1="100.5" x2="272.6" y2="112.1"/>
				</g>
				<g>
					<path class="st5" d="M282.6,107.1c-0.1,0.6-0.6,1-1.2,1c-0.6-0.1-1-0.6-1-1.2c0.1-0.6,0.6-1,1.2-1
						C282.3,105.9,282.7,106.5,282.6,107.1z"/>
				</g>
				<g>
					<path class="st5" d="M287,107.8c-0.1,0.6-0.7,1-1.3,0.9c-0.6-0.1-1-0.7-0.9-1.3c0.1-0.6,0.7-1,1.3-0.9
						C286.7,106.6,287.1,107.2,287,107.8z"/>
				</g>
				<g>
					<path class="st5" d="M291.4,108.7c-0.1,0.6-0.7,1-1.3,0.8c-0.6-0.1-1-0.7-0.8-1.3c0.1-0.6,0.7-1,1.3-0.8
						C291.1,107.5,291.5,108.1,291.4,108.7z"/>
				</g>
				<g>
					<path class="st5" d="M295.6,109.9c-0.2,0.6-0.8,0.9-1.4,0.7c-0.6-0.2-0.9-0.8-0.8-1.4s0.8-0.9,1.4-0.8
						C295.5,108.7,295.8,109.3,295.6,109.9z"/>
				</g>
				<g>
					<path class="st5" d="M299.8,111.4c-0.2,0.6-0.9,0.9-1.4,0.6c-0.6-0.2-0.9-0.8-0.7-1.4c0.2-0.6,0.8-0.9,1.4-0.7
						C299.8,110.2,300,110.8,299.8,111.4z"/>
				</g>
				<g>
					<path class="st5" d="M303.9,113.1c-0.3,0.6-0.9,0.8-1.5,0.5c-0.6-0.2-0.8-0.9-0.6-1.4s0.9-0.8,1.5-0.6
						C303.9,111.9,304.2,112.6,303.9,113.1z"/>
				</g>
				<g>
					<path class="st5" d="M307.8,115.2c-0.3,0.5-1,0.7-1.5,0.4c-0.5-0.3-0.7-1-0.5-1.5s0.9-0.7,1.5-0.4
						C307.9,114,308.1,114.7,307.8,115.2z"/>
				</g>
				<g>
					<path class="st5" d="M311.7,117.4c-0.3,0.5-1,0.7-1.5,0.4s-0.7-1-0.4-1.5s1-0.7,1.5-0.4C311.8,116.2,312,116.9,311.7,117.4z"/>
				</g>
				<g>
					<path class="st5" d="M315.6,119.6c-0.3,0.5-1,0.7-1.5,0.4c-0.5-0.3-0.7-1-0.4-1.5c0.3-0.5,1-0.7,1.5-0.4
						C315.7,118.4,315.9,119,315.6,119.6z"/>
				</g>
				<g>
					<path class="st5" d="M319.4,121.8c-0.3,0.5-1,0.7-1.5,0.4c-0.5-0.3-0.7-1-0.4-1.5c0.3-0.5,1-0.7,1.5-0.4
						C319.5,120.6,319.7,121.3,319.4,121.8z"/>
				</g>
				<g>
					<path class="st5" d="M323.2,124c-0.3,0.5-1,0.7-1.5,0.4c-0.5-0.3-0.7-1-0.4-1.5s1-0.7,1.5-0.4
						C323.4,122.8,323.6,123.5,323.2,124z"/>
				</g>
				<g>
					<path class="st5" d="M327.1,126.2c-0.3,0.5-1,0.7-1.5,0.4s-0.7-1-0.4-1.5c0.3-0.5,1-0.7,1.5-0.4S327.4,125.7,327.1,126.2z"/>
				</g>
				<g>
					<path class="st5" d="M330.9,128.5c-0.3,0.5-1,0.7-1.5,0.4c-0.5-0.3-0.7-1-0.4-1.5c0.3-0.5,1-0.7,1.5-0.4
						C331.1,127.3,331.2,127.9,330.9,128.5z"/>
				</g>
				<g>
					<path class="st5" d="M334.8,130.7c-0.3,0.5-1,0.7-1.5,0.4s-0.7-1-0.4-1.5s1-0.7,1.5-0.4S335.1,130.2,334.8,130.7z"/>
				</g>
				<g>
					<path class="st5" d="M338.6,132.9c-0.3,0.5-1,0.7-1.5,0.4c-0.5-0.3-0.7-1-0.4-1.5c0.3-0.5,1-0.7,1.5-0.4
						C338.7,131.7,338.9,132.4,338.6,132.9z"/>
				</g>
				<g>
					<path class="st5" d="M342.4,135.2c-0.3,0.5-1,0.7-1.5,0.4s-0.7-1-0.4-1.5c0.3-0.5,1-0.7,1.5-0.4S342.7,134.6,342.4,135.2z"/>
				</g>
				<g>
					<path class="st5" d="M346.3,137.4c-0.3,0.5-1,0.7-1.5,0.4c-0.5-0.3-0.7-1-0.4-1.5c0.3-0.5,1-0.7,1.5-0.4
						S346.6,136.9,346.3,137.4z"/>
				</g>
				<g>
					<path class="st5" d="M350.1,139.6c-0.3,0.5-1,0.7-1.5,0.4c-0.5-0.3-0.7-1-0.4-1.5c0.3-0.5,1-0.7,1.5-0.4
						S350.4,139.1,350.1,139.6z"/>
				</g>
				<g>
					<path class="st5" d="M353.9,141.9c-0.3,0.5-1,0.7-1.5,0.4c-0.5-0.3-0.7-1-0.4-1.5s1-0.7,1.5-0.4
						C354.1,140.7,354.3,141.3,353.9,141.9z"/>
				</g>
				<g>
					<path class="st5" d="M357.8,144.1c-0.3,0.5-1,0.7-1.5,0.4c-0.5-0.3-0.7-1-0.4-1.5s1-0.7,1.5-0.4
						C357.9,142.9,358.1,143.6,357.8,144.1z"/>
				</g>
				<g>
					<path class="st5" d="M361.6,146.3c-0.3,0.5-1,0.7-1.5,0.4c-0.5-0.3-0.7-1-0.4-1.5s1-0.7,1.5-0.4
						C361.7,145.1,361.9,145.8,361.6,146.3z"/>
				</g>
				<g>
					<path class="st5" d="M365.4,148.6c-0.3,0.5-1,0.7-1.5,0.4c-0.5-0.3-0.7-1-0.4-1.5s1-0.7,1.5-0.4
						C365.6,147.4,365.7,148.1,365.4,148.6z"/>
				</g>
				<g>
					<path class="st5" d="M369.3,150.8c-0.3,0.5-1,0.7-1.5,0.4c-0.5-0.3-0.7-1-0.4-1.5c0.3-0.5,1-0.7,1.5-0.4
						C369.4,149.6,369.6,150.3,369.3,150.8z"/>
				</g>
				<g>
					<path class="st5" d="M373.1,153.1c-0.3,0.5-1,0.7-1.5,0.4c-0.5-0.3-0.7-1-0.4-1.5s1-0.7,1.5-0.4
						C373.2,151.9,373.4,152.6,373.1,153.1z"/>
				</g>
				<g>
					<path class="st5" d="M376.9,155.3c-0.3,0.5-1,0.7-1.5,0.4c-0.5-0.3-0.7-1-0.4-1.5c0.3-0.5,1-0.7,1.5-0.4
						C377.1,154.1,377.2,154.8,376.9,155.3z"/>
				</g>
				<g>
					<path class="st5" d="M380.8,157.6c-0.3,0.5-1,0.7-1.5,0.4c-0.5-0.3-0.7-1-0.4-1.5s1-0.7,1.5-0.4S381.1,157,380.8,157.6z"/>
				</g>
				<g>
					<path class="st5" d="M384.6,159.8c-0.3,0.5-1,0.7-1.5,0.4c-0.5-0.3-0.7-1-0.4-1.5s1-0.7,1.5-0.4
						C384.7,158.6,384.9,159.3,384.6,159.8z"/>
				</g>
				<g>
					<path class="st5" d="M388.4,162.1c-0.3,0.5-1,0.7-1.5,0.4c-0.5-0.3-0.7-1-0.4-1.5s1-0.7,1.5-0.4
						C388.6,160.9,388.7,161.5,388.4,162.1z"/>
				</g>
				<g>
					<path class="st5" d="M392.3,164.3c-0.3,0.5-1,0.7-1.5,0.4c-0.5-0.3-0.7-1-0.4-1.5c0.3-0.5,1-0.7,1.5-0.4
						C392.4,163.1,392.6,163.8,392.3,164.3z"/>
				</g>
				<g>
					<path class="st5" d="M396.1,166.5c-0.3,0.5-1,0.7-1.5,0.4c-0.5-0.3-0.7-1-0.4-1.5c0.3-0.5,1-0.7,1.5-0.4S396.4,166,396.1,166.5
						z"/>
				</g>
				<g>
					<path class="st5" d="M399.9,168.8c-0.3,0.5-1,0.7-1.5,0.4c-0.5-0.3-0.7-1-0.4-1.5c0.3-0.5,1-0.7,1.5-0.4
						C400,167.6,400.2,168.3,399.9,168.8z"/>
				</g>
				<g>
					<path class="st5" d="M403.7,171c-0.3,0.5-1,0.7-1.5,0.4c-0.5-0.3-0.7-1-0.4-1.5c0.3-0.5,1-0.7,1.5-0.4
						C403.9,169.8,404,170.5,403.7,171z"/>
				</g>
				<g>
					<path class="st5" d="M407.6,173.3c-0.3,0.5-1,0.7-1.5,0.4c-0.5-0.3-0.7-1-0.4-1.5c0.3-0.5,1-0.7,1.5-0.4
						C407.7,172.1,407.9,172.8,407.6,173.3z"/>
				</g>
				<g>
					<path class="st5" d="M411.4,175.5c-0.3,0.5-1,0.7-1.5,0.4s-0.7-1-0.4-1.5s1-0.7,1.5-0.4C411.5,174.3,411.7,175,411.4,175.5z"/>
				</g>
				<g>
					<path class="st5" d="M415.2,177.8c-0.3,0.5-1,0.7-1.5,0.4s-0.7-1-0.4-1.5c0.3-0.5,1-0.7,1.5-0.4
						C415.4,176.6,415.5,177.3,415.2,177.8z"/>
				</g>
				<g>
					<path class="st5" d="M419,180c-0.3,0.5-1,0.7-1.5,0.4c-0.5-0.3-0.7-1-0.4-1.5c0.3-0.5,1-0.7,1.5-0.4
						C419.2,178.8,419.4,179.5,419,180z"/>
				</g>
				<g>
					<path class="st5" d="M422.9,182.3c-0.3,0.5-1,0.7-1.5,0.4c-0.5-0.3-0.7-1-0.4-1.5c0.3-0.5,1-0.7,1.5-0.4
						C423,181.1,423.2,181.8,422.9,182.3z"/>
				</g>
				<g>
					<path class="st5" d="M426.7,184.5c-0.3,0.5-1,0.7-1.5,0.4c-0.5-0.3-0.7-1-0.4-1.5c0.3-0.5,1-0.7,1.5-0.4
						C426.8,183.3,427,184,426.7,184.5z"/>
				</g>
				<g>
					<path class="st5" d="M430.5,186.8c-0.3,0.5-1,0.7-1.5,0.4c-0.5-0.3-0.7-1-0.4-1.5s1-0.7,1.5-0.4
						C430.7,185.6,430.8,186.3,430.5,186.8z"/>
				</g>
				<g>
					<path class="st5" d="M434.4,189c-0.3,0.5-1,0.7-1.5,0.4s-0.7-1-0.4-1.5c0.3-0.5,1-0.7,1.5-0.4
						C434.5,187.8,434.7,188.5,434.4,189z"/>
				</g>
				<g>
					<path class="st5" d="M438.2,191.3c-0.3,0.5-1,0.7-1.5,0.4s-0.7-1-0.4-1.5c0.3-0.5,1-0.7,1.5-0.4
						C438.3,190.1,438.5,190.8,438.2,191.3z"/>
				</g>
				<g>
					<path class="st5" d="M442,193.5c-0.3,0.5-1,0.7-1.5,0.4c-0.5-0.3-0.7-1-0.4-1.5c0.3-0.5,1-0.7,1.5-0.4
						C442.1,192.3,442.3,193,442,193.5z"/>
				</g>
				<g>
					<path class="st5" d="M445.8,195.8c-0.3,0.5-1,0.7-1.5,0.4s-0.7-1-0.4-1.5c0.3-0.5,1-0.7,1.5-0.4S446.1,195.3,445.8,195.8z"/>
				</g>
				<g>
					<path class="st5" d="M449.7,198c-0.3,0.5-1,0.7-1.5,0.4c-0.5-0.3-0.7-1-0.4-1.5c0.3-0.5,1-0.7,1.5-0.4S450,197.5,449.7,198z"/>
				</g>
				<g>
					<path class="st5" d="M453.5,200.3c-0.3,0.5-1,0.7-1.5,0.4s-0.7-1-0.4-1.5c0.3-0.5,1-0.7,1.5-0.4S453.8,199.8,453.5,200.3z"/>
				</g>
				<g>
					<path class="st5" d="M457.3,202.5c-0.3,0.5-1,0.7-1.5,0.4c-0.5-0.3-0.7-1-0.4-1.5s1-0.7,1.5-0.4S457.6,202,457.3,202.5z"/>
				</g>
				<g>
					<path class="st5" d="M461.1,204.8c-0.3,0.5-1,0.7-1.5,0.4s-0.7-1-0.4-1.5s1-0.7,1.5-0.4C461.3,203.6,461.4,204.3,461.1,204.8z"
						/>
				</g>
				<g>
					<path class="st5" d="M465,207.1c-0.3,0.5-1,0.7-1.5,0.4c-0.5-0.3-0.7-1-0.4-1.5c0.3-0.5,1-0.7,1.5-0.4
						C465.1,205.8,465.3,206.5,465,207.1z"/>
				</g>
				<g>
					<path class="st5" d="M468.8,209.3c-0.3,0.5-1,0.7-1.5,0.4c-0.5-0.3-0.7-1-0.4-1.5c0.3-0.5,1-0.7,1.5-0.4
						C468.9,208.1,469.1,208.8,468.8,209.3z"/>
				</g>
				<g>
					<path class="st5" d="M472.6,211.6c-0.3,0.5-1,0.7-1.5,0.4s-0.7-1-0.4-1.5c0.3-0.5,1-0.7,1.5-0.4
						C472.7,210.4,472.9,211,472.6,211.6z"/>
				</g>
				<g>
					<path class="st5" d="M476.4,213.8c-0.3,0.5-1,0.7-1.5,0.4c-0.5-0.3-0.7-1-0.4-1.5c0.3-0.5,1-0.7,1.5-0.4
						S476.7,213.3,476.4,213.8z"/>
				</g>
				<g>
					<line class="st4" x1="482.2" y1="210.5" x2="476.4" y2="220.5"/>
				</g>
			</g>
		</g>
	</g>
	<g>
		<g>
			<g>
				<g>
					<line class="st4" x1="352.6" y1="335.6" x2="347.9" y2="346.2"/>
				</g>
				<g>
					<path class="st5" d="M355.3,343.1c-0.2,0.6-0.9,0.8-1.4,0.6s-0.8-0.9-0.6-1.4c0.2-0.6,0.9-0.8,1.4-0.6
						C355.3,341.9,355.6,342.5,355.3,343.1z"/>
				</g>
				<g>
					<path class="st5" d="M359.4,344.7c-0.2,0.6-0.9,0.8-1.4,0.6c-0.6-0.2-0.8-0.9-0.6-1.4c0.2-0.6,0.9-0.8,1.4-0.6
						S359.6,344.2,359.4,344.7z"/>
				</g>
				<g>
					<path class="st5" d="M363.5,346.3c-0.2,0.6-0.8,0.9-1.4,0.6c-0.6-0.2-0.9-0.9-0.6-1.4c0.2-0.6,0.9-0.9,1.4-0.6
						S363.7,345.8,363.5,346.3z"/>
				</g>
				<g>
					<path class="st5" d="M367.7,347.8c-0.2,0.6-0.8,0.9-1.4,0.7c-0.6-0.2-0.9-0.8-0.7-1.4s0.8-0.9,1.4-0.7
						C367.6,346.6,367.9,347.3,367.7,347.8z"/>
				</g>
				<g>
					<path class="st5" d="M371.8,349.3c-0.2,0.6-0.8,0.9-1.4,0.7c-0.6-0.2-0.9-0.8-0.7-1.4s0.8-0.9,1.4-0.7
						C371.7,348.1,372,348.7,371.8,349.3z"/>
				</g>
				<g>
					<path class="st5" d="M376,350.6c-0.2,0.6-0.8,0.9-1.4,0.7c-0.6-0.2-0.9-0.8-0.7-1.4s0.8-0.9,1.4-0.7
						C375.9,349.4,376.2,350,376,350.6z"/>
				</g>
				<g>
					<path class="st5" d="M380.3,351.9c-0.2,0.6-0.8,0.9-1.4,0.8c-0.6-0.2-0.9-0.8-0.8-1.4c0.2-0.6,0.8-0.9,1.4-0.8
						C380.1,350.7,380.4,351.3,380.3,351.9z"/>
				</g>
				<g>
					<path class="st5" d="M384.5,353c-0.2,0.6-0.8,0.9-1.4,0.8c-0.6-0.2-0.9-0.8-0.8-1.4c0.2-0.6,0.8-0.9,1.3-0.8
						C384.3,351.8,384.7,352.4,384.5,353z"/>
				</g>
				<g>
					<path class="st5" d="M388.8,354.1c-0.1,0.6-0.7,1-1.3,0.8c-0.6-0.2-1-0.8-0.8-1.3c0.2-0.6,0.7-0.9,1.3-0.8
						C388.6,352.9,388.9,353.5,388.8,354.1z"/>
				</g>
				<g>
					<path class="st5" d="M393.1,355.1c-0.1,0.6-0.7,1-1.3,0.8c-0.6-0.1-1-0.7-0.8-1.3c0.1-0.6,0.7-1,1.3-0.8
						S393.2,354.5,393.1,355.1z"/>
				</g>
				<g>
					<path class="st5" d="M397.4,356c-0.1,0.6-0.7,1-1.3,0.9s-1-0.7-0.9-1.3c0.1-0.6,0.7-1,1.3-0.9
						C397.1,354.8,397.5,355.4,397.4,356z"/>
				</g>
				<g>
					<path class="st5" d="M401.7,356.8c-0.1,0.6-0.7,1-1.3,0.9c-0.6-0.1-1-0.7-0.9-1.3c0.1-0.6,0.7-1,1.3-0.9
						C401.4,355.6,401.8,356.2,401.7,356.8z"/>
				</g>
				<g>
					<path class="st5" d="M406.1,357.5c-0.1,0.6-0.7,1-1.3,0.9c-0.6-0.1-1-0.7-0.9-1.3c0.1-0.6,0.7-1,1.3-0.9
						C405.8,356.3,406.2,356.9,406.1,357.5z"/>
				</g>
				<g>
					<path class="st5" d="M410.5,358.1c-0.1,0.6-0.6,1-1.2,1s-1-0.6-1-1.2s0.6-1,1.2-1C410.1,356.9,410.5,357.5,410.5,358.1z"/>
				</g>
				<g>
					<path class="st5" d="M414.8,358.5c-0.1,0.6-0.6,1.1-1.2,1s-1.1-0.6-1-1.2s0.6-1.1,1.2-1S414.9,357.9,414.8,358.5z"/>
				</g>
				<g>
					<path class="st5" d="M419.2,358.9c0,0.6-0.6,1.1-1.2,1c-0.6-0.1-1.1-0.6-1-1.2c0.1-0.6,0.6-1.1,1.2-1
						C418.8,357.8,419.3,358.3,419.2,358.9z"/>
				</g>
				<g>
					<path class="st5" d="M423.6,359.2c0,0.6-0.5,1.1-1.2,1c-0.6,0-1.1-0.6-1-1.2c0-0.6,0.6-1.1,1.2-1
						C423.2,358.1,423.7,358.6,423.6,359.2z"/>
				</g>
				<g>
					<path class="st5" d="M428,359.3c0,0.6-0.5,1.1-1.1,1.1c-0.6,0-1.1-0.5-1.1-1.1c0-0.6,0.5-1.1,1.1-1.1
						C427.6,358.2,428,358.7,428,359.3z"/>
				</g>
				<g>
					<path class="st5" d="M432.4,359.4c0,0.6-0.5,1.1-1.1,1.1c-0.6,0-1.1-0.5-1.1-1.1s0.5-1.1,1.1-1.1
						C431.9,358.3,432.4,358.8,432.4,359.4z"/>
				</g>
				<g>
					<path class="st5" d="M436.9,359.4c0,0.6-0.5,1.1-1.1,1.1c-0.6,0-1.1-0.5-1.1-1.1c0-0.6,0.5-1.1,1.1-1.1
						C436.3,358.3,436.8,358.7,436.9,359.4z"/>
				</g>
				<g>
					<path class="st5" d="M441.3,359.3c0,0.6-0.5,1.1-1.1,1.1c-0.6,0-1.1-0.5-1.1-1.1c0-0.6,0.5-1.1,1.1-1.1
						C440.7,358.2,441.2,358.7,441.3,359.3z"/>
				</g>
				<g>
					<path class="st5" d="M445.7,359.1c0,0.6-0.5,1.1-1.1,1.2c-0.6,0-1.1-0.5-1.1-1.1c0-0.6,0.5-1.1,1.1-1.1
						C445.1,358.1,445.6,358.5,445.7,359.1z"/>
				</g>
				<g>
					<path class="st5" d="M450.1,359c0,0.6-0.4,1.1-1,1.2s-1.1-0.4-1.2-1.1c0-0.6,0.4-1.1,1-1.2C449.5,357.9,450,358.3,450.1,359z"
						/>
				</g>
				<g>
					<path class="st5" d="M454.5,358.7c0,0.6-0.4,1.1-1,1.2s-1.1-0.4-1.2-1c0-0.6,0.4-1.1,1-1.2S454.4,358.1,454.5,358.7z"/>
				</g>
				<g>
					<path class="st5" d="M458.9,358.4c0.1,0.6-0.4,1.1-1,1.2c-0.6,0.1-1.1-0.4-1.2-1c0-0.6,0.4-1.1,1-1.2
						C458.3,357.3,458.8,357.7,458.9,358.4z"/>
				</g>
				<g>
					<path class="st5" d="M463.3,358c0.1,0.6-0.4,1.2-1,1.2c-0.6,0.1-1.1-0.4-1.2-1c-0.1-0.6,0.4-1.1,1-1.2
						C462.7,356.9,463.2,357.3,463.3,358z"/>
				</g>
				<g>
					<path class="st5" d="M467.6,357.5c0.1,0.6-0.4,1.2-1,1.2s-1.2-0.4-1.2-1s0.4-1.2,1-1.2C467,356.4,467.6,356.9,467.6,357.5z"/>
				</g>
				<g>
					<path class="st5" d="M472,356.9c0.1,0.6-0.3,1.2-0.9,1.2c-0.6,0.1-1.2-0.3-1.2-0.9s0.3-1.2,0.9-1.2S471.9,356.3,472,356.9z"/>
				</g>
				<g>
					<path class="st5" d="M476.4,356.2c0.1,0.6-0.3,1.2-0.9,1.3c-0.6,0.1-1.2-0.3-1.3-0.9c-0.1-0.6,0.3-1.2,0.9-1.3
						S476.3,355.6,476.4,356.2z"/>
				</g>
				<g>
					<path class="st5" d="M480.7,355.5c0.1,0.6-0.3,1.2-0.9,1.3c-0.6,0.1-1.2-0.3-1.3-0.9c-0.1-0.6,0.3-1.2,0.9-1.3
						C480,354.5,480.6,354.9,480.7,355.5z"/>
				</g>
				<g>
					<path class="st5" d="M485,354.7c0.1,0.6-0.3,1.2-0.9,1.3c-0.6,0.1-1.2-0.3-1.3-0.9s0.3-1.2,0.9-1.3
						C484.4,353.7,484.9,354.1,485,354.7z"/>
				</g>
				<g>
					<path class="st5" d="M489.4,353.8c0.1,0.6-0.2,1.2-0.8,1.3s-1.2-0.3-1.3-0.8c-0.1-0.6,0.3-1.2,0.8-1.3
						C488.6,352.8,489.2,353.2,489.4,353.8z"/>
				</g>
				<g>
					<path class="st5" d="M493.7,352.8c0.1,0.6-0.2,1.2-0.8,1.3c-0.6,0.1-1.2-0.2-1.3-0.8c-0.1-0.6,0.2-1.2,0.8-1.3
						C492.9,351.8,493.5,352.2,493.7,352.8z"/>
				</g>
				<g>
					<path class="st5" d="M497.9,351.8c0.2,0.6-0.2,1.2-0.8,1.3c-0.6,0.1-1.2-0.2-1.3-0.8c-0.1-0.6,0.2-1.2,0.8-1.3
						C497.2,350.8,497.8,351.2,497.9,351.8z"/>
				</g>
				<g>
					<path class="st5" d="M502.2,350.6c0.2,0.6-0.2,1.2-0.8,1.3c-0.6,0.2-1.2-0.2-1.4-0.8c-0.2-0.6,0.2-1.2,0.8-1.3
						C501.4,349.7,502,350,502.2,350.6z"/>
				</g>
				<g>
					<path class="st5" d="M506.4,349.4c0.2,0.6-0.2,1.2-0.8,1.4c-0.6,0.2-1.2-0.2-1.4-0.8c-0.2-0.6,0.2-1.2,0.8-1.4
						C505.7,348.5,506.3,348.8,506.4,349.4z"/>
				</g>
				<g>
					<path class="st5" d="M510.7,348.2c0.2,0.6-0.2,1.2-0.7,1.4c-0.6,0.2-1.2-0.2-1.4-0.7c-0.2-0.6,0.2-1.2,0.7-1.4
						C509.9,347.3,510.5,347.6,510.7,348.2z"/>
				</g>
				<g>
					<path class="st5" d="M514.9,346.9c0.2,0.6-0.1,1.2-0.7,1.4c-0.6,0.2-1.2-0.1-1.4-0.7c-0.2-0.6,0.1-1.2,0.7-1.4
						S514.7,346.3,514.9,346.9z"/>
				</g>
				<g>
					<path class="st5" d="M519.1,345.5c0.2,0.6-0.1,1.2-0.7,1.4c-0.6,0.2-1.2-0.1-1.4-0.7s0.1-1.2,0.7-1.4
						C518.3,344.6,518.9,344.9,519.1,345.5z"/>
				</g>
				<g>
					<path class="st5" d="M523.3,344.1c0.2,0.6-0.1,1.2-0.7,1.4c-0.6,0.2-1.2-0.1-1.4-0.7c-0.2-0.6,0.1-1.2,0.7-1.4
						C522.4,343.2,523.1,343.5,523.3,344.1z"/>
				</g>
				<g>
					<path class="st5" d="M527.4,342.7c0.2,0.6-0.1,1.2-0.7,1.4c-0.6,0.2-1.2-0.1-1.4-0.7c-0.2-0.6,0.1-1.2,0.7-1.4
						S527.2,342.1,527.4,342.7z"/>
				</g>
				<g>
					<path class="st5" d="M531.6,341.2c0.2,0.6-0.1,1.2-0.7,1.4s-1.2-0.1-1.4-0.7s0.1-1.2,0.7-1.4
						C530.7,340.3,531.4,340.6,531.6,341.2z"/>
				</g>
				<g>
					<path class="st5" d="M535.7,339.7c0.2,0.6-0.1,1.2-0.7,1.4c-0.6,0.2-1.2-0.1-1.4-0.7c-0.2-0.6,0.1-1.2,0.7-1.4
						C534.9,338.9,535.5,339.2,535.7,339.7z"/>
				</g>
				<g>
					<path class="st5" d="M539.9,338.3c0.2,0.6-0.1,1.2-0.7,1.4s-1.2-0.1-1.4-0.7s0.1-1.2,0.7-1.4
						C539.1,337.4,539.7,337.7,539.9,338.3z"/>
				</g>
				<g>
					<path class="st5" d="M544.1,336.8c0.2,0.6-0.1,1.2-0.7,1.4c-0.6,0.2-1.2-0.1-1.4-0.7c-0.2-0.6,0.1-1.2,0.7-1.4
						C543.2,336,543.9,336.3,544.1,336.8z"/>
				</g>
				<g>
					<path class="st5" d="M548.2,335.4c0.2,0.6-0.1,1.2-0.7,1.4c-0.6,0.2-1.2-0.1-1.4-0.7c-0.2-0.6,0.1-1.2,0.7-1.4
						C547.4,334.5,548,334.8,548.2,335.4z"/>
				</g>
				<g>
					<path class="st5" d="M552.4,334c0.2,0.6-0.1,1.2-0.7,1.4s-1.2-0.1-1.4-0.7s0.1-1.2,0.7-1.4C551.6,333.1,552.2,333.4,552.4,334z
						"/>
				</g>
				<g>
					<path class="st5" d="M556.6,332.6c0.2,0.6-0.1,1.2-0.7,1.4c-0.6,0.2-1.2-0.1-1.4-0.7c-0.2-0.6,0.1-1.2,0.7-1.4
						C555.8,331.7,556.4,332,556.6,332.6z"/>
				</g>
				<g>
					<path class="st5" d="M560.8,331.2c0.2,0.6-0.1,1.2-0.7,1.4c-0.6,0.2-1.2-0.1-1.4-0.7c-0.2-0.6,0.1-1.2,0.7-1.4
						C559.9,330.3,560.6,330.6,560.8,331.2z"/>
				</g>
				<g>
					<path class="st5" d="M564.9,329.8c0.2,0.6-0.1,1.2-0.7,1.4c-0.6,0.2-1.2-0.1-1.4-0.7c-0.2-0.6,0.1-1.2,0.7-1.4
						S564.7,329.2,564.9,329.8z"/>
				</g>
				<g>
					<path class="st5" d="M569.1,328.3c0.2,0.6-0.1,1.2-0.7,1.4c-0.6,0.2-1.2-0.1-1.4-0.7s0.1-1.2,0.7-1.4
						C568.3,327.5,568.9,327.8,569.1,328.3z"/>
				</g>
				<g>
					<path class="st5" d="M573.3,327c0.2,0.6-0.1,1.2-0.7,1.4c-0.6,0.2-1.2-0.1-1.4-0.7s0.1-1.2,0.7-1.4
						C572.5,326.1,573.1,326.4,573.3,327z"/>
				</g>
				<g>
					<path class="st5" d="M577.5,325.6c0.2,0.6-0.1,1.2-0.7,1.4c-0.6,0.2-1.2-0.1-1.4-0.7s0.1-1.2,0.7-1.4
						C576.7,324.7,577.3,325,577.5,325.6z"/>
				</g>
				<g>
					<path class="st5" d="M581.7,324.2c0.2,0.6-0.1,1.2-0.7,1.4c-0.6,0.2-1.2-0.1-1.4-0.7c-0.2-0.6,0.1-1.2,0.7-1.4
						C580.8,323.3,581.5,323.6,581.7,324.2z"/>
				</g>
				<g>
					<path class="st5" d="M585.8,322.8c0.2,0.6-0.1,1.2-0.7,1.4c-0.6,0.2-1.2-0.1-1.4-0.7c-0.2-0.6,0.1-1.2,0.7-1.4
						S585.6,322.2,585.8,322.8z"/>
				</g>
				<g>
					<path class="st5" d="M590,321.4c0.2,0.6-0.1,1.2-0.7,1.4s-1.2-0.1-1.4-0.7c-0.2-0.6,0.1-1.2,0.7-1.4
						C589.2,320.5,589.8,320.8,590,321.4z"/>
				</g>
				<g>
					<path class="st5" d="M594.2,319.9c0.2,0.6-0.1,1.2-0.7,1.4c-0.6,0.2-1.2-0.1-1.4-0.7c-0.2-0.6,0.1-1.2,0.7-1.4
						C593.4,319.1,594,319.4,594.2,319.9z"/>
				</g>
				<g>
					<path class="st5" d="M598.4,318.5c0.2,0.6-0.1,1.2-0.7,1.4c-0.6,0.2-1.2-0.1-1.4-0.7s0.1-1.2,0.7-1.4
						C597.5,317.6,598.2,317.9,598.4,318.5z"/>
				</g>
				<g>
					<path class="st5" d="M602.5,317.1c0.2,0.6-0.1,1.2-0.7,1.4c-0.6,0.2-1.2-0.1-1.4-0.7c-0.2-0.6,0.1-1.2,0.7-1.4
						C601.7,316.2,602.3,316.5,602.5,317.1z"/>
				</g>
				<g>
					<path class="st5" d="M606.7,315.6c0.2,0.6-0.1,1.2-0.7,1.4c-0.6,0.2-1.2-0.1-1.4-0.7c-0.2-0.6,0.1-1.2,0.7-1.4
						C605.9,314.8,606.5,315.1,606.7,315.6z"/>
				</g>
				<g>
					<path class="st5" d="M610.8,314.1c0.2,0.6-0.1,1.2-0.7,1.4c-0.6,0.2-1.2-0.1-1.4-0.7c-0.2-0.6,0.1-1.2,0.7-1.4
						C610,313.3,610.6,313.6,610.8,314.1z"/>
				</g>
				<g>
					<path class="st5" d="M615,312.6c0.2,0.6-0.1,1.2-0.6,1.4c-0.6,0.2-1.2-0.1-1.4-0.6c-0.2-0.6,0.1-1.2,0.6-1.4
						C614.1,311.7,614.7,312,615,312.6z"/>
				</g>
				<g>
					<path class="st5" d="M619,310.9c0.2,0.6,0,1.2-0.6,1.4c-0.6,0.2-1.2,0-1.4-0.6c-0.2-0.6,0-1.2,0.6-1.4
						C618.1,310,618.8,310.3,619,310.9z"/>
				</g>
				<g>
					<path class="st5" d="M623.1,309.1c0.2,0.6,0,1.2-0.6,1.5c-0.6,0.2-1.2,0-1.5-0.6c-0.2-0.6,0-1.2,0.6-1.5
						C622.2,308.3,622.8,308.6,623.1,309.1z"/>
				</g>
				<g>
					<path class="st5" d="M627.1,307.3c0.3,0.6,0,1.2-0.5,1.5c-0.6,0.3-1.2,0-1.5-0.6c-0.3-0.6,0-1.2,0.5-1.5
						C626.2,306.5,626.8,306.7,627.1,307.3z"/>
				</g>
				<g>
					<path class="st5" d="M631.1,305.5c0.3,0.6,0,1.2-0.5,1.5c-0.6,0.3-1.2,0-1.5-0.5c-0.3-0.6,0-1.2,0.5-1.5
						C630.2,304.7,630.8,304.9,631.1,305.5z"/>
				</g>
				<g>
					<path class="st5" d="M635.1,303.6c0.3,0.6,0,1.2-0.5,1.5c-0.6,0.3-1.2,0-1.5-0.5c-0.3-0.6,0-1.2,0.5-1.5
						C634.2,302.8,634.8,303,635.1,303.6z"/>
				</g>
				<g>
					<path class="st5" d="M639.1,301.7c0.3,0.6,0,1.2-0.5,1.5c-0.6,0.3-1.2,0-1.5-0.5c-0.3-0.6,0-1.2,0.5-1.5
						C638.2,300.9,638.8,301.2,639.1,301.7z"/>
				</g>
				<g>
					<path class="st5" d="M643.1,299.8c0.3,0.5,0,1.2-0.5,1.5c-0.5,0.3-1.2,0-1.5-0.5c-0.3-0.6,0-1.2,0.5-1.5
						C642.1,299,642.8,299.3,643.1,299.8z"/>
				</g>
				<g>
					<path class="st5" d="M647,297.9c0.3,0.5,0,1.2-0.5,1.5c-0.5,0.3-1.2,0-1.5-0.5c-0.3-0.5,0-1.2,0.5-1.5
						C646.1,297.1,646.8,297.3,647,297.9z"/>
				</g>
				<g>
					<path class="st5" d="M651,296c0.3,0.5,0,1.2-0.5,1.5c-0.5,0.3-1.2,0-1.5-0.5c-0.3-0.5,0-1.2,0.5-1.5
						C650.1,295.2,650.7,295.4,651,296z"/>
				</g>
				<g>
					<path class="st5" d="M654.9,294c0.3,0.5,0,1.2-0.5,1.5c-0.5,0.3-1.2,0-1.5-0.5c-0.3-0.5,0-1.2,0.5-1.5
						C654,293.2,654.7,293.5,654.9,294z"/>
				</g>
				<g>
					<path class="st5" d="M658.9,292.1c0.3,0.5,0,1.2-0.5,1.5c-0.5,0.3-1.2,0-1.5-0.5c-0.3-0.5,0-1.2,0.5-1.5
						C658,291.3,658.6,291.5,658.9,292.1z"/>
				</g>
				<g>
					<path class="st5" d="M662.9,290.1c0.3,0.5,0.1,1.2-0.5,1.5c-0.5,0.3-1.2,0-1.5-0.5c-0.3-0.5,0-1.2,0.5-1.5
						C661.9,289.3,662.6,289.6,662.9,290.1z"/>
				</g>
				<g>
					<path class="st5" d="M666.8,288.1c0.3,0.5,0.1,1.2-0.5,1.5c-0.5,0.3-1.2,0-1.5-0.5c-0.3-0.5-0.1-1.2,0.5-1.5
						C665.9,287.4,666.5,287.6,666.8,288.1z"/>
				</g>
				<g>
					<path class="st5" d="M670.7,286.2c0.3,0.5,0.1,1.2-0.5,1.5c-0.5,0.3-1.2,0.1-1.5-0.5c-0.3-0.5-0.1-1.2,0.5-1.5
						C669.8,285.4,670.5,285.6,670.7,286.2z"/>
				</g>
				<g>
					<path class="st5" d="M674.7,284.2c0.3,0.5,0.1,1.2-0.5,1.5c-0.5,0.3-1.2,0.1-1.5-0.5c-0.3-0.5-0.1-1.2,0.5-1.5
						C673.7,283.4,674.4,283.6,674.7,284.2z"/>
				</g>
				<g>
					<path class="st5" d="M678.6,282.2c0.3,0.5,0.1,1.2-0.5,1.5c-0.5,0.3-1.2,0.1-1.5-0.5c-0.3-0.5-0.1-1.2,0.5-1.5
						C677.7,281.4,678.3,281.6,678.6,282.2z"/>
				</g>
				<g>
					<path class="st5" d="M682.5,280.2c0.3,0.5,0.1,1.2-0.5,1.5s-1.2,0.1-1.5-0.5c-0.3-0.5-0.1-1.2,0.5-1.5S682.3,279.7,682.5,280.2
						z"/>
				</g>
				<g>
					<path class="st5" d="M686.5,278.2c0.3,0.5,0.1,1.2-0.5,1.5c-0.5,0.3-1.2,0.1-1.5-0.5c-0.3-0.5-0.1-1.2,0.5-1.5
						C685.5,277.4,686.2,277.7,686.5,278.2z"/>
				</g>
				<g>
					<path class="st5" d="M690.4,276.2c0.3,0.5,0.1,1.2-0.5,1.5c-0.5,0.3-1.2,0.1-1.5-0.5s-0.1-1.2,0.5-1.5
						C689.5,275.4,690.1,275.7,690.4,276.2z"/>
				</g>
				<g>
					<path class="st5" d="M694.3,274.2c0.3,0.5,0.1,1.2-0.5,1.5c-0.5,0.3-1.2,0.1-1.5-0.5c-0.3-0.5-0.1-1.2,0.5-1.5
						C693.4,273.4,694,273.6,694.3,274.2z"/>
				</g>
				<g>
					<path class="st5" d="M698.2,272.2c0.3,0.5,0.1,1.2-0.5,1.5c-0.5,0.3-1.2,0.1-1.5-0.5s-0.1-1.2,0.5-1.5
						C697.3,271.4,698,271.6,698.2,272.2z"/>
				</g>
				<g>
					<path class="st5" d="M702.2,270.1c0.3,0.5,0.1,1.2-0.5,1.5c-0.5,0.3-1.2,0.1-1.5-0.5c-0.3-0.5-0.1-1.2,0.5-1.5
						S701.9,269.6,702.2,270.1z"/>
				</g>
				<g>
					<path class="st5" d="M706.1,268.1c0.3,0.5,0.1,1.2-0.5,1.5c-0.5,0.3-1.2,0.1-1.5-0.5c-0.3-0.5-0.1-1.2,0.5-1.5
						C705.1,267.4,705.8,267.6,706.1,268.1z"/>
				</g>
				<g>
					<path class="st5" d="M710,266.1c0.3,0.5,0.1,1.2-0.5,1.5c-0.5,0.3-1.2,0.1-1.5-0.5c-0.3-0.5-0.1-1.2,0.5-1.5
						C709,265.3,709.7,265.5,710,266.1z"/>
				</g>
				<g>
					<path class="st5" d="M713.9,264c0.3,0.5,0.1,1.2-0.5,1.5c-0.5,0.3-1.2,0.1-1.5-0.5s-0.1-1.2,0.5-1.5
						C712.9,263.3,713.6,263.5,713.9,264z"/>
				</g>
				<g>
					<line class="st4" x1="714" y1="257.4" x2="719.6" y2="267.5"/>
				</g>
			</g>
		</g>
	</g>
	<g>
		<g>
			<g>
				<g>
					<line class="st4" x1="513.5" y1="79.1" x2="513.9" y2="67.5"/>
				</g>
				<g>
					<path class="st5" d="M508.2,73.1c0-0.6,0.5-1.1,1.1-1.1c0.6,0,1.1,0.5,1.1,1.1c0,0.6-0.5,1.1-1.1,1.1
						C508.6,74.3,508.2,73.7,508.2,73.1z"/>
				</g>
				<g>
					<path class="st5" d="M503.8,73c0-0.6,0.5-1.1,1.1-1.1c0.6,0,1.1,0.5,1.1,1.1c0,0.6-0.5,1.1-1.1,1.1
						C504.2,74.1,503.8,73.6,503.8,73z"/>
				</g>
				<g>
					<path class="st5" d="M499.4,72.8c0-0.6,0.5-1.1,1.1-1.1c0.6,0,1.1,0.5,1.1,1.1c0,0.6-0.5,1.1-1.1,1.1
						C499.8,73.9,499.3,73.4,499.4,72.8z"/>
				</g>
				<g>
					<path class="st5" d="M494.9,72.6c0-0.6,0.5-1.1,1.1-1.1c0.6,0,1.1,0.5,1.1,1.1c0,0.6-0.5,1.1-1.1,1.1
						C495.4,73.8,494.9,73.3,494.9,72.6z"/>
				</g>
				<g>
					<path class="st5" d="M490.5,72.5c0-0.6,0.5-1.1,1.1-1.1c0.6,0,1.1,0.5,1.1,1.1c0,0.6-0.5,1.1-1.1,1.1
						C491,73.6,490.5,73.1,490.5,72.5z"/>
				</g>
				<g>
					<path class="st5" d="M486.1,72.3c0-0.6,0.5-1.1,1.1-1.1c0.6,0,1.1,0.5,1.1,1.1c0,0.6-0.5,1.1-1.1,1.1
						C486.6,73.4,486.1,72.9,486.1,72.3z"/>
				</g>
				<g>
					<path class="st5" d="M481.7,72.2c0-0.6,0.5-1.1,1.1-1.1c0.6,0,1.1,0.5,1.1,1.1c0,0.6-0.5,1.1-1.1,1.1
						C482.1,73.3,481.7,72.8,481.7,72.2z"/>
				</g>
				<g>
					<path class="st5" d="M477.3,72c0-0.6,0.5-1.1,1.1-1.1c0.6,0,1.1,0.5,1.1,1.1s-0.5,1.1-1.1,1.1C477.7,73.1,477.2,72.6,477.3,72z
						"/>
				</g>
				<g>
					<path class="st5" d="M472.9,71.8c0-0.6,0.5-1.1,1.1-1.1c0.6,0,1.1,0.5,1.1,1.1c0,0.6-0.5,1.1-1.1,1.1
						C473.3,73,472.8,72.4,472.9,71.8z"/>
				</g>
				<g>
					<path class="st5" d="M468.4,71.7c0-0.6,0.5-1.1,1.1-1.1c0.6,0,1.1,0.5,1.1,1.1c0,0.6-0.5,1.1-1.1,1.1
						C468.9,72.8,468.4,72.3,468.4,71.7z"/>
				</g>
				<g>
					<path class="st5" d="M464,71.5c0-0.6,0.5-1.1,1.1-1.1c0.6,0,1.1,0.5,1.1,1.1s-0.5,1.1-1.1,1.1C464.5,72.6,464,72.1,464,71.5z"
						/>
				</g>
				<g>
					<path class="st5" d="M459.6,71.3c0-0.6,0.5-1.1,1.1-1.1c0.6,0,1.1,0.5,1.1,1.1c0,0.6-0.5,1.1-1.1,1.1
						C460,72.5,459.6,71.9,459.6,71.3z"/>
				</g>
				<g>
					<path class="st5" d="M455.2,71.2c0-0.6,0.5-1.1,1.1-1.1c0.6,0,1.1,0.5,1.1,1.1c0,0.6-0.5,1.1-1.1,1.1
						C455.6,72.3,455.2,71.8,455.2,71.2z"/>
				</g>
				<g>
					<path class="st5" d="M450.8,71c0-0.6,0.5-1.1,1.1-1.1c0.6,0,1.1,0.5,1.1,1.1s-0.5,1.1-1.1,1.1C451.2,72.1,450.7,71.6,450.8,71z
						"/>
				</g>
				<g>
					<path class="st5" d="M446.3,70.9c0-0.6,0.5-1.1,1.1-1.1c0.6,0,1.1,0.5,1.1,1.1S448,72,447.4,72C446.8,72,446.3,71.5,446.3,70.9
						z"/>
				</g>
				<g>
					<path class="st5" d="M441.9,70.7c0-0.6,0.5-1.1,1.2-1.1c0.6,0,1.1,0.5,1.1,1.1s-0.5,1.1-1.2,1.1
						C442.4,71.8,441.9,71.3,441.9,70.7z"/>
				</g>
				<g>
					<path class="st5" d="M437.5,70.5c0-0.6,0.5-1.1,1.2-1.1c0.6,0,1.1,0.5,1.1,1.1c0,0.6-0.5,1.1-1.2,1.1
						C438,71.6,437.5,71.1,437.5,70.5z"/>
				</g>
				<g>
					<path class="st5" d="M433.1,70.4c0-0.6,0.5-1.1,1.2-1.1c0.6,0,1.1,0.5,1.1,1.1c0,0.6-0.5,1.1-1.2,1.1
						C433.5,71.5,433.1,71,433.1,70.4z"/>
				</g>
				<g>
					<path class="st5" d="M428.7,70.2c0-0.6,0.5-1.1,1.2-1.1c0.6,0,1.1,0.5,1.1,1.1s-0.5,1.1-1.2,1.1
						C429.1,71.3,428.6,70.8,428.7,70.2z"/>
				</g>
				<g>
					<path class="st5" d="M424.3,70c0-0.6,0.5-1.1,1.2-1.1c0.6,0,1.1,0.5,1.1,1.1s-0.5,1.1-1.2,1.1C424.7,71.2,424.2,70.6,424.3,70z
						"/>
				</g>
				<g>
					<path class="st5" d="M419.8,69.9c0-0.6,0.5-1.1,1.2-1.1c0.6,0,1.1,0.5,1.1,1.1c0,0.6-0.5,1.1-1.2,1.1
						C420.3,71,419.8,70.5,419.8,69.9z"/>
				</g>
				<g>
					<path class="st5" d="M415.4,69.7c0-0.6,0.5-1.1,1.2-1.1c0.6,0,1.1,0.5,1.1,1.1c0,0.6-0.5,1.1-1.2,1.1
						C415.9,70.8,415.4,70.3,415.4,69.7z"/>
				</g>
				<g>
					<path class="st5" d="M411,69.5c0-0.6,0.5-1.1,1.2-1.1c0.6,0,1.1,0.5,1.1,1.1c0,0.6-0.5,1.1-1.2,1.1
						C411.5,70.7,411,70.2,411,69.5z"/>
				</g>
				<g>
					<path class="st5" d="M406.6,69.4c0-0.6,0.5-1.1,1.2-1.1c0.6,0,1.1,0.5,1.1,1.1c0,0.6-0.5,1.1-1.2,1.1
						C407,70.5,406.6,70,406.6,69.4z"/>
				</g>
				<g>
					<path class="st5" d="M402.2,69.2c0-0.6,0.5-1.1,1.2-1.1c0.6,0,1.1,0.5,1.1,1.1c0,0.6-0.5,1.1-1.2,1.1
						C402.6,70.3,402.1,69.8,402.2,69.2z"/>
				</g>
				<g>
					<path class="st5" d="M397.8,69.1c0-0.6,0.5-1.1,1.2-1.1c0.6,0,1.1,0.5,1.1,1.1c0,0.6-0.5,1.1-1.2,1.1
						C398.2,70.2,397.7,69.7,397.8,69.1z"/>
				</g>
				<g>
					<path class="st5" d="M393.3,68.9c0-0.6,0.5-1.1,1.2-1.1c0.6,0,1.1,0.5,1.1,1.1c0,0.6-0.5,1.1-1.2,1.1
						C393.8,70,393.3,69.5,393.3,68.9z"/>
				</g>
				<g>
					<path class="st5" d="M388.9,68.7c0-0.6,0.5-1.1,1.2-1.1c0.6,0,1.1,0.5,1.1,1.1c0,0.6-0.5,1.1-1.2,1.1
						C389.4,69.8,388.9,69.3,388.9,68.7z"/>
				</g>
				<g>
					<path class="st5" d="M384.5,68.5c0-0.6,0.5-1.1,1.2-1.1c0.6,0,1.1,0.5,1.1,1.1c0,0.6-0.5,1.1-1.2,1.1
						C384.9,69.6,384.5,69.1,384.5,68.5z"/>
				</g>
				<g>
					<path class="st5" d="M380.1,68.3c0-0.6,0.5-1.1,1.2-1.1c0.6,0,1.1,0.5,1.1,1.1c0,0.6-0.5,1.1-1.2,1.1
						C380.5,69.5,380.1,68.9,380.1,68.3z"/>
				</g>
				<g>
					<path class="st5" d="M375.7,68.2c0-0.6,0.5-1.1,1.2-1.1c0.6,0,1.1,0.5,1.1,1.1c0,0.6-0.5,1.1-1.2,1.1
						C376.1,69.3,375.6,68.8,375.7,68.2z"/>
				</g>
				<g>
					<path class="st5" d="M371.2,68c0-0.6,0.5-1.1,1.2-1.1c0.6,0,1.1,0.5,1.1,1.1s-0.5,1.1-1.2,1.1C371.7,69.1,371.2,68.6,371.2,68z
						"/>
				</g>
				<g>
					<path class="st5" d="M366.8,67.8c0-0.6,0.5-1.1,1.2-1.1c0.6,0,1.1,0.5,1.1,1.1c0,0.6-0.5,1.1-1.2,1.1S366.8,68.4,366.8,67.8z"
						/>
				</g>
				<g>
					<path class="st5" d="M362.4,67.6c0-0.6,0.5-1.1,1.2-1.1c0.6,0,1.1,0.5,1.1,1.1s-0.5,1.1-1.2,1.1
						C362.9,68.7,362.4,68.2,362.4,67.6z"/>
				</g>
				<g>
					<path class="st5" d="M358,67.4c0-0.6,0.5-1.1,1.2-1.1c0.6,0,1.1,0.5,1.1,1.1c0,0.6-0.5,1.1-1.2,1.1S358,68,358,67.4z"/>
				</g>
				<g>
					<path class="st5" d="M353.6,67.3c0-0.6,0.5-1.1,1.2-1.1c0.6,0,1.1,0.5,1.1,1.1s-0.5,1.1-1.2,1.1
						C354,68.4,353.6,67.9,353.6,67.3z"/>
				</g>
				<g>
					<path class="st5" d="M349.2,67.1c0-0.6,0.5-1.1,1.2-1.1c0.6,0,1.1,0.5,1.1,1.1c0,0.6-0.5,1.1-1.2,1.1S349.1,67.7,349.2,67.1z"
						/>
				</g>
				<g>
					<path class="st5" d="M344.7,66.9c0-0.6,0.5-1.1,1.2-1.1c0.6,0,1.1,0.5,1.1,1.1c0,0.6-0.5,1.1-1.2,1.1
						C345.2,68,344.7,67.5,344.7,66.9z"/>
				</g>
				<g>
					<path class="st5" d="M340.3,66.7c0-0.6,0.5-1.1,1.2-1.1s1.1,0.5,1.1,1.1c0,0.6-0.5,1.1-1.2,1.1
						C340.8,67.8,340.3,67.3,340.3,66.7z"/>
				</g>
				<g>
					<path class="st5" d="M335.9,66.5c0-0.6,0.5-1.1,1.2-1.1c0.6,0,1.1,0.5,1.1,1.1c0,0.6-0.5,1.1-1.2,1.1S335.9,67.1,335.9,66.5z"
						/>
				</g>
				<g>
					<path class="st5" d="M331.5,66.3c0-0.6,0.5-1.1,1.2-1.1c0.6,0,1.1,0.5,1.1,1.1c0,0.6-0.5,1.1-1.2,1.1
						C331.9,67.5,331.5,67,331.5,66.3z"/>
				</g>
				<g>
					<path class="st5" d="M327.1,66.2c0-0.6,0.5-1.1,1.2-1.1c0.6,0,1.1,0.5,1.1,1.1c0,0.6-0.5,1.1-1.2,1.1S327.1,66.8,327.1,66.2z"
						/>
				</g>
				<g>
					<path class="st5" d="M322.7,66c0-0.6,0.5-1.1,1.2-1.1c0.6,0,1.1,0.5,1.1,1.1c0,0.6-0.5,1.1-1.2,1.1
						C323.1,67.1,322.6,66.6,322.7,66z"/>
				</g>
				<g>
					<path class="st5" d="M318.2,65.8c0-0.6,0.5-1.1,1.2-1.1s1.1,0.5,1.1,1.1c0,0.6-0.5,1.1-1.2,1.1
						C318.7,66.9,318.2,66.4,318.2,65.8z"/>
				</g>
				<g>
					<path class="st5" d="M313.8,65.6c0-0.6,0.5-1.1,1.2-1.1s1.1,0.5,1.1,1.1c0,0.6-0.5,1.1-1.2,1.1S313.8,66.2,313.8,65.6z"/>
				</g>
				<g>
					<path class="st5" d="M309.4,65.4c0-0.6,0.5-1.1,1.2-1.1c0.6,0,1.1,0.5,1.1,1.1c0,0.6-0.5,1.1-1.2,1.1
						C309.9,66.6,309.4,66,309.4,65.4z"/>
				</g>
				<g>
					<path class="st5" d="M305,65.3c0-0.6,0.5-1.1,1.2-1.1c0.6,0,1.1,0.5,1.1,1.1c0,0.6-0.5,1.1-1.2,1.1S305,65.9,305,65.3z"/>
				</g>
				<g>
					<path class="st5" d="M300.6,65.1c0-0.6,0.5-1.1,1.2-1.1c0.6,0,1.1,0.5,1.1,1.1c0,0.6-0.5,1.1-1.2,1.1
						C301,66.2,300.6,65.7,300.6,65.1z"/>
				</g>
				<g>
					<path class="st5" d="M296.2,64.9c0-0.6,0.5-1.1,1.2-1.1s1.1,0.5,1.1,1.1c0,0.6-0.5,1.1-1.2,1.1C296.6,66,296.1,65.5,296.2,64.9
						z"/>
				</g>
				<g>
					<path class="st5" d="M291.7,64.7c0-0.6,0.5-1.1,1.2-1.1c0.6,0,1.1,0.5,1.1,1.1c0,0.6-0.5,1.1-1.2,1.1
						C292.2,65.8,291.7,65.3,291.7,64.7z"/>
				</g>
				<g>
					<path class="st5" d="M287.3,64.5c0-0.6,0.5-1.1,1.2-1.1c0.6,0,1.1,0.5,1.1,1.1s-0.5,1.1-1.2,1.1
						C287.8,65.7,287.3,65.1,287.3,64.5z"/>
				</g>
				<g>
					<path class="st5" d="M282.9,64.4c0-0.6,0.5-1.1,1.2-1.1c0.6,0,1.1,0.5,1.1,1.1c0,0.6-0.5,1.1-1.2,1.1
						C283.4,65.5,282.9,65,282.9,64.4z"/>
				</g>
				<g>
					<path class="st5" d="M278.5,64.2c0-0.6,0.5-1.1,1.2-1.1s1.1,0.5,1.1,1.1s-0.5,1.1-1.2,1.1C278.9,65.3,278.5,64.8,278.5,64.2z"
						/>
				</g>
				<g>
					<path class="st5" d="M274.1,64c0-0.6,0.5-1.1,1.2-1.1s1.1,0.5,1.1,1.1s-0.5,1.1-1.2,1.1C274.5,65.1,274,64.6,274.1,64z"/>
				</g>
				<g>
					<path class="st5" d="M269.7,63.8c0-0.6,0.5-1.1,1.2-1.1c0.6,0,1.1,0.5,1.1,1.1c0,0.6-0.5,1.1-1.2,1.1
						C270.1,64.9,269.6,64.4,269.7,63.8z"/>
				</g>
				<g>
					<path class="st5" d="M265.2,63.6c0-0.6,0.5-1.1,1.2-1.1c0.6,0,1.1,0.5,1.1,1.1s-0.5,1.1-1.2,1.1
						C265.7,64.8,265.2,64.2,265.2,63.6z"/>
				</g>
				<g>
					<path class="st5" d="M260.8,63.4c0-0.6,0.5-1.1,1.2-1.1c0.6,0,1.1,0.5,1.1,1.1s-0.5,1.1-1.2,1.1
						C261.3,64.6,260.8,64.1,260.8,63.4z"/>
				</g>
				<g>
					<path class="st5" d="M256.4,63.3c0-0.6,0.5-1.1,1.2-1.1c0.6,0,1.1,0.5,1.1,1.1s-0.5,1.1-1.2,1.1
						C256.9,64.4,256.4,63.9,256.4,63.3z"/>
				</g>
				<g>
					<path class="st5" d="M252,63.1c0-0.6,0.5-1.1,1.2-1.1c0.6,0,1.1,0.5,1.1,1.1c0,0.6-0.5,1.1-1.2,1.1
						C252.4,64.2,252,63.7,252,63.1z"/>
				</g>
				<g>
					<path class="st5" d="M247.6,62.9c0-0.6,0.5-1.1,1.2-1.1s1.1,0.5,1.1,1.1s-0.5,1.1-1.2,1.1C248,64,247.5,63.5,247.6,62.9z"/>
				</g>
				<g>
					<path class="st5" d="M243.2,62.7c0-0.6,0.5-1.1,1.2-1.1c0.6,0,1.1,0.5,1.1,1.1c0,0.6-0.5,1.1-1.2,1.1
						C243.6,63.8,243.1,63.3,243.2,62.7z"/>
				</g>
				<g>
					<path class="st5" d="M238.7,62.5c0-0.6,0.5-1.1,1.2-1.1c0.6,0,1.1,0.5,1.1,1.1s-0.5,1.1-1.2,1.1S238.7,63.2,238.7,62.5z"/>
				</g>
				<g>
					<path class="st5" d="M234.3,62.4c0-0.6,0.5-1.1,1.2-1.1c0.6,0,1.1,0.5,1.1,1.1c0,0.6-0.5,1.1-1.2,1.1S234.3,63,234.3,62.4z"/>
				</g>
				<g>
					<path class="st5" d="M229.9,62.2c0-0.6,0.5-1.1,1.2-1.1c0.6,0,1.1,0.5,1.1,1.1s-0.5,1.1-1.2,1.1
						C230.4,63.3,229.9,62.8,229.9,62.2z"/>
				</g>
				<g>
					<path class="st5" d="M225.5,62c0-0.6,0.5-1.1,1.2-1.1c0.6,0,1.1,0.5,1.1,1.1c0,0.6-0.5,1.1-1.2,1.1
						C225.9,63.1,225.5,62.6,225.5,62z"/>
				</g>
				<g>
					<path class="st5" d="M221.1,61.8c0-0.6,0.5-1.1,1.2-1.1c0.6,0,1.1,0.5,1.1,1.1c0,0.6-0.5,1.1-1.2,1.1
						C221.5,62.9,221,62.4,221.1,61.8z"/>
				</g>
				<g>
					<path class="st5" d="M216.7,61.6c0-0.6,0.5-1.1,1.2-1.1c0.6,0,1.1,0.5,1.1,1.1c0,0.6-0.5,1.1-1.2,1.1
						C217.1,62.8,216.6,62.2,216.7,61.6z"/>
				</g>
				<g>
					<path class="st5" d="M212.2,61.5c0-0.6,0.5-1.1,1.2-1.1s1.1,0.5,1.1,1.1c0,0.6-0.5,1.1-1.2,1.1S212.2,62.1,212.2,61.5z"/>
				</g>
				<g>
					<path class="st5" d="M207.8,61.3c0-0.6,0.5-1.1,1.2-1.1c0.6,0,1.1,0.5,1.1,1.1c0,0.6-0.5,1.1-1.2,1.1
						C208.3,62.4,207.8,61.9,207.8,61.3z"/>
				</g>
				<g>
					<path class="st5" d="M203.4,61.1c0-0.6,0.5-1.1,1.2-1.1c0.6,0,1.1,0.5,1.1,1.1c0,0.6-0.5,1.1-1.2,1.1
						C203.9,62.2,203.4,61.7,203.4,61.1z"/>
				</g>
				<g>
					<path class="st5" d="M199,60.9c0-0.6,0.5-1.1,1.2-1.1c0.6,0,1.1,0.5,1.1,1.1c0,0.6-0.5,1.1-1.2,1.1C199.4,62,199,61.5,199,60.9
						z"/>
				</g>
				<g>
					<path class="st5" d="M194.6,60.7c0-0.6,0.5-1.1,1.2-1.1c0.6,0,1.1,0.5,1.1,1.1c0,0.6-0.5,1.1-1.2,1.1
						C195,61.9,194.5,61.3,194.6,60.7z"/>
				</g>
				<g>
					<path class="st5" d="M190.2,60.5c0-0.6,0.5-1.1,1.2-1.1s1.1,0.5,1.1,1.1c0,0.6-0.5,1.1-1.2,1.1
						C190.6,61.7,190.1,61.2,190.2,60.5z"/>
				</g>
				<g>
					<path class="st5" d="M185.7,60.4c0-0.6,0.5-1.1,1.2-1.1c0.6,0,1.1,0.5,1.1,1.1c0,0.6-0.5,1.1-1.2,1.1
						C186.2,61.5,185.7,61,185.7,60.4z"/>
				</g>
				<g>
					<path class="st5" d="M181.3,60.2c0-0.6,0.5-1.1,1.2-1.1c0.6,0,1.1,0.5,1.1,1.1c0,0.6-0.5,1.1-1.2,1.1S181.3,60.8,181.3,60.2z"
						/>
				</g>
				<g>
					<path class="st5" d="M176.9,60c0-0.6,0.5-1.1,1.2-1.1c0.6,0,1.1,0.5,1.1,1.1c0,0.6-0.5,1.1-1.2,1.1
						C177.4,61.1,176.9,60.6,176.9,60z"/>
				</g>
				<g>
					<path class="st5" d="M172.5,59.8c0-0.6,0.5-1.1,1.1-1.1c0.6,0,1.1,0.5,1.1,1.1c0,0.6-0.5,1.1-1.1,1.1
						C172.9,60.9,172.5,60.4,172.5,59.8z"/>
				</g>
				<g>
					<path class="st5" d="M168.1,59.6c0-0.6,0.5-1.1,1.1-1.1c0.6,0,1.1,0.5,1.1,1.1c0,0.6-0.5,1.1-1.1,1.1
						C168.5,60.8,168,60.3,168.1,59.6z"/>
				</g>
				<g>
					<path class="st5" d="M163.7,59.5c0-0.6,0.5-1.1,1.1-1.1c0.6,0,1.1,0.5,1.1,1.1s-0.5,1.1-1.1,1.1
						C164.1,60.6,163.6,60.1,163.7,59.5z"/>
				</g>
				<g>
					<path class="st5" d="M159.2,59.3c0-0.6,0.5-1.1,1.1-1.1c0.6,0,1.1,0.5,1.1,1.1c0,0.6-0.5,1.1-1.1,1.1
						C159.7,60.4,159.2,59.9,159.2,59.3z"/>
				</g>
				<g>
					<path class="st5" d="M154.8,59.1c0-0.6,0.5-1.1,1.1-1.1c0.6,0,1.1,0.5,1.1,1.1c0,0.6-0.5,1.1-1.1,1.1
						C155.3,60.2,154.8,59.7,154.8,59.1z"/>
				</g>
				<g>
					<path class="st5" d="M150.4,58.9c0-0.6,0.5-1.1,1.1-1.1s1.1,0.5,1.1,1.1c0,0.6-0.5,1.1-1.1,1.1C150.8,60,150.4,59.5,150.4,58.9
						z"/>
				</g>
				<g>
					<path class="st5" d="M146,58.7c0-0.6,0.5-1.1,1.1-1.1c0.6,0,1.1,0.5,1.1,1.1s-0.5,1.1-1.1,1.1C146.4,59.9,146,59.3,146,58.7z"
						/>
				</g>
				<g>
					<path class="st5" d="M141.6,58.6c0-0.6,0.5-1.1,1.1-1.1c0.6,0,1.1,0.5,1.1,1.1s-0.5,1.1-1.1,1.1
						C142,59.7,141.5,59.2,141.6,58.6z"/>
				</g>
				<g>
					<path class="st5" d="M137.1,58.4c0-0.6,0.5-1.1,1.1-1.1c0.6,0,1.1,0.5,1.1,1.1s-0.5,1.1-1.1,1.1
						C137.6,59.5,137.1,59,137.1,58.4z"/>
				</g>
				<g>
					<line class="st4" x1="133.6" y1="64" x2="134.1" y2="52.4"/>
				</g>
			</g>
		</g>
	</g>
</g>
<g id="コーナー番号">
	<g>
		<g>
			<circle class="st6" cx="512.5" cy="212" r="8.5"/>
			<circle class="st7" cx="512.5" cy="212" r="8.5"/>
		</g>
		<g>
			<path class="st8" d="M510.8,215.9v-1.6h1v-4.5h-0.9v-1.6h2.6v6.1h0.9v1.6H510.8z"/>
		</g>
	</g>
	<g>
		<g>
			<circle class="st6" cx="444.2" cy="239" r="8.5"/>
			<circle class="st7" cx="444.2" cy="239" r="8.5"/>
		</g>
		<g>
			<path class="st8" d="M442.1,242.9v-2.6c0-0.6,0.1-1,0.6-1.2l1.9-0.8v-1.6l-0.1-0.1h-0.5l-0.1,0.1v1.1h-1.7v-1.3
				c0-0.8,0.4-1.1,0.8-1.3h2.5c0.5,0.2,0.8,0.5,0.8,1.3v1.9c0,0.6-0.1,0.9-0.6,1.2l-1.9,0.8v0.9h2.4v1.6H442.1z"/>
		</g>
	</g>
	<g>
		<g>
			<circle class="st6" cx="475.8" cy="296.9" r="8.5"/>
			<circle class="st7" cx="475.8" cy="296.9" r="8.5"/>
		</g>
		<g>
			<path class="st8" d="M474.6,300.8c-0.5-0.2-0.8-0.5-0.8-1.3v-1h1.7v0.8l0.1,0.1h0.5l0.1-0.1v-1.6l-0.1-0.1h-1v-1.3h1l0.1-0.1
				v-1.5l-0.1-0.1h-0.5l-0.1,0.1v0.8h-1.7v-1c0-0.8,0.4-1.1,0.8-1.3h2.5c0.5,0.2,0.8,0.5,0.8,1.3v1.3c0,0.6-0.2,0.9-0.6,1.2
				c0.4,0.3,0.6,0.6,0.6,1.2v1.4c0,0.8-0.4,1.1-0.8,1.3H474.6z"/>
		</g>
	</g>
	<g>
		<g>
			<circle class="st6" cx="218.5" cy="221.8" r="8.5"/>
			<circle class="st7" cx="218.5" cy="221.8" r="8.5"/>
		</g>
		<g>
			<path class="st8" d="M220.1,224.2v1.5h-1.7v-1.5h-2.2v-1.5l1.6-4.7h1.7l-1.6,4.6h0.5v-0.4l0.4-1h1.3v1.4h0.5v1.6H220.1z"/>
		</g>
	</g>
	<g>
		<g>
			<circle class="st6" cx="156.3" cy="285.8" r="8.5"/>
			<circle class="st7" cx="156.3" cy="285.8" r="8.5"/>
		</g>
		<g>
			<path class="st8" d="M155,289.7c-0.5-0.2-0.8-0.5-0.8-1.3v-1h1.6v0.8l0.1,0.1h0.6l0.1-0.1v-2.1l-0.1-0.1h-0.6l-0.1,0.1v0.4h-1.6
				V282h4v1.5h-2.4v1.6l0.4-0.4h1.3c0.5,0.2,0.8,0.5,0.8,1.3v2.4c0,0.8-0.4,1.1-0.8,1.3H155z"/>
		</g>
	</g>
	<g>
		<g>
			<circle class="st6" cx="103.4" cy="210.9" r="8.5"/>
			<circle class="st7" cx="103.4" cy="210.9" r="8.5"/>
		</g>
		<g>
			<path class="st8" d="M104.6,214.8h-2.5c-0.5-0.2-0.8-0.5-0.8-1.3v-5.1c0-0.8,0.4-1.1,0.8-1.3h2.5c0.5,0.2,0.8,0.5,0.8,1.3v1h-1.7
				v-0.8l-0.1-0.1h-0.5l-0.1,0.1v1.8l0.3-0.3h1.3c0.5,0.2,0.8,0.5,0.8,1.3v2.2C105.4,214.3,105.1,214.6,104.6,214.8z M103.6,213.4
				l0.1-0.1v-1.8l-0.1-0.1h-0.5l-0.1,0.1v1.8l0.1,0.1H103.6z"/>
		</g>
	</g>
	<g>
		<g>
			<circle class="st6" cx="16.7" cy="279.8" r="8.5"/>
			<circle class="st7" cx="16.7" cy="279.8" r="8.5"/>
		</g>
		<g>
			<path class="st8" d="M14.8,283.7l2.1-6.2h-2.4V276h4.1v1.2l-2.1,6.5H14.8z"/>
		</g>
	</g>
	<g>
		<g>
			<circle class="st6" cx="45.9" cy="316.7" r="8.5"/>
			<circle class="st7" cx="45.9" cy="316.7" r="8.5"/>
		</g>
		<g>
			<path class="st8" d="M44.7,320.6c-0.5-0.2-0.8-0.5-0.8-1.3v-1.4c0-0.6,0.2-0.9,0.6-1.2c-0.4-0.3-0.6-0.6-0.6-1.2v-1.3
				c0-0.8,0.4-1.1,0.8-1.3h2.5c0.5,0.2,0.8,0.5,0.8,1.3v1.3c0,0.6-0.2,0.9-0.6,1.2c0.4,0.3,0.6,0.6,0.6,1.2v1.4
				c0,0.8-0.4,1.1-0.8,1.3H44.7z M45.5,315.9l0.1,0.1h0.5l0.1-0.1v-1.5l-0.1-0.1h-0.5l-0.1,0.1V315.9z M46.3,319.1v-1.6l-0.1-0.1
				h-0.5l-0.1,0.1v1.6l0.1,0.1h0.5L46.3,319.1z"/>
		</g>
	</g>
	<g>
		<g>
			<circle class="st6" cx="312.6" cy="331" r="8.5"/>
			<circle class="st7" cx="312.6" cy="331" r="8.5"/>
		</g>
		<g>
			<path class="st8" d="M311.3,334.9c-0.5-0.2-0.8-0.5-0.8-1.3v-1h1.7v0.8l0.1,0.1h0.5l0.1-0.1v-1.8l-0.3,0.3h-1.3
				c-0.5-0.2-0.8-0.5-0.8-1.3v-2.2c0-0.8,0.4-1.1,0.8-1.3h2.5c0.5,0.2,0.8,0.5,0.8,1.3v5.1c0,0.8-0.4,1.1-0.8,1.3H311.3z
				 M312.9,330.6v-1.8l-0.1-0.1h-0.5l-0.1,0.1v1.8l0.1,0.1h0.5L312.9,330.6z"/>
		</g>
	</g>
	<g>
		<g>
			<circle class="st6" cx="439.1" cy="373" r="8.5"/>
			<circle class="st7" cx="439.1" cy="373" r="8.5"/>
		</g>
		<g>
			<path class="st8" d="M435.1,376.8v-1.6h1v-4.5h-0.9v-1.6h2.6v6.1h0.9v1.6H435.1z"/>
			<path class="st8" d="M442.7,376.8h-2.5c-0.5-0.2-0.8-0.5-0.8-1.3v-5.1c0-0.8,0.4-1.1,0.8-1.3h2.5c0.5,0.2,0.8,0.5,0.8,1.3v5.1
				C443.6,376.4,443.2,376.7,442.7,376.8z M441.9,370.7l-0.1-0.1h-0.5l-0.1,0.1v4.7l0.1,0.1h0.5l0.1-0.1V370.7z"/>
		</g>
	</g>
	<g>
		<g>
			<circle class="st6" cx="738.5" cy="239.7" r="8.5"/>
			<circle class="st7" cx="738.5" cy="239.7" r="8.5"/>
		</g>
		<g>
			<path class="st8" d="M734.4,243.6V242h1v-4.5h-0.9v-1.6h2.6v6.1h0.9v1.6H734.4z"/>
			<path class="st8" d="M739.1,243.6V242h1v-4.5h-0.9v-1.6h2.6v6.1h0.9v1.6H739.1z"/>
		</g>
	</g>
	<g>
		<g>
			<circle class="st6" cx="665.3" cy="192.5" r="8.5"/>
			<circle class="st7" cx="665.3" cy="192.5" r="8.5"/>
		</g>
		<g>
			<path class="st8" d="M661.3,196.3v-1.6h1v-4.5h-0.9v-1.6h2.6v6.1h0.9v1.6H661.3z"/>
			<path class="st8" d="M665.6,196.3v-2.6c0-0.6,0.1-1,0.6-1.2l1.9-0.8v-1.6l-0.1-0.1h-0.5l-0.1,0.1v1.1h-1.7V190
				c0-0.8,0.4-1.1,0.8-1.3h2.5c0.5,0.2,0.8,0.5,0.8,1.3v1.9c0,0.6-0.1,0.9-0.6,1.2l-1.9,0.8v0.9h2.4v1.6H665.6z"/>
		</g>
	</g>
	<g>
		<g>
			<circle class="st6" cx="743" cy="197.3" r="8.5"/>
			<circle class="st7" cx="743" cy="197.3" r="8.5"/>
		</g>
		<g>
			<path class="st8" d="M739,201.1v-1.6h1v-4.5h-0.9v-1.6h2.6v6.1h0.9v1.6H739z"/>
			<path class="st8" d="M744.1,201.1c-0.5-0.2-0.8-0.5-0.8-1.3v-1h1.7v0.8l0.1,0.1h0.5l0.1-0.1V198l-0.1-0.1h-1v-1.3h1l0.1-0.1V195
				l-0.1-0.1h-0.5L745,195v0.8h-1.7v-1c0-0.8,0.4-1.1,0.8-1.3h2.5c0.5,0.2,0.8,0.5,0.8,1.3v1.3c0,0.6-0.2,0.9-0.6,1.2
				c0.4,0.3,0.6,0.6,0.6,1.2v1.4c0,0.8-0.4,1.1-0.8,1.3H744.1z"/>
		</g>
	</g>
	<g>
		<g>
			<circle class="st6" cx="775.6" cy="144.8" r="8.5"/>
			<circle class="st7" cx="775.6" cy="144.8" r="8.5"/>
		</g>
		<g>
			<path class="st8" d="M771.6,148.7v-1.6h1v-4.5h-0.9V141h2.6v6.1h0.9v1.6H771.6z"/>
			<path class="st8" d="M779.6,147.2v1.5h-1.7v-1.5h-2.2v-1.5l1.6-4.7h1.7l-1.6,4.6h0.5v-0.4l0.4-1h1.3v1.4h0.5v1.6H779.6z"/>
		</g>
	</g>
	<g>
		<g>
			<circle class="st6" cx="729.6" cy="142.4" r="8.5"/>
			<circle class="st7" cx="729.6" cy="142.4" r="8.5"/>
		</g>
		<g>
			<path class="st8" d="M725.5,146.2v-1.6h1v-4.5h-0.9v-1.6h2.6v6.1h0.9v1.6H725.5z"/>
			<path class="st8" d="M730.7,146.2c-0.5-0.2-0.8-0.5-0.8-1.3v-1h1.6v0.8l0.1,0.1h0.6l0.1-0.1v-2.1l-0.1-0.1h-0.6l-0.1,0.1v0.4
				h-1.6v-4.5h4v1.5h-2.4v1.6l0.4-0.4h1.3c0.5,0.2,0.8,0.5,0.8,1.3v2.4c0,0.8-0.4,1.1-0.8,1.3H730.7z"/>
		</g>
	</g>
	<g>
		<g>
			<circle class="st6" cx="769.4" cy="87.6" r="8.5"/>
			<circle class="st7" cx="769.4" cy="87.6" r="8.5"/>
		</g>
		<g>
			<path class="st8" d="M765.3,91.5v-1.6h1v-4.5h-0.9v-1.6h2.6v6.1h0.9v1.6H765.3z"/>
			<path class="st8" d="M773,91.5h-2.5c-0.5-0.2-0.8-0.5-0.8-1.3v-5.1c0-0.8,0.4-1.1,0.8-1.3h2.5c0.5,0.2,0.8,0.5,0.8,1.3v1h-1.7
				v-0.8l-0.1-0.1h-0.5l-0.1,0.1v1.8l0.3-0.3h1.3c0.5,0.2,0.8,0.5,0.8,1.3v2.2C773.8,91,773.4,91.3,773,91.5z M772,90.1l0.1-0.1
				v-1.8l-0.1-0.1h-0.5l-0.1,0.1V90l0.1,0.1H772z"/>
		</g>
	</g>
	<g>
		<g>
			<circle class="st6" cx="103.2" cy="77.7" r="8.5"/>
			<circle class="st7" cx="103.2" cy="77.7" r="8.5"/>
		</g>
		<g>
			<path class="st8" d="M99.2,81.6V80h1v-4.5h-0.9v-1.6h2.6V80h0.9v1.6H99.2z"/>
			<path class="st8" d="M103.7,81.6l2.1-6.2h-2.4v-1.5h4.1v1.2l-2.1,6.5H103.7z"/>
		</g>
	</g>
	<g>
		<g>
			<circle class="st6" cx="178" cy="137.3" r="8.5"/>
			<circle class="st7" cx="178" cy="137.3" r="8.5"/>
		</g>
		<g>
			<path class="st8" d="M173.9,141.2v-1.6h1v-4.5H174v-1.6h2.6v6.1h0.9v1.6H173.9z"/>
			<path class="st8" d="M179.1,141.2c-0.5-0.2-0.8-0.5-0.8-1.3v-1.4c0-0.6,0.2-0.9,0.6-1.2c-0.4-0.3-0.6-0.6-0.6-1.2v-1.3
				c0-0.8,0.4-1.1,0.8-1.3h2.5c0.5,0.2,0.8,0.5,0.8,1.3v1.3c0,0.6-0.2,0.9-0.6,1.2c0.4,0.3,0.6,0.6,0.6,1.2v1.4
				c0,0.8-0.4,1.1-0.8,1.3H179.1z M179.9,136.6l0.1,0.1h0.5l0.1-0.1v-1.5l-0.1-0.1h-0.5l-0.1,0.1V136.6z M180.7,139.7v-1.6l-0.1-0.1
				h-0.5l-0.1,0.1v1.6l0.1,0.1h0.5L180.7,139.7z"/>
		</g>
	</g>
	<g>
		<g>
			<circle class="st6" cx="258.2" cy="110.7" r="8.5"/>
			<circle class="st7" cx="258.2" cy="110.7" r="8.5"/>
		</g>
		<g>
			<path class="st8" d="M254.2,114.6V113h1v-4.5h-0.9V107h2.6v6.1h0.9v1.6H254.2z"/>
			<path class="st8" d="M259.3,114.6c-0.5-0.2-0.8-0.5-0.8-1.3v-1h1.7v0.8l0.1,0.1h0.5l0.1-0.1v-1.8l-0.3,0.3h-1.3
				c-0.5-0.2-0.8-0.5-0.8-1.3v-2.2c0-0.8,0.4-1.1,0.8-1.3h2.5c0.5,0.2,0.8,0.5,0.8,1.3v5.1c0,0.8-0.4,1.1-0.8,1.3H259.3z
				 M260.9,110.3v-1.8l-0.1-0.1h-0.5l-0.1,0.1v1.8l0.1,0.1h0.5L260.9,110.3z"/>
		</g>
	</g>
</g>

<g id="アイコン">
	<g>
		
			<rect x="341.9" y="90.1" transform="matrix(0.864 0.5035 -0.5035 0.864 92.7739 -160.393)" class="st7" width="2.8" height="2.8"/>
		<rect x="346.8" y="93" transform="matrix(0.864 0.5035 -0.5035 0.864 94.8773 -162.471)" class="st7" width="2.8" height="2.8"/>
		<rect x="342.9" y="94" transform="matrix(0.864 0.5035 -0.5035 0.864 94.8646 -160.3803)" class="st7" width="2.8" height="2.8"/>
		
			<rect x="347.8" y="96.8" transform="matrix(0.864 0.5035 -0.5035 0.864 96.9679 -162.4583)" class="st7" width="2.8" height="2.8"/>
		<rect x="340" y="98.9" transform="matrix(0.864 0.5035 -0.5035 0.864 96.9426 -158.277)" class="st7" width="2.8" height="2.8"/>
		
			<rect x="344.9" y="101.7" transform="matrix(0.864 0.5035 -0.5035 0.864 99.046 -160.355)" class="st7" width="2.8" height="2.8"/>
		
			<rect x="351.7" y="95.8" transform="matrix(0.864 0.5035 -0.5035 0.864 96.9806 -164.549)" class="st7" width="2.8" height="2.8"/>
		<rect x="349.2" y="94.4" transform="matrix(0.864 0.5035 -0.5035 0.864 95.9289 -163.51)" class="st8" width="2.8" height="2.8"/>
		
			<rect x="344.3" y="91.5" transform="matrix(0.864 0.5035 -0.5035 0.864 93.8256 -161.432)" class="st8" width="2.8" height="2.8"/>
		
			<rect x="340.4" y="92.6" transform="matrix(0.864 0.5035 -0.5035 0.864 93.813 -159.3413)" class="st8" width="2.8" height="2.8"/>
		
			<rect x="345.3" y="95.4" transform="matrix(0.864 0.5035 -0.5035 0.864 95.9163 -161.4193)" class="st8" width="2.8" height="2.8"/>
		
			<rect x="350.2" y="98.3" transform="matrix(0.864 0.5035 -0.5035 0.864 98.0196 -163.4974)" class="st8" width="2.8" height="2.8"/>
		
			<rect x="346.4" y="99.3" transform="matrix(0.864 0.5035 -0.5035 0.864 98.007 -161.4067)" class="st8" width="2.8" height="2.8"/>
		
			<rect x="341.5" y="96.4" transform="matrix(0.864 0.5035 -0.5035 0.864 95.9036 -159.3286)" class="st8" width="2.8" height="2.8"/>
		
			<rect x="343.5" y="104.2" transform="matrix(0.864 0.5035 -0.5035 0.864 100.085 -159.3034)" class="st8" width="2.8" height="2.8"/>
		
			<rect x="338.6" y="101.3" transform="matrix(0.864 0.5035 -0.5035 0.864 97.9817 -157.2253)" class="st8" width="2.8" height="2.8"/>
		<rect x="337.6" y="97.5" transform="matrix(0.864 0.5035 -0.5035 0.864 95.891 -157.238)" class="st8" width="2.8" height="2.8"/>
		
			<rect x="342.5" y="100.3" transform="matrix(0.864 0.5035 -0.5035 0.864 97.9943 -159.316)" class="st8" width="2.8" height="2.8"/>
		
			<rect x="347.4" y="103.2" transform="matrix(0.864 0.5035 -0.5035 0.864 100.0976 -161.394)" class="st8" width="2.8" height="2.8"/>
		<rect x="339" y="95" transform="matrix(0.864 0.5035 -0.5035 0.864 94.852 -158.2896)" class="st7" width="2.8" height="2.8"/>
		
			<rect x="343.9" y="97.9" transform="matrix(0.864 0.5035 -0.5035 0.864 96.9553 -160.3677)" class="st7" width="2.8" height="2.8"/>
		
			<rect x="341.1" y="102.8" transform="matrix(0.864 0.5035 -0.5035 0.864 99.0333 -158.2643)" class="st7" width="2.8" height="2.8"/>
		
			<rect x="348.8" y="100.7" transform="matrix(0.864 0.5035 -0.5035 0.864 99.0586 -162.4457)" class="st7" width="2.8" height="2.8"/>
		<rect x="336.2" y="99.9" transform="matrix(0.864 0.5035 -0.5035 0.864 96.93 -156.1863)" class="st7" width="2.8" height="2.8"/>
		
			<rect x="346" y="105.6" transform="matrix(0.864 0.5035 -0.5035 0.864 101.1367 -160.3424)" class="st7" width="2.8" height="2.8"/>
	</g>
	<g>
		<defs>
			
				<rect id="SVGID_1_" x="381.9" y="125.2" transform="matrix(-0.881 -0.4731 0.4731 -0.881 678.0684 429.3868)" width="22.3" height="8.5"/>
		</defs>
		<clipPath id="SVGID_00000009553963277391170180000009818357970464909223_">
			<use xlink:href="#SVGID_1_"  style="overflow:visible;"/>
		</clipPath>
		<g style="clip-path:url(#SVGID_00000009553963277391170180000009818357970464909223_);">
			<polygon class="st14" points="387.6,118.5 390.1,119.8 391.8,128.8 383.4,132.3 380.9,131 389.3,127.4 			"/>
			<polygon class="st15" points="392.6,121.2 395.1,122.5 396.8,131.4 388.4,135 385.9,133.7 394.3,130.1 			"/>
			<polygon class="st16" points="397.6,123.9 400.1,125.2 401.8,134.1 393.4,137.7 390.9,136.3 399.3,132.8 			"/>
		</g>
	</g>
</g>
</svg>
