<?xml version="1.0" encoding="utf-8"?>
<!-- Generator: Adobe Illustrator 26.5.0, SVG Export Plug-In . SVG Version: 6.00 Build 0)  -->
<svg version="1.1" xmlns="http://www.w3.org/2000/svg" xmlns:xlink="http://www.w3.org/1999/xlink" x="0px" y="0px"
	 viewBox="0 0 713.8 348.1" style="enable-background:new 0 0 713.8 348.1;" xml:space="preserve">
<style type="text/css">
	.st0{fill:none;stroke:#646464;stroke-width:14.1732;stroke-linecap:round;stroke-linejoin:round;stroke-miterlimit:10;}
	.st1{fill:none;stroke:#FFD449;stroke-width:2.8346;stroke-miterlimit:10;}
	.st2{fill:none;stroke:#54C6EB;stroke-width:2.8346;stroke-miterlimit:10;}
	.st3{fill:none;stroke:#F4442E;stroke-width:2.8346;stroke-miterlimit:10;}
	.st4{fill:none;stroke:#FFFFFF;stroke-width:2.126;}
	.st5{fill:#646464;}
	.st6{fill:#FFFFFF;}
	.st7{fill:none;stroke:#646464;stroke-width:2.8346;stroke-miterlimit:10;}
	.st8{fill:#FF3380;}
	.st9{fill:none;stroke:#FF3380;stroke-width:1.9843;stroke-miterlimit:10;}
	.st10{fill:#09BC8A;}
	.st11{fill:none;stroke:#09BC8A;stroke-width:1.9843;stroke-miterlimit:10;}
	.st12{fill:none;stroke:#09BC8A;stroke-width:2.2097;stroke-miterlimit:10;}
	.st13{fill:none;stroke:#646464;stroke-width:0.7087;stroke-miterlimit:10;}
	.st14{fill:none;stroke:#F4442E;stroke-width:5.6693;stroke-miterlimit:10;}
	.st15{fill:none;stroke:#54C6EB;stroke-width:5.6693;stroke-miterlimit:10;}
	.st16{fill:none;stroke:#FFD449;stroke-width:5.6693;stroke-miterlimit:10;}
	.st17{fill:none;stroke:#09BC8A;stroke-width:2.8346;stroke-miterlimit:10;}
	.st18{clip-path:url(#SVGID_00000173842315714103309910000014014696480439875724_);}
	.st19{fill:#F4442E;}
	.st20{fill:#54C6EB;}
	.st21{fill:#FFD449;}
</style>
<g id="コース">
	<path class="st0" d="M167.2,123.7c8.6-12.2,23.1-29.3,31.9-38s24.9-25.2,39.5-30.7s14.6-7.6,17.9-10.2c3.2-2.6,4.8-4.2,6.7-5.8
		s4.9-3.7,9.1,0s19,14.8,23.5,18.5c4.5,3.7,14.7,11.9,22,15.9s37.2,22.1,44.2,26.8c7,4.7,15.6,12.6,20.7,15.7
		c12.4,7.5,34.6,13.1,42.6,17.5c8,4.4,32,23.8,38.2,27.7s16.6,7.9,30.1,5.6c15.4-2.6,25.6-16,27.9-30.5c1.2-7.7,0-15.1,0.1-20.1
		c0.1-4.9,2.4-15.4,21.7-18.5c19.3-3.2,79.2-10.8,84.6-11.1s10,0.9,11.3,7.2c1.3,6.4-2.7,10.6-5.9,14.3c-3.2,3.6-6,7.2-6.1,11.1
		c-0.1,3.8-1.2,13.2-3.7,17.8c-2.5,4.6-3.1,8.5,0,10.2s9.3,1.3,9.1-5.7c-0.2-7,0.8-13.1,0.9-15.1s-0.2-8.8,3-10.9
		c3.2-2.1,6.4-3.5,11.3-1.4c4.9,2.1,17.8,8.5,20.9,10.5c3.1,2.1,4.6,3.1,6.8,5.6s1.8,7-0.8,9.1c-2.5,2.1-38.4,32.7-43.2,36.8
		c-4.8,4.1-21.5,15-31.1,19.3c-9.5,4.3-28.5,12.6-39.8,14.6c-11.3,2-24.6,2.7-34.9-0.9c-10.3-3.6-59.5-20.3-65.2-22.4
		s-35.6-17.7-43.7-24.5c-8.1-6.8-23.8-17.8-25.2-19c-1.4-1.2-4.1-1.4-5.3-0.1c-1.2,1.3-2.9,3.3-3.6,4.2c-0.8,0.9-2.5,1.3-4.2,0
		c-1.6-1.3-5.3-4-6.3-5c-1-1.1-1.6-1.8-1.8-4.5s-0.9-4.6-2.2-5.8c-1.3-1.2-83-64.9-84.4-65.9c-1.4-1-4.7-1.8-12.3,0.1
		c-7.6,1.9-18.5,6-22.1,8.2c-3.5,2.2-21.2,10.3-33.9,30.7c-1.1,1.8-0.1,7.4,0.2,10.8c0.3,3.4,0.1,9.2-1.9,11.4
		c-2,2.2-31.7,44.6-32.7,45.9c-1,1.3-3.6,4-7.6,2c-4-2-8.8-4.4-11-0.2c-2.2,4.2-13.1,25.2-15,31.8s-4.7,19.8-3.2,29.4
		c1.5,9.7,3.8,12.5,4.9,15.4c1.1,2.9,1,7.1-0.7,9.8c-1.6,2.6-3.7,4.3-7.7,2.5c-4-1.8-17.3-7.8-27.3-20.1c-2-2.5-2-5.9,2.4-9.1
		s6-8,6.3-13.5s2.6-16.1,5.8-23.7c1.6-3.8,9.2-21.1,18-37.8C155,142.7,165.2,126.7,167.2,123.7z"/>
</g>
<g id="セクター">
	<g>
		<path class="st1" d="M257.1,70.6c-3.4,1.3-6.2,2.6-7.7,3.5c-3.5,2.2-21.2,10.3-33.9,30.7c-1.1,1.8-0.1,7.4,0.2,10.8
			c0.3,3.4,0.1,9.2-1.9,11.4c-2,2.2-31.7,44.6-32.7,45.9c-1,1.3-3.6,4-7.6,2c-4-2-8.8-4.4-11-0.2c-2.2,4.2-13.1,25.2-15,31.8
			s-4.7,19.8-3.2,29.4c1.5,9.7,3.8,12.5,4.9,15.4c1.1,2.9,1,7.1-0.7,9.8c-1.6,2.6-3.7,4.3-7.7,2.5c-4-1.8-17.3-7.8-27.3-20.1
			c-2-2.5-2-5.9,2.4-9.1s6-8,6.3-13.5s2.6-16.1,5.8-23.7c1.6-3.8,9.2-21.1,18-37.8c8.9-16.7,19.1-32.8,21.2-35.7"/>
		<path class="st2" d="M613,88c7.8-1,13.5-1.6,14.9-1.7c5.4-0.3,10,0.9,11.3,7.2c1.3,6.4-2.7,10.6-5.9,14.3c-3.2,3.6-6,7.2-6.1,11.1
			c-0.1,3.8-1.2,13.2-3.7,17.8c-2.5,4.6-3.1,8.5,0,10.2s9.3,1.3,9.1-5.7c-0.2-7,0.8-13.1,0.9-15.1s-0.2-8.8,3-10.9
			c3.2-2.1,6.4-3.5,11.3-1.4c4.9,2.1,17.8,8.5,20.9,10.5c3.1,2.1,4.6,3.1,6.8,5.6s1.8,7-0.8,9.1c-2.5,2.1-38.4,32.7-43.2,36.8
			c-4.8,4.1-21.5,15-31.1,19.3c-9.5,4.3-28.5,12.6-39.8,14.6c-11.3,2-24.6,2.7-34.9-0.9c-10.3-3.6-59.5-20.3-65.2-22.4
			s-35.6-17.7-43.7-24.5c-8.1-6.8-23.8-17.8-25.2-19c-1.4-1.2-4.1-1.4-5.3-0.1c-1.2,1.3-2.9,3.3-3.6,4.2c-0.8,0.9-2.5,1.3-4.2,0
			c-1.6-1.3-5.3-4-6.3-5c-1-1.1-1.6-1.8-1.8-4.5s-0.9-4.6-2.2-5.8c-1.3-1.2-83-64.9-84.4-65.9c-1.4-1-4.7-1.8-12.3,0.1
			c-4.3,1.1-9.8,2.9-14.4,4.7"/>
		<path class="st3" d="M167.2,123.7c8.6-12.2,23.1-29.3,31.9-38s24.9-25.2,39.5-30.7s14.6-7.6,17.9-10.2c3.2-2.6,4.8-4.2,6.7-5.8
			s4.9-3.7,9.1,0s19,14.8,23.5,18.5c4.5,3.7,14.7,11.9,22,15.9s37.2,22.1,44.2,26.8c7,4.7,15.6,12.6,20.7,15.7
			c12.4,7.5,34.6,13.1,42.6,17.5c8,4.4,32,23.8,38.2,27.7s16.6,7.9,30.1,5.6c15.4-2.6,25.6-16,27.9-30.5c1.2-7.7,0-15.1,0.1-20.1
			c0.1-4.9,2.4-15.4,21.7-18.5c14-2.3,49.2-6.9,69.7-9.4"/>
	</g>
</g>
<g id="DRS-ZONES">
  <!-- DRS Zone 1 — visible white for testing (dots run right→left, corrected order) -->
  <path id="drs-1" class="drs-zone"
    fill="none" stroke="#fff" opacity="0"
    d="M106.3,209.2 
		L108.3,203.2 L109.6,199 L111,194.8 L112.4,190.6 L114,186.4 L115.6,182.3 L117.3,178.2 L119,174.1 L120.8,170.1 L122.7,166 L124.6,162 L126.6,158.1 L128.7,154.2 L130.8,150.3 L133,146.4 L135.2,142.5 L137.4,138.7 L139.6,134.9 L141.9,131.1 L144.1,127.2 L146.4,123.5 L148.8,119.7 L151.1,115.9 L153.5,112.2 L155.9,108.5 L158.4,104.8 L161,101.2 L163.6,97.6 L166.4,94.2 L169.3,90.8 L172.3,87.5 L175.2,84.2 L178.2,80.9 L181.2,77.7 L184.2,74.4 L187.2,71.2 L190.3,67.9 L193.3,64.7 L196.4,61.6 L199.6,58.4 L202.8,55.4 L206.2,52.5 L209.8,49.9 L213.6,47.6 L217.4,45.4 L221.3,43.3 L225.3,41.3 L229.2,39.2 L233.1,37.2 L237,35.1 L240.9,33 L244.6,31
		"/>

  <!-- DRS Zone 2 — visible white for testing (dots run right→left, corrected order) -->
  <!-- <path id="drs-2" class="drs-zone"
    fill="none" stroke="#fff" opacity="1"
    d="M88.2,10.5 
		L93.2,10.3 L97.6,10.2 L102,10.1 L106.4,10.1 L110.8,10.1 L115.2,10.2 L119.6,10.4 L124,10.6 L128.4,10.8 L132.8,11.1 L137.2,11.5 L141.5,11.9 L145.9,12.4 L150.3,12.9 L154.7,13.4 L159,14 L163.4,14.7 L167.7,15.4 L172,16.2 L176.4,17 L180.7,17.8 L185,18.7 L189.3,19.7 L193.6,20.6 L197.9,21.5 L202.2,22.5 L206.5,23.5 L210.7,24.5 L215,25.5 L219.3,26.5 L223.6,27.5 L227.9,28.5 L232.1,29.5 L236.4,30.6 L240.7,31.6 L245,32.6 L249.3,33.6 L253.5,34.7 L257.8,35.7 L262.1,36.7 L266.4,37.6 L270.7,38.6 L275,39.4 L279.3,40.1 L283.7,40.7 L288.1,41.2 L292.5,41.7 L296.8,42.1 L301.2,42.6 L305.6,43 L310,43.5 L314.3,43.9 L318.7,44.3 L323.1,44.7 L327.5,45.1 L331.9,45.5 L336.2,45.9 L340.6,46.3 L345,46.6 L349.4,47 L353.8,47.3 L358.2,47.7 L362.5,48 L371.1,48.2
		"/> -->
  
  <!-- DRS Zone 3 — visible white for testing -->
  <!-- <path id="drs-3" class="drs-zone"
    fill="none" stroke="#fff" opacity="1"
    d="M504.9,272.5
		L498.4,274.5 L494,275.6 L489.7,276.6 L485.4,277.7 L481,278.7 L476.7,279.8 L472.4,280.8 L468.1,281.8 L463.7,282.9 L459.4,283.9 L455.1,285 L450.8,286 L446.4,287.1 L442.1,288.1 L437.8,289.2 L433.5,290.2 L429.1,291.2 L424.8,292.3 L420.5,293.3 L416.2,294.4 L411.8,295.4 L407.5,296.5 L403.2,297.5 L398.9,298.6 L394.5,299.6 L390.2,300.6 L385.9,301.6 L381.5,302.6 L377.2,303.6 L372.9,304.6 L368.5,305.6 L364.2,306.6 L359.9,307.6 L355.5,308.7 L351.2,309.7 L346.8,310.7 L342.5,311.7 L338.2,312.7 L333.8,313.7 L329.5,314.7 L325.2,315.7 L320.8,316.7 L316.5,317.7 L312.2,318.8 L307.8,319.8 L303.5,320.8 L299.2,321.8 L294.8,322.8 L290.5,323.8 L286.2,324.8 L281.8,325.8 L277.5,326.8 L273.2,327.8 L264.8,329.8
		"/> -->
</g>
<g id="コーナー番号">
	<g>
		<g>
			<circle class="st4" cx="267.4" cy="16.7" r="8.5"/>
			<circle class="st5" cx="267.4" cy="16.7" r="8.5"/>
		</g>
		<g>
			<path class="st6" d="M265.7,20.5v-1.6h1v-4.5h-0.9v-1.6h2.6v6.1h0.9v1.6H265.7z"/>
		</g>
	</g>
	<g>
		<g>
			<circle class="st4" cx="437.3" cy="116.9" r="8.5"/>
			<circle class="st5" cx="437.3" cy="116.9" r="8.5"/>
		</g>
		<g>
			<path class="st6" d="M435.2,120.8v-2.6c0-0.6,0.1-1,0.6-1.2l1.9-0.8v-1.6l-0.1-0.1H437l-0.1,0.1v1.1h-1.7v-1.3
				c0-0.8,0.4-1.1,0.8-1.3h2.5c0.5,0.2,0.8,0.5,0.8,1.3v1.9c0,0.6-0.1,0.9-0.6,1.2l-1.9,0.8v0.9h2.4v1.6H435.2z"/>
		</g>
	</g>
	<g>
		<g>
			<circle class="st4" cx="512.4" cy="179.5" r="8.5"/>
			<circle class="st5" cx="512.4" cy="179.5" r="8.5"/>
		</g>
		<g>
			<path class="st6" d="M511.1,183.4c-0.5-0.2-0.8-0.5-0.8-1.3v-1h1.7v0.8l0.1,0.1h0.5l0.1-0.1v-1.6l-0.1-0.1h-1v-1.3h1l0.1-0.1
				v-1.5l-0.1-0.1h-0.5l-0.1,0.1v0.8h-1.7v-1c0-0.8,0.4-1.1,0.8-1.3h2.5c0.5,0.2,0.8,0.5,0.8,1.3v1.3c0,0.6-0.2,0.9-0.6,1.2
				c0.4,0.3,0.6,0.6,0.6,1.2v1.4c0,0.8-0.4,1.1-0.8,1.3H511.1z"/>
		</g>
	</g>
	<g>
		<g>
			<circle class="st4" cx="506.6" cy="100.7" r="8.5"/>
			<circle class="st5" cx="506.6" cy="100.7" r="8.5"/>
		</g>
		<g>
			<path class="st6" d="M508.3,103v1.5h-1.7V103h-2.2v-1.5l1.6-4.7h1.7l-1.6,4.6h0.5V101l0.4-1h1.3v1.4h0.5v1.6H508.3z"/>
		</g>
	</g>
	<g>
		<g>
			<circle class="st4" cx="651.8" cy="76" r="8.5"/>
			<circle class="st5" cx="651.8" cy="76" r="8.5"/>
		</g>
		<g>
			<path class="st6" d="M650.5,79.9c-0.5-0.2-0.8-0.5-0.8-1.3v-1h1.6v0.8l0.1,0.1h0.6l0.1-0.1v-2.1l-0.1-0.1h-0.6l-0.1,0.1v0.4h-1.6
				v-4.5h4v1.5h-2.4v1.6l0.4-0.4h1.3c0.5,0.2,0.8,0.5,0.8,1.3v2.4c0,0.8-0.4,1.1-0.8,1.3H650.5z"/>
		</g>
	</g>
	<g>
		<g>
			<circle class="st4" cx="608.6" cy="160" r="8.5"/>
			<circle class="st5" cx="608.6" cy="160" r="8.5"/>
		</g>
		<g>
			<path class="st6" d="M609.8,163.9h-2.5c-0.5-0.2-0.8-0.5-0.8-1.3v-5.1c0-0.8,0.4-1.1,0.8-1.3h2.5c0.5,0.2,0.8,0.5,0.8,1.3v1h-1.7
				v-0.8l-0.1-0.1h-0.5l-0.1,0.1v1.8l0.3-0.3h1.3c0.5,0.2,0.8,0.5,0.8,1.3v2.2C610.6,163.4,610.3,163.7,609.8,163.9z M608.8,162.5
				l0.1-0.1v-1.8l-0.1-0.1h-0.5l-0.1,0.1v1.8l0.1,0.1H608.8z"/>
		</g>
	</g>
	<g>
		<g>
			<circle class="st4" cx="661.2" cy="98.5" r="8.5"/>
			<circle class="st5" cx="661.2" cy="98.5" r="8.5"/>
		</g>
		<g>
			<path class="st6" d="M659.3,102.3l2.1-6.2h-2.4v-1.5h4.1v1.2l-2.1,6.5H659.3z"/>
		</g>
	</g>
	<g>
		<g>
			<circle class="st4" cx="697.2" cy="130.1" r="8.5"/>
			<circle class="st5" cx="697.2" cy="130.1" r="8.5"/>
		</g>
		<g>
			<path class="st6" d="M695.9,133.9c-0.5-0.2-0.8-0.5-0.8-1.3v-1.4c0-0.6,0.2-0.9,0.6-1.2c-0.4-0.3-0.6-0.6-0.6-1.2v-1.3
				c0-0.8,0.4-1.1,0.8-1.3h2.5c0.5,0.2,0.8,0.5,0.8,1.3v1.3c0,0.6-0.2,0.9-0.6,1.2c0.4,0.3,0.6,0.6,0.6,1.2v1.4
				c0,0.8-0.4,1.1-0.8,1.3H695.9z M696.8,129.3l0.1,0.1h0.5l0.1-0.1v-1.5l-0.1-0.1h-0.5l-0.1,0.1V129.3z M697.5,132.5v-1.6l-0.1-0.1
				h-0.5l-0.1,0.1v1.6l0.1,0.1h0.5L697.5,132.5z"/>
		</g>
	</g>
	<g>
		<g>
			<circle class="st4" cx="549.2" cy="233.7" r="8.5"/>
			<circle class="st5" cx="549.2" cy="233.7" r="8.5"/>
		</g>
		<g>
			<path class="st6" d="M548,237.6c-0.5-0.2-0.8-0.5-0.8-1.3v-1h1.7v0.8l0.1,0.1h0.5l0.1-0.1v-1.8l-0.3,0.3H548
				c-0.5-0.2-0.8-0.5-0.8-1.3v-2.2c0-0.8,0.4-1.1,0.8-1.3h2.5c0.5,0.2,0.8,0.5,0.8,1.3v5.1c0,0.8-0.4,1.1-0.8,1.3H548z M549.6,233.2
				v-1.8l-0.1-0.1h-0.5l-0.1,0.1v1.8l0.1,0.1h0.5L549.6,233.2z"/>
		</g>
	</g>
	<g>
		<g>
			<circle class="st4" cx="391.8" cy="167" r="8.5"/>
			<circle class="st5" cx="391.8" cy="167" r="8.5"/>
		</g>
		<g>
			<path class="st6" d="M387.8,170.8v-1.6h1v-4.5h-0.9v-1.6h2.6v6.1h0.9v1.6H387.8z"/>
			<path class="st6" d="M395.4,170.8h-2.5c-0.5-0.2-0.8-0.5-0.8-1.3v-5.1c0-0.8,0.4-1.1,0.8-1.3h2.5c0.5,0.2,0.8,0.5,0.8,1.3v5.1
				C396.2,170.4,395.9,170.7,395.4,170.8z M394.5,164.7l-0.1-0.1h-0.5l-0.1,0.1v4.7l0.1,0.1h0.5l0.1-0.1V164.7z"/>
		</g>
	</g>
	<g>
		<g>
			<circle class="st4" cx="361.1" cy="159.3" r="8.5"/>
			<circle class="st5" cx="361.1" cy="159.3" r="8.5"/>
		</g>
		<g>
			<path class="st6" d="M357,163.2v-1.6h1v-4.5h-0.9v-1.6h2.6v6.1h0.9v1.6H357z"/>
			<path class="st6" d="M361.7,163.2v-1.6h1v-4.5h-0.9v-1.6h2.6v6.1h0.9v1.6H361.7z"/>
		</g>
	</g>
	<g>
		<g>
			<circle class="st4" cx="276.8" cy="85.9" r="8.5"/>
			<circle class="st5" cx="276.8" cy="85.9" r="8.5"/>
		</g>
		<g>
			<path class="st6" d="M272.7,89.8v-1.6h1v-4.5h-0.9v-1.6h2.6v6.1h0.9v1.6H272.7z"/>
			<path class="st6" d="M277.1,89.8v-2.6c0-0.6,0.1-1,0.6-1.2l1.9-0.8v-1.6l-0.1-0.1h-0.5l-0.1,0.1v1.1h-1.7v-1.3
				c0-0.8,0.4-1.1,0.8-1.3h2.5c0.5,0.2,0.8,0.5,0.8,1.3v1.9c0,0.6-0.1,0.9-0.6,1.2l-1.9,0.8v0.9h2.4v1.6H277.1z"/>
		</g>
	</g>
	<g>
		<g>
			<circle class="st4" cx="237.8" cy="108.4" r="8.5"/>
			<circle class="st5" cx="237.8" cy="108.4" r="8.5"/>
		</g>
		<g>
			<path class="st6" d="M233.8,112.3v-1.6h1v-4.5h-0.9v-1.6h2.6v6.1h0.9v1.6H233.8z"/>
			<path class="st6" d="M238.9,112.3c-0.5-0.2-0.8-0.5-0.8-1.3v-1h1.7v0.8l0.1,0.1h0.5l0.1-0.1v-1.6l-0.1-0.1h-1v-1.3h1l0.1-0.1
				v-1.5l-0.1-0.1h-0.5l-0.1,0.1v0.8h-1.7v-1c0-0.8,0.4-1.1,0.8-1.3h2.5c0.5,0.2,0.8,0.5,0.8,1.3v1.3c0,0.6-0.2,0.9-0.6,1.2
				c0.4,0.3,0.6,0.6,0.6,1.2v1.4c0,0.8-0.4,1.1-0.8,1.3H238.9z"/>
		</g>
	</g>
	<g>
		<g>
			<circle class="st4" cx="234.1" cy="134.9" r="8.5"/>
			<circle class="st5" cx="234.1" cy="134.9" r="8.5"/>
		</g>
		<g>
			<path class="st6" d="M230.1,138.8v-1.6h1v-4.5h-0.9v-1.6h2.6v6.1h0.9v1.6H230.1z"/>
			<path class="st6" d="M238.1,137.3v1.5h-1.7v-1.5h-2.2v-1.5l1.6-4.7h1.7l-1.6,4.6h0.5v-0.4l0.4-1h1.3v1.4h0.5v1.6H238.1z"/>
		</g>
	</g>
	<g>
		<g>
			<circle class="st4" cx="160.5" cy="280.7" r="8.5"/>
			<circle class="st5" cx="160.5" cy="280.7" r="8.5"/>
		</g>
		<g>
			<path class="st6" d="M156.5,284.5v-1.6h1v-4.5h-0.9v-1.6h2.6v6.1h0.9v1.6H156.5z"/>
			<path class="st6" d="M161.6,284.5c-0.5-0.2-0.8-0.5-0.8-1.3v-1.4c0-0.6,0.2-0.9,0.6-1.2c-0.4-0.3-0.6-0.6-0.6-1.2v-1.3
				c0-0.8,0.4-1.1,0.8-1.3h2.5c0.5,0.2,0.8,0.5,0.8,1.3v1.3c0,0.6-0.2,0.9-0.6,1.2c0.4,0.3,0.6,0.6,0.6,1.2v1.4
				c0,0.8-0.4,1.1-0.8,1.3H161.6z M162.5,279.9l0.1,0.1h0.5l0.1-0.1v-1.5l-0.1-0.1h-0.5l-0.1,0.1V279.9z M163.2,283.1v-1.6l-0.1-0.1
				h-0.5l-0.1,0.1v1.6l0.1,0.1h0.5L163.2,283.1z"/>
		</g>
	</g>
	<g>
		<g>
			<circle class="st4" cx="92.6" cy="246.4" r="8.5"/>
			<circle class="st5" cx="92.6" cy="246.4" r="8.5"/>
		</g>
		<g>
			<path class="st6" d="M88.5,250.3v-1.6h1v-4.5h-0.9v-1.6h2.6v6.1H92v1.6H88.5z"/>
			<path class="st6" d="M93.7,250.3c-0.5-0.2-0.8-0.5-0.8-1.3v-1h1.7v0.8l0.1,0.1h0.5l0.1-0.1V247l-0.3,0.3h-1.3
				c-0.5-0.2-0.8-0.5-0.8-1.3v-2.2c0-0.8,0.4-1.1,0.8-1.3h2.5c0.5,0.2,0.8,0.5,0.8,1.3v5.1c0,0.8-0.4,1.1-0.8,1.3H93.7z M95.3,245.9
				v-1.8l-0.1-0.1h-0.5l-0.1,0.1v1.8l0.1,0.1h0.5L95.3,245.9z"/>
		</g>
	</g>
	<g>
		<g>
			<circle class="st4" cx="195.3" cy="186.8" r="8.5"/>
			<circle class="st5" cx="195.3" cy="186.8" r="8.5"/>
		</g>
		<g>
			<path class="st6" d="M191.3,190.7v-1.6h1v-4.5h-0.9V183h2.6v6.1h0.9v1.6H191.3z"/>
			<path class="st6" d="M196.4,190.7c-0.5-0.2-0.8-0.5-0.8-1.3v-1h1.6v0.8l0.1,0.1h0.6l0.1-0.1v-2.1l-0.1-0.1h-0.6l-0.1,0.1v0.4
				h-1.6V183h4v1.5h-2.4v1.6l0.4-0.4h1.3c0.5,0.2,0.8,0.5,0.8,1.3v2.4c0,0.8-0.4,1.1-0.8,1.3H196.4z"/>
		</g>
	</g>
	<g>
		<g>
			<circle class="st4" cx="173.9" cy="195.3" r="8.5"/>
			<circle class="st5" cx="173.9" cy="195.3" r="8.5"/>
		</g>
		<g>
			<path class="st6" d="M169.9,199.2v-1.6h1v-4.5H170v-1.6h2.6v6.1h0.9v1.6H169.9z"/>
			<path class="st6" d="M177.5,199.2H175c-0.5-0.2-0.8-0.5-0.8-1.3v-5.1c0-0.8,0.4-1.1,0.8-1.3h2.5c0.5,0.2,0.8,0.5,0.8,1.3v1h-1.7
				V193l-0.1-0.1H176l-0.1,0.1v1.8l0.3-0.3h1.3c0.5,0.2,0.8,0.5,0.8,1.3v2.2C178.3,198.7,178,199,177.5,199.2z M176.5,197.8l0.1-0.1
				v-1.8l-0.1-0.1H176l-0.1,0.1v1.8l0.1,0.1H176.5z"/>
		</g>
	</g>
	<g>
		<g>
			<circle class="st4" cx="166.3" cy="221.7" r="8.5"/>
			<circle class="st5" cx="166.3" cy="221.7" r="8.5"/>
		</g>
		<g>
			<path class="st6" d="M162.3,225.6V224h1v-4.5h-0.9v-1.6h2.6v6.1h0.9v1.6H162.3z"/>
			<path class="st6" d="M166.8,225.6l2.1-6.2h-2.4v-1.5h4.1v1.2l-2.1,6.5H166.8z"/>
		</g>
	</g>
</g>
<g id="DRS">

	<g>
		<g>
			<g>
				<g>
					<line class="st12" x1="101.3" y1="207.2" x2="112.6" y2="210"/>
				</g>
				<g>
					<path class="st10" d="M108.3,203.2c0.6,0.2,0.9,0.8,0.8,1.4s-0.8,0.9-1.4,0.8s-0.9-0.8-0.8-1.4
						C107.2,203.4,107.8,203.1,108.3,203.2z"/>
				</g>
				<g>
					<path class="st10" d="M109.6,199c0.6,0.2,0.9,0.8,0.7,1.4c-0.2,0.6-0.8,0.9-1.4,0.7c-0.6-0.2-0.9-0.8-0.7-1.4
						C108.4,199.1,109,198.8,109.6,199z"/>
				</g>
				<g>
					<path class="st10" d="M111,194.8c0.6,0.2,0.9,0.8,0.7,1.4c-0.2,0.6-0.8,0.9-1.4,0.7c-0.6-0.2-0.9-0.8-0.7-1.4
						C109.8,194.9,110.4,194.6,111,194.8z"/>
				</g>
				<g>
					<path class="st10" d="M112.4,190.6c0.6,0.2,0.9,0.8,0.7,1.4c-0.2,0.6-0.8,0.9-1.4,0.7c-0.6-0.2-0.9-0.8-0.7-1.4
						C111.2,190.7,111.9,190.4,112.4,190.6z"/>
				</g>
				<g>
					<path class="st10" d="M114,186.4c0.6,0.2,0.9,0.9,0.6,1.4c-0.2,0.6-0.9,0.9-1.4,0.7c-0.6-0.2-0.9-0.8-0.6-1.4
						C112.8,186.5,113.4,186.2,114,186.4z"/>
				</g>
				<g>
					<path class="st10" d="M115.6,182.3c0.6,0.2,0.8,0.9,0.6,1.4s-0.9,0.8-1.4,0.6c-0.6-0.2-0.8-0.9-0.6-1.4S115,182.1,115.6,182.3z
						"/>
				</g>
				<g>
					<path class="st10" d="M117.3,178.2c0.6,0.2,0.8,0.9,0.6,1.4c-0.2,0.6-0.9,0.8-1.4,0.6c-0.6-0.2-0.8-0.9-0.6-1.4
						S116.7,177.9,117.3,178.2z"/>
				</g>
				<g>
					<path class="st10" d="M119,174.1c0.6,0.2,0.8,0.9,0.6,1.5c-0.2,0.6-0.9,0.8-1.4,0.6s-0.8-0.9-0.6-1.5
						C117.8,174.1,118.4,173.9,119,174.1z"/>
				</g>
				<g>
					<path class="st10" d="M120.8,170.1c0.6,0.3,0.8,0.9,0.5,1.5c-0.3,0.6-0.9,0.8-1.5,0.6c-0.6-0.2-0.8-0.9-0.6-1.5
						C119.6,170.1,120.2,169.8,120.8,170.1z"/>
				</g>
				<g>
					<path class="st10" d="M122.7,166c0.6,0.3,0.8,0.9,0.5,1.5c-0.3,0.6-0.9,0.8-1.5,0.5c-0.6-0.3-0.8-0.9-0.5-1.5
						C121.5,166,122.1,165.8,122.7,166z"/>
				</g>
				<g>
					<path class="st10" d="M124.6,162c0.5,0.3,0.8,0.9,0.5,1.5c-0.3,0.5-0.9,0.8-1.5,0.5c-0.5-0.3-0.8-0.9-0.5-1.5
						C123.4,162,124,161.8,124.6,162z"/>
				</g>
				<g>
					<path class="st10" d="M126.6,158.1c0.5,0.3,0.8,0.9,0.5,1.5c-0.3,0.5-0.9,0.8-1.5,0.5c-0.5-0.3-0.8-0.9-0.5-1.5
						C125.4,158,126,157.8,126.6,158.1z"/>
				</g>
				<g>
					<path class="st10" d="M128.7,154.2c0.5,0.3,0.7,1,0.4,1.5c-0.3,0.5-1,0.7-1.5,0.5c-0.5-0.3-0.7-1-0.5-1.5
						C127.5,154.1,128.1,153.9,128.7,154.2z"/>
				</g>
				<g>
					<path class="st10" d="M130.8,150.3c0.5,0.3,0.7,1,0.4,1.5c-0.3,0.5-1,0.7-1.5,0.4c-0.5-0.3-0.7-1-0.4-1.5
						S130.3,150,130.8,150.3z"/>
				</g>
				<g>
					<path class="st10" d="M133,146.4c0.5,0.3,0.7,1,0.4,1.5c-0.3,0.5-1,0.7-1.5,0.4c-0.5-0.3-0.7-1-0.4-1.5
						C131.8,146.3,132.4,146.1,133,146.4z"/>
				</g>
				<g>
					<path class="st10" d="M135.2,142.5c0.5,0.3,0.7,1,0.4,1.5s-1,0.7-1.5,0.4c-0.5-0.3-0.7-1-0.4-1.5
						C134,142.4,134.6,142.2,135.2,142.5z"/>
				</g>
				<g>
					<path class="st10" d="M137.4,138.7c0.5,0.3,0.7,1,0.4,1.5c-0.3,0.5-1,0.7-1.5,0.4c-0.5-0.3-0.7-1-0.4-1.5
						C136.2,138.6,136.8,138.4,137.4,138.7z"/>
				</g>
				<g>
					<path class="st10" d="M139.6,134.9c0.5,0.3,0.7,1,0.4,1.5c-0.3,0.5-1,0.7-1.5,0.4c-0.5-0.3-0.7-1-0.4-1.5
						C138.4,134.7,139.1,134.6,139.6,134.9z"/>
				</g>
				<g>
					<path class="st10" d="M141.9,131.1c0.5,0.3,0.7,1,0.4,1.5c-0.3,0.5-1,0.7-1.5,0.4c-0.5-0.3-0.7-1-0.4-1.5
						C140.6,130.9,141.3,130.7,141.9,131.1z"/>
				</g>
				<g>
					<path class="st10" d="M144.1,127.2c0.5,0.3,0.7,1,0.4,1.5s-1,0.7-1.5,0.4s-0.7-1-0.4-1.5C142.9,127.1,143.6,126.9,144.1,127.2z
						"/>
				</g>
				<g>
					<path class="st10" d="M146.4,123.5c0.5,0.3,0.7,1,0.4,1.5c-0.3,0.5-1,0.7-1.5,0.4c-0.5-0.3-0.7-1-0.4-1.5
						S145.9,123.1,146.4,123.5z"/>
				</g>
				<g>
					<path class="st10" d="M148.8,119.7c0.5,0.3,0.7,1,0.4,1.5c-0.3,0.5-1,0.7-1.5,0.4c-0.5-0.3-0.7-1-0.4-1.5
						C147.6,119.5,148.2,119.4,148.8,119.7z"/>
				</g>
				<g>
					<path class="st10" d="M151.1,115.9c0.5,0.3,0.7,1,0.3,1.5c-0.3,0.5-1,0.7-1.5,0.4c-0.5-0.3-0.7-1-0.3-1.5
						C149.9,115.7,150.6,115.6,151.1,115.9z"/>
				</g>
				<g>
					<path class="st10" d="M153.5,112.2c0.5,0.3,0.7,1,0.3,1.5s-1,0.7-1.5,0.3s-0.7-1-0.3-1.5C152.3,112,153,111.9,153.5,112.2z"/>
				</g>
				<g>
					<path class="st10" d="M155.9,108.5c0.5,0.3,0.6,1,0.3,1.5s-1,0.7-1.5,0.3c-0.5-0.3-0.6-1-0.3-1.5
						C154.8,108.3,155.4,108.1,155.9,108.5z"/>
				</g>
				<g>
					<path class="st10" d="M158.4,104.8c0.5,0.3,0.6,1,0.3,1.5c-0.3,0.5-1,0.6-1.5,0.3c-0.5-0.3-0.6-1-0.3-1.5
						C157.2,104.6,157.9,104.5,158.4,104.8z"/>
				</g>
				<g>
					<path class="st10" d="M161,101.2c0.5,0.4,0.6,1,0.3,1.5s-1,0.6-1.5,0.3c-0.5-0.3-0.6-1-0.3-1.5S160.5,100.8,161,101.2z"/>
				</g>
				<g>
					<path class="st10" d="M163.6,97.6c0.5,0.4,0.6,1.1,0.2,1.5c-0.4,0.5-1.1,0.6-1.6,0.2c-0.5-0.4-0.6-1.1-0.2-1.5
						C162.4,97.3,163.1,97.2,163.6,97.6z"/>
				</g>
				<g>
					<path class="st10" d="M166.4,94.2c0.5,0.4,0.5,1.1,0.1,1.6c-0.4,0.5-1.1,0.5-1.6,0.1c-0.5-0.4-0.5-1.1-0.1-1.6
						C165.2,93.8,165.9,93.8,166.4,94.2z"/>
				</g>
				<g>
					<path class="st10" d="M169.3,90.8c0.5,0.4,0.5,1.1,0.1,1.6c-0.4,0.5-1.1,0.5-1.6,0.1c-0.5-0.4-0.5-1.1-0.1-1.6
						C168.1,90.5,168.8,90.4,169.3,90.8z"/>
				</g>
				<g>
					<path class="st10" d="M172.3,87.5c0.5,0.4,0.5,1.1,0.1,1.6c-0.4,0.5-1.1,0.5-1.6,0.1s-0.5-1.1-0.1-1.6
						C171.1,87.1,171.8,87.1,172.3,87.5z"/>
				</g>
				<g>
					<path class="st10" d="M175.2,84.2c0.5,0.4,0.5,1.1,0.1,1.6c-0.4,0.5-1.1,0.5-1.6,0.1c-0.5-0.4-0.5-1.1-0.1-1.6
						C174.1,83.8,174.8,83.8,175.2,84.2z"/>
				</g>
				<g>
					<path class="st10" d="M178.2,80.9c0.5,0.4,0.5,1.1,0.1,1.6c-0.4,0.5-1.1,0.5-1.6,0.1c-0.5-0.4-0.5-1.1-0.1-1.6
						C177.1,80.6,177.8,80.5,178.2,80.9z"/>
				</g>
				<g>
					<path class="st10" d="M181.2,77.7c0.4,0.4,0.5,1.1,0.1,1.6c-0.4,0.5-1.1,0.5-1.6,0.1s-0.5-1.1-0.1-1.6
						C180.1,77.3,180.8,77.2,181.2,77.7z"/>
				</g>
				<g>
					<path class="st10" d="M184.2,74.4c0.4,0.4,0.5,1.1,0.1,1.6c-0.4,0.4-1.1,0.5-1.6,0.1c-0.4-0.4-0.5-1.1-0.1-1.6
						C183.1,74,183.8,74,184.2,74.4z"/>
				</g>
				<g>
					<path class="st10" d="M187.2,71.2c0.4,0.4,0.5,1.1,0,1.6c-0.4,0.4-1.1,0.5-1.6,0.1c-0.4-0.4-0.5-1.1-0.1-1.6
						C186.1,70.8,186.8,70.7,187.2,71.2z"/>
				</g>
				<g>
					<path class="st10" d="M190.3,67.9c0.4,0.4,0.5,1.1,0,1.6c-0.4,0.4-1.1,0.5-1.6,0c-0.4-0.4-0.5-1.1,0-1.6
						C189.1,67.5,189.8,67.5,190.3,67.9z"/>
				</g>
				<g>
					<path class="st10" d="M193.3,64.7c0.4,0.4,0.4,1.1,0,1.6c-0.4,0.4-1.1,0.5-1.6,0c-0.4-0.4-0.5-1.1,0-1.6
						C192.2,64.3,192.9,64.3,193.3,64.7z"/>
				</g>
				<g>
					<path class="st10" d="M196.4,61.6c0.4,0.4,0.4,1.1,0,1.6c-0.4,0.4-1.1,0.4-1.6,0c-0.4-0.4-0.4-1.1,0-1.6
						C195.3,61.1,196,61.1,196.4,61.6z"/>
				</g>
				<g>
					<path class="st10" d="M199.6,58.4c0.4,0.4,0.4,1.1,0,1.6c-0.4,0.4-1.1,0.4-1.6,0s-0.4-1.1,0-1.6C198.5,58,199.2,58,199.6,58.4z
						"/>
				</g>
				<g>
					<path class="st10" d="M202.8,55.4c0.4,0.5,0.4,1.1-0.1,1.6c-0.4,0.4-1.1,0.4-1.6,0c-0.4-0.4-0.4-1.1,0-1.6
						C201.7,54.9,202.4,54.9,202.8,55.4z"/>
				</g>
				<g>
					<path class="st10" d="M206.2,52.5c0.4,0.5,0.3,1.1-0.1,1.5c-0.5,0.4-1.1,0.3-1.5-0.1c-0.4-0.5-0.3-1.2,0.1-1.6
						C205.1,51.9,205.8,52,206.2,52.5z"/>
				</g>
				<g>
					<path class="st10" d="M209.8,49.9c0.3,0.5,0.2,1.2-0.3,1.5c-0.5,0.3-1.2,0.2-1.5-0.3c-0.3-0.5-0.2-1.2,0.3-1.5
						C208.8,49.3,209.5,49.4,209.8,49.9z"/>
				</g>
				<g>
					<path class="st10" d="M213.6,47.6c0.3,0.5,0.1,1.2-0.4,1.5c-0.5,0.3-1.2,0.1-1.5-0.4c-0.3-0.5-0.1-1.2,0.4-1.5
						C212.6,46.9,213.3,47.1,213.6,47.6z"/>
				</g>
				<g>
					<path class="st10" d="M217.4,45.4c0.3,0.5,0.1,1.2-0.4,1.5c-0.5,0.3-1.2,0.1-1.5-0.4c-0.3-0.5-0.1-1.2,0.4-1.5
						C216.5,44.7,217.1,44.9,217.4,45.4z"/>
				</g>
				<g>
					<path class="st10" d="M221.3,43.3c0.3,0.5,0.1,1.2-0.5,1.5c-0.5,0.3-1.2,0.1-1.5-0.4c-0.3-0.5-0.1-1.2,0.5-1.5
						C220.4,42.6,221,42.8,221.3,43.3z"/>
				</g>
				<g>
					<path class="st10" d="M225.3,41.3c0.3,0.5,0.1,1.2-0.5,1.5c-0.5,0.3-1.2,0.1-1.5-0.5c-0.3-0.5-0.1-1.2,0.5-1.5
						C224.3,40.5,225,40.7,225.3,41.3z"/>
				</g>
				<g>
					<path class="st10" d="M229.2,39.2c0.3,0.5,0.1,1.2-0.5,1.5c-0.5,0.3-1.2,0.1-1.5-0.5c-0.3-0.5-0.1-1.2,0.5-1.5
						C228.3,38.5,228.9,38.7,229.2,39.2z"/>
				</g>
				<g>
					<path class="st10" d="M233.1,37.2c0.3,0.5,0.1,1.2-0.5,1.5c-0.5,0.3-1.2,0.1-1.5-0.5c-0.3-0.5-0.1-1.2,0.5-1.5
						C232.2,36.5,232.9,36.7,233.1,37.2z"/>
				</g>
				<g>
					<path class="st10" d="M237,35.1c0.3,0.5,0.1,1.2-0.5,1.5c-0.5,0.3-1.2,0.1-1.5-0.5c-0.3-0.5-0.1-1.2,0.5-1.5
						C236.1,34.4,236.8,34.6,237,35.1z"/>
				</g>
				<g>
					<path class="st10" d="M240.9,33c0.3,0.5,0.1,1.2-0.5,1.5c-0.5,0.3-1.2,0.1-1.5-0.4c-0.3-0.5-0.1-1.2,0.5-1.5
						C240,32.3,240.7,32.5,240.9,33z"/>
				</g>
				<g>
					<line class="st12" x1="241.1" y1="26.3" x2="246.6" y2="36.5"/>
				</g>
			</g>
		</g>
	</g>
</g>
<g id="アイコン">
	<g>
		
			<rect x="132.8" y="106" transform="matrix(0.5767 -0.8169 0.8169 0.5767 -30.9158 155.0689)" class="st5" width="2.8" height="2.8"/>
		
			<rect x="136" y="101.3" transform="matrix(0.5767 -0.8169 0.8169 0.5767 -25.7484 155.7797)" class="st5" width="2.8" height="2.8"/>
		
			<rect x="136.7" y="105.3" transform="matrix(0.5767 -0.8169 0.8169 0.5767 -28.6876 158.008)" class="st5" width="2.8" height="2.8"/>
		
			<rect x="140" y="100.6" transform="matrix(0.5767 -0.8169 0.8169 0.5767 -23.5201 158.7189)" class="st5" width="2.8" height="2.8"/>
		
			<rect x="141.4" y="108.5" transform="matrix(0.5767 -0.8169 0.8169 0.5767 -29.3984 163.1755)" class="st5" width="2.8" height="2.8"/>
		
			<rect x="144.6" y="103.9" transform="matrix(0.5767 -0.8169 0.8169 0.5767 -24.231 163.8863)" class="st5" width="2.8" height="2.8"/>
		
			<rect x="139.3" y="96.7" transform="matrix(0.5767 -0.8169 0.8169 0.5767 -20.581 156.4906)" class="st5" width="2.8" height="2.8"/>
		
			<rect x="137.7" y="99" transform="matrix(0.5767 -0.8169 0.8169 0.5767 -23.1647 156.1351)" class="st6" width="2.8" height="2.8"/>
		
			<rect x="134.4" y="103.6" transform="matrix(0.5767 -0.8169 0.8169 0.5767 -28.3321 155.4243)" class="st6" width="2.8" height="2.8"/>
		
			<rect x="135.1" y="107.6" transform="matrix(0.5767 -0.8169 0.8169 0.5767 -31.2713 157.6526)" class="st6" width="2.8" height="2.8"/>
		
			<rect x="138.4" y="103" transform="matrix(0.5767 -0.8169 0.8169 0.5767 -26.1038 158.3634)" class="st6" width="2.8" height="2.8"/>
		
			<rect x="141.6" y="98.3" transform="matrix(0.5767 -0.8169 0.8169 0.5767 -20.9364 159.0743)" class="st6" width="2.8" height="2.8"/>
		
			<rect x="142.3" y="102.3" transform="matrix(0.5767 -0.8169 0.8169 0.5767 -23.8755 161.3026)" class="st6" width="2.8" height="2.8"/>
		
			<rect x="139" y="106.9" transform="matrix(0.5767 -0.8169 0.8169 0.5767 -29.043 160.5917)" class="st6" width="2.8" height="2.8"/>
		
			<rect x="146.9" y="105.5" transform="matrix(0.5767 -0.8169 0.8169 0.5767 -24.5864 166.47)" class="st6" width="2.8" height="2.8"/>
		
			<rect x="143.7" y="110.2" transform="matrix(0.5767 -0.8169 0.8169 0.5767 -29.7538 165.7592)" class="st6" width="2.8" height="2.8"/>
		
			<rect x="139.7" y="110.9" transform="matrix(0.5767 -0.8169 0.8169 0.5767 -31.9821 162.82)" class="st6" width="2.8" height="2.8"/>
		
			<rect x="143" y="106.2" transform="matrix(0.5767 -0.8169 0.8169 0.5767 -26.8147 163.5309)" class="st6" width="2.8" height="2.8"/>
		
			<rect x="146.3" y="101.6" transform="matrix(0.5767 -0.8169 0.8169 0.5767 -21.6472 164.2417)" class="st6" width="2.8" height="2.8"/>
		
			<rect x="137.4" y="109.2" transform="matrix(0.5767 -0.8169 0.8169 0.5767 -31.6267 160.2363)" class="st5" width="2.8" height="2.8"/>
		
			<rect x="140.7" y="104.6" transform="matrix(0.5767 -0.8169 0.8169 0.5767 -26.4593 160.9472)" class="st5" width="2.8" height="2.8"/>
		
			<rect x="145.3" y="107.9" transform="matrix(0.5767 -0.8169 0.8169 0.5767 -27.1701 166.1146)" class="st5" width="2.8" height="2.8"/>
		
			<rect x="143.9" y="100" transform="matrix(0.5767 -0.8169 0.8169 0.5767 -21.2918 161.658)" class="st5" width="2.8" height="2.8"/>
		
			<rect x="142" y="112.5" transform="matrix(0.5767 -0.8169 0.8169 0.5767 -32.3375 165.4037)" class="st5" width="2.8" height="2.8"/>
		
			<rect x="148.6" y="103.2" transform="matrix(0.5767 -0.8169 0.8169 0.5767 -22.0027 166.8254)" class="st5" width="2.8" height="2.8"/>
	</g>
	<g>
		<defs>
			
				<rect id="SVGID_1_" x="162.8" y="64.3" transform="matrix(-0.7118 0.7023 -0.7023 -0.7118 345.8402 -4.8023)" width="22.3" height="8.5"/>
		</defs>
		<clipPath id="SVGID_00000098203211854091470380000003617357455303998617_">
			<use xlink:href="#SVGID_1_"  style="overflow:visible;"/>
		</clipPath>
		<g style="clip-path:url(#SVGID_00000098203211854091470380000003617357455303998617_);">
			<polygon class="st19" points="161.9,70.5 163.9,68.5 172.9,69.5 173.8,78.6 171.8,80.6 170.9,71.5 			"/>
			<polygon class="st20" points="165.9,66.5 167.9,64.5 176.9,65.6 177.9,74.6 175.9,76.6 174.9,67.6 			"/>
			<polygon class="st21" points="169.9,62.5 172,60.5 181,61.6 181.9,70.6 179.9,72.6 178.9,63.6 			"/>
		</g>
	</g>
</g>
</svg>
