<?xml version="1.0" encoding="utf-8"?>
<!-- Generator: Adobe Illustrator 26.5.0, SVG Export Plug-In . SVG Version: 6.00 Build 0)  -->
<svg version="1.1" xmlns="http://www.w3.org/2000/svg" xmlns:xlink="http://www.w3.org/1999/xlink" x="0px" y="0px"
	 viewBox="0 0 542.6 426" style="enable-background:new 0 0 542.6 426;" xml:space="preserve">
<style type="text/css">
	.st0{fill:none;stroke:#646464;stroke-width:14.1732;stroke-miterlimit:10;}
	.st1{fill:none;stroke:#FFD449;stroke-width:2.8346;stroke-miterlimit:10;}
	.st2{fill:none;stroke:#54C6EB;stroke-width:2.8346;stroke-miterlimit:10;}
	.st3{fill:none;stroke:#F4442E;stroke-width:2.8346;stroke-miterlimit:10;}
	.st4{fill:none;stroke:#FFFFFF;stroke-width:2.126;}
	.st5{fill:#646464;}
	.st6{fill:#FFFFFF;}
	.st7{fill:#09BC8A;}
	.st8{fill:none;stroke:#646464;stroke-width:2.8346;stroke-miterlimit:10;}
	.st9{fill:none;stroke:#09BC8A;stroke-width:1.9843;stroke-miterlimit:10;}
	.st10{fill:none;stroke:#09BC8A;stroke-width:2.2097;stroke-miterlimit:10;}
	.st11{fill:#FF3380;}
	.st12{fill:none;stroke:#FF3380;stroke-width:1.9843;stroke-miterlimit:10;}
	.st13{fill:none;stroke:#F4442E;stroke-width:5.6693;stroke-miterlimit:10;}
	.st14{fill:none;stroke:#54C6EB;stroke-width:5.6693;stroke-miterlimit:10;}
	.st15{fill:none;stroke:#FFD449;stroke-width:5.6693;stroke-miterlimit:10;}
	.st16{fill:none;stroke:#09BC8A;stroke-width:2.8346;stroke-miterlimit:10;}
	.st17{clip-path:url(#SVGID_00000134928329574283131310000010177239999361058203_);}
	.st18{fill:#F4442E;}
	.st19{fill:#54C6EB;}
	.st20{fill:#FFD449;}
</style>
<g id="コース">
	<path class="st0" d="M358.2,311.5c0,0-154.3-140.7-160.5-146c-6.2-5.3-10.1-2.2-12.2-0.9s-12.6,7.4-14.3,8s-5.4,0.8-8.6-0.3
		c-3.2-1-9.5-5.6-14.5-8.9c-5-3.3-8.5-6.4-11.6-10.3c-3-3.9-17.1-18.8-24.5-24.2s-28.4-18.2-34.9-21.5S59.7,95.7,57.2,93.1
		c-2.5-2.5-4-4-2.7-9c1.3-5.1,3.2-9,0.3-13.4s-7.1-6.5-13-6.7c-5.9-0.2-12.8-0.5-14.4-0.4c-1.6,0.1-3.2-1-2.3-3.9
		c0.9-2.9,6.4-15,8.2-19c1.8-4,8.7-6.3,14.4-4.1S63.2,47.4,66,53.9s6.5,17.3,7.4,20.2c0.9,2.9,2.4,7.3,9.1,10.4
		c6.7,3,63.6,30.2,69.9,33.1s108,51.4,112.3,53.4c4.2,1.9,43.8,21.5,46.5,22.7c2.8,1.3,5.2,2.7,9-0.1c3.9-2.8,8.9-6.3,10.6-7.6
		c1.7-1.3,4.1-0.9,6.4-0.1c2.3,0.8,3.5,1.6,4.8,5c1.4,3.4,2.1,7.2,6.5,11c4.4,3.8,17.9,14.5,19.6,16c1.7,1.4,2.7,2.8,5.7,4.9
		c3,2.1,4.9,3.2,9.4,4.8c4.5,1.6,111.3,52.8,118.1,56.2s21.9,17.2,20.7,32.8c-1.2,15.5-3.5,50.8-4.6,59.6c-1,8.8-8.1,23-25.5,23
		c-17.4,0-24.5-16.7-20.3-26.4s23.7-28.4,26.5-31.6s5.2-6.3,6.6-12.8c1.4-6.6-0.2-10.8-3.2-13.9c-3-3-8.4-4.7-13.9-2
		c-5.4,2.7-13.5,6.9-23.7,7.9c-10.1,1-21.5-0.8-29.4-4.2c-7.9-3.4-18.8-10.6-23.1-17.6c-4.4-6.9-11.1-13.5-19.3-12.3
		s-14.5,3.9-16.7,12c-2.2,8.1-1.7,13.3-1.9,16c-0.2,2.7-2.2,7.4-7.1,4.2C361.7,315.3,358.2,311.5,358.2,311.5z"/>
</g>
<g id="セクター">
	<path class="st1" d="M417.5,243.5c33.3,15.8,79.5,38,83.8,40.1c6.8,3.4,21.9,17.2,20.7,32.8c-1.2,15.5-3.5,50.8-4.6,59.6
		c-1,8.8-8.1,23-25.5,23c-17.4,0-24.5-16.7-20.3-26.4s23.7-28.4,26.5-31.6s5.2-6.3,6.6-12.8c1.4-6.6-0.2-10.8-3.2-13.9
		c-3-3-8.4-4.7-13.9-2c-5.4,2.7-13.5,6.9-23.7,7.9c-10.1,1-21.5-0.8-29.4-4.2c-7.9-3.4-18.8-10.6-23.1-17.6
		c-4.4-6.9-11.1-13.5-19.3-12.3s-14.5,3.9-16.7,12c-2.2,8.1-1.7,13.3-1.9,16c-0.2,2.7-2.2,7.4-7.1,4.2c-4.9-3.2-8.5-7-8.5-7
		s-44.5-40.6-86.7-79"/>
	<path class="st2" d="M33.3,40.7c1.8-4,8.7-6.3,14.4-4.1S63.2,47.4,66,53.9s6.5,17.3,7.4,20.2c0.9,2.9,2.4,7.3,9.1,10.4
		c6.7,3,63.6,30.2,69.9,33.1s108,51.4,112.3,53.4c4.2,1.9,43.8,21.5,46.5,22.7c2.8,1.3,5.2,2.7,9-0.1c3.9-2.8,8.9-6.3,10.6-7.6
		c1.7-1.3,4.1-0.9,6.4-0.1c2.3,0.8,3.5,1.6,4.8,5c1.4,3.4,2.1,7.2,6.5,11c4.4,3.8,17.9,14.5,19.6,16c1.7,1.4,2.7,2.8,5.7,4.9
		c3,2.1,4.9,3.2,9.4,4.8c1.6,0.6,16,7.3,34.3,16"/>
	<path class="st3" d="M271.4,232.5c-36.3-33.1-70.9-64.5-73.8-67c-6.2-5.3-10.1-2.2-12.2-0.9s-12.6,7.4-14.3,8s-5.4,0.8-8.6-0.3
		c-3.2-1-9.5-5.6-14.5-8.9c-5-3.3-8.5-6.4-11.6-10.3c-3-3.9-17.1-18.8-24.5-24.2s-28.4-18.2-34.9-21.5S59.7,95.7,57.2,93.1
		c-2.5-2.5-4-4-2.7-9c1.3-5.1,3.2-9,0.3-13.4s-7.1-6.5-13-6.7c-5.9-0.2-12.8-0.5-14.4-0.4c-1.6,0.1-3.2-1-2.3-3.9
		c0.9-2.9,6.4-15,8.2-19"/>
</g>
<g id="DRS-ZONES">
  <!-- DRS Zone 1 — visible white for testing (dots run right→left, corrected order) -->
  <path id="drs-1" class="drs-zone"
    fill="none" stroke="#fff" opacity="0"
    d="M130.2,85.4
		L134.4,87.5 L138.4,89.4 L142.3,91.3 L146.3,93.1 L150.3,95 L154.3,96.9 L158.3,98.7 L162.3,100.6 L166.3,102.5 L170.3,104.3 L174.3,106.2 L178.3,108.1 L182.3,109.9 L186.3,111.8 L190.3,113.7 L194.3,115.5 L198.2,117.4 L202.2,119.3 L206.2,121.1 L210.2,123 L214.2,124.9 L218.2,126.7 L222.2,128.6 L226.2,130.5 L230.2,132.3 L234.2,134.2 L237.2,135.6 L242.2,137.9 L246.2,139.8 L250.2,141.7 L254.1,143.5 L258.1,145.4 L262.1,147.3 L266.1,149.1 L270.1,151 L274.1,152.9 L278.1,154.7 L282.1,156.6 L286.1,158.5 L290.1,160.3 L294.1,162.2 L298.1,164.1 L302.1,165.9 L306,167.8 L310,169.7 L314,171.5 L317,172.7
		"/>

  <!-- DRS Zone 2 — visible white for testing (dots run right→left, corrected order) -->
  <path id="drs-2" class="drs-zone"
    fill="none" stroke="#fff" opacity="0"
    d="M339.3,275.4 
		L336,272.1 L332.7,269.2 L329.5,266.2 L326.2,263.2 L322.9,260.3 L319.7,257.3 L316.4,254.3 L313.1,251.4 L309.8,248.4 L306.6,245.4 L303.3,242.5 L300,239.5 L296.7,236.5 L293.5,233.6 L290.2,230.6 L286.9,227.7 L283.7,224.7 L280.4,221.7 L277.1,218.8 L273.8,215.8 L270.6,212.8 L267.3,209.9 L264,206.9 L260.7,203.9 L257.5,201 L254.2,198 L250.9,195 L247.7,192.1 L244.4,189.1 L241.1,186.1 L237.8,183.2 L234.6,180.2 L231.3,177.2 L228,174.3 L224.7,171.3 L221.5,168.4 L218.2,165.4 L216.2,163.5
		"/>
  
  <!-- DRS Zone 3 — visible white for testing -->
  <!-- <path id="drs-3" class="drs-zone"
    fill="none" stroke="#fff" opacity="1"
    d="M504.9,272.5
		L498.4,274.5 L494,275.6 L489.7,276.6 L485.4,277.7 L481,278.7 L476.7,279.8 L472.4,280.8 L468.1,281.8 L463.7,282.9 L459.4,283.9 L455.1,285 L450.8,286 L446.4,287.1 L442.1,288.1 L437.8,289.2 L433.5,290.2 L429.1,291.2 L424.8,292.3 L420.5,293.3 L416.2,294.4 L411.8,295.4 L407.5,296.5 L403.2,297.5 L398.9,298.6 L394.5,299.6 L390.2,300.6 L385.9,301.6 L381.5,302.6 L377.2,303.6 L372.9,304.6 L368.5,305.6 L364.2,306.6 L359.9,307.6 L355.5,308.7 L351.2,309.7 L346.8,310.7 L342.5,311.7 L338.2,312.7 L333.8,313.7 L329.5,314.7 L325.2,315.7 L320.8,316.7 L316.5,317.7 L312.2,318.8 L307.8,319.8 L303.5,320.8 L299.2,321.8 L294.8,322.8 L290.5,323.8 L286.2,324.8 L281.8,325.8 L277.5,326.8 L273.2,327.8 L264.8,329.8
		"/> -->
</g>
<g id="コーナー番号">
	<g>
		<g>
			<circle class="st4" cx="188.8" cy="185.3" r="8.5"/>
			<circle class="st5" cx="188.8" cy="185.3" r="8.5"/>
		</g>
		<g>
			<path class="st6" d="M187.1,189.2v-1.6h1v-4.5h-0.9v-1.6h2.6v6.1h0.9v1.6H187.1z"/>
		</g>
	</g>
	<g>
		<g>
			<circle class="st4" cx="124.8" cy="169.4" r="8.5"/>
			<circle class="st5" cx="124.8" cy="169.4" r="8.5"/>
		</g>
		<g>
			<path class="st6" d="M122.7,173.3v-2.6c0-0.6,0.1-1,0.6-1.2l1.9-0.8v-1.6l-0.1-0.1h-0.5l-0.1,0.1v1.1h-1.7v-1.3
				c0-0.8,0.4-1.1,0.8-1.3h2.5c0.5,0.2,0.8,0.5,0.8,1.3v1.9c0,0.6-0.1,0.9-0.6,1.2l-1.9,0.8v0.9h2.4v1.6H122.7z"/>
		</g>
	</g>
	<g>
		<g>
			<circle class="st4" cx="42.4" cy="105.7" r="8.5"/>
			<circle class="st5" cx="42.4" cy="105.7" r="8.5"/>
		</g>
		<g>
			<path class="st6" d="M41.1,109.6c-0.5-0.2-0.8-0.5-0.8-1.3v-1H42v0.8l0.1,0.1h0.5l0.1-0.1v-1.6l-0.1-0.1h-1v-1.3h1l0.1-0.1v-1.5
				l-0.1-0.1h-0.5l-0.1,0.1v0.8h-1.7v-1c0-0.8,0.4-1.1,0.8-1.3h2.5c0.5,0.2,0.8,0.5,0.8,1.3v1.3c0,0.6-0.2,0.9-0.6,1.2
				c0.4,0.3,0.6,0.6,0.6,1.2v1.4c0,0.8-0.4,1.1-0.8,1.3H41.1z"/>
		</g>
	</g>
	<g>
		<g>
			<circle class="st4" cx="35.4" cy="82.2" r="8.5"/>
			<circle class="st5" cx="35.4" cy="82.2" r="8.5"/>
		</g>
		<g>
			<path class="st6" d="M37.1,84.6v1.5h-1.7v-1.5h-2.2v-1.5l1.6-4.7h1.7L34.9,83h0.5v-0.4l0.4-1h1.3V83h0.5v1.6H37.1z"/>
		</g>
	</g>
	<g>
		<g>
			<circle class="st4" cx="9.6" cy="75.7" r="8.5"/>
			<circle class="st5" cx="9.6" cy="75.7" r="8.5"/>
		</g>
		<g>
			<path class="st6" d="M8.3,79.6c-0.5-0.2-0.8-0.5-0.8-1.3v-1h1.6v0.8l0.1,0.1h0.6l0.1-0.1V76l-0.1-0.1H9.2L9.1,76v0.4H7.5v-4.5h4
				v1.5H9.1V75l0.4-0.4h1.3c0.5,0.2,0.8,0.5,0.8,1.3v2.4c0,0.8-0.4,1.1-0.8,1.3H8.3z"/>
		</g>
	</g>
	<g>
		<g>
			<circle class="st4" cx="49.2" cy="17.3" r="8.5"/>
			<circle class="st5" cx="49.2" cy="17.3" r="8.5"/>
		</g>
		<g>
			<path class="st6" d="M50.5,21.2H48c-0.5-0.2-0.8-0.5-0.8-1.3v-5.1c0-0.8,0.4-1.1,0.8-1.3h2.5c0.5,0.2,0.8,0.5,0.8,1.3v1h-1.7V15
				l-0.1-0.1h-0.5L48.8,15v1.8l0.3-0.3h1.3c0.5,0.2,0.8,0.5,0.8,1.3v2.2C51.3,20.7,50.9,21,50.5,21.2z M49.5,19.8l0.1-0.1v-1.8
				l-0.1-0.1h-0.5l-0.1,0.1v1.8l0.1,0.1H49.5z"/>
		</g>
	</g>
	<g>
		<g>
			<circle class="st4" cx="91.7" cy="65.7" r="8.5"/>
			<circle class="st5" cx="91.7" cy="65.7" r="8.5"/>
		</g>
		<g>
			<path class="st6" d="M89.9,69.6l2.1-6.2h-2.4v-1.5h4.1v1.2l-2.1,6.5H89.9z"/>
		</g>
	</g>
	<g>
		<g>
			<circle class="st4" cx="313.5" cy="214.5" r="8.5"/>
			<circle class="st5" cx="313.5" cy="214.5" r="8.5"/>
		</g>
		<g>
			<path class="st6" d="M312.3,218.4c-0.5-0.2-0.8-0.5-0.8-1.3v-1.4c0-0.6,0.2-0.9,0.6-1.2c-0.4-0.3-0.6-0.6-0.6-1.2V212
				c0-0.8,0.4-1.1,0.8-1.3h2.5c0.5,0.2,0.8,0.5,0.8,1.3v1.3c0,0.6-0.2,0.9-0.6,1.2c0.4,0.3,0.6,0.6,0.6,1.2v1.4
				c0,0.8-0.4,1.1-0.8,1.3H312.3z M313.1,213.7l0.1,0.1h0.5l0.1-0.1v-1.5l-0.1-0.1h-0.5l-0.1,0.1V213.7z M313.9,216.9v-1.6l-0.1-0.1
				h-0.5l-0.1,0.1v1.6l0.1,0.1h0.5L313.9,216.9z"/>
		</g>
	</g>
	<g>
		<g>
			<circle class="st4" cx="341.9" cy="166.9" r="8.5"/>
			<circle class="st5" cx="341.9" cy="166.9" r="8.5"/>
		</g>
		<g>
			<path class="st6" d="M340.7,170.8c-0.5-0.2-0.8-0.5-0.8-1.3v-1h1.7v0.8l0.1,0.1h0.5l0.1-0.1v-1.8l-0.3,0.3h-1.3
				c-0.5-0.2-0.8-0.5-0.8-1.3v-2.2c0-0.8,0.4-1.1,0.8-1.3h2.5c0.5,0.2,0.8,0.5,0.8,1.3v5.1c0,0.8-0.4,1.1-0.8,1.3H340.7z
				 M342.3,166.5v-1.8l-0.1-0.1h-0.5l-0.1,0.1v1.8l0.1,0.1h0.5L342.3,166.5z"/>
		</g>
	</g>
	<g>
		<g>
			<circle class="st4" cx="533.1" cy="285.3" r="8.5"/>
			<circle class="st5" cx="533.1" cy="285.3" r="8.5"/>
		</g>
		<g>
			<path class="st6" d="M529,289.2v-1.6h1v-4.5h-0.9v-1.6h2.6v6.1h0.9v1.6H529z"/>
			<path class="st6" d="M536.6,289.2h-2.5c-0.5-0.2-0.8-0.5-0.8-1.3v-5.1c0-0.8,0.4-1.1,0.8-1.3h2.5c0.5,0.2,0.8,0.5,0.8,1.3v5.1
				C537.5,288.7,537.1,289,536.6,289.2z M535.8,283l-0.1-0.1h-0.5L535,283v4.7l0.1,0.1h0.5l0.1-0.1V283z"/>
		</g>
	</g>
	<g>
		<g>
			<circle class="st4" cx="478.1" cy="416.5" r="8.5"/>
			<circle class="st5" cx="478.1" cy="416.5" r="8.5"/>
		</g>
		<g>
			<path class="st6" d="M474.1,420.3v-1.6h1v-4.5h-0.9v-1.6h2.6v6.1h0.9v1.6H474.1z"/>
			<path class="st6" d="M478.8,420.3v-1.6h1v-4.5h-0.9v-1.6h2.6v6.1h0.9v1.6H478.8z"/>
		</g>
	</g>
	<g>
		<g>
			<circle class="st4" cx="476.8" cy="336.1" r="8.5"/>
			<circle class="st5" cx="476.8" cy="336.1" r="8.5"/>
		</g>
		<g>
			<path class="st6" d="M472.8,340v-1.6h1v-4.5h-0.9v-1.6h2.6v6.1h0.9v1.6H472.8z"/>
			<path class="st6" d="M477.1,340v-2.6c0-0.6,0.1-1,0.6-1.2l1.9-0.8v-1.6l-0.1-0.1h-0.5l-0.1,0.1v1.1h-1.7v-1.3
				c0-0.8,0.4-1.1,0.8-1.3h2.5c0.5,0.2,0.8,0.5,0.8,1.3v1.9c0,0.6-0.1,0.9-0.6,1.2l-1.9,0.8v0.9h2.4v1.6H477.1z"/>
		</g>
	</g>
	<g>
		<g>
			<circle class="st4" cx="436.2" cy="337.9" r="8.5"/>
			<circle class="st5" cx="436.2" cy="337.9" r="8.5"/>
		</g>
		<g>
			<path class="st6" d="M432.2,341.8v-1.6h1v-4.5h-0.9v-1.6h2.6v6.1h0.9v1.6H432.2z"/>
			<path class="st6" d="M437.3,341.8c-0.5-0.2-0.8-0.5-0.8-1.3v-1h1.7v0.8l0.1,0.1h0.5l0.1-0.1v-1.6l-0.1-0.1h-1v-1.3h1l0.1-0.1
				v-1.5l-0.1-0.1h-0.5l-0.1,0.1v0.8h-1.7v-1c0-0.8,0.4-1.1,0.8-1.3h2.5c0.5,0.2,0.8,0.5,0.8,1.3v1.3c0,0.6-0.2,0.9-0.6,1.2
				c0.4,0.3,0.6,0.6,0.6,1.2v1.4c0,0.8-0.4,1.1-0.8,1.3H437.3z"/>
		</g>
	</g>
	<g>
		<g>
			<circle class="st4" cx="383.6" cy="267.9" r="8.5"/>
			<circle class="st5" cx="383.6" cy="267.9" r="8.5"/>
		</g>
		<g>
			<path class="st6" d="M379.5,271.8v-1.6h1v-4.5h-0.9v-1.6h2.6v6.1h0.9v1.6H379.5z"/>
			<path class="st6" d="M387.5,270.3v1.5h-1.7v-1.5h-2.2v-1.5l1.6-4.7h1.7l-1.6,4.6h0.5v-0.4l0.4-1h1.3v1.4h0.5v1.6H387.5z"/>
		</g>
	</g>
	<g>
		<g>
			<circle class="st4" cx="370.3" cy="339.4" r="8.5"/>
			<circle class="st5" cx="370.3" cy="339.4" r="8.5"/>
		</g>
		<g>
			<path class="st6" d="M366.2,343.3v-1.6h1v-4.5h-0.9v-1.6h2.6v6.1h0.9v1.6H366.2z"/>
			<path class="st6" d="M371.4,343.3c-0.5-0.2-0.8-0.5-0.8-1.3v-1h1.6v0.8l0.1,0.1h0.6l0.1-0.1v-2.1l-0.1-0.1h-0.6l-0.1,0.1v0.4
				h-1.6v-4.5h4v1.5h-2.4v1.6l0.4-0.4h1.3c0.5,0.2,0.8,0.5,0.8,1.3v2.4c0,0.8-0.4,1.1-0.8,1.3H371.4z"/>
		</g>
	</g>
</g>
<g id="DRS">
	<g>
		<g>
			<g>
				<g>
					<line class="st10" x1="131.8" y1="79.9" x2="126.9" y2="90.4"/>
				</g>
				<g>
					<path class="st7" d="M134.4,87.5c-0.3,0.6-0.9,0.8-1.5,0.5c-0.6-0.3-0.8-0.9-0.5-1.5s0.9-0.8,1.5-0.5
						C134.4,86.3,134.6,87,134.4,87.5z"/>
				</g>
				<g>
					<path class="st7" d="M138.4,89.4c-0.3,0.6-0.9,0.8-1.5,0.5c-0.6-0.3-0.8-0.9-0.5-1.5c0.3-0.6,0.9-0.8,1.5-0.5
						C138.4,88.2,138.6,88.8,138.4,89.4z"/>
				</g>
				<g>
					<path class="st7" d="M142.3,91.3c-0.3,0.6-0.9,0.8-1.5,0.5c-0.6-0.3-0.8-0.9-0.5-1.5c0.3-0.6,0.9-0.8,1.5-0.5
						C142.4,90,142.6,90.7,142.3,91.3z"/>
				</g>
				<g>
					<path class="st7" d="M146.3,93.1c-0.3,0.6-0.9,0.8-1.5,0.5c-0.6-0.3-0.8-0.9-0.5-1.5c0.3-0.6,0.9-0.8,1.5-0.5
						S146.6,92.6,146.3,93.1z"/>
				</g>
				<g>
					<path class="st7" d="M150.3,95c-0.3,0.6-0.9,0.8-1.5,0.5s-0.8-0.9-0.5-1.5c0.3-0.6,0.9-0.8,1.5-0.5
						C150.4,93.8,150.6,94.4,150.3,95z"/>
				</g>
				<g>
					<path class="st7" d="M154.3,96.9c-0.3,0.6-0.9,0.8-1.5,0.5c-0.6-0.3-0.8-0.9-0.5-1.5c0.3-0.6,0.9-0.8,1.5-0.5
						C154.3,95.6,154.6,96.3,154.3,96.9z"/>
				</g>
				<g>
					<path class="st7" d="M158.3,98.7c-0.3,0.6-0.9,0.8-1.5,0.5c-0.6-0.3-0.8-0.9-0.5-1.5c0.3-0.6,0.9-0.8,1.5-0.5
						C158.3,97.5,158.6,98.2,158.3,98.7z"/>
				</g>
				<g>
					<path class="st7" d="M162.3,100.6c-0.3,0.6-0.9,0.8-1.5,0.5s-0.8-0.9-0.5-1.5c0.3-0.6,0.9-0.8,1.5-0.5
						C162.3,99.4,162.6,100,162.3,100.6z"/>
				</g>
				<g>
					<path class="st7" d="M166.3,102.5c-0.3,0.6-0.9,0.8-1.5,0.5c-0.6-0.3-0.8-0.9-0.5-1.5c0.3-0.6,0.9-0.8,1.5-0.5
						C166.3,101.2,166.6,101.9,166.3,102.5z"/>
				</g>
				<g>
					<path class="st7" d="M170.3,104.3c-0.3,0.6-0.9,0.8-1.5,0.5c-0.6-0.3-0.8-0.9-0.5-1.5c0.3-0.6,0.9-0.8,1.5-0.5
						C170.3,103.1,170.6,103.8,170.3,104.3z"/>
				</g>
				<g>
					<path class="st7" d="M174.3,106.2c-0.3,0.6-0.9,0.8-1.5,0.5s-0.8-0.9-0.5-1.5c0.3-0.6,0.9-0.8,1.5-0.5
						C174.3,105,174.5,105.6,174.3,106.2z"/>
				</g>
				<g>
					<path class="st7" d="M178.3,108.1c-0.3,0.6-0.9,0.8-1.5,0.5c-0.6-0.3-0.8-0.9-0.5-1.5c0.3-0.6,0.9-0.8,1.5-0.5
						C178.3,106.8,178.5,107.5,178.3,108.1z"/>
				</g>
				<g>
					<path class="st7" d="M182.3,109.9c-0.3,0.6-0.9,0.8-1.5,0.5c-0.6-0.3-0.8-0.9-0.5-1.5c0.3-0.6,0.9-0.8,1.5-0.5
						C182.3,108.7,182.5,109.4,182.3,109.9z"/>
				</g>
				<g>
					<path class="st7" d="M186.3,111.8c-0.3,0.6-0.9,0.8-1.5,0.5c-0.6-0.3-0.8-0.9-0.5-1.5c0.3-0.6,0.9-0.8,1.5-0.5
						C186.3,110.6,186.5,111.2,186.3,111.8z"/>
				</g>
				<g>
					<path class="st7" d="M190.3,113.7c-0.3,0.6-0.9,0.8-1.5,0.5c-0.6-0.3-0.8-0.9-0.5-1.5c0.3-0.6,0.9-0.8,1.5-0.5
						C190.3,112.4,190.5,113.1,190.3,113.7z"/>
				</g>
				<g>
					<path class="st7" d="M194.3,115.5c-0.3,0.6-0.9,0.8-1.5,0.5c-0.6-0.3-0.8-0.9-0.5-1.5c0.3-0.6,0.9-0.8,1.5-0.5
						C194.3,114.3,194.5,115,194.3,115.5z"/>
				</g>
				<g>
					<path class="st7" d="M198.2,117.4c-0.3,0.6-0.9,0.8-1.5,0.5c-0.6-0.3-0.8-0.9-0.5-1.5c0.3-0.6,0.9-0.8,1.5-0.5
						C198.3,116.2,198.5,116.8,198.2,117.4z"/>
				</g>
				<g>
					<path class="st7" d="M202.2,119.3c-0.3,0.6-0.9,0.8-1.5,0.5c-0.6-0.3-0.8-0.9-0.5-1.5c0.3-0.6,0.9-0.8,1.5-0.5
						S202.5,118.7,202.2,119.3z"/>
				</g>
				<g>
					<path class="st7" d="M206.2,121.1c-0.3,0.6-0.9,0.8-1.5,0.5c-0.6-0.3-0.8-0.9-0.5-1.5c0.3-0.6,0.9-0.8,1.5-0.5
						S206.5,120.6,206.2,121.1z"/>
				</g>
				<g>
					<path class="st7" d="M210.2,123c-0.3,0.6-0.9,0.8-1.5,0.5c-0.6-0.3-0.8-0.9-0.5-1.5c0.3-0.6,0.9-0.8,1.5-0.5
						C210.2,121.8,210.5,122.4,210.2,123z"/>
				</g>
				<g>
					<path class="st7" d="M214.2,124.9c-0.3,0.6-0.9,0.8-1.5,0.5c-0.6-0.3-0.8-0.9-0.5-1.5c0.3-0.6,0.9-0.8,1.5-0.5
						C214.2,123.6,214.5,124.3,214.2,124.9z"/>
				</g>
				<g>
					<path class="st7" d="M218.2,126.7c-0.3,0.6-0.9,0.8-1.5,0.5c-0.6-0.3-0.8-0.9-0.5-1.5c0.3-0.6,0.9-0.8,1.5-0.5
						C218.2,125.5,218.5,126.2,218.2,126.7z"/>
				</g>
				<g>
					<path class="st7" d="M222.2,128.6c-0.3,0.6-0.9,0.8-1.5,0.5c-0.6-0.3-0.8-0.9-0.5-1.5c0.3-0.6,0.9-0.8,1.5-0.5
						C222.2,127.4,222.5,128,222.2,128.6z"/>
				</g>
				<g>
					<path class="st7" d="M226.2,130.5c-0.3,0.6-0.9,0.8-1.5,0.5c-0.6-0.3-0.8-0.9-0.5-1.5c0.3-0.6,0.9-0.8,1.5-0.5
						C226.2,129.2,226.5,129.9,226.2,130.5z"/>
				</g>
				<g>
					<path class="st7" d="M230.2,132.3c-0.3,0.6-0.9,0.8-1.5,0.5c-0.6-0.3-0.8-0.9-0.5-1.5c0.3-0.6,0.9-0.8,1.5-0.5
						C230.2,131.1,230.4,131.8,230.2,132.3z"/>
				</g>
				<g>
					<path class="st7" d="M234.2,134.2c-0.3,0.6-0.9,0.8-1.5,0.5c-0.6-0.3-0.8-0.9-0.5-1.5c0.3-0.6,0.9-0.8,1.5-0.5
						C234.2,133,234.4,133.6,234.2,134.2z"/>
				</g>
				<g>
					
						<ellipse transform="matrix(0.4234 -0.906 0.906 0.4234 13.9226 293.061)" class="st7" cx="237.2" cy="135.6" rx="1.1" ry="1.1"/>
				</g>
				<g>
					<path class="st7" d="M242.2,137.9c-0.3,0.6-0.9,0.8-1.5,0.5c-0.6-0.3-0.8-0.9-0.5-1.5c0.3-0.6,0.9-0.8,1.5-0.5
						C242.2,136.7,242.4,137.4,242.2,137.9z"/>
				</g>
				<g>
					<path class="st7" d="M246.2,139.8c-0.3,0.6-0.9,0.8-1.5,0.5c-0.6-0.3-0.8-0.9-0.5-1.5c0.3-0.6,0.9-0.8,1.5-0.5
						C246.2,138.6,246.4,139.2,246.2,139.8z"/>
				</g>
				<g>
					<path class="st7" d="M250.2,141.7c-0.3,0.6-0.9,0.8-1.5,0.5c-0.6-0.3-0.8-0.9-0.5-1.5c0.3-0.6,0.9-0.8,1.5-0.5
						S250.4,141.1,250.2,141.7z"/>
				</g>
				<g>
					<path class="st7" d="M254.1,143.5c-0.3,0.6-0.9,0.8-1.5,0.5c-0.6-0.3-0.8-0.9-0.5-1.5c0.3-0.6,0.9-0.8,1.5-0.5
						C254.2,142.3,254.4,143,254.1,143.5z"/>
				</g>
				<g>
					<path class="st7" d="M258.1,145.4c-0.3,0.6-0.9,0.8-1.5,0.5c-0.6-0.3-0.8-0.9-0.5-1.5c0.3-0.6,0.9-0.8,1.5-0.5
						S258.4,144.8,258.1,145.4z"/>
				</g>
				<g>
					<path class="st7" d="M262.1,147.3c-0.3,0.6-0.9,0.8-1.5,0.5c-0.6-0.3-0.8-0.9-0.5-1.5c0.3-0.6,0.9-0.8,1.5-0.5
						C262.1,146.1,262.4,146.7,262.1,147.3z"/>
				</g>
				<g>
					<path class="st7" d="M266.1,149.1c-0.3,0.6-0.9,0.8-1.5,0.5c-0.6-0.3-0.8-0.9-0.5-1.5c0.3-0.6,0.9-0.8,1.5-0.5
						C266.1,147.9,266.4,148.6,266.1,149.1z"/>
				</g>
				<g>
					<path class="st7" d="M270.1,151c-0.3,0.6-0.9,0.8-1.5,0.5s-0.8-0.9-0.5-1.5s0.9-0.8,1.5-0.5C270.1,149.8,270.4,150.4,270.1,151
						z"/>
				</g>
				<g>
					<path class="st7" d="M274.1,152.9c-0.3,0.6-0.9,0.8-1.5,0.5s-0.8-0.9-0.5-1.5s0.9-0.8,1.5-0.5
						C274.1,151.7,274.4,152.3,274.1,152.9z"/>
				</g>
				<g>
					<path class="st7" d="M278.1,154.7c-0.3,0.6-0.9,0.8-1.5,0.5c-0.6-0.3-0.8-0.9-0.5-1.5s0.9-0.8,1.5-0.5S278.4,154.2,278.1,154.7
						z"/>
				</g>
				<g>
					<path class="st7" d="M282.1,156.6c-0.3,0.6-0.9,0.8-1.5,0.5c-0.6-0.3-0.8-0.9-0.5-1.5s0.9-0.8,1.5-0.5S282.4,156,282.1,156.6z"
						/>
				</g>
				<g>
					<path class="st7" d="M286.1,158.5c-0.3,0.6-0.9,0.8-1.5,0.5c-0.6-0.3-0.8-0.9-0.5-1.5c0.3-0.6,0.9-0.8,1.5-0.5
						C286.1,157.3,286.3,157.9,286.1,158.5z"/>
				</g>
				<g>
					<path class="st7" d="M290.1,160.3c-0.3,0.6-0.9,0.8-1.5,0.5s-0.8-0.9-0.5-1.5c0.3-0.6,0.9-0.8,1.5-0.5
						C290.1,159.1,290.3,159.8,290.1,160.3z"/>
				</g>
				<g>
					<path class="st7" d="M294.1,162.2c-0.3,0.6-0.9,0.8-1.5,0.5s-0.8-0.9-0.5-1.5c0.3-0.6,0.9-0.8,1.5-0.5
						C294.1,161,294.3,161.6,294.1,162.2z"/>
				</g>
				<g>
					<path class="st7" d="M298.1,164.1c-0.3,0.6-0.9,0.8-1.5,0.5s-0.8-0.9-0.5-1.5c0.3-0.6,0.9-0.8,1.5-0.5S298.3,163.5,298.1,164.1
						z"/>
				</g>
				<g>
					<path class="st7" d="M302.1,165.9c-0.3,0.6-0.9,0.8-1.5,0.5c-0.6-0.3-0.8-0.9-0.5-1.5c0.3-0.6,0.9-0.8,1.5-0.5
						C302.1,164.7,302.3,165.4,302.1,165.9z"/>
				</g>
				<g>
					<path class="st7" d="M306,167.8c-0.3,0.6-0.9,0.8-1.5,0.5c-0.6-0.3-0.8-0.9-0.5-1.5c0.3-0.6,0.9-0.8,1.5-0.5
						C306.1,166.6,306.3,167.2,306,167.8z"/>
				</g>
				<g>
					<path class="st7" d="M310,169.7c-0.3,0.6-0.9,0.8-1.5,0.5c-0.6-0.3-0.8-0.9-0.5-1.5c0.3-0.6,0.9-0.8,1.5-0.5
						C310.1,168.5,310.3,169.1,310,169.7z"/>
				</g>
				<g>
					<path class="st7" d="M314,171.5c-0.3,0.6-0.9,0.8-1.5,0.5s-0.8-0.9-0.5-1.5c0.3-0.6,0.9-0.8,1.5-0.5
						C314.1,170.3,314.3,171,314,171.5z"/>
				</g>
				<g>
					<line class="st10" x1="319.5" y1="167.7" x2="314.6" y2="178.2"/>
				</g>
			</g>
		</g>
	</g>

	<g>
		<g>
			<g>
				<g>
					<line class="st10" x1="336.2" y1="280.1" x2="344" y2="271.5"/>
				</g>
				<g>
					<path class="st7" d="M336,272.1c0.4-0.5,1.1-0.5,1.6-0.1c0.5,0.4,0.5,1.1,0.1,1.6c-0.4,0.5-1.1,0.5-1.6,0.1
						C335.6,273.3,335.6,272.6,336,272.1z"/>
				</g>
				<g>
					<path class="st7" d="M332.7,269.2c0.4-0.5,1.1-0.5,1.6-0.1s0.5,1.1,0.1,1.6s-1.1,0.5-1.6,0.1
						C332.4,270.3,332.3,269.6,332.7,269.2z"/>
				</g>
				<g>
					<path class="st7" d="M329.5,266.2c0.4-0.5,1.1-0.5,1.6-0.1c0.5,0.4,0.5,1.1,0.1,1.6s-1.1,0.5-1.6,0.1
						C329.1,267.3,329.1,266.6,329.5,266.2z"/>
				</g>
				<g>
					<path class="st7" d="M326.2,263.2c0.4-0.5,1.1-0.5,1.6-0.1s0.5,1.1,0.1,1.6c-0.4,0.5-1.1,0.5-1.6,0.1S325.8,263.7,326.2,263.2z
						"/>
				</g>
				<g>
					<path class="st7" d="M322.9,260.3c0.4-0.5,1.1-0.5,1.6-0.1c0.5,0.4,0.5,1.1,0.1,1.6s-1.1,0.5-1.6,0.1
						C322.6,261.4,322.5,260.7,322.9,260.3z"/>
				</g>
				<g>
					<path class="st7" d="M319.7,257.3c0.4-0.5,1.1-0.5,1.6-0.1c0.5,0.4,0.5,1.1,0.1,1.6c-0.4,0.5-1.1,0.5-1.6,0.1
						S319.2,257.8,319.7,257.3z"/>
				</g>
				<g>
					<path class="st7" d="M316.4,254.3c0.4-0.5,1.1-0.5,1.6-0.1c0.5,0.4,0.5,1.1,0.1,1.6s-1.1,0.5-1.6,0.1S316,254.8,316.4,254.3z"
						/>
				</g>
				<g>
					<path class="st7" d="M313.1,251.4c0.4-0.5,1.1-0.5,1.6-0.1s0.5,1.1,0.1,1.6c-0.4,0.5-1.1,0.5-1.6,0.1
						C312.7,252.5,312.7,251.8,313.1,251.4z"/>
				</g>
				<g>
					<path class="st7" d="M309.8,248.4c0.4-0.5,1.1-0.5,1.6-0.1c0.5,0.4,0.5,1.1,0.1,1.6s-1.1,0.5-1.6,0.1S309.4,248.9,309.8,248.4z
						"/>
				</g>
				<g>
					<path class="st7" d="M306.6,245.4c0.4-0.5,1.1-0.5,1.6-0.1s0.5,1.1,0.1,1.6c-0.4,0.5-1.1,0.5-1.6,0.1S306.2,245.9,306.6,245.4z
						"/>
				</g>
				<g>
					<path class="st7" d="M303.3,242.5c0.4-0.5,1.1-0.5,1.6-0.1s0.5,1.1,0.1,1.6c-0.4,0.5-1.1,0.5-1.6,0.1S302.9,242.9,303.3,242.5z
						"/>
				</g>
				<g>
					<path class="st7" d="M300,239.5c0.4-0.5,1.1-0.5,1.6-0.1s0.5,1.1,0.1,1.6c-0.4,0.5-1.1,0.5-1.6,0.1
						C299.6,240.7,299.6,240,300,239.5z"/>
				</g>
				<g>
					<path class="st7" d="M296.7,236.5c0.4-0.5,1.1-0.5,1.6-0.1c0.5,0.4,0.5,1.1,0.1,1.6s-1.1,0.5-1.6,0.1S296.3,237,296.7,236.5z"
						/>
				</g>
				<g>
					<path class="st7" d="M293.5,233.6c0.4-0.5,1.1-0.5,1.6-0.1s0.5,1.1,0.1,1.6c-0.4,0.5-1.1,0.5-1.6,0.1S293.1,234,293.5,233.6z"
						/>
				</g>
				<g>
					<path class="st7" d="M290.2,230.6c0.4-0.5,1.1-0.5,1.6-0.1s0.5,1.1,0.1,1.6s-1.1,0.5-1.6,0.1
						C289.8,231.8,289.8,231.1,290.2,230.6z"/>
				</g>
				<g>
					<path class="st7" d="M286.9,227.7c0.4-0.5,1.1-0.5,1.6-0.1c0.5,0.4,0.5,1.1,0.1,1.6s-1.1,0.5-1.6,0.1S286.5,228.1,286.9,227.7z
						"/>
				</g>
				<g>
					<path class="st7" d="M283.7,224.7c0.4-0.5,1.1-0.5,1.6-0.1s0.5,1.1,0.1,1.6c-0.4,0.5-1.1,0.5-1.6,0.1S283.2,225.1,283.7,224.7z
						"/>
				</g>
				<g>
					<path class="st7" d="M280.4,221.7c0.4-0.5,1.1-0.5,1.6-0.1s0.5,1.1,0.1,1.6s-1.1,0.5-1.6,0.1C280,222.9,280,222.2,280.4,221.7z
						"/>
				</g>
				<g>
					<path class="st7" d="M277.1,218.8c0.4-0.5,1.1-0.5,1.6-0.1c0.5,0.4,0.5,1.1,0.1,1.6s-1.1,0.5-1.6,0.1S276.7,219.2,277.1,218.8z
						"/>
				</g>
				<g>
					<path class="st7" d="M273.8,215.8c0.4-0.5,1.1-0.5,1.6-0.1c0.5,0.4,0.5,1.1,0.1,1.6c-0.4,0.5-1.1,0.5-1.6,0.1
						C273.5,216.9,273.4,216.2,273.8,215.8z"/>
				</g>
				<g>
					<path class="st7" d="M270.6,212.8c0.4-0.5,1.1-0.5,1.6-0.1s0.5,1.1,0.1,1.6s-1.1,0.5-1.6,0.1
						C270.2,214,270.2,213.3,270.6,212.8z"/>
				</g>
				<g>
					<path class="st7" d="M267.3,209.9c0.4-0.5,1.1-0.5,1.6-0.1c0.5,0.4,0.5,1.1,0.1,1.6s-1.1,0.5-1.6,0.1
						C266.9,211,266.9,210.3,267.3,209.9z"/>
				</g>
				<g>
					<path class="st7" d="M264,206.9c0.4-0.5,1.1-0.5,1.6-0.1s0.5,1.1,0.1,1.6c-0.4,0.5-1.1,0.5-1.6,0.1S263.6,207.3,264,206.9z"/>
				</g>
				<g>
					<path class="st7" d="M260.7,203.9c0.4-0.5,1.1-0.5,1.6-0.1c0.5,0.4,0.5,1.1,0.1,1.6s-1.1,0.5-1.6,0.1
						C260.4,205.1,260.3,204.4,260.7,203.9z"/>
				</g>
				<g>
					<path class="st7" d="M257.5,201c0.4-0.5,1.1-0.5,1.6-0.1c0.5,0.4,0.5,1.1,0.1,1.6s-1.1,0.5-1.6,0.1S257.1,201.4,257.5,201z"/>
				</g>
				<g>
					<path class="st7" d="M254.2,198c0.4-0.5,1.1-0.5,1.6-0.1c0.5,0.4,0.5,1.1,0.1,1.6c-0.4,0.5-1.1,0.5-1.6,0.1
						C253.8,199.2,253.8,198.5,254.2,198z"/>
				</g>
				<g>
					<path class="st7" d="M250.9,195c0.4-0.5,1.1-0.5,1.6-0.1c0.5,0.4,0.5,1.1,0.1,1.6s-1.1,0.5-1.6,0.1
						C250.6,196.2,250.5,195.5,250.9,195z"/>
				</g>
				<g>
					<path class="st7" d="M247.7,192.1c0.4-0.5,1.1-0.5,1.6-0.1c0.5,0.4,0.5,1.1,0.1,1.6s-1.1,0.5-1.6,0.1
						C247.3,193.2,247.2,192.5,247.7,192.1z"/>
				</g>
				<g>
					<path class="st7" d="M244.4,189.1c0.4-0.5,1.1-0.5,1.6-0.1c0.5,0.4,0.5,1.1,0.1,1.6s-1.1,0.5-1.6,0.1
						C244,190.3,244,189.6,244.4,189.1z"/>
				</g>
				<g>
					<path class="st7" d="M241.1,186.1c0.4-0.5,1.1-0.5,1.6-0.1c0.5,0.4,0.5,1.1,0.1,1.6c-0.4,0.5-1.1,0.5-1.6,0.1
						C240.7,187.3,240.7,186.6,241.1,186.1z"/>
				</g>
				<g>
					<path class="st7" d="M237.8,183.2c0.4-0.5,1.1-0.5,1.6-0.1c0.5,0.4,0.5,1.1,0.1,1.6s-1.1,0.5-1.6,0.1
						C237.5,184.3,237.4,183.6,237.8,183.2z"/>
				</g>
				<g>
					<path class="st7" d="M234.6,180.2c0.4-0.5,1.1-0.5,1.6-0.1c0.5,0.4,0.5,1.1,0.1,1.6s-1.1,0.5-1.6,0.1
						C234.2,181.4,234.2,180.7,234.6,180.2z"/>
				</g>
				<g>
					<path class="st7" d="M231.3,177.2c0.4-0.5,1.1-0.5,1.6-0.1c0.5,0.4,0.5,1.1,0.1,1.6c-0.4,0.5-1.1,0.5-1.6,0.1
						C230.9,178.4,230.9,177.7,231.3,177.2z"/>
				</g>
				<g>
					<path class="st7" d="M228,174.3c0.4-0.5,1.1-0.5,1.6-0.1c0.5,0.4,0.5,1.1,0.1,1.6s-1.1,0.5-1.6,0.1
						C227.6,175.4,227.6,174.7,228,174.3z"/>
				</g>
				<g>
					<path class="st7" d="M224.7,171.3c0.4-0.5,1.1-0.5,1.6-0.1c0.5,0.4,0.5,1.1,0.1,1.6s-1.1,0.5-1.6,0.1
						C224.4,172.5,224.3,171.8,224.7,171.3z"/>
				</g>
				<g>
					<path class="st7" d="M221.5,168.4c0.4-0.5,1.1-0.5,1.6-0.1c0.5,0.4,0.5,1.1,0.1,1.6c-0.4,0.5-1.1,0.5-1.6,0.1
						C221.1,169.5,221.1,168.8,221.5,168.4z"/>
				</g>
				<g>
					<path class="st7" d="M218.2,165.4c0.4-0.5,1.1-0.5,1.6-0.1c0.5,0.4,0.5,1.1,0.1,1.6s-1.1,0.5-1.6,0.1
						C217.8,166.5,217.8,165.8,218.2,165.4z"/>
				</g>
				<g>
					<line class="st10" x1="211.9" y1="167.5" x2="219.6" y2="158.9"/>
				</g>
			</g>
		</g>
	</g>
</g>
<g id="アイコン">

	<g>
		
			<rect x="276" y="273" transform="matrix(0.6861 -0.7275 0.7275 0.6861 -112.5957 287.9543)" class="st5" width="2.8" height="2.8"/>
		
			<rect x="279.9" y="268.9" transform="matrix(0.6861 -0.7275 0.7275 0.6861 -108.374 289.4893)" class="st5" width="2.8" height="2.8"/>
		
			<rect x="280" y="272.9" transform="matrix(0.6861 -0.7275 0.7275 0.6861 -111.2524 290.8327)" class="st5" width="2.8" height="2.8"/>
		
			<rect x="283.9" y="268.8" transform="matrix(0.6861 -0.7275 0.7275 0.6861 -107.0307 292.3677)" class="st5" width="2.8" height="2.8"/>
		
			<rect x="284.1" y="276.8" transform="matrix(0.6861 -0.7275 0.7275 0.6861 -112.7874 295.0544)" class="st5" width="2.8" height="2.8"/>
		
			<rect x="288" y="272.7" transform="matrix(0.6861 -0.7275 0.7275 0.6861 -108.5657 296.5894)" class="st5" width="2.8" height="2.8"/>
		
			<rect x="283.7" y="264.8" transform="matrix(0.6861 -0.7275 0.7275 0.6861 -104.1523 291.0244)" class="st5" width="2.8" height="2.8"/>
		
			<rect x="281.8" y="266.8" transform="matrix(0.6861 -0.7275 0.7275 0.6861 -106.2632 290.2568)" class="st6" width="2.8" height="2.8"/>
		
			<rect x="277.9" y="271" transform="matrix(0.6861 -0.7275 0.7275 0.6861 -110.4849 288.7218)" class="st6" width="2.8" height="2.8"/>
		
			<rect x="278" y="275" transform="matrix(0.6861 -0.7275 0.7275 0.6861 -113.3632 290.0652)" class="st6" width="2.8" height="2.8"/>
		
			<rect x="281.9" y="270.9" transform="matrix(0.6861 -0.7275 0.7275 0.6861 -109.1415 291.6002)" class="st6" width="2.8" height="2.8"/>
		
			<rect x="285.8" y="266.7" transform="matrix(0.6861 -0.7275 0.7275 0.6861 -104.9198 293.1352)" class="st6" width="2.8" height="2.8"/>
		
			<rect x="285.9" y="270.7" transform="matrix(0.6861 -0.7275 0.7275 0.6861 -107.7982 294.4785)" class="st6" width="2.8" height="2.8"/>
		
			<rect x="282" y="274.9" transform="matrix(0.6861 -0.7275 0.7275 0.6861 -112.0199 292.9435)" class="st6" width="2.8" height="2.8"/>
		
			<rect x="290" y="274.6" transform="matrix(0.6861 -0.7275 0.7275 0.6861 -109.3332 298.7002)" class="st6" width="2.8" height="2.8"/>
		
			<rect x="286.2" y="278.8" transform="matrix(0.6861 -0.7275 0.7275 0.6861 -113.5549 297.1652)" class="st6" width="2.8" height="2.8"/>
		
			<rect x="282.1" y="278.9" transform="matrix(0.6861 -0.7275 0.7275 0.6861 -114.8982 294.2868)" class="st6" width="2.8" height="2.8"/>
		
			<rect x="286" y="274.7" transform="matrix(0.6861 -0.7275 0.7275 0.6861 -110.6765 295.8219)" class="st6" width="2.8" height="2.8"/>
		
			<rect x="289.9" y="270.6" transform="matrix(0.6861 -0.7275 0.7275 0.6861 -106.4548 297.3569)" class="st6" width="2.8" height="2.8"/>
		
			<rect x="280.1" y="276.9" transform="matrix(0.6861 -0.7275 0.7275 0.6861 -114.1307 292.176)" class="st5" width="2.8" height="2.8"/>
		
			<rect x="284" y="272.8" transform="matrix(0.6861 -0.7275 0.7275 0.6861 -109.909 293.711)" class="st5" width="2.8" height="2.8"/>
		
			<rect x="288.1" y="276.7" transform="matrix(0.6861 -0.7275 0.7275 0.6861 -111.4441 297.9327)" class="st5" width="2.8" height="2.8"/>
		
			<rect x="287.9" y="268.7" transform="matrix(0.6861 -0.7275 0.7275 0.6861 -105.6873 295.246)" class="st5" width="2.8" height="2.8"/>
		
			<rect x="284.2" y="280.8" transform="matrix(0.6861 -0.7275 0.7275 0.6861 -115.6658 296.3977)" class="st5" width="2.8" height="2.8"/>
		
			<rect x="292" y="272.6" transform="matrix(0.6861 -0.7275 0.7275 0.6861 -107.2224 299.4677)" class="st5" width="2.8" height="2.8"/>
	</g>
	<g>
		<defs>
			
				<rect id="SVGID_1_" x="241.8" y="234.8" transform="matrix(0.7315 0.6818 -0.6818 0.7315 230.8875 -108.3106)" width="22.3" height="8.5"/>
		</defs>
		<clipPath id="SVGID_00000183947782949399280380000005165568597934910127_">
			<use xlink:href="#SVGID_1_"  style="overflow:visible;"/>
		</clipPath>
		<g style="clip-path:url(#SVGID_00000183947782949399280380000005165568597934910127_);">
			<polygon class="st18" points="255.4,251 253.3,249 254,240 263,238.7 265.1,240.6 256.1,241.9 			"/>
			<polygon class="st19" points="251.3,247.1 249.2,245.2 249.9,236.1 258.8,234.8 260.9,236.7 251.9,238 			"/>
			<polygon class="st20" points="247.1,243.2 245,241.3 245.7,232.3 254.7,230.9 256.8,232.9 247.8,234.2 			"/>
		</g>
	</g>
</g>
</svg>
