<?xml version="1.0" encoding="utf-8"?>
<!-- Generator: Adobe Illustrator 26.5.0, SVG Export Plug-In . SVG Version: 6.00 Build 0)  -->
<svg version="1.1" xmlns="http://www.w3.org/2000/svg" xmlns:xlink="http://www.w3.org/1999/xlink" x="0px" y="0px"
	 viewBox="0 0 525.2 331.8" style="enable-background:new 0 0 525.2 331.8;" xml:space="preserve">
<style type="text/css">
	.st0{fill:none;stroke:#646464;stroke-width:14.1732;stroke-linecap:round;stroke-linejoin:round;stroke-miterlimit:10;}
	.st1{fill:none;stroke:#FFD449;stroke-width:2.8346;stroke-miterlimit:10;}
	.st2{fill:none;stroke:#54C6EB;stroke-width:2.8346;stroke-miterlimit:10;}
	.st3{fill:none;stroke:#F4442E;stroke-width:2.8346;stroke-miterlimit:10;}
	.st4{fill:none;stroke:#FFFFFF;stroke-width:2.126;}
	.st5{fill:#646464;}
	.st6{fill:#FFFFFF;}
	.st7{fill:none;stroke:#646464;stroke-width:2.8346;stroke-miterlimit:10;}
	.st8{fill:#FF3380;}
	.st9{fill:none;stroke:#FF3380;stroke-width:1.9843;stroke-miterlimit:10;}
	.st10{fill:#09BC8A;}
	.st11{fill:none;stroke:#09BC8A;stroke-width:1.9843;stroke-miterlimit:10;}
	.st12{fill:none;stroke:#09BC8A;stroke-width:2.2097;stroke-miterlimit:10;}
	.st13{fill:none;stroke:#646464;stroke-width:0.7087;stroke-miterlimit:10;}
	.st14{fill:none;stroke:#F4442E;stroke-width:5.6693;stroke-miterlimit:10;}
	.st15{fill:none;stroke:#54C6EB;stroke-width:5.6693;stroke-miterlimit:10;}
	.st16{fill:none;stroke:#FFD449;stroke-width:5.6693;stroke-miterlimit:10;}
	.st17{fill:none;stroke:#09BC8A;stroke-width:2.8346;stroke-miterlimit:10;}
	.st18{clip-path:url(#SVGID_00000182489371729919953420000015993495800105837713_);}
	.st19{fill:#F4442E;}
	.st20{fill:#54C6EB;}
	.st21{fill:#FFD449;}
</style>
<g id="コース">
	<path class="st0" d="M387.7,272.6c0,0-89.9-52.7-96.9-57.7c-7-5-7.8-15.7-7.6-25.8c0.1-10.1,3.7-30-7-41.4
		c-10.7-11.4-32.3-32.8-35.1-36.1c-2.8-3.4-4.2-7.9,0.4-10.2c4.7-2.3,16.7-7.2,20.5-9.2c3.8-2,6.9-4.5,6.6-6.7
		c-0.3-2.2-3.8-6.6-10.2-8c-6.4-1.5-29.4-2.6-33.1-2.3c-3.7,0.3-6.7,3.1-7.9,4.8c-1.2,1.8-87.5,123.5-91.5,128.8
		c-4,5.3-4.7,16.1-1.2,21.4c3.5,5.3,8.2,6,14.3,5.4c6.1-0.6,11.7-0.7,15.4,0.4c3.7,1.2,9.2,3.1,9.5,13.9c0.3,10.8-11.4,13.9-18.1,12
		c-6.7-1.9-28.5-10-35.6-13.2c-7-3.2-18.1-14.2-20.9-17.7c-2.8-3.5-7.9-12.4-10-22.2c-2-9.8-19.2-90-20-96.9
		c-0.9-6.9,1.3-18.3,15.1-24.9c13.8-6.6,41.1-16.5,52.5-18.9c11.4-2.3,41.6-6.4,48.1-7.5c6.6-1,15.7-5.3,20.3-9.8s9.2-9.1,19.6-6.3
		c10.4,2.8,15.1,4,19.3,5.1c5.6,1.5,17.1-0.2,20.9-4.2c5.1-5.4,11.3-13.5,19.9-13.5c8.6,0,15.1,5.6,19,12.3
		c4,6.7,9.7,12.9,12.1,14.8s6.4,4.1,10.5,5.6c4.1,1.5,115.2,45.4,121.6,48c6.4,2.6,31.9,13.9,38,17.3c6.1,3.4,19.9,8.2,20.9,23.7
		c1,15.5-11,22-15.7,24.7c-4.7,2.8-20,13.9-27.5,22.7c-7.5,8.8-27.4,30.3-29.9,33.4s-2.5,6.7,2,10.1c4.5,3.4,6.9,4.8,6.7,9.4
		c-0.1,4.5-4.2,7.6-6.9,10.5s-11.6,10.8-19.3,12.6c-7.8,1.8-9.5,1.3-12.7-0.4C391.1,274.6,387.7,272.6,387.7,272.6z"/>
</g>
<g id="セクター">
	<path class="st1" d="M331.4,70.1c31.2,12.3,102,40.3,107.1,42.3c6.4,2.6,31.9,13.9,38,17.3c6.1,3.4,19.9,8.2,20.9,23.7
		c1,15.5-11,22-15.7,24.7c-4.7,2.8-20,13.9-27.5,22.7c-7.5,8.8-27.4,30.3-29.9,33.4s-2.5,6.7,2,10.1c4.5,3.4,6.9,4.8,6.7,9.4
		c-0.1,4.5-4.2,7.6-6.9,10.5s-11.6,10.8-19.3,12.6c-7.8,1.8-9.5,1.3-12.7-0.4c-3.2-1.8-6.6-3.8-6.6-3.8s-10.7-6.3-25-14.7"/>
	<path class="st2" d="M170.4,146.1c-21.5,30.3-42.6,60-44.5,62.5c-4,5.3-4.7,16.1-1.2,21.4c3.5,5.3,8.2,6,14.3,5.4
		c6.1-0.6,11.7-0.7,15.4,0.4c3.7,1.2,9.2,3.1,9.5,13.9c0.3,10.8-11.4,13.9-18.1,12c-6.7-1.9-28.5-10-35.6-13.2
		c-7-3.2-18.1-14.2-20.9-17.7c-2.8-3.5-7.9-12.4-10-22.2c-2-9.8-19.2-90-20-96.9c-0.9-6.9,1.3-18.3,15.1-24.9
		c13.8-6.6,41.1-16.5,52.5-18.9c11.4-2.3,41.6-6.4,48.1-7.5c6.6-1,15.7-5.3,20.3-9.8s9.2-9.1,19.6-6.3c10.4,2.8,15.1,4,19.3,5.1
		c5.6,1.5,17.1-0.2,20.9-4.2c5.1-5.4,11.3-13.5,19.9-13.5c8.6,0,15.1,5.6,19,12.3c4,6.7,9.7,12.9,12.1,14.8s6.4,4.1,10.5,5.6
		c0.9,0.3,6.3,2.4,14.5,5.7"/>
	<path class="st3" d="M362.8,257.9c-27.1-16-67.3-39.7-71.9-43c-7-5-7.8-15.7-7.6-25.8c0.1-10.1,3.7-30-7-41.4
		c-10.7-11.4-32.3-32.8-35.1-36.1c-2.8-3.4-4.2-7.9,0.4-10.2c4.7-2.3,16.7-7.2,20.5-9.2c3.8-2,6.9-4.5,6.6-6.7
		c-0.3-2.2-3.8-6.6-10.2-8c-6.4-1.5-29.4-2.6-33.1-2.3c-3.7,0.3-6.7,3.1-7.9,4.8c-0.6,0.9-24,33.9-46.9,66.2"/>
</g>
<g id="DRS-ZONES">
  <!-- DRS Zone 1 — visible white for testing (dots run right→left, corrected order) -->
  <path id="drs-1" class="drs-zone"
    fill="none" stroke="#fff" opacity="0"
    d="M205.2,73.1 
		L201.5,78.1 L198.9,81.8 L196.4,85.4 L193.8,89.1 L191.2,92.7 L188.7,96.4 L186.1,100 L183.5,103.6 L180.9,107.3 L178.4,110.9 L175.8,114.6 L173.2,118.2 L170.6,121.9 L168.1,125.5 L165.5,129.1 L162.9,132.8 L160.4,136.4 L157.8,140.1 L155.2,143.7 L152.6,147.4 L150.1,151 L147.5,154.7 L144.9,158.3 L142.3,161.9 L139.8,165.6 L137.2,169.2 L134.6,172.9 L132.1,176.5 L129.5,180.2 L126.9,183.8 L124.3,187.5 L121.8,191.1 L119.2,194.7 L116.6,198.4 L115.2,200.4
		"/>

  <!-- DRS Zone 2 — visible white for testing (dots run right→left, corrected order) -->
  <path id="drs-2" class="drs-zone"
    fill="none" stroke="#fff" opacity="0"
    d="M306,76.5 
		L309.8,78 L313.9,79.6 L317.9,81.2 L322,82.8 L326.1,84.4 L330.1,86.1 L334.2,87.7 L338.3,89.3 L342.3,90.9 L346.4,92.5 L350.5,94.1 L354.5,95.7 L358.6,97.3 L362.7,98.9 L366.7,100.5 L370.8,102.1 L374.9,103.8 L378.9,105.4 L383,107 L387.1,108.6 L391.1,110.2 L395.2,111.8 L399.3,113.4 L403.3,115 L407.4,116.6 L411.5,118.2 L415.5,119.8 L419.6,121.5 L423.7,123.1 L427.7,124.7 L431.8,126.4 L435.8,128.1 L439.8,129.8 L443.9,131.5 L447.9,133.2 L451.8,135 L455.8,136.9 L459.7,138.9 L463.5,141 L467.3,143.2 L471.1,145.3 L474.9,147.5 L477.9,149.5
		"/>
  
  <!-- DRS Zone 3 — visible white for testing -->
  <!-- <path id="drs-3" class="drs-zone"
    fill="none" stroke="#fff" opacity="1"
    d="M504.9,272.5
		L498.4,274.5 L494,275.6 L489.7,276.6 L485.4,277.7 L481,278.7 L476.7,279.8 L472.4,280.8 L468.1,281.8 L463.7,282.9 L459.4,283.9 L455.1,285 L450.8,286 L446.4,287.1 L442.1,288.1 L437.8,289.2 L433.5,290.2 L429.1,291.2 L424.8,292.3 L420.5,293.3 L416.2,294.4 L411.8,295.4 L407.5,296.5 L403.2,297.5 L398.9,298.6 L394.5,299.6 L390.2,300.6 L385.9,301.6 L381.5,302.6 L377.2,303.6 L372.9,304.6 L368.5,305.6 L364.2,306.6 L359.9,307.6 L355.5,308.7 L351.2,309.7 L346.8,310.7 L342.5,311.7 L338.2,312.7 L333.8,313.7 L329.5,314.7 L325.2,315.7 L320.8,316.7 L316.5,317.7 L312.2,318.8 L307.8,319.8 L303.5,320.8 L299.2,321.8 L294.8,322.8 L290.5,323.8 L286.2,324.8 L281.8,325.8 L277.5,326.8 L273.2,327.8 L264.8,329.8
		"/> -->
</g>
<g id="コーナー番号">
	<g>
		<g>
			<circle class="st4" cx="267.9" cy="218.1" r="8.5"/>
			<circle class="st5" cx="267.9" cy="218.1" r="8.5"/>
		</g>
		<g>
			<path class="st6" d="M266.2,222v-1.6h1v-4.5h-0.9v-1.6h2.6v6.1h0.9v1.6H266.2z"/>
		</g>
	</g>
	<g>
		<g>
			<circle class="st4" cx="298.7" cy="147.4" r="8.5"/>
			<circle class="st5" cx="298.7" cy="147.4" r="8.5"/>
		</g>
		<g>
			<path class="st6" d="M296.6,151.3v-2.6c0-0.6,0.1-1,0.6-1.2l1.9-0.8v-1.6L299,145h-0.5l-0.1,0.1v1.1h-1.7v-1.3
				c0-0.8,0.4-1.1,0.8-1.3h2.5c0.5,0.2,0.8,0.5,0.8,1.3v1.9c0,0.6-0.1,0.9-0.6,1.2l-1.9,0.8v0.9h2.4v1.6H296.6z"/>
		</g>
	</g>
	<g>
		<g>
			<circle class="st4" cx="221.2" cy="110" r="8.5"/>
			<circle class="st5" cx="221.2" cy="110" r="8.5"/>
		</g>
		<g>
			<path class="st6" d="M219.9,113.9c-0.5-0.2-0.8-0.5-0.8-1.3v-1h1.7v0.8l0.1,0.1h0.5l0.1-0.1v-1.6l-0.1-0.1h-1v-1.3h1l0.1-0.1
				v-1.5l-0.1-0.1h-0.5l-0.1,0.1v0.8h-1.7v-1c0-0.8,0.4-1.1,0.8-1.3h2.5c0.5,0.2,0.8,0.5,0.8,1.3v1.3c0,0.6-0.2,0.9-0.6,1.2
				c0.4,0.3,0.6,0.6,0.6,1.2v1.4c0,0.8-0.4,1.1-0.8,1.3H219.9z"/>
		</g>
	</g>
	<g>
		<g>
			<circle class="st4" cx="285.8" cy="77.9" r="8.5"/>
			<circle class="st5" cx="285.8" cy="77.9" r="8.5"/>
		</g>
		<g>
			<path class="st6" d="M287.4,80.3v1.5h-1.7v-1.5h-2.2v-1.5l1.6-4.7h1.7l-1.6,4.6h0.5v-0.4l0.4-1h1.3v1.4h0.5v1.6H287.4z"/>
		</g>
	</g>
	<g>
		<g>
			<circle class="st4" cx="211.6" cy="62.6" r="8.5"/>
			<circle class="st5" cx="211.6" cy="62.6" r="8.5"/>
		</g>
		<g>
			<path class="st6" d="M210.4,66.5c-0.5-0.2-0.8-0.5-0.8-1.3v-1h1.6V65l0.1,0.1h0.6L212,65v-2.1l-0.1-0.1h-0.6l-0.1,0.1v0.4h-1.6
				v-4.5h4v1.5h-2.4V62l0.4-0.4h1.3c0.5,0.2,0.8,0.5,0.8,1.3v2.4c0,0.8-0.4,1.1-0.8,1.3H210.4z"/>
		</g>
	</g>
	<g>
		<g>
			<circle class="st4" cx="105.7" cy="211.2" r="8.5"/>
			<circle class="st5" cx="105.7" cy="211.2" r="8.5"/>
		</g>
		<g>
			<path class="st6" d="M107,215.1h-2.5c-0.5-0.2-0.8-0.5-0.8-1.3v-5.1c0-0.8,0.4-1.1,0.8-1.3h2.5c0.5,0.2,0.8,0.5,0.8,1.3v1h-1.7
				v-0.8l-0.1-0.1h-0.5l-0.1,0.1v1.8l0.3-0.3h1.3c0.5,0.2,0.8,0.5,0.8,1.3v2.2C107.8,214.6,107.4,214.9,107,215.1z M106,213.7
				l0.1-0.1v-1.8l-0.1-0.1h-0.5l-0.1,0.1v1.8l0.1,0.1H106z"/>
		</g>
	</g>
	<g>
		<g>
			<circle class="st4" cx="181.7" cy="259.2" r="8.5"/>
			<circle class="st5" cx="181.7" cy="259.2" r="8.5"/>
		</g>
		<g>
			<path class="st6" d="M179.9,263.1l2.1-6.2h-2.4v-1.5h4.1v1.2l-2.1,6.5H179.9z"/>
		</g>
	</g>
	<g>
		<g>
			<circle class="st4" cx="77.7" cy="246.1" r="8.5"/>
			<circle class="st5" cx="77.7" cy="246.1" r="8.5"/>
		</g>
		<g>
			<path class="st6" d="M76.4,250c-0.5-0.2-0.8-0.5-0.8-1.3v-1.4c0-0.6,0.2-0.9,0.6-1.2c-0.4-0.3-0.6-0.6-0.6-1.2v-1.3
				c0-0.8,0.4-1.1,0.8-1.3h2.5c0.5,0.2,0.8,0.5,0.8,1.3v1.3c0,0.6-0.2,0.9-0.6,1.2c0.4,0.3,0.6,0.6,0.6,1.2v1.4
				c0,0.8-0.4,1.1-0.8,1.3H76.4z M77.3,245.4l0.1,0.1H78l0.1-0.1v-1.5l-0.1-0.1h-0.5l-0.1,0.1V245.4z M78.1,248.5v-1.6l-0.1-0.1
				h-0.5l-0.1,0.1v1.6l0.1,0.1H78L78.1,248.5z"/>
		</g>
	</g>
	<g>
		<g>
			<circle class="st4" cx="40" cy="100.6" r="8.5"/>
			<circle class="st5" cx="40" cy="100.6" r="8.5"/>
		</g>
		<g>
			<path class="st6" d="M38.8,104.5c-0.5-0.2-0.8-0.5-0.8-1.3v-1h1.7v0.8l0.1,0.1h0.5l0.1-0.1v-1.8l-0.3,0.3h-1.3
				c-0.5-0.2-0.8-0.5-0.8-1.3v-2.2c0-0.8,0.4-1.1,0.8-1.3h2.5c0.5,0.2,0.8,0.5,0.8,1.3v5.1c0,0.8-0.4,1.1-0.8,1.3H38.8z M40.4,100.2
				v-1.8l-0.1-0.1h-0.5l-0.1,0.1v1.8l0.1,0.1h0.5L40.4,100.2z"/>
		</g>
	</g>
	<g>
		<g>
			<circle class="st4" cx="187.3" cy="75.4" r="8.5"/>
			<circle class="st5" cx="187.3" cy="75.4" r="8.5"/>
		</g>
		<g>
			<path class="st6" d="M183.3,79.3v-1.6h1v-4.5h-0.9v-1.6h2.6v6.1h0.9v1.6H183.3z"/>
			<path class="st6" d="M190.9,79.3h-2.5c-0.5-0.2-0.8-0.5-0.8-1.3v-5.1c0-0.8,0.4-1.1,0.8-1.3h2.5c0.5,0.2,0.8,0.5,0.8,1.3V78
				C191.8,78.8,191.4,79.1,190.9,79.3z M190.1,73.1L190,73h-0.5l-0.1,0.1v4.7l0.1,0.1h0.5l0.1-0.1V73.1z"/>
		</g>
	</g>
	<g>
		<g>
			<circle class="st4" cx="205.7" cy="24.6" r="8.5"/>
			<circle class="st5" cx="205.7" cy="24.6" r="8.5"/>
		</g>
		<g>
			<path class="st6" d="M201.7,28.5v-1.6h1v-4.5h-0.9v-1.6h2.6v6.1h0.9v1.6H201.7z"/>
			<path class="st6" d="M206.4,28.5v-1.6h1v-4.5h-0.9v-1.6h2.6v6.1h0.9v1.6H206.4z"/>
		</g>
	</g>
	<g>
		<g>
			<circle class="st4" cx="241.5" cy="31" r="8.5"/>
			<circle class="st5" cx="241.5" cy="31" r="8.5"/>
		</g>
		<g>
			<path class="st6" d="M237.5,34.9v-1.6h1v-4.5h-0.9v-1.6h2.6v6.1h0.9v1.6H237.5z"/>
			<path class="st6" d="M241.8,34.9v-2.6c0-0.6,0.1-1,0.6-1.2l1.9-0.8v-1.6l-0.1-0.1h-0.5l-0.1,0.1v1.1h-1.7v-1.3
				c0-0.8,0.4-1.1,0.8-1.3h2.5c0.5,0.2,0.8,0.5,0.8,1.3v1.9c0,0.6-0.1,0.9-0.6,1.2l-1.9,0.8v0.9h2.4v1.6H241.8z"/>
		</g>
	</g>
	<g>
		<g>
			<circle class="st4" cx="273.6" cy="12.9" r="8.5"/>
			<circle class="st5" cx="273.6" cy="12.9" r="8.5"/>
		</g>
		<g>
			<path class="st6" d="M269.6,16.8v-1.6h1v-4.5h-0.9V9.1h2.6v6.1h0.9v1.6H269.6z"/>
			<path class="st6" d="M274.7,16.8c-0.5-0.2-0.8-0.5-0.8-1.3v-1h1.7v0.8l0.1,0.1h0.5l0.1-0.1v-1.6l-0.1-0.1h-1v-1.3h1l0.1-0.1v-1.5
				l-0.1-0.1h-0.5l-0.1,0.1v0.8h-1.7v-1c0-0.8,0.4-1.1,0.8-1.3h2.5c0.5,0.2,0.8,0.5,0.8,1.3v1.3c0,0.6-0.2,0.9-0.6,1.2
				c0.4,0.3,0.6,0.6,0.6,1.2v1.4c0,0.8-0.4,1.1-0.8,1.3H274.7z"/>
		</g>
	</g>
	<g>
		<g>
			<circle class="st4" cx="319.7" cy="43.4" r="8.5"/>
			<circle class="st5" cx="319.7" cy="43.4" r="8.5"/>
		</g>
		<g>
			<path class="st6" d="M315.7,47.3v-1.6h1v-4.5h-0.9v-1.6h2.6v6.1h0.9v1.6H315.7z"/>
			<path class="st6" d="M323.7,45.8v1.5H322v-1.5h-2.2v-1.5l1.6-4.7h1.7l-1.6,4.6h0.5v-0.4l0.4-1h1.3v1.4h0.5v1.6H323.7z"/>
		</g>
	</g>
	<g>
		<g>
			<circle class="st4" cx="515.7" cy="147.5" r="8.5"/>
			<circle class="st5" cx="515.7" cy="147.5" r="8.5"/>
		</g>
		<g>
			<path class="st6" d="M511.6,151.4v-1.6h1v-4.5h-0.9v-1.6h2.6v6.1h0.9v1.6H511.6z"/>
			<path class="st6" d="M516.8,151.4c-0.5-0.2-0.8-0.5-0.8-1.3v-1h1.6v0.8l0.1,0.1h0.6l0.1-0.1v-2.1l-0.1-0.1h-0.6l-0.1,0.1v0.4
				h-1.6v-4.5h4v1.5h-2.4v1.6l0.4-0.4h1.3c0.5,0.2,0.8,0.5,0.8,1.3v2.4c0,0.8-0.4,1.1-0.8,1.3H516.8z"/>
		</g>
	</g>
	<g>
		<g>
			<circle class="st4" cx="405.5" cy="232" r="8.5"/>
			<circle class="st5" cx="405.5" cy="232" r="8.5"/>
		</g>
		<g>
			<path class="st6" d="M401.5,235.9v-1.6h1v-4.5h-0.9v-1.6h2.6v6.1h0.9v1.6H401.5z"/>
			<path class="st6" d="M409.1,235.9h-2.5c-0.5-0.2-0.8-0.5-0.8-1.3v-5.1c0-0.8,0.4-1.1,0.8-1.3h2.5c0.5,0.2,0.8,0.5,0.8,1.3v1h-1.7
				v-0.8l-0.1-0.1h-0.5l-0.1,0.1v1.8l0.3-0.3h1.3c0.5,0.2,0.8,0.5,0.8,1.3v2.2C409.9,235.4,409.6,235.7,409.1,235.9z M408.1,234.5
				l0.1-0.1v-1.8l-0.1-0.1h-0.5l-0.1,0.1v1.8l0.1,0.1H408.1z"/>
		</g>
	</g>
	<g>
		<g>
			<circle class="st4" cx="452.2" cy="257.6" r="8.5"/>
			<circle class="st5" cx="452.2" cy="257.6" r="8.5"/>
		</g>
		<g>
			<path class="st6" d="M448.2,261.5v-1.6h1v-4.5h-0.9v-1.6h2.6v6.1h0.9v1.6H448.2z"/>
			<path class="st6" d="M452.8,261.5l2.1-6.2h-2.4v-1.5h4.1v1.2l-2.1,6.5H452.8z"/>
		</g>
	</g>
	<g>
		<g>
			<circle class="st4" cx="396.8" cy="297.1" r="8.5"/>
			<circle class="st5" cx="396.8" cy="297.1" r="8.5"/>
		</g>
		<g>
			<path class="st6" d="M392.8,301v-1.6h1V295h-0.9v-1.6h2.6v6.1h0.9v1.6H392.8z"/>
			<path class="st6" d="M397.9,301c-0.5-0.2-0.8-0.5-0.8-1.3v-1.4c0-0.6,0.2-0.9,0.6-1.2c-0.4-0.3-0.6-0.6-0.6-1.2v-1.3
				c0-0.8,0.4-1.1,0.8-1.3h2.5c0.5,0.2,0.8,0.5,0.8,1.3v1.3c0,0.6-0.2,0.9-0.6,1.2c0.4,0.3,0.6,0.6,0.6,1.2v1.4
				c0,0.8-0.4,1.1-0.8,1.3H397.9z M398.8,296.4l0.1,0.1h0.5l0.1-0.1v-1.5l-0.1-0.1h-0.5l-0.1,0.1V296.4z M399.5,299.5v-1.6l-0.1-0.1
				h-0.5l-0.1,0.1v1.6l0.1,0.1h0.5L399.5,299.5z"/>
		</g>
	</g>
</g>

<g id="DRS">
	
	

	

	<g>
		<g>
			<g>
				<g>
					<line class="st12" x1="209.5" y1="76.9" x2="200" y2="70.2"/>
				</g>
				<g>
					<path class="st10" d="M201.5,78.1c-0.5-0.4-0.6-1-0.3-1.5s1-0.6,1.5-0.3c0.5,0.4,0.6,1,0.3,1.5S202,78.5,201.5,78.1z"/>
				</g>
				<g>
					<path class="st10" d="M198.9,81.8c-0.5-0.4-0.6-1-0.3-1.5c0.4-0.5,1-0.6,1.5-0.3c0.5,0.4,0.6,1,0.3,1.5S199.4,82.1,198.9,81.8z
						"/>
				</g>
				<g>
					<path class="st10" d="M196.4,85.4c-0.5-0.4-0.6-1-0.3-1.5s1-0.6,1.5-0.3c0.5,0.4,0.6,1,0.3,1.5S196.9,85.8,196.4,85.4z"/>
				</g>
				<g>
					<path class="st10" d="M193.8,89.1c-0.5-0.4-0.6-1-0.3-1.5s1-0.6,1.5-0.3c0.5,0.4,0.6,1,0.3,1.5S194.3,89.4,193.8,89.1z"/>
				</g>
				<g>
					<path class="st10" d="M191.2,92.7c-0.5-0.4-0.6-1-0.3-1.5s1-0.6,1.5-0.3c0.5,0.4,0.6,1,0.3,1.5
						C192.4,92.9,191.7,93.1,191.2,92.7z"/>
				</g>
				<g>
					<path class="st10" d="M188.7,96.4c-0.5-0.4-0.6-1-0.3-1.5c0.4-0.5,1-0.6,1.5-0.3c0.5,0.4,0.6,1,0.3,1.5
						C189.8,96.6,189.1,96.7,188.7,96.4z"/>
				</g>
				<g>
					<path class="st10" d="M186.1,100c-0.5-0.4-0.6-1-0.3-1.5s1-0.6,1.5-0.3s0.6,1,0.3,1.5C187.3,100.2,186.6,100.3,186.1,100z"/>
				</g>
				<g>
					<path class="st10" d="M183.5,103.6c-0.5-0.4-0.6-1-0.3-1.5c0.4-0.5,1-0.6,1.5-0.3s0.6,1,0.3,1.5
						C184.7,103.9,184,104,183.5,103.6z"/>
				</g>
				<g>
					<path class="st10" d="M180.9,107.3c-0.5-0.4-0.6-1-0.3-1.5s1-0.6,1.5-0.3c0.5,0.4,0.6,1,0.3,1.5S181.4,107.6,180.9,107.3z"/>
				</g>
				<g>
					<path class="st10" d="M178.4,110.9c-0.5-0.4-0.6-1-0.3-1.5s1-0.6,1.5-0.3c0.5,0.4,0.6,1,0.3,1.5S178.9,111.3,178.4,110.9z"/>
				</g>
				<g>
					<path class="st10" d="M175.8,114.6c-0.5-0.4-0.6-1-0.3-1.5c0.4-0.5,1-0.6,1.5-0.3c0.5,0.4,0.6,1,0.3,1.5
						S176.3,114.9,175.8,114.6z"/>
				</g>
				<g>
					<path class="st10" d="M173.2,118.2c-0.5-0.4-0.6-1-0.3-1.5s1-0.6,1.5-0.3c0.5,0.4,0.6,1,0.3,1.5S173.7,118.6,173.2,118.2z"/>
				</g>
				<g>
					<path class="st10" d="M170.6,121.9c-0.5-0.4-0.6-1-0.3-1.5s1-0.6,1.5-0.3c0.5,0.4,0.6,1,0.3,1.5S171.1,122.2,170.6,121.9z"/>
				</g>
				<g>
					<path class="st10" d="M168.1,125.5c-0.5-0.4-0.6-1-0.3-1.5s1-0.6,1.5-0.3c0.5,0.4,0.6,1,0.3,1.5
						C169.3,125.7,168.6,125.9,168.1,125.5z"/>
				</g>
				<g>
					<path class="st10" d="M165.5,129.1c-0.5-0.4-0.6-1-0.3-1.5c0.4-0.5,1-0.6,1.5-0.3c0.5,0.4,0.6,1,0.3,1.5S166,129.5,165.5,129.1
						z"/>
				</g>
				<g>
					<path class="st10" d="M162.9,132.8c-0.5-0.4-0.6-1-0.3-1.5s1-0.6,1.5-0.3c0.5,0.4,0.6,1,0.3,1.5S163.4,133.1,162.9,132.8z"/>
				</g>
				<g>
					<path class="st10" d="M160.4,136.4c-0.5-0.4-0.6-1-0.3-1.5s1-0.6,1.5-0.3c0.5,0.4,0.6,1,0.3,1.5
						C161.5,136.7,160.9,136.8,160.4,136.4z"/>
				</g>
				<g>
					<path class="st10" d="M157.8,140.1c-0.5-0.4-0.6-1-0.3-1.5c0.4-0.5,1-0.6,1.5-0.3s0.6,1,0.3,1.5
						C159,140.3,158.3,140.4,157.8,140.1z"/>
				</g>
				<g>
					<path class="st10" d="M155.2,143.7c-0.5-0.4-0.6-1-0.3-1.5c0.4-0.5,1-0.6,1.5-0.3s0.6,1,0.3,1.5S155.7,144.1,155.2,143.7z"/>
				</g>
				<g>
					<path class="st10" d="M152.6,147.4c-0.5-0.4-0.6-1-0.3-1.5s1-0.6,1.5-0.3c0.5,0.4,0.6,1,0.3,1.5
						C153.8,147.6,153.1,147.7,152.6,147.4z"/>
				</g>
				<g>
					<path class="st10" d="M150.1,151c-0.5-0.4-0.6-1-0.3-1.5c0.4-0.5,1-0.6,1.5-0.3c0.5,0.4,0.6,1,0.3,1.5S150.6,151.4,150.1,151z"
						/>
				</g>
				<g>
					<path class="st10" d="M147.5,154.7c-0.5-0.4-0.6-1-0.3-1.5s1-0.6,1.5-0.3c0.5,0.4,0.6,1,0.3,1.5S148,155,147.5,154.7z"/>
				</g>
				<g>
					<path class="st10" d="M144.9,158.3c-0.5-0.4-0.6-1-0.3-1.5s1-0.6,1.5-0.3c0.5,0.4,0.6,1,0.3,1.5S145.4,158.7,144.9,158.3z"/>
				</g>
				<g>
					<path class="st10" d="M142.3,161.9c-0.5-0.4-0.6-1-0.3-1.5s1-0.6,1.5-0.3c0.5,0.4,0.6,1,0.3,1.5
						C143.5,162.2,142.8,162.3,142.3,161.9z"/>
				</g>
				<g>
					<path class="st10" d="M139.8,165.6c-0.5-0.4-0.6-1-0.3-1.5s1-0.6,1.5-0.3c0.5,0.4,0.6,1,0.3,1.5S140.3,165.9,139.8,165.6z"/>
				</g>
				<g>
					<path class="st10" d="M137.2,169.2c-0.5-0.4-0.6-1-0.3-1.5s1-0.6,1.5-0.3c0.5,0.4,0.6,1,0.3,1.5S137.7,169.6,137.2,169.2z"/>
				</g>
				<g>
					<path class="st10" d="M134.6,172.9c-0.5-0.4-0.6-1-0.3-1.5s1-0.6,1.5-0.3c0.5,0.4,0.6,1,0.3,1.5
						C135.8,173.1,135.1,173.2,134.6,172.9z"/>
				</g>
				<g>
					<path class="st10" d="M132.1,176.5c-0.5-0.4-0.6-1-0.3-1.5c0.4-0.5,1-0.6,1.5-0.3c0.5,0.4,0.6,1,0.3,1.5
						C133.3,176.8,132.6,176.9,132.1,176.5z"/>
				</g>
				<g>
					<path class="st10" d="M129.5,180.2c-0.5-0.4-0.6-1-0.3-1.5s1-0.6,1.5-0.3s0.6,1,0.3,1.5C130.7,180.4,130,180.5,129.5,180.2z"/>
				</g>
				<g>
					<path class="st10" d="M126.9,183.8c-0.5-0.4-0.6-1-0.3-1.5c0.4-0.5,1-0.6,1.5-0.3s0.6,1,0.3,1.5
						C128.1,184,127.4,184.2,126.9,183.8z"/>
				</g>
				<g>
					<path class="st10" d="M124.3,187.5c-0.5-0.4-0.6-1-0.3-1.5c0.4-0.5,1-0.6,1.5-0.3c0.5,0.4,0.6,1,0.3,1.5
						S124.8,187.8,124.3,187.5z"/>
				</g>
				<g>
					<path class="st10" d="M121.8,191.1c-0.5-0.4-0.6-1-0.3-1.5s1-0.6,1.5-0.3c0.5,0.4,0.6,1,0.3,1.5
						C123,191.3,122.3,191.4,121.8,191.1z"/>
				</g>
				<g>
					<path class="st10" d="M119.2,194.7c-0.5-0.4-0.6-1-0.3-1.5s1-0.6,1.5-0.3c0.5,0.4,0.6,1,0.3,1.5
						C120.4,195,119.7,195.1,119.2,194.7z"/>
				</g>
				<g>
					<path class="st10" d="M116.6,198.4c-0.5-0.4-0.6-1-0.3-1.5c0.4-0.5,1-0.6,1.5-0.3c0.5,0.4,0.6,1,0.3,1.5
						S117.1,198.7,116.6,198.4z"/>
				</g>
				<g>
					<line class="st12" x1="119.4" y1="204.5" x2="110" y2="197.8"/>
				</g>
			</g>
		</g>
	</g>
	<g>
		<g>
			<g>
				<g>
					<line class="st12" x1="306.9" y1="70.6" x2="302.6" y2="81.4"/>
				</g>
				<g>
					<path class="st10" d="M309.8,78c-0.2,0.6-0.9,0.8-1.4,0.6c-0.6-0.2-0.8-0.9-0.6-1.4s0.9-0.8,1.4-0.6S310,77.4,309.8,78z"/>
				</g>
				<g>
					<path class="st10" d="M313.9,79.6c-0.2,0.6-0.9,0.8-1.4,0.6c-0.6-0.2-0.8-0.9-0.6-1.4c0.2-0.6,0.9-0.8,1.4-0.6
						C313.8,78.4,314.1,79,313.9,79.6z"/>
				</g>
				<g>
					<path class="st10" d="M317.9,81.2c-0.2,0.6-0.9,0.8-1.4,0.6c-0.6-0.2-0.8-0.9-0.6-1.4s0.9-0.8,1.4-0.6
						C317.9,80,318.2,80.7,317.9,81.2z"/>
				</g>
				<g>
					<path class="st10" d="M322,82.8c-0.2,0.6-0.9,0.8-1.4,0.6c-0.6-0.2-0.8-0.9-0.6-1.4c0.2-0.6,0.9-0.8,1.4-0.6
						C322,81.6,322.2,82.3,322,82.8z"/>
				</g>
				<g>
					<path class="st10" d="M326.1,84.4c-0.2,0.6-0.9,0.8-1.4,0.6c-0.6-0.2-0.8-0.9-0.6-1.4c0.2-0.6,0.9-0.8,1.4-0.6
						C326,83.2,326.3,83.9,326.1,84.4z"/>
				</g>
				<g>
					<path class="st10" d="M330.1,86.1c-0.2,0.6-0.9,0.8-1.4,0.6s-0.8-0.9-0.6-1.4c0.2-0.6,0.9-0.8,1.4-0.6
						C330.1,84.8,330.4,85.5,330.1,86.1z"/>
				</g>
				<g>
					<path class="st10" d="M334.2,87.7c-0.2,0.6-0.9,0.8-1.4,0.6s-0.8-0.9-0.6-1.4c0.2-0.6,0.9-0.8,1.4-0.6
						C334.2,86.5,334.4,87.1,334.2,87.7z"/>
				</g>
				<g>
					<path class="st10" d="M338.3,89.3c-0.2,0.6-0.9,0.8-1.4,0.6s-0.8-0.9-0.6-1.4c0.2-0.6,0.9-0.8,1.4-0.6
						C338.2,88.1,338.5,88.7,338.3,89.3z"/>
				</g>
				<g>
					<path class="st10" d="M342.3,90.9c-0.2,0.6-0.9,0.8-1.4,0.6s-0.8-0.9-0.6-1.4c0.2-0.6,0.9-0.8,1.4-0.6
						C342.3,89.7,342.6,90.3,342.3,90.9z"/>
				</g>
				<g>
					<path class="st10" d="M346.4,92.5c-0.2,0.6-0.9,0.8-1.4,0.6c-0.6-0.2-0.8-0.9-0.6-1.4c0.2-0.6,0.9-0.8,1.4-0.6
						C346.4,91.3,346.6,91.9,346.4,92.5z"/>
				</g>
				<g>
					<path class="st10" d="M350.5,94.1c-0.2,0.6-0.9,0.8-1.4,0.6c-0.6-0.2-0.8-0.9-0.6-1.4s0.9-0.8,1.4-0.6
						C350.4,92.9,350.7,93.5,350.5,94.1z"/>
				</g>
				<g>
					<path class="st10" d="M354.5,95.7c-0.2,0.6-0.9,0.8-1.4,0.6c-0.6-0.2-0.8-0.9-0.6-1.4c0.2-0.6,0.9-0.8,1.4-0.6
						C354.5,94.5,354.8,95.1,354.5,95.7z"/>
				</g>
				<g>
					<path class="st10" d="M358.6,97.3c-0.2,0.6-0.9,0.8-1.4,0.6c-0.6-0.2-0.8-0.9-0.6-1.4c0.2-0.6,0.9-0.8,1.4-0.6
						C358.6,96.1,358.8,96.8,358.6,97.3z"/>
				</g>
				<g>
					<path class="st10" d="M362.7,98.9c-0.2,0.6-0.9,0.8-1.4,0.6c-0.6-0.2-0.8-0.9-0.6-1.4c0.2-0.6,0.9-0.8,1.4-0.6
						C362.6,97.7,362.9,98.4,362.7,98.9z"/>
				</g>
				<g>
					<path class="st10" d="M366.7,100.5c-0.2,0.6-0.9,0.8-1.4,0.6c-0.6-0.2-0.8-0.9-0.6-1.4c0.2-0.6,0.9-0.8,1.4-0.6
						C366.7,99.3,367,100,366.7,100.5z"/>
				</g>
				<g>
					<path class="st10" d="M370.8,102.1c-0.2,0.6-0.9,0.8-1.4,0.6c-0.6-0.2-0.8-0.9-0.6-1.4c0.2-0.6,0.9-0.8,1.4-0.6
						C370.8,100.9,371,101.6,370.8,102.1z"/>
				</g>
				<g>
					<path class="st10" d="M374.9,103.8c-0.2,0.6-0.9,0.8-1.4,0.6c-0.6-0.2-0.8-0.9-0.6-1.4c0.2-0.6,0.9-0.8,1.4-0.6
						C374.8,102.5,375.1,103.2,374.9,103.8z"/>
				</g>
				<g>
					<path class="st10" d="M378.9,105.4c-0.2,0.6-0.9,0.8-1.4,0.6s-0.8-0.9-0.6-1.4c0.2-0.6,0.9-0.8,1.4-0.6
						C378.9,104.2,379.2,104.8,378.9,105.4z"/>
				</g>
				<g>
					<path class="st10" d="M383,107c-0.2,0.6-0.9,0.8-1.4,0.6s-0.8-0.9-0.6-1.4c0.2-0.6,0.9-0.8,1.4-0.6
						C383,105.8,383.2,106.4,383,107z"/>
				</g>
				<g>
					<path class="st10" d="M387.1,108.6c-0.2,0.6-0.9,0.8-1.4,0.6c-0.6-0.2-0.8-0.9-0.6-1.4c0.2-0.6,0.9-0.8,1.4-0.6
						C387,107.4,387.3,108,387.1,108.6z"/>
				</g>
				<g>
					<path class="st10" d="M391.1,110.2c-0.2,0.6-0.9,0.8-1.4,0.6c-0.6-0.2-0.8-0.9-0.6-1.4c0.2-0.6,0.9-0.8,1.4-0.6
						C391.1,109,391.4,109.6,391.1,110.2z"/>
				</g>
				<g>
					<path class="st10" d="M395.2,111.8c-0.2,0.6-0.9,0.8-1.4,0.6c-0.6-0.2-0.8-0.9-0.6-1.4s0.9-0.8,1.4-0.6
						C395.2,110.6,395.4,111.2,395.2,111.8z"/>
				</g>
				<g>
					<path class="st10" d="M399.3,113.4c-0.2,0.6-0.9,0.8-1.4,0.6c-0.6-0.2-0.8-0.9-0.6-1.4c0.2-0.6,0.9-0.8,1.4-0.6
						C399.2,112.2,399.5,112.8,399.3,113.4z"/>
				</g>
				<g>
					<path class="st10" d="M403.3,115c-0.2,0.6-0.9,0.8-1.4,0.6s-0.8-0.9-0.6-1.4s0.9-0.8,1.4-0.6
						C403.3,113.8,403.6,114.5,403.3,115z"/>
				</g>
				<g>
					<path class="st10" d="M407.4,116.6c-0.2,0.6-0.9,0.8-1.4,0.6s-0.8-0.9-0.6-1.4c0.2-0.6,0.9-0.8,1.4-0.6
						C407.4,115.4,407.6,116.1,407.4,116.6z"/>
				</g>
				<g>
					<path class="st10" d="M411.5,118.2c-0.2,0.6-0.9,0.8-1.4,0.6c-0.6-0.2-0.8-0.9-0.6-1.4c0.2-0.6,0.9-0.8,1.4-0.6
						C411.4,117,411.7,117.7,411.5,118.2z"/>
				</g>
				<g>
					<path class="st10" d="M415.5,119.8c-0.2,0.6-0.9,0.8-1.4,0.6c-0.6-0.2-0.8-0.9-0.6-1.4c0.2-0.6,0.9-0.8,1.4-0.6
						C415.5,118.6,415.8,119.3,415.5,119.8z"/>
				</g>
				<g>
					<path class="st10" d="M419.6,121.5c-0.2,0.6-0.9,0.8-1.4,0.6c-0.6-0.2-0.8-0.9-0.6-1.4c0.2-0.6,0.9-0.8,1.4-0.6
						C419.6,120.3,419.8,120.9,419.6,121.5z"/>
				</g>
				<g>
					<path class="st10" d="M423.7,123.1c-0.2,0.6-0.9,0.8-1.4,0.6s-0.8-0.9-0.6-1.4c0.2-0.6,0.9-0.8,1.4-0.6
						C423.6,121.9,423.9,122.5,423.7,123.1z"/>
				</g>
				<g>
					<path class="st10" d="M427.7,124.7c-0.2,0.6-0.9,0.8-1.4,0.6c-0.6-0.2-0.8-0.9-0.6-1.4c0.2-0.6,0.9-0.8,1.4-0.6
						C427.7,123.5,428,124.1,427.7,124.7z"/>
				</g>
				<g>
					<path class="st10" d="M431.8,126.4c-0.2,0.6-0.9,0.8-1.4,0.6c-0.6-0.2-0.8-0.9-0.6-1.4c0.2-0.6,0.9-0.8,1.4-0.6
						C431.7,125.2,432,125.8,431.8,126.4z"/>
				</g>
				<g>
					<path class="st10" d="M435.8,128.1c-0.2,0.6-0.9,0.8-1.4,0.6c-0.6-0.2-0.8-0.9-0.6-1.4c0.2-0.6,0.9-0.8,1.4-0.6
						C435.8,126.8,436,127.5,435.8,128.1z"/>
				</g>
				<g>
					<path class="st10" d="M439.8,129.8c-0.2,0.6-0.9,0.8-1.4,0.6c-0.6-0.2-0.8-0.9-0.6-1.4c0.2-0.6,0.9-0.8,1.4-0.6
						C439.8,128.5,440.1,129.2,439.8,129.8z"/>
				</g>
				<g>
					<path class="st10" d="M443.9,131.5c-0.2,0.6-0.9,0.8-1.4,0.6c-0.6-0.2-0.8-0.9-0.6-1.4c0.2-0.6,0.9-0.8,1.4-0.6
						C443.8,130.3,444.1,130.9,443.9,131.5z"/>
				</g>
				<g>
					<path class="st10" d="M447.9,133.2c-0.2,0.6-0.9,0.8-1.4,0.6c-0.6-0.2-0.8-0.9-0.6-1.4s0.9-0.8,1.4-0.6
						C447.9,132,448.1,132.7,447.9,133.2z"/>
				</g>
				<g>
					<path class="st10" d="M451.8,135c-0.3,0.6-0.9,0.8-1.5,0.5c-0.5-0.2-0.8-0.9-0.5-1.5c0.3-0.6,0.9-0.8,1.5-0.6
						C451.9,133.8,452.1,134.5,451.8,135z"/>
				</g>
				<g>
					<path class="st10" d="M455.8,136.9c-0.3,0.5-0.9,0.8-1.5,0.5c-0.5-0.3-0.8-0.9-0.5-1.5s0.9-0.8,1.5-0.5
						C455.8,135.7,456.1,136.4,455.8,136.9z"/>
				</g>
				<g>
					<path class="st10" d="M459.7,138.9c-0.3,0.5-0.9,0.7-1.5,0.5c-0.5-0.3-0.7-0.9-0.5-1.5c0.3-0.5,0.9-0.8,1.5-0.5
						C459.8,137.7,460,138.4,459.7,138.9z"/>
				</g>
				<g>
					<path class="st10" d="M463.5,141c-0.3,0.5-1,0.7-1.5,0.4c-0.5-0.3-0.7-1-0.4-1.5s1-0.7,1.5-0.4
						C463.6,139.8,463.8,140.5,463.5,141z"/>
				</g>
				<g>
					<path class="st10" d="M467.3,143.2c-0.3,0.5-1,0.7-1.5,0.4c-0.5-0.3-0.7-1-0.4-1.5c0.3-0.5,1-0.7,1.5-0.4
						S467.6,142.6,467.3,143.2z"/>
				</g>
				<g>
					<path class="st10" d="M471.1,145.3c-0.3,0.5-1,0.7-1.5,0.4c-0.5-0.3-0.7-1-0.4-1.5c0.3-0.5,1-0.7,1.5-0.4
						C471.2,144.1,471.4,144.8,471.1,145.3z"/>
				</g>
				<g>
					<path class="st10" d="M474.9,147.5c-0.3,0.5-1,0.7-1.5,0.4s-0.7-1-0.4-1.5c0.3-0.5,1-0.7,1.5-0.4S475.2,147,474.9,147.5z"/>
				</g>
				<g>
					<line class="st12" x1="480.7" y1="144.1" x2="474.8" y2="154.1"/>
				</g>
			</g>
		</g>
	</g>
</g>
<g id="アイコン">
	<g>
		
			<rect x="343.3" y="274.4" transform="matrix(0.5482 -0.8363 0.8363 0.5482 -74.9696 412.9301)" class="st5" width="2.8" height="2.8"/>
		
			<rect x="346.4" y="269.7" transform="matrix(0.5482 -0.8363 0.8363 0.5482 -69.6001 413.3875)" class="st5" width="2.8" height="2.8"/>
		
			<rect x="347.2" y="273.6" transform="matrix(0.5482 -0.8363 0.8363 0.5482 -72.5136 415.8435)" class="st5" width="2.8" height="2.8"/>
		
			<rect x="350.3" y="268.9" transform="matrix(0.5482 -0.8363 0.8363 0.5482 -67.1441 416.3009)" class="st5" width="2.8" height="2.8"/>
		
			<rect x="352" y="276.7" transform="matrix(0.5482 -0.8363 0.8363 0.5482 -72.971 421.213)" class="st5" width="2.8" height="2.8"/>
		
			<rect x="355.1" y="272" transform="matrix(0.5482 -0.8363 0.8363 0.5482 -67.6016 421.6704)" class="st5" width="2.8" height="2.8"/>
		
			<rect x="349.5" y="265" transform="matrix(0.5482 -0.8363 0.8363 0.5482 -64.2307 413.8449)" class="st5" width="2.8" height="2.8"/>
		
			<rect x="348" y="267.3" transform="matrix(0.5482 -0.8363 0.8363 0.5482 -66.9154 413.6162)" class="st6" width="2.8" height="2.8"/>
		
			<rect x="344.9" y="272.1" transform="matrix(0.5482 -0.8363 0.8363 0.5482 -72.2849 413.1588)" class="st6" width="2.8" height="2.8"/>
		
			<rect x="345.7" y="276" transform="matrix(0.5482 -0.8363 0.8363 0.5482 -75.1983 415.6148)" class="st6" width="2.8" height="2.8"/>
		
			<rect x="348.8" y="271.3" transform="matrix(0.5482 -0.8363 0.8363 0.5482 -69.8288 416.0722)" class="st6" width="2.8" height="2.8"/>
		
			<rect x="351.9" y="266.5" transform="matrix(0.5482 -0.8363 0.8363 0.5482 -64.4594 416.5297)" class="st6" width="2.8" height="2.8"/>
		
			<rect x="352.7" y="270.4" transform="matrix(0.5482 -0.8363 0.8363 0.5482 -67.3728 418.9857)" class="st6" width="2.8" height="2.8"/>
		
			<rect x="349.6" y="275.2" transform="matrix(0.5482 -0.8363 0.8363 0.5482 -72.7423 418.5282)" class="st6" width="2.8" height="2.8"/>
		
			<rect x="357.5" y="273.5" transform="matrix(0.5482 -0.8363 0.8363 0.5482 -67.8303 424.3551)" class="st6" width="2.8" height="2.8"/>
		
			<rect x="354.4" y="278.3" transform="matrix(0.5482 -0.8363 0.8363 0.5482 -73.1997 423.8977)" class="st6" width="2.8" height="2.8"/>
		
			<rect x="350.4" y="279.1" transform="matrix(0.5482 -0.8363 0.8363 0.5482 -75.6557 420.9842)" class="st6" width="2.8" height="2.8"/>
		
			<rect x="353.5" y="274.4" transform="matrix(0.5482 -0.8363 0.8363 0.5482 -70.2863 421.4417)" class="st6" width="2.8" height="2.8"/>
		
			<rect x="356.6" y="269.6" transform="matrix(0.5482 -0.8363 0.8363 0.5482 -64.9168 421.8991)" class="st6" width="2.8" height="2.8"/>
		
			<rect x="348.1" y="277.5" transform="matrix(0.5482 -0.8363 0.8363 0.5482 -75.427 418.2995)" class="st5" width="2.8" height="2.8"/>
		
			<rect x="351.2" y="272.8" transform="matrix(0.5482 -0.8363 0.8363 0.5482 -70.0576 418.757)" class="st5" width="2.8" height="2.8"/>
		
			<rect x="355.9" y="275.9" transform="matrix(0.5482 -0.8363 0.8363 0.5482 -70.515 424.1264)" class="st5" width="2.8" height="2.8"/>
		
			<rect x="354.3" y="268.1" transform="matrix(0.5482 -0.8363 0.8363 0.5482 -64.6881 419.2144)" class="st5" width="2.8" height="2.8"/>
		
			<rect x="352.8" y="280.7" transform="matrix(0.5482 -0.8363 0.8363 0.5482 -75.8844 423.6689)" class="st5" width="2.8" height="2.8"/>
		
			<rect x="359" y="271.2" transform="matrix(0.5482 -0.8363 0.8363 0.5482 -65.1456 424.5838)" class="st5" width="2.8" height="2.8"/>
	</g>
	<g>
		<defs>
			
				<rect id="SVGID_1_" x="308" y="247.3" transform="matrix(0.8396 0.5433 -0.5433 0.8396 187.86 -133.057)" width="22.3" height="8.5"/>
		</defs>
		<clipPath id="SVGID_00000169544088702075238960000008543725022423525308_">
			<use xlink:href="#SVGID_1_"  style="overflow:visible;"/>
		</clipPath>
		<g style="clip-path:url(#SVGID_00000169544088702075238960000008543725022423525308_);">
			<polygon class="st19" points="323.7,262.9 321.3,261.3 320.4,252.3 329,249.4 331.4,251 322.8,253.8 			"/>
			<polygon class="st20" points="318.9,259.8 316.5,258.2 315.6,249.2 324.2,246.3 326.6,247.9 318,250.7 			"/>
			<polygon class="st21" points="314.2,256.7 311.8,255.2 310.9,246.1 319.5,243.3 321.9,244.8 313.2,247.7 			"/>
		</g>
	</g>
</g>
</svg>
