<?xml version="1.0" encoding="utf-8"?>
<!-- Generator: Adobe Illustrator 26.5.0, SVG Export Plug-In . SVG Version: 6.00 Build 0)  -->
<svg version="1.1" xmlns="http://www.w3.org/2000/svg" xmlns:xlink="http://www.w3.org/1999/xlink" x="0px" y="0px"
	 viewBox="0 0 550 443.7" style="enable-background:new 0 0 550 443.7;" xml:space="preserve">
<style type="text/css">
	.st0{fill:none;stroke:#646464;stroke-width:14.1732;stroke-miterlimit:10;}
	.st1{fill:none;stroke:#FFD449;stroke-width:2.8346;stroke-miterlimit:10;}
	.st2{fill:none;stroke:#54C6EB;stroke-width:2.8346;stroke-miterlimit:10;}
	.st3{fill:none;stroke:#F4442E;stroke-width:2.8346;stroke-miterlimit:10;}
	.st4{fill:none;stroke:#FFFFFF;stroke-width:2.126;}
	.st5{fill:#646464;}
	.st6{fill:#FFFFFF;}
	.st7{fill:#09BC8A;}
	.st8{fill:none;stroke:#646464;stroke-width:2.8346;stroke-miterlimit:10;}
	.st9{fill:none;stroke:#09BC8A;stroke-width:1.9843;stroke-miterlimit:10;}
	.st10{fill:none;stroke:#09BC8A;stroke-width:2.2097;stroke-miterlimit:10;}
	.st11{fill:#FF3380;}
	.st12{fill:none;stroke:#FF3380;stroke-width:1.9843;stroke-miterlimit:10;}
	.st13{fill:none;stroke:#646464;stroke-width:0.7087;stroke-miterlimit:10;}
	.st14{fill:none;stroke:#F4442E;stroke-width:5.6693;stroke-miterlimit:10;}
	.st15{fill:none;stroke:#54C6EB;stroke-width:5.6693;stroke-miterlimit:10;}
	.st16{fill:none;stroke:#FFD449;stroke-width:5.6693;stroke-miterlimit:10;}
	.st17{fill:none;stroke:#09BC8A;stroke-width:2.8346;stroke-miterlimit:10;}
	.st18{clip-path:url(#SVGID_00000084524135619828616440000008983860963451778445_);}
	.st19{fill:#F4442E;}
	.st20{fill:#54C6EB;}
	.st21{fill:#FFD449;}
</style>
<g id="コース">
	<path class="st0" d="M509.4,232.3c0,0-21.1-155.9-21.9-161.9c-0.9-6-3.7-7.5-8.8-6.9c-5.2,0.6-11.4,0.9-17.2-2.6s-6.2-6-7.7-9
		c-1.5-3-3.5-5.8-8.1-5.8s-7.3,4.5-7.8,8.5s-2,20.8-2,25.5c0,4.7,2.4,12.6,4.3,17.7s13,32,14.5,40.3c1.5,8.3,1.8,24.4,1.8,27.2
		c0,4.5-5.9,11.2-17.8,11.2s-123.8-7-128-7.2s-15.7-3.9-22-7.6c-6.4-3.7-82.9-49.6-85.6-51s-5.7-0.4-7.1,1.4
		c-1.4,1.9-18.9,25.6-21.3,29.6c-2.4,4.1-9.7,18.3-10.9,21c-2,4.4-5.1,6.6-8.9,1.9c-4.5-5.6-11.5-15-16-19
		c-4.5-4-16.9-15.1-20.6-17.1c-3.7-2-7.7-1.6-9.8-0.3c-2.1,1.3-8.7,7.4-10.6,10.8c-2,3.4-44.7,82.1-47,86.2
		c-2.3,4.1-8.7,13.6-10.4,15.6c-1.8,2-2.4,3.7-1.9,6.5c0.5,2.7,4.9,12.7,6.4,14.3s9.7,7.9,11.7,9.1s4.7,2.7,7.5,2.9
		c2.7,0.1,4.7,0.5,6.3,1.9c1.5,1.3,1.3,3.6,1.3,5.9s0.2,11.2,0.4,14c0.2,2.9,2,7,5.2,9.5c3.2,2.5,21.4,17.1,24.4,20
		c4.7,4.6,9.5,10.6,11.6,15.8c2.8,6.6,9.4,3.7,9.7-0.4c0.2-2.7,11.5-64.9,12.7-73.5c1.2-8.7,4.7-24.3,11.6-43.8
		c6.9-19.5,14.6-40.8,15.5-43s3.4-3.8,6.7-1.4c3.3,2.4,49,39.9,53.5,43c6.3,4.5,10.6,8.5,22.8,8.5c8.9,0,10.9,0,12.8,0
		c2,0,5.7,1.2,5.7,6c0,4.8,0,11.1,0,14.2s2.5,12.3,13.2,12.7c13.6,0.5,53.7,2.9,56,3c2.3,0.1,4.8-1.5,5.4-5.5c0.5-4,4-17,4.6-20.2
		s2.9-4,7.4-4s34.5,2,36.8,2.3s4.5,1.8,4.5,6.6c0,3,0,4.9,0,7.4c0,2.4,1.6,6.3,4.7,9.1c3.1,2.9,9,4.2,13.6,4.2
		c6.5,0,72.1,3.7,76.5,4c4.2,0.2,5.8-0.4,8.7-4c2.9-3.5,11.5-18,12.7-19.9c1.2-1.9,1.8-3.8,1.6-5.9
		C509.7,237.6,509.4,232.3,509.4,232.3z"/>
</g>
<g id="セクター">
	<path class="st1" d="M153.3,205.4c4.7-13.2,8.7-24.2,9.3-25.7c0.9-2.2,3.4-3.8,6.7-1.4c3.3,2.4,49,39.9,53.5,43
		c6.3,4.5,10.6,8.5,22.8,8.5c8.9,0,10.9,0,12.8,0c2,0,5.7,1.2,5.7,6c0,4.8,0,11.1,0,14.2s2.5,12.3,13.2,12.7c13.6,0.5,53.7,2.9,56,3
		c2.3,0.1,4.8-1.5,5.4-5.5c0.5-4,4-17,4.6-20.2s2.9-4,7.4-4s34.5,2,36.8,2.3s4.5,1.8,4.5,6.6c0,3,0,4.9,0,7.4c0,2.4,1.6,6.3,4.7,9.1
		c3.1,2.9,9,4.2,13.6,4.2c6.5,0,72.1,3.7,76.5,4c4.2,0.2,5.8-0.4,8.7-4c2.9-3.5,11.5-18,12.7-19.9c1.2-1.9,1.8-3.8,1.6-5.9
		c-0.1-2.1-0.4-7.4-0.4-7.4s-1-7.1-2.5-18.4"/>
	<path class="st2" d="M240.7,133.1c-18.9-11.3-36.5-21.8-37.8-22.5c-2.7-1.4-5.7-0.4-7.1,1.4c-1.4,1.9-18.9,25.6-21.3,29.6
		c-2.4,4.1-9.7,18.3-10.9,21c-2,4.4-5.1,6.6-8.9,1.9c-4.5-5.6-11.5-15-16-19c-4.5-4-16.9-15.1-20.6-17.1c-3.7-2-7.7-1.6-9.8-0.3
		c-2.1,1.3-8.7,7.4-10.6,10.8c-2,3.4-44.7,82.1-47,86.2c-2.3,4.1-8.7,13.6-10.4,15.6c-1.8,2-2.4,3.7-1.9,6.5
		c0.5,2.7,4.9,12.7,6.4,14.3s9.7,7.9,11.7,9.1s4.7,2.7,7.5,2.9c2.7,0.1,4.7,0.5,6.3,1.9c1.5,1.3,1.3,3.6,1.3,5.9s0.2,11.2,0.4,14
		c0.2,2.9,2,7,5.2,9.5c3.2,2.5,21.4,17.1,24.4,20c4.7,4.6,9.5,10.6,11.6,15.8c2.8,6.6,9.4,3.7,9.7-0.4c0.2-2.7,11.5-64.9,12.7-73.5
		c1.2-8.7,4.7-24.3,11.6-43.8c2-5.8,4.2-11.7,6.1-17.3"/>
	<path class="st3" d="M506.9,213.9c-5.6-41.4-18.8-138.7-19.4-143.5c-0.9-6-3.7-7.5-8.8-6.9c-5.2,0.6-11.4,0.9-17.2-2.6
		s-6.2-6-7.7-9c-1.5-3-3.5-5.8-8.1-5.8s-7.3,4.5-7.8,8.5s-2,20.8-2,25.5c0,4.7,2.4,12.6,4.3,17.7s13,32,14.5,40.3
		c1.5,8.3,1.8,24.4,1.8,27.2c0,4.5-5.9,11.2-17.8,11.2s-123.8-7-128-7.2s-15.7-3.9-22-7.6c-3.4-2-26.4-15.8-47.8-28.6"/>
</g>
<g id="DRS-ZONES">
  <!-- DRS Zone 1 — visible white for testing (dots run right→left, corrected order) -->
  <path id="drs-1" class="drs-zone"
    fill="none" stroke="#fff" opacity="0"
    d="M433.3,194 
		L427.3,193.6 L422.9,193.3 L418.5,193 L414.1,192.7 L410.8,192.5 L405.3,192.1 L400.9,191.8 L396.5,191.5 L392.1,191.2 L387.7,190.9 L383.3,190.6 L378.9,190.3 L374.5,190 L370.1,189.7 L365.7,189.4 L361.3,189.1 L356.9,188.8 L352.5,188.5 L348.1,188.1 L343.8,187.8 L339.4,187.5 L335,187.2 L330.6,186.9 L326.2,186.6 L321.8,186.3 L317.4,185.9 L313,185.6 L308.6,185.2 L304.2,184.8 L299.9,183.8 L295.8,182.3 L291.8,180.4 L288,178.2 L284.2,175.9 L280.5,173.6 L276.6,171.4 L272.8,169.3 L269,167.1 L265.2,164.9 L261.3,162.7 L257.5,160.5 L253.7,158.3 L249.8,156.2 L246,154 L242.2,151.8 L238.4,149.6 L234.5,147.4 L230.7,145.2 L226.9,143.1 L223.1,140.9 L219.2,138.7 L215.4,136.5 L211.6,134.3 L209.6,132.7
		"/>

  <!-- DRS Zone 2 — visible white for testing (dots run right→left, corrected order) -->
  <path id="drs-2" class="drs-zone"
    fill="none" stroke="#fff" opacity="0"
    d="M140.1,329.8 
		L141.1,323.8 L141.8,319.4 L142.5,315 L143.2,310.6 L143.9,306.3 L144.6,301.9 L145.3,297.5 L146,293.1 L146.7,288.7 L147.4,284.3 L148.1,279.9 L148.8,275.6 L149.5,271.2 L150.2,266.8 L151,262.4 L151.9,258.1 L152.8,253.7 L153.9,249.4 L155.1,245.2 L156.5,240.9 L158,236.8 L159.6,232.6 L161.2,228.5 L162.7,224.3 L164.3,220.2 L165.9,216 L167.5,211.9 L169.5,207.9
		"/>
  
  <!-- DRS Zone 3 — visible white for testing -->
  <path id="drs-3" class="drs-zone"
    fill="none" stroke="#fff" opacity="0"
    d="M492.4,232.6
		L491.8,227.6 L491.2,223.2 L490.6,218.8 L490,214.4 L489.3,209.9 L488.7,205.5 L488.1,201.1 L487.5,196.7 L486.9,192.3 L486.3,187.9 L485.7,183.4 L485.1,179 L484.5,174.6 L483.9,170.2 L483.3,165.8 L482.7,161.4 L482.1,157 L481.5,152.5 L480.9,148.1 L480.3,143.7 L479.7,139.3 L479,134.9 L478.4,130.5 L477.8,126.1 L477.2,121.6 L476.6,117.2 L476,112.8 L475.4,108.4 L474.8,104 L474.2,99.6 L473.6,95.1 L473,90.7 L472.4,86.3 L471.8,81.9 L471.5,79.3
		"/>
</g>
<g id="コーナー番号">
	<g>
		<g>
			<circle class="st4" cx="504.7" cy="60.1" r="8.5"/>
			<circle class="st5" cx="504.7" cy="60.1" r="8.5"/>
		</g>
		<g>
			<path class="st6" d="M503,64v-1.6h1v-4.5h-0.9v-1.6h2.6v6.1h0.9V64H503z"/>
		</g>
	</g>
	<g>
		<g>
			<circle class="st4" cx="471.8" cy="42.7" r="8.5"/>
			<circle class="st5" cx="471.8" cy="42.7" r="8.5"/>
		</g>
		<g>
			<path class="st6" d="M469.7,46.6V44c0-0.6,0.1-1,0.6-1.2l1.9-0.8v-1.6l-0.1-0.1h-0.5l-0.1,0.1v1.1h-1.7v-1.3
				c0-0.8,0.4-1.1,0.8-1.3h2.5c0.5,0.2,0.8,0.5,0.8,1.3v1.9c0,0.6-0.1,0.9-0.6,1.2l-1.8,0.8V45h2.4v1.6H469.7z"/>
		</g>
	</g>
	<g>
		<g>
			<circle class="st4" cx="436.6" cy="26.4" r="8.5"/>
			<circle class="st5" cx="436.6" cy="26.4" r="8.5"/>
		</g>
		<g>
			<path class="st6" d="M435.4,30.3c-0.5-0.2-0.8-0.5-0.8-1.3v-1h1.7v0.8l0.1,0.1h0.5l0.1-0.1v-1.6l-0.1-0.1h-1v-1.3h1l0.1-0.1v-1.5
				l-0.1-0.1h-0.5l-0.1,0.1V25h-1.7v-1c0-0.8,0.4-1.1,0.8-1.3h2.5c0.5,0.2,0.8,0.5,0.8,1.3v1.3c0,0.6-0.2,0.9-0.6,1.2
				c0.4,0.3,0.6,0.6,0.6,1.2V29c0,0.8-0.4,1.1-0.8,1.3H435.4z"/>
		</g>
	</g>
	<g>
		<g>
			<circle class="st4" cx="416.2" cy="76.8" r="8.5"/>
			<circle class="st5" cx="416.2" cy="76.8" r="8.5"/>
		</g>
		<g>
			<path class="st6" d="M417.8,79.1v1.5h-1.7v-1.5h-2.2v-1.5l1.6-4.7h1.7l-1.6,4.6h0.5v-0.4l0.4-1h1.3v1.4h0.5v1.6H417.8z"/>
		</g>
	</g>
	<g>
		<g>
			<circle class="st4" cx="468" cy="185.2" r="8.5"/>
			<circle class="st5" cx="468" cy="185.2" r="8.5"/>
		</g>
		<g>
			<path class="st6" d="M466.8,189.1c-0.5-0.2-0.8-0.5-0.8-1.3v-1h1.6v0.8l0.1,0.1h0.6l0.1-0.1v-2.1l-0.1-0.1h-0.6l-0.1,0.1v0.4
				h-1.6v-4.5h4v1.5h-2.4v1.6l0.4-0.4h1.3c0.5,0.2,0.8,0.5,0.8,1.3v2.4c0,0.8-0.4,1.1-0.8,1.3H466.8z"/>
		</g>
	</g>
	<g>
		<g>
			<circle class="st4" cx="308.1" cy="147.7" r="8.5"/>
			<circle class="st5" cx="308.1" cy="147.7" r="8.5"/>
		</g>
		<g>
			<path class="st6" d="M309.3,151.6h-2.5c-0.5-0.2-0.8-0.5-0.8-1.3v-5.1c0-0.8,0.4-1.1,0.8-1.3h2.5c0.5,0.2,0.8,0.5,0.8,1.3v1h-1.7
				v-0.8l-0.1-0.1h-0.5l-0.1,0.1v1.8l0.3-0.3h1.3c0.5,0.2,0.8,0.5,0.8,1.3v2.2C310.1,151.1,309.8,151.4,309.3,151.6z M308.3,150.2
				l0.1-0.1v-1.8l-0.1-0.1h-0.5l-0.1,0.1v1.8l0.1,0.1H308.3z"/>
		</g>
	</g>
	<g>
		<g>
			<circle class="st4" cx="193.6" cy="90.9" r="8.5"/>
			<circle class="st5" cx="193.6" cy="90.9" r="8.5"/>
		</g>
		<g>
			<path class="st6" d="M191.7,94.8l2.1-6.2h-2.4v-1.5h4.1v1.2l-2.1,6.5H191.7z"/>
		</g>
	</g>
	<g>
		<g>
			<circle class="st4" cx="156.7" cy="137.5" r="8.5"/>
			<circle class="st5" cx="156.7" cy="137.5" r="8.5"/>
		</g>
		<g>
			<path class="st6" d="M155.4,141.3c-0.5-0.2-0.8-0.5-0.8-1.3v-1.4c0-0.6,0.2-0.9,0.6-1.2c-0.4-0.3-0.6-0.6-0.6-1.2V135
				c0-0.8,0.4-1.1,0.8-1.3h2.5c0.5,0.2,0.8,0.5,0.8,1.3v1.3c0,0.6-0.2,0.9-0.6,1.2c0.4,0.3,0.6,0.6,0.6,1.2v1.4
				c0,0.8-0.4,1.1-0.8,1.3H155.4z M156.3,136.7l0.1,0.1h0.5l0.1-0.1v-1.5l-0.1-0.1h-0.5l-0.1,0.1V136.7z M157.1,139.9v-1.6l-0.1-0.1
				h-0.5l-0.1,0.1v1.6l0.1,0.1h0.5L157.1,139.9z"/>
		</g>
	</g>
	<g>
		<g>
			<circle class="st4" cx="110.1" cy="107.6" r="8.5"/>
			<circle class="st5" cx="110.1" cy="107.6" r="8.5"/>
		</g>
		<g>
			<path class="st6" d="M108.9,111.5c-0.5-0.2-0.8-0.5-0.8-1.3v-1h1.7v0.8l0.1,0.1h0.5l0.1-0.1v-1.8l-0.3,0.3h-1.3
				c-0.5-0.2-0.8-0.5-0.8-1.3v-2.2c0-0.8,0.4-1.1,0.8-1.3h2.5c0.5,0.2,0.8,0.5,0.8,1.3v5.1c0,0.8-0.4,1.1-0.8,1.3H108.9z
				 M110.5,107.2v-1.8l-0.1-0.1h-0.5l-0.1,0.1v1.8l0.1,0.1h0.5L110.5,107.2z"/>
		</g>
	</g>
	<g>
		<g>
			<circle class="st4" cx="57.9" cy="313.6" r="8.5"/>
			<circle class="st5" cx="57.9" cy="313.6" r="8.5"/>
		</g>
		<g>
			<path class="st6" d="M53.9,317.5v-1.6h1v-4.5H54v-1.6h2.6v6.1h0.9v1.6H53.9z"/>
			<path class="st6" d="M58.2,317.5v-2.6c0-0.6,0.1-1,0.6-1.2l1.9-0.8v-1.6l-0.1-0.1H60l-0.1,0.1v1.1h-1.7v-1.3
				c0-0.8,0.4-1.1,0.8-1.3h2.5c0.5,0.2,0.8,0.5,0.8,1.3v1.9c0,0.6-0.1,0.9-0.6,1.2l-1.9,0.8v0.9h2.4v1.6H58.2z"/>
		</g>
	</g>
	<g>
		<g>
			<circle class="st4" cx="118" cy="364.1" r="8.5"/>
			<circle class="st5" cx="118" cy="364.1" r="8.5"/>
		</g>
		<g>
			<path class="st6" d="M114,368v-1.6h1v-4.5h-0.9v-1.6h2.6v6.1h0.9v1.6H114z"/>
			<path class="st6" d="M119.1,368c-0.5-0.2-0.8-0.5-0.8-1.3v-1h1.7v0.8l0.1,0.1h0.5l0.1-0.1v-1.6l-0.1-0.1h-1v-1.3h1l0.1-0.1v-1.5
				l-0.1-0.1h-0.5l-0.1,0.1v0.8h-1.7v-1c0-0.8,0.4-1.1,0.8-1.3h2.5c0.5,0.2,0.8,0.5,0.8,1.3v1.3c0,0.6-0.2,0.9-0.6,1.2
				c0.4,0.3,0.6,0.6,0.6,1.2v1.4c0,0.8-0.4,1.1-0.8,1.3H119.1z"/>
		</g>
	</g>
	<g>
		<g>
			<circle class="st4" cx="184.8" cy="166.5" r="8.5"/>
			<circle class="st5" cx="184.8" cy="166.5" r="8.5"/>
		</g>
		<g>
			<path class="st6" d="M180.7,170.4v-1.6h1v-4.5h-0.9v-1.6h2.6v6.1h0.9v1.6H180.7z"/>
			<path class="st6" d="M188.8,168.9v1.5h-1.7v-1.5h-2.2v-1.5l1.6-4.7h1.7l-1.6,4.6h0.5v-0.4l0.4-1h1.3v1.4h0.5v1.6H188.8z"/>
		</g>
	</g>
	<g>
		<g>
			<circle class="st4" cx="225.4" cy="244.8" r="8.5"/>
			<circle class="st5" cx="225.4" cy="244.8" r="8.5"/>
		</g>
		<g>
			<path class="st6" d="M221.4,248.7v-1.6h1v-4.5h-0.9v-1.6h2.6v6.1h0.9v1.6H221.4z"/>
			<path class="st6" d="M226.5,248.7c-0.5-0.2-0.8-0.5-0.8-1.3v-1h1.6v0.8l0.1,0.1h0.6l0.1-0.1v-2.1L228,245h-0.6l-0.1,0.1v0.4h-1.6
				v-4.5h4v1.5h-2.4v1.6l0.4-0.4h1.3c0.5,0.2,0.8,0.5,0.8,1.3v2.4c0,0.8-0.4,1.1-0.8,1.3H226.5z"/>
		</g>
	</g>
	<g>
		<g>
			<circle class="st4" cx="277.8" cy="218.9" r="8.5"/>
			<circle class="st5" cx="277.8" cy="218.9" r="8.5"/>
		</g>
		<g>
			<path class="st6" d="M273.7,222.7v-1.6h1v-4.5h-0.9v-1.6h2.6v6.1h0.9v1.6H273.7z"/>
			<path class="st6" d="M281.4,222.7h-2.5c-0.5-0.2-0.8-0.5-0.8-1.3v-5.1c0-0.8,0.4-1.1,0.8-1.3h2.5c0.5,0.2,0.8,0.5,0.8,1.3v1h-1.7
				v-0.8l-0.1-0.1h-0.5l-0.1,0.1v1.8l0.3-0.3h1.3c0.5,0.2,0.8,0.5,0.8,1.3v2.2C282.2,222.3,281.8,222.6,281.4,222.7z M280.4,221.3
				l0.1-0.1v-1.8l-0.1-0.1h-0.5l-0.1,0.1v1.8l0.1,0.1H280.4z"/>
		</g>
	</g>
	<g>
		<g>
			<circle class="st4" cx="258.5" cy="275" r="8.5"/>
			<circle class="st5" cx="258.5" cy="275" r="8.5"/>
		</g>
		<g>
			<path class="st6" d="M254.4,278.9v-1.6h1v-4.5h-0.9v-1.6h2.6v6.1h0.9v1.6H254.4z"/>
			<path class="st6" d="M259,278.9l2.1-6.2h-2.4v-1.5h4.1v1.2l-2.1,6.5H259z"/>
		</g>
	</g>
	<g>
		<g>
			<circle class="st4" cx="342.8" cy="282.9" r="8.5"/>
			<circle class="st5" cx="342.8" cy="282.9" r="8.5"/>
		</g>
		<g>
			<path class="st6" d="M338.8,286.7v-1.6h1v-4.5h-0.9v-1.6h2.6v6.1h0.9v1.6H338.8z"/>
			<path class="st6" d="M343.9,286.7c-0.5-0.2-0.8-0.5-0.8-1.3V284c0-0.6,0.2-0.9,0.6-1.2c-0.4-0.3-0.6-0.6-0.6-1.2v-1.3
				c0-0.8,0.4-1.1,0.8-1.3h2.5c0.5,0.2,0.8,0.5,0.8,1.3v1.3c0,0.6-0.2,0.9-0.6,1.2c0.4,0.3,0.6,0.6,0.6,1.2v1.4
				c0,0.8-0.4,1.1-0.8,1.3H343.9z M344.8,282.1l0.1,0.1h0.5l0.1-0.1v-1.5l-0.1-0.1h-0.5l-0.1,0.1V282.1z M345.5,285.3v-1.6l-0.1-0.1
				h-0.5l-0.1,0.1v1.6l0.1,0.1h0.5L345.5,285.3z"/>
		</g>
	</g>
	<g>
		<g>
			<circle class="st4" cx="336.4" cy="220.7" r="8.5"/>
			<circle class="st5" cx="336.4" cy="220.7" r="8.5"/>
		</g>
		<g>
			<path class="st6" d="M332.4,224.6V223h1v-4.5h-0.9v-1.6h2.6v6.1h0.9v1.6H332.4z"/>
			<path class="st6" d="M337.5,224.6c-0.5-0.2-0.8-0.5-0.8-1.3v-1h1.7v0.8l0.1,0.1h0.5l0.1-0.1v-1.8l-0.3,0.3h-1.3
				c-0.5-0.2-0.8-0.5-0.8-1.3v-2.2c0-0.8,0.4-1.1,0.8-1.3h2.5c0.5,0.2,0.8,0.5,0.8,1.3v5.1c0,0.8-0.4,1.1-0.8,1.3H337.5z
				 M339.1,220.3v-1.8l-0.1-0.1h-0.5l-0.1,0.1v1.8l0.1,0.1h0.5L339.1,220.3z"/>
		</g>
	</g>
	<g>
		<g>
			<circle class="st4" cx="405.9" cy="227.3" r="8.5"/>
			<circle class="st5" cx="405.9" cy="227.3" r="8.5"/>
		</g>
		<g>
			<path class="st6" d="M401.5,231.2v-2.6c0-0.6,0.1-1,0.6-1.2l1.9-0.8V225l-0.1-0.1h-0.5l-0.1,0.1v1.1h-1.7v-1.3
				c0-0.8,0.4-1.1,0.8-1.3h2.5c0.5,0.2,0.8,0.5,0.8,1.3v1.9c0,0.6-0.1,0.9-0.6,1.2l-1.9,0.8v0.9h2.4v1.6H401.5z"/>
			<path class="st6" d="M409.5,231.2H407c-0.5-0.2-0.8-0.5-0.8-1.3v-5.1c0-0.8,0.4-1.1,0.8-1.3h2.5c0.5,0.2,0.8,0.5,0.8,1.3v5.1
				C410.3,230.7,409.9,231,409.5,231.2z M408.6,225l-0.1-0.1H408l-0.1,0.1v4.7l0.1,0.1h0.5l0.1-0.1V225z"/>
		</g>
	</g>
	<g>
		<g>
			<circle class="st4" cx="386.1" cy="277" r="8.5"/>
			<circle class="st5" cx="386.1" cy="277" r="8.5"/>
		</g>
		<g>
			<path class="st6" d="M381.7,280.9v-2.6c0-0.6,0.1-1,0.6-1.2l1.9-0.8v-1.6l-0.1-0.1h-0.5l-0.1,0.1v1.1h-1.7v-1.3
				c0-0.8,0.4-1.1,0.8-1.3h2.5c0.5,0.2,0.8,0.5,0.8,1.3v1.9c0,0.6-0.1,0.9-0.6,1.2l-1.9,0.8v0.9h2.4v1.6H381.7z"/>
			<path class="st6" d="M386.8,280.9v-1.6h1v-4.5h-0.9v-1.6h2.6v6.1h0.9v1.6H386.8z"/>
		</g>
	</g>
	<g>
		<g>
			<circle class="st4" cx="496.9" cy="288.7" r="8.5"/>
			<circle class="st5" cx="496.9" cy="288.7" r="8.5"/>
		</g>
		<g>
			<path class="st6" d="M492.4,292.5V290c0-0.6,0.1-1,0.6-1.2l1.9-0.8v-1.6l-0.1-0.1h-0.5l-0.1,0.1v1.1h-1.7v-1.3
				c0-0.8,0.4-1.1,0.8-1.3h2.5c0.5,0.2,0.8,0.5,0.8,1.3v1.9c0,0.6-0.1,0.9-0.6,1.2l-1.8,0.8v0.9h2.4v1.6H492.4z"/>
			<path class="st6" d="M497.1,292.5V290c0-0.6,0.1-1,0.6-1.2l1.9-0.8v-1.6l-0.1-0.1h-0.5l-0.1,0.1v1.1h-1.7v-1.3
				c0-0.8,0.4-1.1,0.8-1.3h2.5c0.5,0.2,0.8,0.5,0.8,1.3v1.9c0,0.6-0.1,0.9-0.6,1.2l-1.9,0.8v0.9h2.4v1.6H497.1z"/>
		</g>
	</g>
	<g>
		<g>
			<circle class="st4" cx="19.4" cy="240.1" r="8.5"/>
			<circle class="st5" cx="19.4" cy="240.1" r="8.5"/>
		</g>
		<g>
			<path class="st6" d="M15.4,244v-1.6h1V238h-0.9v-1.6H18v6.1h0.9v1.6H15.4z"/>
			<path class="st6" d="M23,244h-2.5c-0.5-0.2-0.8-0.5-0.8-1.3v-5.1c0-0.8,0.4-1.1,0.8-1.3H23c0.5,0.2,0.8,0.5,0.8,1.3v5.1
				C23.8,243.6,23.5,243.9,23,244z M22.1,237.9l-0.1-0.1h-0.5l-0.1,0.1v4.7l0.1,0.1H22l0.1-0.1V237.9z"/>
		</g>
	</g>
	<g>
		<g>
			<circle class="st4" cx="84.4" cy="263" r="8.5"/>
			<circle class="st5" cx="84.4" cy="263" r="8.5"/>
		</g>
		<g>
			<path class="st6" d="M80.4,266.9v-1.6h1v-4.5h-0.9v-1.6H83v6.1h0.9v1.6H80.4z"/>
			<path class="st6" d="M85,266.9v-1.6h1v-4.5h-0.9v-1.6h2.6v6.1h0.9v1.6H85z"/>
		</g>
	</g>
	<g>
		<g>
			<circle class="st4" cx="528.5" cy="244.6" r="8.5"/>
			<circle class="st5" cx="528.5" cy="244.6" r="8.5"/>
		</g>
		<g>
			<path class="st6" d="M524.1,248.5v-2.6c0-0.6,0.1-1,0.6-1.2l1.9-0.8v-1.6l-0.1-0.1h-0.5l-0.1,0.1v1.1h-1.7v-1.3
				c0-0.8,0.4-1.1,0.8-1.3h2.5c0.5,0.2,0.8,0.5,0.8,1.3v1.9c0,0.6-0.1,0.9-0.6,1.2l-1.8,0.8v0.9h2.4v1.6H524.1z"/>
			<path class="st6" d="M529.6,248.5c-0.5-0.2-0.8-0.5-0.8-1.3v-1h1.7v0.8l0.1,0.1h0.5l0.1-0.1v-1.6l-0.1-0.1h-1V244h1l0.1-0.1v-1.5
				l-0.1-0.1h-0.5l-0.1,0.1v0.8h-1.7v-1c0-0.8,0.4-1.1,0.8-1.3h2.5c0.5,0.2,0.8,0.5,0.8,1.3v1.3c0,0.6-0.2,0.9-0.6,1.2
				c0.4,0.3,0.6,0.6,0.6,1.2v1.4c0,0.8-0.4,1.1-0.8,1.3H529.6z"/>
		</g>
	</g>
</g>
<g id="DRS">
	<g>
		<path class="st7" d="M422,265.7"/>
	</g>
	<g>
		<g>
			<g>
				<g>
					<line class="st10" x1="486.8" y1="233.9" x2="498.3" y2="232.3"/>
				</g>
				<g>
					<path class="st7" d="M491.8,227.6c0.6-0.1,1.2,0.3,1.2,1c0.1,0.6-0.3,1.2-0.9,1.3s-1.2-0.3-1.2-1
						C490.7,228.2,491.2,227.7,491.8,227.6z"/>
				</g>
				<g>
					<path class="st7" d="M491.2,223.2c0.6-0.1,1.2,0.3,1.2,1c0.1,0.6-0.3,1.2-0.9,1.3c-0.6,0.1-1.2-0.3-1.2-1
						C490.1,223.8,490.6,223.3,491.2,223.2z"/>
				</g>
				<g>
					<path class="st7" d="M490.6,218.8c0.6-0.1,1.2,0.3,1.2,1s-0.3,1.2-0.9,1.3c-0.6,0.1-1.2-0.3-1.2-1
						C489.5,219.4,490,218.8,490.6,218.8z"/>
				</g>
				<g>
					<path class="st7" d="M490,214.4c0.6-0.1,1.2,0.3,1.2,1c0.1,0.6-0.3,1.2-0.9,1.3s-1.2-0.3-1.2-1
						C488.9,215,489.3,214.4,490,214.4z"/>
				</g>
				<g>
					<path class="st7" d="M489.3,209.9c0.6-0.1,1.2,0.3,1.2,1c0.1,0.6-0.3,1.2-0.9,1.3s-1.2-0.3-1.2-1
						C488.3,210.6,488.7,210,489.3,209.9z"/>
				</g>
				<g>
					<path class="st7" d="M488.7,205.5c0.6-0.1,1.2,0.3,1.2,1s-0.3,1.2-0.9,1.3c-0.6,0.1-1.2-0.3-1.2-1
						C487.7,206.2,488.1,205.6,488.7,205.5z"/>
				</g>
				<g>
					<path class="st7" d="M488.1,201.1c0.6-0.1,1.2,0.3,1.2,1c0.1,0.6-0.3,1.2-0.9,1.3s-1.2-0.3-1.2-1
						C487.1,201.8,487.5,201.2,488.1,201.1z"/>
				</g>
				<g>
					<path class="st7" d="M487.5,196.7c0.6-0.1,1.2,0.3,1.2,1c0.1,0.6-0.3,1.2-0.9,1.3s-1.2-0.3-1.2-1
						C486.5,197.3,486.9,196.8,487.5,196.7z"/>
				</g>
				<g>
					<path class="st7" d="M486.9,192.3c0.6-0.1,1.2,0.3,1.2,1c0.1,0.6-0.3,1.2-0.9,1.3s-1.2-0.3-1.2-1
						C485.9,192.9,486.3,192.4,486.9,192.3z"/>
				</g>
				<g>
					<path class="st7" d="M486.3,187.9c0.6-0.1,1.2,0.3,1.2,1c0.1,0.6-0.3,1.2-0.9,1.3c-0.6,0.1-1.2-0.3-1.2-1
						C485.3,188.5,485.7,187.9,486.3,187.9z"/>
				</g>
				<g>
					<path class="st7" d="M485.7,183.4c0.6-0.1,1.2,0.3,1.2,1c0.1,0.6-0.3,1.2-0.9,1.3s-1.2-0.3-1.2-1
						C484.7,184.1,485.1,183.5,485.7,183.4z"/>
				</g>
				<g>
					<path class="st7" d="M485.1,179c0.6-0.1,1.2,0.3,1.2,1c0.1,0.6-0.3,1.2-0.9,1.3s-1.2-0.3-1.2-1
						C484.1,179.7,484.5,179.1,485.1,179z"/>
				</g>
				<g>
					<path class="st7" d="M484.5,174.6c0.6-0.1,1.2,0.3,1.2,1c0.1,0.6-0.3,1.2-0.9,1.3c-0.6,0.1-1.2-0.3-1.2-1
						C483.5,175.3,483.9,174.7,484.5,174.6z"/>
				</g>
				<g>
					<path class="st7" d="M483.9,170.2c0.6-0.1,1.2,0.3,1.2,1c0.1,0.6-0.3,1.2-0.9,1.3s-1.2-0.3-1.2-1
						C482.9,170.8,483.3,170.3,483.9,170.2z"/>
				</g>
				<g>
					<path class="st7" d="M483.3,165.8c0.6-0.1,1.2,0.3,1.2,1c0.1,0.6-0.3,1.2-0.9,1.3s-1.2-0.3-1.2-1
						C482.3,166.4,482.7,165.9,483.3,165.8z"/>
				</g>
				<g>
					<path class="st7" d="M482.7,161.4c0.6-0.1,1.2,0.3,1.2,1c0.1,0.6-0.3,1.2-0.9,1.3c-0.6,0.1-1.2-0.3-1.2-1
						C481.7,162,482.1,161.5,482.7,161.4z"/>
				</g>
				<g>
					<path class="st7" d="M482.1,157c0.6-0.1,1.2,0.3,1.2,1c0.1,0.6-0.3,1.2-0.9,1.3s-1.2-0.3-1.2-1C481,157.6,481.5,157,482.1,157z
						"/>
				</g>
				<g>
					<path class="st7" d="M481.5,152.5c0.6-0.1,1.2,0.3,1.2,1c0.1,0.6-0.3,1.2-0.9,1.3c-0.6,0.1-1.2-0.3-1.2-1
						C480.4,153.2,480.9,152.6,481.5,152.5z"/>
				</g>
				<g>
					<path class="st7" d="M480.9,148.1c0.6-0.1,1.2,0.3,1.2,1s-0.3,1.2-0.9,1.3c-0.6,0.1-1.2-0.3-1.2-1
						C479.8,148.8,480.3,148.2,480.9,148.1z"/>
				</g>
				<g>
					<path class="st7" d="M480.3,143.7c0.6-0.1,1.2,0.3,1.2,1c0.1,0.6-0.3,1.2-0.9,1.3s-1.2-0.3-1.2-1S479.7,143.8,480.3,143.7z"/>
				</g>
				<g>
					<path class="st7" d="M479.7,139.3c0.6-0.1,1.2,0.3,1.2,1c0.1,0.6-0.3,1.2-0.9,1.3s-1.2-0.3-1.2-1
						C478.6,139.9,479,139.4,479.7,139.3z"/>
				</g>
				<g>
					<path class="st7" d="M479,134.9c0.6-0.1,1.2,0.3,1.2,1s-0.3,1.2-0.9,1.3s-1.2-0.3-1.2-1C478,135.5,478.4,135,479,134.9z"/>
				</g>
				<g>
					<path class="st7" d="M478.4,130.5c0.6-0.1,1.2,0.3,1.2,1c0.1,0.6-0.3,1.2-0.9,1.3c-0.6,0.1-1.2-0.3-1.2-1
						S477.8,130.5,478.4,130.5z"/>
				</g>
				<g>
					<path class="st7" d="M477.8,126.1c0.6-0.1,1.2,0.3,1.2,1c0.1,0.6-0.3,1.2-0.9,1.3s-1.2-0.3-1.2-1
						C476.8,126.7,477.2,126.1,477.8,126.1z"/>
				</g>
				<g>
					<path class="st7" d="M477.2,121.6c0.6-0.1,1.2,0.3,1.2,1c0.1,0.6-0.3,1.2-0.9,1.3s-1.2-0.3-1.2-1
						C476.2,122.3,476.6,121.7,477.2,121.6z"/>
				</g>
				<g>
					<path class="st7" d="M476.6,117.2c0.6-0.1,1.2,0.3,1.2,1c0.1,0.6-0.3,1.2-0.9,1.3c-0.6,0.1-1.2-0.3-1.2-1
						C475.6,117.9,476,117.3,476.6,117.2z"/>
				</g>
				<g>
					<path class="st7" d="M476,112.8c0.6-0.1,1.2,0.3,1.2,1c0.1,0.6-0.3,1.2-0.9,1.3s-1.2-0.3-1.2-1
						C475,113.5,475.4,112.9,476,112.8z"/>
				</g>
				<g>
					<path class="st7" d="M475.4,108.4c0.6-0.1,1.2,0.3,1.2,1c0.1,0.6-0.3,1.2-0.9,1.3s-1.2-0.3-1.2-1
						C474.4,109,474.8,108.5,475.4,108.4z"/>
				</g>
				<g>
					<path class="st7" d="M474.8,104c0.6-0.1,1.2,0.3,1.2,1c0.1,0.6-0.3,1.2-0.9,1.3c-0.6,0.1-1.2-0.3-1.2-1
						C473.8,104.6,474.2,104.1,474.8,104z"/>
				</g>
				<g>
					<path class="st7" d="M474.2,99.6c0.6-0.1,1.2,0.3,1.2,1c0.1,0.6-0.3,1.2-0.9,1.3s-1.2-0.3-1.2-1
						C473.2,100.2,473.6,99.6,474.2,99.6z"/>
				</g>
				<g>
					<path class="st7" d="M473.6,95.1c0.6-0.1,1.2,0.3,1.2,1c0.1,0.6-0.3,1.2-0.9,1.3s-1.2-0.3-1.2-1
						C472.6,95.8,473,95.2,473.6,95.1z"/>
				</g>
				<g>
					<path class="st7" d="M473,90.7c0.6-0.1,1.2,0.3,1.2,1c0.1,0.6-0.3,1.2-0.9,1.3s-1.2-0.3-1.2-1C472,91.4,472.4,90.8,473,90.7z"
						/>
				</g>
				<g>
					<path class="st7" d="M472.4,86.3c0.6-0.1,1.2,0.3,1.2,1c0.1,0.6-0.3,1.2-0.9,1.3c-0.6,0.1-1.2-0.3-1.2-1
						C471.4,87,471.8,86.4,472.4,86.3z"/>
				</g>
				<g>
					<path class="st7" d="M471.8,81.9c0.6-0.1,1.2,0.3,1.2,1c0.1,0.6-0.3,1.2-0.9,1.3c-0.6,0.1-1.2-0.3-1.2-1
						C470.7,82.5,471.2,82,471.8,81.9z"/>
				</g>
				<g>
					<line class="st10" x1="465.6" y1="79.4" x2="477.1" y2="77.8"/>
				</g>
			</g>
		</g>
	</g>
	<g>
		<g>
			<g>
				<g>
					<line class="st10" x1="432.4" y1="199.8" x2="433.1" y2="188.2"/>
				</g>
				<g>
					<path class="st7" d="M427.3,193.6c0-0.6,0.6-1.1,1.2-1c0.6,0,1.1,0.6,1,1.2c0,0.6-0.6,1.1-1.2,1
						C427.7,194.7,427.2,194.2,427.3,193.6z"/>
				</g>
				<g>
					<path class="st7" d="M422.9,193.3c0-0.6,0.6-1.1,1.2-1c0.6,0,1.1,0.6,1,1.2c0,0.6-0.6,1.1-1.2,1
						C423.3,194.4,422.8,193.9,422.9,193.3z"/>
				</g>
				<g>
					<path class="st7" d="M418.5,193c0-0.6,0.6-1.1,1.2-1c0.6,0,1.1,0.6,1,1.2c0,0.6-0.6,1.1-1.2,1
						C418.9,194.1,418.4,193.6,418.5,193z"/>
				</g>
				<g>
					<path class="st7" d="M414.1,192.7c0-0.6,0.6-1.1,1.2-1c0.6,0,1.1,0.6,1,1.2c0,0.6-0.6,1.1-1.2,1S414,193.3,414.1,192.7z"/>
				</g>
				<g>
					
						<ellipse transform="matrix(6.826422e-02 -0.9977 0.9977 6.826422e-02 190.709 589.1543)" class="st7" cx="410.8" cy="192.5" rx="1.1" ry="1.1"/>
				</g>
				<g>
					<path class="st7" d="M405.3,192.1c0-0.6,0.6-1.1,1.2-1c0.6,0,1.1,0.6,1,1.2c0,0.6-0.6,1.1-1.2,1
						C405.7,193.2,405.2,192.7,405.3,192.1z"/>
				</g>
				<g>
					<path class="st7" d="M400.9,191.8c0-0.6,0.6-1.1,1.2-1c0.6,0,1.1,0.6,1,1.2c0,0.6-0.6,1.1-1.2,1
						C401.3,192.9,400.8,192.4,400.9,191.8z"/>
				</g>
				<g>
					<path class="st7" d="M396.5,191.5c0-0.6,0.6-1.1,1.2-1c0.6,0,1.1,0.6,1,1.2s-0.6,1.1-1.2,1
						C396.9,192.6,396.5,192.1,396.5,191.5z"/>
				</g>
				<g>
					<path class="st7" d="M392.1,191.2c0-0.6,0.6-1.1,1.2-1s1.1,0.6,1,1.2c0,0.6-0.6,1.1-1.2,1S392.1,191.8,392.1,191.2z"/>
				</g>
				<g>
					<path class="st7" d="M387.7,190.9c0-0.6,0.6-1.1,1.2-1c0.6,0,1.1,0.6,1,1.2c0,0.6-0.6,1.1-1.2,1S387.7,191.5,387.7,190.9z"/>
				</g>
				<g>
					<path class="st7" d="M383.3,190.6c0-0.6,0.6-1.1,1.2-1c0.6,0,1.1,0.6,1,1.2s-0.6,1.1-1.2,1
						C383.7,191.7,383.3,191.2,383.3,190.6z"/>
				</g>
				<g>
					<path class="st7" d="M378.9,190.3c0-0.6,0.6-1.1,1.2-1c0.6,0,1.1,0.6,1,1.2s-0.6,1.1-1.2,1
						C379.3,191.4,378.9,190.9,378.9,190.3z"/>
				</g>
				<g>
					<path class="st7" d="M374.5,190c0-0.6,0.6-1.1,1.2-1c0.6,0,1.1,0.6,1,1.2s-0.6,1.1-1.2,1C374.9,191.1,374.5,190.6,374.5,190z"
						/>
				</g>
				<g>
					<path class="st7" d="M370.1,189.7c0-0.6,0.6-1.1,1.2-1c0.6,0,1.1,0.6,1,1.2c0,0.6-0.6,1.1-1.2,1
						C370.5,190.8,370.1,190.3,370.1,189.7z"/>
				</g>
				<g>
					<path class="st7" d="M365.7,189.4c0-0.6,0.6-1.1,1.2-1c0.6,0,1.1,0.6,1,1.2s-0.6,1.1-1.2,1C366.1,190.5,365.7,190,365.7,189.4z
						"/>
				</g>
				<g>
					<path class="st7" d="M361.3,189.1c0-0.6,0.6-1.1,1.2-1c0.6,0,1.1,0.6,1,1.2c0,0.6-0.6,1.1-1.2,1
						C361.7,190.2,361.3,189.7,361.3,189.1z"/>
				</g>
				<g>
					<path class="st7" d="M356.9,188.8c0-0.6,0.6-1.1,1.2-1c0.6,0,1.1,0.6,1,1.2c0,0.6-0.6,1.1-1.2,1
						C357.4,189.9,356.9,189.4,356.9,188.8z"/>
				</g>
				<g>
					<path class="st7" d="M352.5,188.5c0-0.6,0.6-1.1,1.2-1c0.6,0,1.1,0.6,1,1.2c0,0.6-0.6,1.1-1.2,1
						C353,189.6,352.5,189.1,352.5,188.5z"/>
				</g>
				<g>
					<path class="st7" d="M348.1,188.1c0-0.6,0.6-1.1,1.2-1c0.6,0,1.1,0.6,1,1.2c0,0.6-0.6,1.1-1.2,1
						C348.6,189.3,348.1,188.8,348.1,188.1z"/>
				</g>
				<g>
					<path class="st7" d="M343.8,187.8c0-0.6,0.6-1.1,1.2-1s1.1,0.6,1,1.2c0,0.6-0.6,1.1-1.2,1S343.7,188.4,343.8,187.8z"/>
				</g>
				<g>
					<path class="st7" d="M339.4,187.5c0-0.6,0.6-1.1,1.2-1c0.6,0,1.1,0.6,1,1.2c0,0.6-0.6,1.1-1.2,1
						C339.8,188.7,339.3,188.1,339.4,187.5z"/>
				</g>
				<g>
					<path class="st7" d="M335,187.2c0-0.6,0.6-1.1,1.2-1c0.6,0,1.1,0.6,1,1.2s-0.6,1.1-1.2,1C335.4,188.3,334.9,187.8,335,187.2z"
						/>
				</g>
				<g>
					<path class="st7" d="M330.6,186.9c0-0.6,0.6-1.1,1.2-1c0.6,0,1.1,0.6,1,1.2c0,0.6-0.6,1.1-1.2,1
						C331,188,330.5,187.5,330.6,186.9z"/>
				</g>
				<g>
					<path class="st7" d="M326.2,186.6c0-0.6,0.6-1.1,1.2-1s1.1,0.6,1,1.2c0,0.6-0.6,1.1-1.2,1S326.1,187.2,326.2,186.6z"/>
				</g>
				<g>
					<path class="st7" d="M321.8,186.3c0-0.6,0.6-1.1,1.2-1c0.6,0,1.1,0.6,1,1.2c0,0.6-0.6,1.1-1.2,1
						C322.2,187.4,321.7,186.9,321.8,186.3z"/>
				</g>
				<g>
					<path class="st7" d="M317.4,185.9c0-0.6,0.6-1.1,1.2-1s1.1,0.6,1,1.2c0,0.6-0.6,1.1-1.2,1C317.8,187.1,317.3,186.5,317.4,185.9
						z"/>
				</g>
				<g>
					<path class="st7" d="M313,185.6c0-0.6,0.6-1.1,1.2-1c0.6,0,1.1,0.6,1,1.2c0,0.6-0.6,1.1-1.2,1
						C313.4,186.7,312.9,186.2,313,185.6z"/>
				</g>
				<g>
					<path class="st7" d="M308.6,185.2c0.1-0.6,0.6-1.1,1.2-1c0.6,0,1.1,0.6,1,1.2c0,0.6-0.6,1.1-1.2,1
						C309,186.4,308.6,185.9,308.6,185.2z"/>
				</g>
				<g>
					<path class="st7" d="M304.2,184.8c0.1-0.6,0.7-1,1.2-0.9c0.6,0.1,1,0.6,0.9,1.2c-0.1,0.6-0.6,1-1.2,1
						C304.5,185.9,304.1,185.4,304.2,184.8z"/>
				</g>
				<g>
					<path class="st7" d="M299.9,183.8c0.2-0.6,0.8-0.9,1.3-0.8c0.6,0.1,0.9,0.7,0.8,1.3c-0.1,0.6-0.7,0.9-1.4,0.8
						C300.1,185,299.8,184.3,299.9,183.8z"/>
				</g>
				<g>
					<path class="st7" d="M295.8,182.3c0.2-0.6,0.9-0.8,1.4-0.6c0.6,0.2,0.8,0.8,0.6,1.4s-0.8,0.9-1.4,0.6
						C295.8,183.5,295.6,182.8,295.8,182.3z"/>
				</g>
				<g>
					<path class="st7" d="M291.8,180.4c0.3-0.5,0.9-0.8,1.5-0.5c0.5,0.3,0.8,0.9,0.5,1.5c-0.3,0.5-0.9,0.8-1.5,0.5
						C291.8,181.6,291.5,180.9,291.8,180.4z"/>
				</g>
				<g>
					<path class="st7" d="M288,178.2c0.3-0.5,1-0.7,1.5-0.4c0.5,0.3,0.7,1,0.4,1.5c-0.3,0.5-1,0.7-1.5,0.4
						C287.8,179.4,287.7,178.7,288,178.2z"/>
				</g>
				<g>
					<path class="st7" d="M284.2,175.9c0.3-0.5,1-0.7,1.5-0.4c0.5,0.3,0.7,1,0.4,1.5c-0.3,0.5-1,0.7-1.5,0.4
						C284.1,177.1,283.9,176.4,284.2,175.9z"/>
				</g>
				<g>
					<path class="st7" d="M280.5,173.6c0.3-0.5,1-0.7,1.5-0.4c0.5,0.3,0.7,1,0.4,1.5c-0.3,0.5-1,0.7-1.5,0.4
						C280.3,174.8,280.2,174.2,280.5,173.6z"/>
				</g>
				<g>
					<path class="st7" d="M276.6,171.4c0.3-0.5,1-0.7,1.5-0.4c0.5,0.3,0.7,1,0.4,1.5c-0.3,0.5-1,0.7-1.5,0.4
						C276.5,172.6,276.3,172,276.6,171.4z"/>
				</g>
				<g>
					<path class="st7" d="M272.8,169.3c0.3-0.5,1-0.7,1.5-0.4c0.5,0.3,0.7,1,0.4,1.5c-0.3,0.5-1,0.7-1.5,0.4
						S272.5,169.8,272.8,169.3z"/>
				</g>
				<g>
					<path class="st7" d="M269,167.1c0.3-0.5,1-0.7,1.5-0.4c0.5,0.3,0.7,1,0.4,1.5s-1,0.7-1.5,0.4
						C268.9,168.3,268.7,167.6,269,167.1z"/>
				</g>
				<g>
					<path class="st7" d="M265.2,164.9c0.3-0.5,1-0.7,1.5-0.4c0.5,0.3,0.7,1,0.4,1.5c-0.3,0.5-1,0.7-1.5,0.4
						C265,166.1,264.8,165.4,265.2,164.9z"/>
				</g>
				<g>
					<path class="st7" d="M261.3,162.7c0.3-0.5,1-0.7,1.5-0.4c0.5,0.3,0.7,1,0.4,1.5c-0.3,0.5-1,0.7-1.5,0.4S261,163.2,261.3,162.7z
						"/>
				</g>
				<g>
					<path class="st7" d="M257.5,160.5c0.3-0.5,1-0.7,1.5-0.4s0.7,1,0.4,1.5c-0.3,0.5-1,0.7-1.5,0.4S257.2,161.1,257.5,160.5z"/>
				</g>
				<g>
					<path class="st7" d="M253.7,158.3c0.3-0.5,1-0.7,1.5-0.4c0.5,0.3,0.7,1,0.4,1.5c-0.3,0.5-1,0.7-1.5,0.4
						C253.6,159.5,253.4,158.9,253.7,158.3z"/>
				</g>
				<g>
					<path class="st7" d="M249.8,156.2c0.3-0.5,1-0.7,1.5-0.4s0.7,1,0.4,1.5c-0.3,0.5-1,0.7-1.5,0.4
						C249.7,157.4,249.5,156.7,249.8,156.2z"/>
				</g>
				<g>
					<path class="st7" d="M246,154c0.3-0.5,1-0.7,1.5-0.4c0.5,0.3,0.7,1,0.4,1.5s-1,0.7-1.5,0.4C245.9,155.2,245.7,154.5,246,154z"
						/>
				</g>
				<g>
					<path class="st7" d="M242.2,151.8c0.3-0.5,1-0.7,1.5-0.4c0.5,0.3,0.7,1,0.4,1.5c-0.3,0.5-1,0.7-1.5,0.4
						S241.9,152.3,242.2,151.8z"/>
				</g>
				<g>
					<path class="st7" d="M238.4,149.6c0.3-0.5,1-0.7,1.5-0.4c0.5,0.3,0.7,1,0.4,1.5c-0.3,0.5-1,0.7-1.5,0.4
						C238.2,150.8,238.1,150.1,238.4,149.6z"/>
				</g>
				<g>
					<path class="st7" d="M234.5,147.4c0.3-0.5,1-0.7,1.5-0.4c0.5,0.3,0.7,1,0.4,1.5s-1,0.7-1.5,0.4
						C234.4,148.6,234.2,148,234.5,147.4z"/>
				</g>
				<g>
					<path class="st7" d="M230.7,145.2c0.3-0.5,1-0.7,1.5-0.4c0.5,0.3,0.7,1,0.4,1.5c-0.3,0.5-1,0.7-1.5,0.4
						C230.6,146.4,230.4,145.8,230.7,145.2z"/>
				</g>
				<g>
					<path class="st7" d="M226.9,143.1c0.3-0.5,1-0.7,1.5-0.4c0.5,0.3,0.7,1,0.4,1.5c-0.3,0.5-1,0.7-1.5,0.4
						S226.6,143.6,226.9,143.1z"/>
				</g>
				<g>
					<path class="st7" d="M223.1,140.9c0.3-0.5,1-0.7,1.5-0.4s0.7,1,0.4,1.5c-0.3,0.5-1,0.7-1.5,0.4
						C222.9,142.1,222.8,141.4,223.1,140.9z"/>
				</g>
				<g>
					<path class="st7" d="M219.2,138.7c0.3-0.5,1-0.7,1.5-0.4c0.5,0.3,0.7,1,0.4,1.5c-0.3,0.5-1,0.7-1.5,0.4
						C219.1,139.9,218.9,139.2,219.2,138.7z"/>
				</g>
				<g>
					<path class="st7" d="M215.4,136.5c0.3-0.5,1-0.7,1.5-0.4c0.5,0.3,0.7,1,0.4,1.5c-0.3,0.5-1,0.7-1.5,0.4S215.1,137,215.4,136.5z
						"/>
				</g>
				<g>
					<path class="st7" d="M211.6,134.3c0.3-0.5,1-0.7,1.5-0.4c0.5,0.3,0.7,1,0.4,1.5c-0.3,0.5-1,0.7-1.5,0.4
						C211.5,135.5,211.3,134.9,211.6,134.3z"/>
				</g>
				<g>
					<line class="st10" x1="205.8" y1="137.7" x2="211.6" y2="127.7"/>
				</g>
			</g>
		</g>
	</g>
	<g>
		<g>
			<g>
				<g>
					<line class="st10" x1="134.5" y1="328.4" x2="146" y2="330.2"/>
				</g>
				<g>
					<path class="st7" d="M141.1,323.8c0.6,0.1,1,0.7,0.9,1.3c-0.1,0.6-0.7,1-1.3,0.9c-0.6-0.1-1-0.7-0.9-1.3
						C139.9,324.1,140.5,323.7,141.1,323.8z"/>
				</g>
				<g>
					<path class="st7" d="M141.8,319.4c0.6,0.1,1,0.7,0.9,1.3c-0.1,0.6-0.7,1-1.3,0.9c-0.6-0.1-1-0.7-0.9-1.3
						S141.2,319.3,141.8,319.4z"/>
				</g>
				<g>
					<path class="st7" d="M142.5,315c0.6,0.1,1,0.7,0.9,1.3c-0.1,0.6-0.7,1-1.3,0.9c-0.6-0.1-1-0.7-0.9-1.3
						C141.3,315.3,141.9,314.9,142.5,315z"/>
				</g>
				<g>
					<path class="st7" d="M143.2,310.6c0.6,0.1,1,0.7,0.9,1.3c-0.1,0.6-0.7,1-1.3,0.9c-0.6-0.1-1-0.7-0.9-1.3
						C142,311,142.6,310.5,143.2,310.6z"/>
				</g>
				<g>
					<path class="st7" d="M143.9,306.3c0.6,0.1,1,0.7,0.9,1.3c-0.1,0.6-0.7,1-1.3,0.9c-0.6-0.1-1-0.7-0.9-1.3
						C142.7,306.6,143.3,306.2,143.9,306.3z"/>
				</g>
				<g>
					<path class="st7" d="M144.6,301.9c0.6,0.1,1,0.7,0.9,1.3c-0.1,0.6-0.7,1-1.3,0.9s-1-0.7-0.9-1.3
						C143.4,302.2,144,301.8,144.6,301.9z"/>
				</g>
				<g>
					<path class="st7" d="M145.3,297.5c0.6,0.1,1,0.7,0.9,1.3c-0.1,0.6-0.7,1-1.3,0.9s-1-0.7-0.9-1.3
						C144.1,297.8,144.7,297.4,145.3,297.5z"/>
				</g>
				<g>
					<path class="st7" d="M146,293.1c0.6,0.1,1,0.7,0.9,1.3c-0.1,0.6-0.7,1-1.3,0.9s-1-0.7-0.9-1.3C144.8,293.4,145.4,293,146,293.1
						z"/>
				</g>
				<g>
					<path class="st7" d="M146.7,288.7c0.6,0.1,1,0.7,0.9,1.3c-0.1,0.6-0.7,1-1.3,0.9c-0.6-0.1-1-0.7-0.9-1.3
						C145.5,289,146.1,288.6,146.7,288.7z"/>
				</g>
				<g>
					<path class="st7" d="M147.4,284.3c0.6,0.1,1,0.7,0.9,1.3c-0.1,0.6-0.7,1-1.3,0.9c-0.6-0.1-1-0.7-0.9-1.3
						C146.2,284.6,146.8,284.2,147.4,284.3z"/>
				</g>
				<g>
					<path class="st7" d="M148.1,279.9c0.6,0.1,1,0.7,0.9,1.3c-0.1,0.6-0.7,1-1.3,0.9c-0.6-0.1-1-0.7-0.9-1.3
						C146.9,280.3,147.5,279.9,148.1,279.9z"/>
				</g>
				<g>
					<path class="st7" d="M148.8,275.6c0.6,0.1,1,0.7,0.9,1.3c-0.1,0.6-0.7,1-1.3,0.9c-0.6-0.1-1-0.7-0.9-1.3
						C147.6,275.9,148.2,275.5,148.8,275.6z"/>
				</g>
				<g>
					<path class="st7" d="M149.5,271.2c0.6,0.1,1,0.7,0.9,1.3c-0.1,0.6-0.7,1-1.3,0.9c-0.6-0.1-1-0.7-0.9-1.3
						C148.3,271.5,148.9,271.1,149.5,271.2z"/>
				</g>
				<g>
					<path class="st7" d="M150.2,266.8c0.6,0.1,1,0.7,0.9,1.3c-0.1,0.6-0.7,1-1.3,0.9c-0.6-0.1-1-0.7-0.9-1.3
						C149,267.1,149.6,266.7,150.2,266.8z"/>
				</g>
				<g>
					<path class="st7" d="M151,262.4c0.6,0.1,1,0.7,0.9,1.3c-0.1,0.6-0.7,1-1.3,0.9c-0.6-0.1-1-0.7-0.9-1.3
						C149.8,262.7,150.4,262.3,151,262.4z"/>
				</g>
				<g>
					<path class="st7" d="M151.9,258.1c0.6,0.1,1,0.7,0.9,1.3c-0.1,0.6-0.7,1-1.3,0.9c-0.6-0.1-1-0.7-0.9-1.3
						C150.7,258.3,151.3,258,151.9,258.1z"/>
				</g>
				<g>
					<path class="st7" d="M152.8,253.7c0.6,0.1,1,0.7,0.8,1.3c-0.1,0.6-0.7,1-1.3,0.8c-0.6-0.1-1-0.7-0.8-1.3
						C151.6,254,152.2,253.6,152.8,253.7z"/>
				</g>
				<g>
					<path class="st7" d="M153.9,249.4c0.6,0.2,0.9,0.8,0.8,1.3c-0.2,0.6-0.8,0.9-1.3,0.8c-0.6-0.1-1-0.8-0.8-1.4
						C152.7,249.6,153.3,249.3,153.9,249.4z"/>
				</g>
				<g>
					<path class="st7" d="M155.1,245.2c0.6,0.2,0.9,0.8,0.7,1.4c-0.2,0.6-0.8,0.9-1.4,0.8c-0.6-0.2-0.9-0.8-0.7-1.4
						C153.9,245.3,154.5,245,155.1,245.2z"/>
				</g>
				<g>
					<path class="st7" d="M156.5,240.9c0.6,0.2,0.9,0.8,0.7,1.4c-0.2,0.6-0.8,0.9-1.4,0.7c-0.6-0.2-0.9-0.8-0.7-1.4
						C155.3,241,155.9,240.7,156.5,240.9z"/>
				</g>
				<g>
					<path class="st7" d="M158,236.8c0.6,0.2,0.9,0.9,0.6,1.4c-0.2,0.6-0.9,0.9-1.4,0.7c-0.6-0.2-0.9-0.8-0.6-1.4
						S157.4,236.6,158,236.8z"/>
				</g>
				<g>
					<path class="st7" d="M159.6,232.6c0.6,0.2,0.9,0.9,0.6,1.4c-0.2,0.6-0.9,0.9-1.4,0.7s-0.9-0.9-0.6-1.4
						C158.4,232.7,159,232.4,159.6,232.6z"/>
				</g>
				<g>
					<path class="st7" d="M161.2,228.5c0.6,0.2,0.9,0.9,0.6,1.4c-0.2,0.6-0.9,0.9-1.4,0.6c-0.6-0.2-0.9-0.9-0.6-1.4
						C160,228.6,160.6,228.3,161.2,228.5z"/>
				</g>
				<g>
					<path class="st7" d="M162.7,224.3c0.6,0.2,0.9,0.9,0.6,1.4c-0.2,0.6-0.9,0.9-1.4,0.6s-0.9-0.9-0.6-1.4
						C161.5,224.4,162.2,224.1,162.7,224.3z"/>
				</g>
				<g>
					<path class="st7" d="M164.3,220.2c0.6,0.2,0.9,0.9,0.6,1.4s-0.9,0.9-1.4,0.6c-0.6-0.2-0.9-0.9-0.6-1.4
						C163.1,220.3,163.8,220,164.3,220.2z"/>
				</g>
				<g>
					<path class="st7" d="M165.9,216c0.6,0.2,0.9,0.9,0.6,1.4c-0.2,0.6-0.9,0.9-1.4,0.6c-0.6-0.2-0.9-0.9-0.6-1.4
						C164.7,216.1,165.3,215.8,165.9,216z"/>
				</g>
				<g>
					<path class="st7" d="M167.5,211.9c0.6,0.2,0.9,0.9,0.6,1.4c-0.2,0.6-0.9,0.9-1.4,0.6s-0.9-0.9-0.6-1.4
						C166.3,212,166.9,211.7,167.5,211.9z"/>
				</g>
				<g>
					<line class="st10" x1="163.2" y1="206.7" x2="174.1" y2="210.8"/>
				</g>
			</g>
		</g>
	</g>
</g>

<g id="アイコン">
	<g>
		
			<rect x="534.6" y="212.6" transform="matrix(-0.9891 0.1476 -0.1476 -0.9891 1097.6924 346.6735)" class="st5" width="2.8" height="2.8"/>
		
			<rect x="529" y="213.5" transform="matrix(-0.9891 0.1476 -0.1476 -0.9891 1086.6627 349.1651)" class="st5" width="2.8" height="2.8"/>
		
			<rect x="531.3" y="210.3" transform="matrix(-0.9891 0.1476 -0.1476 -0.9891 1090.9318 342.4045)" class="st5" width="2.8" height="2.8"/>
		
			<rect x="525.7" y="211.1" transform="matrix(-0.9891 0.1476 -0.1476 -0.9891 1079.9021 344.8961)" class="st5" width="2.8" height="2.8"/>
		
			<rect x="530.5" y="204.6" transform="matrix(-0.9891 0.1476 -0.1476 -0.9891 1088.4401 331.3749)" class="st5" width="2.8" height="2.8"/>
		
			<rect x="524.9" y="205.5" transform="matrix(-0.9891 0.1476 -0.1476 -0.9891 1077.4105 333.8666)" class="st5" width="2.8" height="2.8"/>
		
			<rect x="523.4" y="214.3" transform="matrix(-0.9891 0.1476 -0.1476 -0.9891 1075.6332 351.6568)" class="st5" width="2.8" height="2.8"/>
		
			<rect x="526.2" y="213.9" transform="matrix(-0.9891 0.1476 -0.1476 -0.9891 1081.1479 350.4109)" class="st6" width="2.8" height="2.8"/>
		
			<rect x="531.8" y="213.1" transform="matrix(-0.9891 0.1476 -0.1476 -0.9891 1092.1775 347.9193)" class="st6" width="2.8" height="2.8"/>
		
			<rect x="534.1" y="209.8" transform="matrix(-0.9891 0.1476 -0.1476 -0.9891 1096.4465 341.1587)" class="st6" width="2.8" height="2.8"/>
		
			<rect x="528.5" y="210.7" transform="matrix(-0.9891 0.1476 -0.1476 -0.9891 1085.417 343.6503)" class="st6" width="2.8" height="2.8"/>
		
			<rect x="522.9" y="211.5" transform="matrix(-0.9891 0.1476 -0.1476 -0.9891 1074.3873 346.142)" class="st6" width="2.8" height="2.8"/>
		
			<rect x="525.3" y="208.3" transform="matrix(-0.9891 0.1476 -0.1476 -0.9891 1078.6564 339.3814)" class="st6" width="2.8" height="2.8"/>
		
			<rect x="530.9" y="207.5" transform="matrix(-0.9891 0.1476 -0.1476 -0.9891 1089.6859 336.8897)" class="st6" width="2.8" height="2.8"/>
		
			<rect x="524.5" y="202.7" transform="matrix(-0.9891 0.1476 -0.1476 -0.9891 1076.1647 328.3518)" class="st6" width="2.8" height="2.8"/>
		
			<rect x="530.1" y="201.8" transform="matrix(-0.9891 0.1476 -0.1476 -0.9891 1087.1942 325.8602)" class="st6" width="2.8" height="2.8"/>
		
			<rect x="533.3" y="204.2" transform="matrix(-0.9891 0.1476 -0.1476 -0.9891 1093.9548 330.1291)" class="st6" width="2.8" height="2.8"/>
		
			<rect x="527.7" y="205.1" transform="matrix(-0.9891 0.1476 -0.1476 -0.9891 1082.9253 332.6208)" class="st6" width="2.8" height="2.8"/>
		
			<rect x="522.1" y="205.9" transform="matrix(-0.9891 0.1476 -0.1476 -0.9891 1071.8958 335.1124)" class="st6" width="2.8" height="2.8"/>
		
			<rect x="533.7" y="207" transform="matrix(-0.9891 0.1476 -0.1476 -0.9891 1095.2007 335.6439)" class="st5" width="2.8" height="2.8"/>
		
			<rect x="528.1" y="207.9" transform="matrix(-0.9891 0.1476 -0.1476 -0.9891 1084.1711 338.1356)" class="st5" width="2.8" height="2.8"/>
		
			<rect x="527.3" y="202.3" transform="matrix(-0.9891 0.1476 -0.1476 -0.9891 1081.6794 327.106)" class="st5" width="2.8" height="2.8"/>
		
			<rect x="522.5" y="208.7" transform="matrix(-0.9891 0.1476 -0.1476 -0.9891 1073.1416 340.6272)" class="st5" width="2.8" height="2.8"/>
		
			<rect x="532.9" y="201.4" transform="matrix(-0.9891 0.1476 -0.1476 -0.9891 1092.709 324.6143)" class="st5" width="2.8" height="2.8"/>
		
			<rect x="521.7" y="203.1" transform="matrix(-0.9891 0.1476 -0.1476 -0.9891 1070.6499 329.5976)" class="st5" width="2.8" height="2.8"/>
	</g>
	<g>
		<defs>
			
				<rect id="SVGID_1_" x="509.8" y="160.8" transform="matrix(0.1195 0.9928 -0.9928 0.1195 622.5812 -371.9353)" width="22.3" height="8.5"/>
		</defs>
		<clipPath id="SVGID_00000062192139951111378610000016057288085692709512_">
			<use xlink:href="#SVGID_1_"  style="overflow:visible;"/>
		</clipPath>
		<g style="clip-path:url(#SVGID_00000062192139951111378610000016057288085692709512_);">
			<polygon class="st19" points="515.1,175.7 514.8,172.9 521.1,166.4 528.9,171.2 529.2,174 521.5,169.2 			"/>
			<polygon class="st20" points="514.4,170.1 514.1,167.3 520.5,160.8 528.2,165.6 528.5,168.4 520.8,163.6 			"/>
			<polygon class="st21" points="513.8,164.5 513.4,161.6 519.8,155.2 527.5,160 527.8,162.8 520.1,158 			"/>
		</g>
	</g>
</g>
</svg>
