<?xml version="1.0" encoding="utf-8"?>
<!-- Generator: Adobe Illustrator 26.5.0, SVG Export Plug-In . SVG Version: 6.00 Build 0)  -->
<svg version="1.1" xmlns="http://www.w3.org/2000/svg" xmlns:xlink="http://www.w3.org/1999/xlink" x="0px" y="0px"
	 viewBox="0 0 550 443.7" style="enable-background:new 0 0 550 443.7;" xml:space="preserve">
<style type="text/css">
	.st0{fill:none;stroke:#646464;stroke-width:14.1732;stroke-linecap:round;stroke-linejoin:round;stroke-miterlimit:10;}
	.st1{fill:none;stroke:#FFD449;stroke-width:2.8346;stroke-miterlimit:10;}
	.st2{fill:none;stroke:#54C6EB;stroke-width:2.8346;stroke-miterlimit:10;}
	.st3{fill:none;stroke:#F4442E;stroke-width:2.8346;stroke-miterlimit:10;}
	.st4{fill:none;stroke:#FFFFFF;stroke-width:2.126;}
	.st5{fill:#646464;}
	.st6{fill:#FFFFFF;}
	.st10{fill:#09BC8A;}
	.st12{fill:none;stroke:#09BC8A;stroke-width:2.8346;stroke-miterlimit:10;}
	.st14{fill:#F4442E;}
	.st15{fill:#54C6EB;}
	.st16{fill:#FFD449;}</style>
<g id="コース">
	<path class="st0" d="M155.8,217.6c0,0-104.8,60.2-109.1,62.4c-4.2,2.2-7-0.9-4.2-6.5c2.8-5.5,12.4-24.5,16.6-33s19.9-28.1,32.7-38
		c12.7-10,34-27.3,39.3-31.6c12-9.8,7.8-15.7,21-25.8c13.3-10.2,24.2-2,38.8-13.3c7.6-5.9,33.8-21,40.1-25.3
		c6.3-4.2,14.8-8.5,25.1-11.6c10.3-3.1,159.5-45,163-45.8c3.5-0.7,10.2-2.2,14.8,5.7c4.6,7.9,7.4,9.2,16.1,7.4s12.7-3.7,15.9-4.2
		c3.1-0.6,10-3.5,16.6,6.1c6.6,9.6,33.4,49.7,37.3,55.2c8.1,11.3-9.8,26.4-18.6,13.1c-6.4-9.6-12-19.2-14-22.7s-6.3-10.7-16.2-7.2
		c-10,3.5-34.1,11.6-47.6,14.2c-13.5,2.6-44.1,7.2-52.4,8.7s-15.3,8.9-16.6,16.6c-1.3,7.8-1.5,11.8-2,19.2
		c-0.6,7.4,6.6,25.3,18.6,30.1c12,4.8,60.5,24.7,68.3,27.7c7.8,3,17.2,13.4,9.8,25.5c-7.6,12.4-9.8,22,0.9,29
		c10.7,7,30.8,19.6,35.8,23.1s9.8,10.2,5.4,17s-12,17.4-16.4,22.7s-9.2,8.7-17.2,8.9c-7.9,0.2-29.2-8.7-36-13.1
		s-32.3-26.6-43.2-48.9c-7.2-14.7-20.3-46.9-39.9-57.6c-16.5-9-34.2-16.5-39.3-18.6c-6.5-2.8-15.5-4.1-24-0.7
		c-8.5,3.3-38.2,15-44.3,17c-6.1,2-16.4,3.9-29.9,5c-13.5,1.1-31.6,2.4-34.7,2.6c-3.1,0.2-4.1-2.4-3.5-6.3
		C163,220.3,163.4,212,155.8,217.6z"/>
</g>
<g id="セクター">
	<path class="st3" d="M125.4,235c-31.3,18-75.9,43.5-78.6,44.9c-4.2,2.2-7-0.9-4.2-6.5c2.8-5.5,12.4-24.5,16.6-33s19.9-28.1,32.7-38
		c12.7-10,34-27.3,39.3-31.6c12-9.8,7.8-15.7,21-25.8c13.3-10.2,24.2-2,38.8-13.3c7.6-5.9,33.8-21,40.1-25.3
		c6.3-4.2,14.8-8.5,25.1-11.6c9-2.7,124.4-35.2,155.4-43.7"/>
	<path class="st1" d="M482.4,325.6c-2.9,4-5.8,7.9-8,10.5c-4.4,5.4-9.2,8.7-17.2,8.9c-7.9,0.2-29.2-8.7-36-13.1
		s-32.3-26.6-43.2-48.9c-7.2-14.7-20.3-46.9-39.9-57.6c-16.5-9-34.2-16.5-39.3-18.6c-6.5-2.8-15.5-4.1-24-0.7
		c-8.5,3.3-38.2,15-44.3,17c-6.1,2-16.4,3.9-29.9,5c-13.5,1.1-31.6,2.4-34.7,2.6c-3.1,0.2-4.1-2.4-3.5-6.3c0.6-3.9,0.9-12.2-6.6-6.6
		c0,0-13.2,7.6-30.5,17.5"/>
	<path class="st2" d="M411.5,51.1c4.4-1.2,7.1-2,7.6-2c3.5-0.7,10.2-2.2,14.8,5.7c4.6,7.9,7.4,9.2,16.1,7.4s12.7-3.7,15.9-4.2
		c3.1-0.6,10-3.5,16.6,6.1c6.6,9.6,33.4,49.7,37.3,55.2c8.1,11.3-9.8,26.4-18.6,13.1c-6.4-9.6-12-19.2-14-22.7s-6.3-10.7-16.2-7.2
		c-10,3.5-34.1,11.6-47.6,14.2c-13.5,2.6-44.1,7.2-52.4,8.7s-15.3,8.9-16.6,16.6c-1.3,7.8-1.5,11.8-2,19.2
		c-0.6,7.4,6.6,25.3,18.6,30.1c12,4.8,60.5,24.7,68.3,27.7c7.8,3,17.2,13.4,9.8,25.5c-7.6,12.4-9.8,22,0.9,29
		c10.7,7,30.8,19.6,35.8,23.1s9.8,10.2,5.4,17c-2.3,3.5-5.4,8-8.4,12.2"/>
</g>
<g id="DRS-ZONES">
  <!-- DRS Zone 1 — visible white for testing (dots run right→left, corrected order) -->
  <path id="drs-1" class="drs-zone"
    fill="none" stroke="#fff" opacity="0"
    d="M240,84.2 
		L248.7,81.7 L253,80.5 L257.3,79.3 L261.5,78.1 L265.8,76.9 L270.1,75.7 L274.4,74.4 L278.7,73.2 L282.9,72 L287.2,70.8 L291.5,69.6 L295.8,68.4 L300,67.2 L304.3,65.9 L308.6,64.7 L312.9,63.5 L317.1,62.3 L320.3,61.4 L325.7,59.9 L330,58.7 L334.2,57.4 L338.5,56.2 L342.8,55 L347.1,53.8 L351.4,52.6 L355.6,51.4 L359.9,50.1 L364.2,48.9 L368.5,47.7 L372.7,46.5 L377,45.3 L381.3,44.1 L385.6,42.9 L389.8,41.6 L394.1,40.4 L398.4,39.2 L402.7,38 L409.7,35.6
		"/>

  <!-- DRS Zone 2 — visible white for testing (dots run right→left, corrected order) -->
  <path id="drs-2" class="drs-zone"
    fill="none" stroke="#fff" opacity="0"
    d="M156.5,235.2 
		L150.8,238.4 L147,240.5 L143.2,242.7 L139.4,244.9 L135.6,247.1 L131.8,249.3 L128,251.4 L124.2,253.6 L120.4,255.8 L116.6,258 L113.7,259.6 L110,261.8 L105.2,264.5 L101.4,266.7 L97.6,268.9 L94.8,270.5 L90,273.2 L86.2,275.4 L82.4,277.6 L79.6,279.2 L75.8,281.4 L71,284.1 L67.2,286.3 L63.4,288.5 L60.6,290.1 L55.8,292.8 L52,295 L50,296.5
		"/>
  
  <!-- DRS Zone 3 — visible white for testing -->
  <!-- <path id="drs-3" class="drs-zone"
    fill="none" stroke="#fff" opacity="1"
    d="M504.9,272.5
		L498.4,274.5 L494,275.6 L489.7,276.6 L485.4,277.7 L481,278.7 L476.7,279.8 L472.4,280.8 L468.1,281.8 L463.7,282.9 L459.4,283.9 L455.1,285 L450.8,286 L446.4,287.1 L442.1,288.1 L437.8,289.2 L433.5,290.2 L429.1,291.2 L424.8,292.3 L420.5,293.3 L416.2,294.4 L411.8,295.4 L407.5,296.5 L403.2,297.5 L398.9,298.6 L394.5,299.6 L390.2,300.6 L385.9,301.6 L381.5,302.6 L377.2,303.6 L372.9,304.6 L368.5,305.6 L364.2,306.6 L359.9,307.6 L355.5,308.7 L351.2,309.7 L346.8,310.7 L342.5,311.7 L338.2,312.7 L333.8,313.7 L329.5,314.7 L325.2,315.7 L320.8,316.7 L316.5,317.7 L312.2,318.8 L307.8,319.8 L303.5,320.8 L299.2,321.8 L294.8,322.8 L290.5,323.8 L286.2,324.8 L281.8,325.8 L277.5,326.8 L273.2,327.8 L264.8,329.8
		"/> -->
</g>
<g id="コーナー番号">
	<g>
		<g>
			<circle class="st4" cx="25.7" cy="293.7" r="8.5"/>
			<circle class="st5" cx="25.7" cy="293.7" r="8.5"/>
		</g>
		<g>
			<path class="st6" d="M24,297.6V296h1v-4.5h-0.9v-1.6h2.6v6.1h0.9v1.6H24z"/>
		</g>
	</g>
	<g>
		<g>
			<circle class="st4" cx="151.2" cy="179.2" r="8.5"/>
			<circle class="st5" cx="151.2" cy="179.2" r="8.5"/>
		</g>
		<g>
			<path class="st6" d="M149.1,183v-2.6c0-0.6,0.1-1,0.6-1.2l1.9-0.8v-1.6l-0.1-0.1h-0.5l-0.1,0.1v1.1h-1.7v-1.3
				c0-0.8,0.4-1.1,0.8-1.3h2.5c0.5,0.2,0.8,0.5,0.8,1.3v1.9c0,0.6-0.1,0.9-0.6,1.2l-1.9,0.8v0.9h2.4v1.6H149.1z"/>
		</g>
	</g>
	<g>
		<g>
			<circle class="st4" cx="139.3" cy="129.1" r="8.5"/>
			<circle class="st5" cx="139.3" cy="129.1" r="8.5"/>
		</g>
		<g>
			<path class="st6" d="M138.1,133c-0.5-0.2-0.8-0.5-0.8-1.3v-1h1.7v0.8l0.1,0.1h0.5l0.1-0.1v-1.6l-0.1-0.1h-1v-1.3h1l0.1-0.1v-1.5
				l-0.1-0.1h-0.5l-0.1,0.1v0.8h-1.7v-1c0-0.8,0.4-1.1,0.8-1.3h2.5c0.5,0.2,0.8,0.5,0.8,1.3v1.3c0,0.6-0.2,0.9-0.6,1.2
				c0.4,0.3,0.6,0.6,0.6,1.2v1.4c0,0.8-0.4,1.1-0.8,1.3H138.1z"/>
		</g>
	</g>
	<g>
		<g>
			<circle class="st4" cx="192.5" cy="153.3" r="8.5"/>
			<circle class="st5" cx="192.5" cy="153.3" r="8.5"/>
		</g>
		<g>
			<path class="st6" d="M194.1,155.7v1.5h-1.7v-1.5h-2.2v-1.5l1.6-4.7h1.7l-1.6,4.6h0.5v-0.4l0.4-1h1.3v1.4h0.5v1.6H194.1z"/>
		</g>
	</g>
	<g>
		<g>
			<circle class="st4" cx="432.3" cy="30.6" r="8.5"/>
			<circle class="st5" cx="432.3" cy="30.6" r="8.5"/>
		</g>
		<g>
			<path class="st6" d="M431.1,34.4c-0.5-0.2-0.8-0.5-0.8-1.3v-1h1.6V33l0.1,0.1h0.6l0.1-0.1v-2.1l-0.1-0.1H432l-0.1,0.1v0.4h-1.6
				v-4.5h4v1.5h-2.4v1.6l0.4-0.4h1.3c0.5,0.2,0.8,0.5,0.8,1.3v2.4c0,0.8-0.4,1.1-0.8,1.3H431.1z"/>
		</g>
	</g>
	<g>
		<g>
			<circle class="st4" cx="435.4" cy="81.3" r="8.5"/>
			<circle class="st5" cx="435.4" cy="81.3" r="8.5"/>
		</g>
		<g>
			<path class="st6" d="M436.7,85.2h-2.5c-0.5-0.2-0.8-0.5-0.8-1.3v-5.1c0-0.8,0.4-1.1,0.8-1.3h2.5c0.5,0.2,0.8,0.5,0.8,1.3v1h-1.7
				V79l-0.1-0.1h-0.5l-0.1,0.1v1.8l0.3-0.3h1.3c0.5,0.2,0.8,0.5,0.8,1.3v2.2C437.5,84.7,437.1,85,436.7,85.2z M435.7,83.8l0.1-0.1
				v-1.8l-0.1-0.1h-0.5l-0.1,0.1v1.8l0.1,0.1H435.7z"/>
		</g>
	</g>
	<g>
		<g>
			<circle class="st4" cx="482.6" cy="40.3" r="8.5"/>
			<circle class="st5" cx="482.6" cy="40.3" r="8.5"/>
		</g>
		<g>
			<path class="st6" d="M480.7,44.1l2.1-6.2h-2.4v-1.5h4.1v1.2l-2.1,6.5H480.7z"/>
		</g>
	</g>
	<g>
		<g>
			<circle class="st4" cx="524.2" cy="153.6" r="8.5"/>
			<circle class="st5" cx="524.2" cy="153.6" r="8.5"/>
		</g>
		<g>
			<path class="st6" d="M523,157.4c-0.5-0.2-0.8-0.5-0.8-1.3v-1.4c0-0.6,0.2-0.9,0.6-1.2c-0.4-0.3-0.6-0.6-0.6-1.2v-1.3
				c0-0.8,0.4-1.1,0.8-1.3h2.5c0.5,0.2,0.8,0.5,0.8,1.3v1.3c0,0.6-0.2,0.9-0.6,1.2c0.4,0.3,0.6,0.6,0.6,1.2v1.4
				c0,0.8-0.4,1.1-0.8,1.3H523z M523.8,152.8l0.1,0.1h0.5l0.1-0.1v-1.5l-0.1-0.1h-0.5l-0.1,0.1V152.8z M524.6,155.9v-1.6l-0.1-0.1
				h-0.5l-0.1,0.1v1.6l0.1,0.1h0.5L524.6,155.9z"/>
		</g>
	</g>
	<g>
		<g>
			<circle class="st4" cx="469.2" cy="83.3" r="8.5"/>
			<circle class="st5" cx="469.2" cy="83.3" r="8.5"/>
		</g>
		<g>
			<path class="st6" d="M468,87.1c-0.5-0.2-0.8-0.5-0.8-1.3v-1h1.7v0.8l0.1,0.1h0.5l0.1-0.1v-1.8l-0.3,0.3H468
				c-0.5-0.2-0.8-0.5-0.8-1.3v-2.2c0-0.8,0.4-1.1,0.8-1.3h2.5c0.5,0.2,0.8,0.5,0.8,1.3v5.1c0,0.8-0.4,1.1-0.8,1.3H468z M469.6,82.8
				V81l-0.1-0.1h-0.5l-0.1,0.1v1.8l0.1,0.1h0.5L469.6,82.8z"/>
		</g>
	</g>
	<g>
		<g>
			<circle class="st4" cx="342.4" cy="119.3" r="8.5"/>
			<circle class="st5" cx="342.4" cy="119.3" r="8.5"/>
		</g>
		<g>
			<path class="st6" d="M338.3,123.2v-1.6h1v-4.5h-0.9v-1.6h2.6v6.1h0.9v1.6H338.3z"/>
			<path class="st6" d="M345.9,123.2h-2.5c-0.5-0.2-0.8-0.5-0.8-1.3v-5.1c0-0.8,0.4-1.1,0.8-1.3h2.5c0.5,0.2,0.8,0.5,0.8,1.3v5.1
				C346.8,122.7,346.4,123,345.9,123.2z M345.1,117l-0.1-0.1h-0.5l-0.1,0.1v4.7l0.1,0.1h0.5l0.1-0.1V117z"/>
		</g>
	</g>
	<g>
		<g>
			<circle class="st4" cx="342.2" cy="189.4" r="8.5"/>
			<circle class="st5" cx="342.2" cy="189.4" r="8.5"/>
		</g>
		<g>
			<path class="st6" d="M338.1,193.3v-1.6h1v-4.5h-0.9v-1.6h2.6v6.1h0.9v1.6H338.1z"/>
			<path class="st6" d="M342.8,193.3v-1.6h1v-4.5h-0.9v-1.6h2.6v6.1h0.9v1.6H342.8z"/>
		</g>
	</g>
	<g>
		<g>
			<circle class="st4" cx="467.7" cy="220.5" r="8.5"/>
			<circle class="st5" cx="467.7" cy="220.5" r="8.5"/>
		</g>
		<g>
			<path class="st6" d="M463.7,224.4v-1.6h1v-4.5h-0.9v-1.6h2.6v6.1h0.9v1.6H463.7z"/>
			<path class="st6" d="M468,224.4v-2.6c0-0.6,0.1-1,0.6-1.2l1.9-0.8v-1.6l-0.1-0.1h-0.5l-0.1,0.1v1.1H468V218
				c0-0.8,0.4-1.1,0.8-1.3h2.5c0.5,0.2,0.8,0.5,0.8,1.3v1.9c0,0.6-0.1,0.9-0.6,1.2l-1.9,0.8v0.9h2.4v1.6H468z"/>
		</g>
	</g>
	<g>
		<g>
			<circle class="st4" cx="424.5" cy="268.7" r="8.5"/>
			<circle class="st5" cx="424.5" cy="268.7" r="8.5"/>
		</g>
		<g>
			<path class="st6" d="M420.5,272.6V271h1v-4.5h-0.9v-1.6h2.6v6.1h0.9v1.6H420.5z"/>
			<path class="st6" d="M425.6,272.6c-0.5-0.2-0.8-0.5-0.8-1.3v-1h1.7v0.8l0.1,0.1h0.5l0.1-0.1v-1.6l-0.1-0.1h-1v-1.3h1l0.1-0.1
				v-1.5l-0.1-0.1h-0.5l-0.1,0.1v0.8h-1.7v-1c0-0.8,0.4-1.1,0.8-1.3h2.5c0.5,0.2,0.8,0.5,0.8,1.3v1.3c0,0.6-0.2,0.9-0.6,1.2
				c0.4,0.3,0.6,0.6,0.6,1.2v1.4c0,0.8-0.4,1.1-0.8,1.3H425.6z"/>
		</g>
	</g>
	<g>
		<g>
			<circle class="st4" cx="511.9" cy="302.8" r="8.5"/>
			<circle class="st5" cx="511.9" cy="302.8" r="8.5"/>
		</g>
		<g>
			<path class="st6" d="M507.8,306.6V305h1v-4.5h-0.9V299h2.6v6.1h0.9v1.6H507.8z"/>
			<path class="st6" d="M515.9,305.1v1.5h-1.7v-1.5h-2.2v-1.5l1.6-4.7h1.7l-1.6,4.6h0.5v-0.4l0.4-1h1.3v1.4h0.5v1.6H515.9z"/>
		</g>
	</g>
	<g>
		<g>
			<circle class="st4" cx="462" cy="364.4" r="8.5"/>
			<circle class="st5" cx="462" cy="364.4" r="8.5"/>
		</g>
		<g>
			<path class="st6" d="M457.9,368.3v-1.6h1v-4.5H458v-1.6h2.6v6.1h0.9v1.6H457.9z"/>
			<path class="st6" d="M463,368.3c-0.5-0.2-0.8-0.5-0.8-1.3v-1h1.6v0.8l0.1,0.1h0.6l0.1-0.1v-2.1l-0.1-0.1h-0.6l-0.1,0.1v0.4h-1.6
				v-4.5h4v1.5h-2.4v1.6l0.4-0.4h1.3c0.5,0.2,0.8,0.5,0.8,1.3v2.4c0,0.8-0.4,1.1-0.8,1.3H463z"/>
		</g>
	</g>
	<g>
		<g>
			<circle class="st4" cx="365" cy="222.5" r="8.5"/>
			<circle class="st5" cx="365" cy="222.5" r="8.5"/>
		</g>
		<g>
			<path class="st6" d="M360.9,226.3v-1.6h1v-4.5h-0.9v-1.6h2.6v6.1h0.9v1.6H360.9z"/>
			<path class="st6" d="M368.6,226.3h-2.5c-0.5-0.2-0.8-0.5-0.8-1.3V220c0-0.8,0.4-1.1,0.8-1.3h2.5c0.5,0.2,0.8,0.5,0.8,1.3v1h-1.7
				v-0.8l-0.1-0.1h-0.5l-0.1,0.1v1.8l0.3-0.3h1.3c0.5,0.2,0.8,0.5,0.8,1.3v2.2C369.4,225.9,369,226.2,368.6,226.3z M367.6,225
				l0.1-0.1V223l-0.1-0.1h-0.5L367,223v1.8l0.1,0.1H367.6z"/>
		</g>
	</g>
	<g>
		<g>
			<circle class="st4" cx="284.9" cy="183.9" r="8.5"/>
			<circle class="st5" cx="284.9" cy="183.9" r="8.5"/>
		</g>
		<g>
			<path class="st6" d="M280.8,187.8v-1.6h1v-4.5h-0.9v-1.6h2.6v6.1h0.9v1.6H280.8z"/>
			<path class="st6" d="M285.4,187.8l2.1-6.2h-2.4v-1.5h4.1v1.2l-2.1,6.5H285.4z"/>
		</g>
	</g>
	<g>
		<g>
			<circle class="st4" cx="161.1" cy="254.1" r="8.5"/>
			<circle class="st5" cx="161.1" cy="254.1" r="8.5"/>
		</g>
		<g>
			<path class="st6" d="M157.1,258v-1.6h1V252h-0.9v-1.6h2.6v6.1h0.9v1.6H157.1z"/>
			<path class="st6" d="M162.2,258c-0.5-0.2-0.8-0.5-0.8-1.3v-1.4c0-0.6,0.2-0.9,0.6-1.2c-0.4-0.3-0.6-0.6-0.6-1.2v-1.3
				c0-0.8,0.4-1.1,0.8-1.3h2.5c0.5,0.2,0.8,0.5,0.8,1.3v1.3c0,0.6-0.2,0.9-0.6,1.2c0.4,0.3,0.6,0.6,0.6,1.2v1.4
				c0,0.8-0.4,1.1-0.8,1.3H162.2z M163.1,253.4l0.1,0.1h0.5l0.1-0.1v-1.5l-0.1-0.1h-0.5l-0.1,0.1V253.4z M163.8,256.5v-1.6l-0.1-0.1
				h-0.5l-0.1,0.1v1.6l0.1,0.1h0.5L163.8,256.5z"/>
		</g>
	</g>
	<g>
		<g>
			<circle class="st4" cx="168.3" cy="197.2" r="8.5"/>
			<circle class="st5" cx="168.3" cy="197.2" r="8.5"/>
		</g>
		<g>
			<path class="st6" d="M164.2,201.1v-1.6h1V195h-0.9v-1.6h2.6v6.1h0.9v1.6H164.2z"/>
			<path class="st6" d="M169.3,201.1c-0.5-0.2-0.8-0.5-0.8-1.3v-1h1.7v0.8l0.1,0.1h0.5l0.1-0.1v-1.8l-0.3,0.3h-1.3
				c-0.5-0.2-0.8-0.5-0.8-1.3v-2.2c0-0.8,0.4-1.1,0.8-1.3h2.5c0.5,0.2,0.8,0.5,0.8,1.3v5.1c0,0.8-0.4,1.1-0.8,1.3H169.3z M171,196.8
				v-1.8l-0.1-0.1h-0.5l-0.1,0.1v1.8l0.1,0.1h0.5L171,196.8z"/>
		</g>
	</g>
</g>
<g id="DRS">

	<g>
		<g>
			<g>
				<g>
					<line class="st12" x1="158.4" y1="240.7" x2="152.7" y2="230.6"/>
				</g>
				<g>
					<path class="st10" d="M150.8,238.4c-0.3-0.5-0.1-1.2,0.4-1.5c0.5-0.3,1.2-0.1,1.5,0.4c0.3,0.5,0.1,1.2-0.4,1.5
						S151.1,238.9,150.8,238.4z"/>
				</g>
				<g>
					<path class="st10" d="M147,240.5c-0.3-0.5-0.1-1.2,0.4-1.5s1.2-0.1,1.5,0.4s0.1,1.2-0.4,1.5C148,241.3,147.3,241.1,147,240.5z"
						/>
				</g>
				<g>
					<path class="st10" d="M143.2,242.7c-0.3-0.5-0.1-1.2,0.4-1.5c0.5-0.3,1.2-0.1,1.5,0.4c0.3,0.5,0.1,1.2-0.4,1.5
						C144.2,243.4,143.5,243.2,143.2,242.7z"/>
				</g>
				<g>
					<path class="st10" d="M139.4,244.9c-0.3-0.5-0.1-1.2,0.4-1.5s1.2-0.1,1.5,0.4c0.3,0.5,0.1,1.2-0.4,1.5S139.7,245.4,139.4,244.9z
						"/>
				</g>
				<g>
					<path class="st10" d="M135.6,247.1c-0.3-0.5-0.1-1.2,0.4-1.5c0.5-0.3,1.2-0.1,1.5,0.4s0.1,1.2-0.4,1.5
						C136.6,247.8,135.9,247.6,135.6,247.1z"/>
				</g>
				<g>
					<path class="st10" d="M131.8,249.3c-0.3-0.5-0.1-1.2,0.4-1.5c0.5-0.3,1.2-0.1,1.5,0.4c0.3,0.5,0.1,1.2-0.4,1.5
						S132.1,249.8,131.8,249.3z"/>
				</g>
				<g>
					<path class="st10" d="M128,251.4c-0.3-0.5-0.1-1.2,0.4-1.5c0.5-0.3,1.2-0.1,1.5,0.4s0.1,1.2-0.4,1.5
						C129,252.1,128.3,252,128,251.4z"/>
				</g>
				<g>
					<path class="st10" d="M124.2,253.6c-0.3-0.5-0.1-1.2,0.4-1.5c0.5-0.3,1.2-0.1,1.5,0.4c0.3,0.5,0.1,1.2-0.4,1.5
						C125.2,254.3,124.5,254.1,124.2,253.6z"/>
				</g>
				<g>
					<path class="st10" d="M120.4,255.8c-0.3-0.5-0.1-1.2,0.4-1.5c0.5-0.3,1.2-0.1,1.5,0.4c0.3,0.5,0.1,1.2-0.4,1.5
						C121.4,256.5,120.7,256.3,120.4,255.8z"/>
				</g>
				<g>
					<path class="st10" d="M116.6,258c-0.3-0.5-0.1-1.2,0.4-1.5c0.5-0.3,1.2-0.1,1.5,0.4c0.3,0.5,0.1,1.2-0.4,1.5
						C117.6,258.7,116.9,258.5,116.6,258z"/>
				</g>
				<g>
					
						<ellipse transform="matrix(0.8674 -0.4976 0.4976 0.8674 -114.1002 91.0273)" class="st10" cx="113.7" cy="259.6" rx="1.1" ry="1.1"/>
				</g>
				<g>
					
						<ellipse transform="matrix(0.8676 -0.4973 0.4973 0.8676 -115.6286 89.3476)" class="st10" cx="110" cy="261.8" rx="1.1" ry="1.1"/>
				</g>
				<g>
					<path class="st10" d="M105.2,264.5c-0.3-0.5-0.1-1.2,0.4-1.5c0.5-0.3,1.2-0.1,1.5,0.4c0.3,0.5,0.1,1.2-0.4,1.5
						C106.2,265.2,105.5,265,105.2,264.5z"/>
				</g>
				<g>
					<path class="st10" d="M101.4,266.7c-0.3-0.5-0.1-1.2,0.4-1.5c0.5-0.3,1.2-0.1,1.5,0.4s0.1,1.2-0.4,1.5
						C102.4,267.4,101.7,267.2,101.4,266.7z"/>
				</g>
				<g>
					<path class="st10" d="M97.6,268.9c-0.3-0.5-0.1-1.2,0.4-1.5c0.5-0.3,1.2-0.1,1.5,0.4c0.3,0.5,0.1,1.2-0.4,1.5
						C98.6,269.6,97.9,269.4,97.6,268.9z"/>
				</g>
				<g>
					
						<ellipse transform="matrix(0.8675 -0.4974 0.4974 0.8675 -122.0044 82.978)" class="st10" cx="94.8" cy="270.5" rx="1.1" ry="1.1"/>
				</g>
				<g>
					<path class="st10" d="M90,273.2c-0.3-0.5-0.1-1.2,0.4-1.5c0.5-0.3,1.2-0.1,1.5,0.4s0.1,1.2-0.4,1.5
						C91,273.9,90.3,273.8,90,273.2z"/>
				</g>
				<g>
					<path class="st10" d="M86.2,275.4c-0.3-0.5-0.1-1.2,0.4-1.5c0.5-0.3,1.2-0.1,1.5,0.4c0.3,0.5,0.1,1.2-0.4,1.5
						C87.2,276.1,86.5,275.9,86.2,275.4z"/>
				</g>
				<g>
					<path class="st10" d="M82.4,277.6c-0.3-0.5-0.1-1.2,0.4-1.5c0.5-0.3,1.2-0.1,1.5,0.4c0.3,0.5,0.1,1.2-0.4,1.5
						C83.4,278.3,82.7,278.1,82.4,277.6z"/>
				</g>
				<g>
					
						<ellipse transform="matrix(0.8674 -0.4976 0.4976 0.8674 -128.3939 76.6149)" class="st10" cx="79.6" cy="279.2" rx="1.1" ry="1.1"/>
				</g>
				<g>
					
						<ellipse transform="matrix(0.8676 -0.4973 0.4973 0.8676 -129.9104 74.9422)" class="st10" cx="75.8" cy="281.4" rx="1.1" ry="1.1"/>
				</g>
				<g>
					<path class="st10" d="M71,284.1c-0.3-0.5-0.1-1.2,0.4-1.5c0.5-0.3,1.2-0.1,1.5,0.4s0.1,1.2-0.4,1.5
						C72,284.8,71.3,284.7,71,284.1z"/>
				</g>
				<g>
					<path class="st10" d="M67.2,286.3c-0.3-0.5-0.1-1.2,0.4-1.5c0.5-0.3,1.2-0.1,1.5,0.4c0.3,0.5,0.1,1.2-0.4,1.5
						C68.2,287,67.5,286.8,67.2,286.3z"/>
				</g>
				<g>
					<path class="st10" d="M63.4,288.5c-0.3-0.5-0.1-1.2,0.4-1.5s1.2-0.1,1.5,0.4c0.3,0.5,0.1,1.2-0.4,1.5
						C64.4,289.2,63.7,289,63.4,288.5z"/>
				</g>
				<g>
					
						<ellipse transform="matrix(0.8676 -0.4973 0.4973 0.8676 -136.2627 68.544)" class="st10" cx="60.6" cy="290.1" rx="1.1" ry="1.1"/>
				</g>
				<g>
					<path class="st10" d="M55.8,292.8c-0.3-0.5-0.1-1.2,0.4-1.5c0.5-0.3,1.2-0.1,1.5,0.4c0.3,0.5,0.1,1.2-0.4,1.5
						S56.1,293.4,55.8,292.8z"/>
				</g>
				<g>
					<path class="st10" d="M52,295c-0.3-0.5-0.1-1.2,0.4-1.5s1.2-0.1,1.5,0.4s0.1,1.2-0.4,1.5S52.3,295.5,52,295z"/>
				</g>
				<g>
					<line class="st12" x1="52.1" y1="301.7" x2="46.3" y2="291.6"/>
				</g>
			</g>
		</g>
	</g>
	<g>
		<g>
			<g>
				<g>
					<line class="st12" x1="237.5" y1="78.9" x2="240.7" y2="90.1"/>
				</g>
				<g>
						<ellipse transform="matrix(0.9616 -0.2744 0.2744 0.9616 -13.5043 69.9834)" class="st10" cx="243.4" cy="83.3" rx="1.1" ry="1.1"/>
				</g>
				<g>
					<path class="st10" d="M248.7,81.7c0.2,0.6-0.2,1.2-0.8,1.4s-1.2-0.2-1.4-0.8c-0.2-0.6,0.2-1.2,0.8-1.4S248.6,81.2,248.7,81.7z"
						/>
				</g>
				<g>
					<path class="st10" d="M253,80.5c0.2,0.6-0.2,1.2-0.8,1.4s-1.2-0.2-1.4-0.8c-0.2-0.6,0.2-1.2,0.8-1.4S252.8,79.9,253,80.5z"/>
				</g>
				<g>
					<path class="st10" d="M257.3,79.3c0.2,0.6-0.2,1.2-0.8,1.4c-0.6,0.2-1.2-0.2-1.4-0.8c-0.2-0.6,0.2-1.2,0.8-1.4
						C256.5,78.4,257.1,78.7,257.3,79.3z"/>
				</g>
				<g>
					<path class="st10" d="M261.5,78.1c0.2,0.6-0.2,1.2-0.8,1.4c-0.6,0.2-1.2-0.2-1.4-0.8c-0.2-0.6,0.2-1.2,0.8-1.4
						S261.4,77.5,261.5,78.1z"/>
				</g>
				<g>
					<path class="st10" d="M265.8,76.9c0.2,0.6-0.2,1.2-0.8,1.4c-0.6,0.2-1.2-0.2-1.4-0.8c-0.2-0.6,0.2-1.2,0.8-1.4
						C265,76,265.7,76.3,265.8,76.9z"/>
				</g>
				<g>
					<path class="st10" d="M270.1,75.7c0.2,0.6-0.2,1.2-0.8,1.4c-0.6,0.2-1.2-0.2-1.4-0.8c-0.2-0.6,0.2-1.2,0.8-1.4
						C269.3,74.7,269.9,75.1,270.1,75.7z"/>
				</g>
				<g>
					<path class="st10" d="M274.4,74.4c0.2,0.6-0.2,1.2-0.8,1.4c-0.6,0.2-1.2-0.2-1.4-0.8c-0.2-0.6,0.2-1.2,0.8-1.4
						C273.6,73.5,274.2,73.9,274.4,74.4z"/>
				</g>
				<g>
					<path class="st10" d="M278.7,73.2c0.2,0.6-0.2,1.2-0.8,1.4c-0.6,0.2-1.2-0.2-1.4-0.8c-0.2-0.6,0.2-1.2,0.8-1.4
						C277.9,72.3,278.5,72.6,278.7,73.2z"/>
				</g>
				<g>
					<path class="st10" d="M282.9,72c0.2,0.6-0.2,1.2-0.8,1.4c-0.6,0.2-1.2-0.2-1.4-0.8c-0.2-0.6,0.2-1.2,0.8-1.4
						C282.1,71.1,282.8,71.4,282.9,72z"/>
				</g>
				<g>
					<path class="st10" d="M287.2,70.8c0.2,0.6-0.2,1.2-0.8,1.4c-0.6,0.2-1.2-0.2-1.4-0.8c-0.2-0.6,0.2-1.2,0.8-1.4
						C286.4,69.9,287,70.2,287.2,70.8z"/>
				</g>
				<g>
					<path class="st10" d="M291.5,69.6c0.2,0.6-0.2,1.2-0.8,1.4c-0.6,0.2-1.2-0.2-1.4-0.8c-0.2-0.6,0.2-1.2,0.8-1.4
						C290.7,68.7,291.3,69,291.5,69.6z"/>
				</g>
				<g>
					<path class="st10" d="M295.8,68.4c0.2,0.6-0.2,1.2-0.8,1.4c-0.6,0.2-1.2-0.2-1.4-0.8c-0.2-0.6,0.2-1.2,0.8-1.4
						C295,67.4,295.6,67.8,295.8,68.4z"/>
				</g>
				<g>
					<path class="st10" d="M300,67.2c0.2,0.6-0.2,1.2-0.8,1.4c-0.6,0.2-1.2-0.2-1.4-0.8c-0.2-0.6,0.2-1.2,0.8-1.4
						C299.3,66.2,299.9,66.6,300,67.2z"/>
				</g>
				<g>
					<path class="st10" d="M304.3,65.9c0.2,0.6-0.2,1.2-0.8,1.4c-0.6,0.2-1.2-0.2-1.4-0.8c-0.2-0.6,0.2-1.2,0.8-1.4
						C303.5,65,304.1,65.4,304.3,65.9z"/>
				</g>
				<g>
					<path class="st10" d="M308.6,64.7c0.2,0.6-0.2,1.2-0.8,1.4c-0.6,0.2-1.2-0.2-1.4-0.8c-0.2-0.6,0.2-1.2,0.8-1.4
						C307.8,63.8,308.4,64.1,308.6,64.7z"/>
				</g>
				<g>
					<path class="st10" d="M312.9,63.5c0.2,0.6-0.2,1.2-0.8,1.4s-1.2-0.2-1.4-0.8c-0.2-0.6,0.2-1.2,0.8-1.4
						C312.1,62.6,312.7,62.9,312.9,63.5z"/>
				</g>
				<g>
					<path class="st10" d="M317.1,62.3c0.2,0.6-0.2,1.2-0.8,1.4c-0.6,0.2-1.2-0.2-1.4-0.8c-0.2-0.6,0.2-1.2,0.8-1.4
						C316.4,61.4,317,61.7,317.1,62.3z"/>
				</g>
				<g>
					
						<ellipse transform="matrix(0.9617 -0.2742 0.2742 0.9617 -4.5554 90.1798)" class="st10" cx="320.3" cy="61.4" rx="1.1" ry="1.1"/>
				</g>
				<g>
					<path class="st10" d="M325.7,59.9c0.2,0.6-0.2,1.2-0.8,1.4c-0.6,0.2-1.2-0.2-1.4-0.8c-0.2-0.6,0.2-1.2,0.8-1.4
						C324.9,58.9,325.5,59.3,325.7,59.9z"/>
				</g>
				<g>
					<path class="st10" d="M330,58.7c0.2,0.6-0.2,1.2-0.8,1.4c-0.6,0.2-1.2-0.2-1.4-0.8c-0.2-0.6,0.2-1.2,0.8-1.4
						C329.2,57.7,329.8,58.1,330,58.7z"/>
				</g>
				<g>
					<path class="st10" d="M334.2,57.4c0.2,0.6-0.2,1.2-0.8,1.4c-0.6,0.2-1.2-0.2-1.4-0.8c-0.2-0.6,0.2-1.2,0.8-1.4
						C333.5,56.5,334.1,56.9,334.2,57.4z"/>
				</g>
				<g>
					<path class="st10" d="M338.5,56.2c0.2,0.6-0.2,1.2-0.8,1.4c-0.6,0.2-1.2-0.2-1.4-0.8c-0.2-0.6,0.2-1.2,0.8-1.4
						S338.4,55.6,338.5,56.2z"/>
				</g>
				<g>
					<path class="st10" d="M342.8,55c0.2,0.6-0.2,1.2-0.8,1.4c-0.6,0.2-1.2-0.2-1.4-0.8c-0.2-0.6,0.2-1.2,0.8-1.4
						C342,54.1,342.6,54.4,342.8,55z"/>
				</g>
				<g>
					<path class="st10" d="M347.1,53.8c0.2,0.6-0.2,1.2-0.8,1.4c-0.6,0.2-1.2-0.2-1.4-0.8c-0.2-0.6,0.2-1.2,0.8-1.4
						C346.3,52.9,346.9,53.2,347.1,53.8z"/>
				</g>
				<g>
					<path class="st10" d="M351.4,52.6c0.2,0.6-0.2,1.2-0.8,1.4c-0.6,0.2-1.2-0.2-1.4-0.8c-0.2-0.6,0.2-1.2,0.8-1.4
						C350.6,51.7,351.2,52,351.4,52.6z"/>
				</g>
				<g>
					<path class="st10" d="M355.6,51.4c0.2,0.6-0.2,1.2-0.8,1.4c-0.6,0.2-1.2-0.2-1.4-0.8c-0.2-0.6,0.2-1.2,0.8-1.4
						C354.9,50.4,355.5,50.8,355.6,51.4z"/>
				</g>
				<g>
					<path class="st10" d="M359.9,50.1c0.2,0.6-0.2,1.2-0.8,1.4c-0.6,0.2-1.2-0.2-1.4-0.8c-0.2-0.6,0.2-1.2,0.8-1.4
						C359.1,49.2,359.7,49.6,359.9,50.1z"/>
				</g>
				<g>
					<path class="st10" d="M364.2,48.9c0.2,0.6-0.2,1.2-0.8,1.4s-1.2-0.2-1.4-0.8c-0.2-0.6,0.2-1.2,0.8-1.4
						C363.4,48,364,48.3,364.2,48.9z"/>
				</g>
				<g>
					<path class="st10" d="M368.5,47.7c0.2,0.6-0.2,1.2-0.8,1.4c-0.6,0.2-1.2-0.2-1.4-0.8c-0.2-0.6,0.2-1.2,0.8-1.4
						S368.3,47.1,368.5,47.7z"/>
				</g>
				<g>
					<path class="st10" d="M372.7,46.5c0.2,0.6-0.2,1.2-0.8,1.4c-0.6,0.2-1.2-0.2-1.4-0.8c-0.2-0.6,0.2-1.2,0.8-1.4
						C372,45.6,372.6,45.9,372.7,46.5z"/>
				</g>
				<g>
					<path class="st10" d="M377,45.3c0.2,0.6-0.2,1.2-0.8,1.4c-0.6,0.2-1.2-0.2-1.4-0.8c-0.2-0.6,0.2-1.2,0.8-1.4
						C376.2,44.4,376.8,44.7,377,45.3z"/>
				</g>
				<g>
					<path class="st10" d="M381.3,44.1c0.2,0.6-0.2,1.2-0.8,1.4c-0.6,0.2-1.2-0.2-1.4-0.8c-0.2-0.6,0.2-1.2,0.8-1.4
						C380.5,43.1,381.1,43.5,381.3,44.1z"/>
				</g>
				<g>
					<path class="st10" d="M385.6,42.9c0.2,0.6-0.2,1.2-0.8,1.4c-0.6,0.2-1.2-0.2-1.4-0.8c-0.2-0.6,0.2-1.2,0.8-1.4
						C384.8,41.9,385.4,42.3,385.6,42.9z"/>
				</g>
				<g>
					<path class="st10" d="M389.8,41.6c0.2,0.6-0.2,1.2-0.8,1.4c-0.6,0.2-1.2-0.2-1.4-0.8c-0.2-0.6,0.2-1.2,0.8-1.4
						C389.1,40.7,389.7,41.1,389.8,41.6z"/>
				</g>
				<g>
					<path class="st10" d="M394.1,40.4c0.2,0.6-0.2,1.2-0.8,1.4c-0.6,0.2-1.2-0.2-1.4-0.8c-0.2-0.6,0.2-1.2,0.8-1.4
						C393.3,39.5,394,39.8,394.1,40.4z"/>
				</g>
				<g>
					<path class="st10" d="M398.4,39.2c0.2,0.6-0.2,1.2-0.8,1.4c-0.6,0.2-1.2-0.2-1.4-0.8c-0.2-0.6,0.2-1.2,0.8-1.4
						C397.6,38.3,398.2,38.6,398.4,39.2z"/>
				</g>
				<g>
					<path class="st10" d="M402.7,38c0.2,0.6-0.2,1.2-0.8,1.4c-0.6,0.2-1.2-0.2-1.4-0.8c-0.2-0.6,0.2-1.2,0.8-1.4
						C401.9,37.1,402.5,37.4,402.7,38z"/>
				</g>
				<g>
					
						<ellipse transform="matrix(0.9617 -0.2742 0.2742 0.9617 5.3839 112.698)" class="st10" cx="405.9" cy="37.1" rx="1.1" ry="1.1"/>
				</g>
				<g>
					<line class="st12" x1="408.6" y1="30.3" x2="411.7" y2="41.5"/>
				</g>
			</g>
		</g>
	</g>

</g>

<g id="アイコン">
	<g>
		<rect x="134.3" y="263.6" transform="matrix(-0.5161 -0.8565 0.8565 -0.5161 -21.2912 517.9936)" class="st5" width="2.8" height="2.8"/>
		<rect x="131.3" y="258.7" transform="matrix(-0.5161 -0.8565 0.8565 -0.5161 -21.5677 508.1254)" class="st5" width="2.8" height="2.8"/>
		<rect x="135.2" y="259.7" transform="matrix(-0.5161 -0.8565 0.8565 -0.5161 -16.4954 512.9213)" class="st5" width="2.8" height="2.8"/>
		<rect x="132.3" y="254.8" transform="matrix(-0.5161 -0.8565 0.8565 -0.5161 -16.7719 503.0531)" class="st5" width="2.8" height="2.8"/>
		<rect x="140.1" y="256.8" transform="matrix(-0.5161 -0.8565 0.8565 -0.5161 -6.6273 512.6448)" class="st5" width="2.8" height="2.8"/>
		<rect x="137.2" y="251.9" transform="matrix(-0.5161 -0.8565 0.8565 -0.5161 -6.9038 502.7766)" class="st5" width="2.8" height="2.8"/>
		<rect x="128.4" y="253.9" transform="matrix(-0.5161 -0.8565 0.8565 -0.5161 -21.8442 498.2573)" class="st5" width="2.8" height="2.8"/>
		<rect x="129.9" y="256.3" transform="matrix(-0.5161 -0.8565 0.8565 -0.5161 -21.706 503.1914)" class="st6" width="2.8" height="2.8"/>
		<rect x="132.8" y="261.2" transform="matrix(-0.5161 -0.8565 0.8565 -0.5161 -21.4295 513.0595)" class="st6" width="2.8" height="2.8"/>
		<rect x="136.7" y="262.1" transform="matrix(-0.5161 -0.8565 0.8565 -0.5161 -16.3572 517.8553)" class="st6" width="2.8" height="2.8"/>
		<rect x="133.8" y="257.3" transform="matrix(-0.5161 -0.8565 0.8565 -0.5161 -16.6337 507.9872)" class="st6" width="2.8" height="2.8"/>
		<rect x="130.8" y="252.4" transform="matrix(-0.5161 -0.8565 0.8565 -0.5161 -16.9102 498.119)" class="st6" width="2.8" height="2.8"/>
		<rect x="134.7" y="253.4" transform="matrix(-0.5161 -0.8565 0.8565 -0.5161 -11.8378 502.9149)" class="st6" width="2.8" height="2.8"/>
		<rect x="137.7" y="258.2" transform="matrix(-0.5161 -0.8565 0.8565 -0.5161 -11.5614 512.783)" class="st6" width="2.8" height="2.8"/>
		<rect x="139.6" y="250.5" transform="matrix(-0.5161 -0.8565 0.8565 -0.5161 -1.9697 502.6384)" class="st6" width="2.8" height="2.8"/>
		<rect x="142.5" y="255.3" transform="matrix(-0.5161 -0.8565 0.8565 -0.5161 -1.6932 512.5065)" class="st6" width="2.8" height="2.8"/>
		<rect x="141.5" y="259.2" transform="matrix(-0.5161 -0.8565 0.8565 -0.5161 -6.489 517.5789)" class="st6" width="2.8" height="2.8"/>
		<rect x="138.6" y="254.3" transform="matrix(-0.5161 -0.8565 0.8565 -0.5161 -6.7655 507.7107)" class="st6" width="2.8" height="2.8"/>
		<rect x="135.7" y="249.5" transform="matrix(-0.5161 -0.8565 0.8565 -0.5161 -7.042 497.8426)" class="st6" width="2.8" height="2.8"/>
		<rect x="139.1" y="260.7" transform="matrix(-0.5161 -0.8565 0.8565 -0.5161 -11.4231 517.7171)" class="st5" width="2.8" height="2.8"/>
		<rect x="136.2" y="255.8" transform="matrix(-0.5161 -0.8565 0.8565 -0.5161 -11.6996 507.8489)" class="st5" width="2.8" height="2.8"/>
		<rect x="141" y="252.9" transform="matrix(-0.5161 -0.8565 0.8565 -0.5161 -1.8315 507.5724)" class="st5" width="2.8" height="2.8"/>
		<rect x="133.3" y="251" transform="matrix(-0.5161 -0.8565 0.8565 -0.5161 -11.9761 497.9808)" class="st5" width="2.8" height="2.8"/>
		<rect x="144" y="257.7" transform="matrix(-0.5161 -0.8565 0.8565 -0.5161 -1.555 517.4406)" class="st5" width="2.8" height="2.8"/>
		<rect x="138.1" y="248" transform="matrix(-0.5161 -0.8565 0.8565 -0.5161 -2.108 497.7043)" class="st5" width="2.8" height="2.8"/>
	</g>
	<g>
		<defs>
			
				<rect id="SVGID_1_" x="88.8" y="274.9" transform="matrix(0.8535 -0.5211 0.5211 0.8535 -130.7976 92.9576)" width="22.3" height="8.5"/>
		</defs>
		<clipPath id="SVGID_00000126324213719695179860000015098540122472247716_">
			<use xlink:href="#SVGID_1_"  style="overflow:visible;"/>
		</clipPath>
		<g style="clip-path:url(#SVGID_00000126324213719695179860000015098540122472247716_);">
			<polygon class="st14" points="112.1,280 109.7,281.5 101.1,278.4 102.3,269.4 104.7,267.9 103.6,276.9 			"/>
			<polygon class="st15" points="107.3,282.9 104.8,284.4 96.3,281.3 97.5,272.3 99.9,270.9 98.7,279.9 			"/>
			<polygon class="st16" points="102.4,285.9 100,287.4 91.5,284.3 92.6,275.3 95,273.8 93.9,282.8 			"/>
		</g>
	</g>
</g>
</svg>
