<?xml version="1.0" encoding="utf-8"?>
<!-- Generator: Adobe Illustrator 26.5.0, SVG Export Plug-In . SVG Version: 6.00 Build 0)  -->
<svg version="1.1" xmlns="http://www.w3.org/2000/svg" xmlns:xlink="http://www.w3.org/1999/xlink" x="0px" y="0px"
	 viewBox="0 0 550 443.7" style="enable-background:new 0 0 550 443.7;" xml:space="preserve">
<style type="text/css">
	.st0{fill:none;stroke:#646464;stroke-width:14.1732;stroke-miterlimit:10;}
	.st1{fill:none;stroke:#54C6EB;stroke-width:2.8346;stroke-miterlimit:10;}
	.st2{fill:none;stroke:#F4442E;stroke-width:2.8346;stroke-miterlimit:10;}
	.st3{fill:none;stroke:#FFD449;stroke-width:2.8346;stroke-miterlimit:10;}
	.st4{fill:none;stroke:#FFFFFF;stroke-width:2.126;}
	.st5{fill:#646464;}
	.st6{fill:#FFFFFF;}
	.st7{fill:#09BC8A;}
	.st8{fill:none;stroke:#646464;stroke-width:2.8346;stroke-miterlimit:10;}
	.st9{fill:none;stroke:#09BC8A;stroke-width:1.9843;stroke-miterlimit:10;}
	.st10{fill:none;stroke:#09BC8A;stroke-width:2.2097;stroke-miterlimit:10;}
	.st11{fill:#FF3380;}
	.st12{fill:none;stroke:#FF3380;stroke-width:1.9843;stroke-miterlimit:10;}
	.st13{fill:none;stroke:#646464;stroke-width:0.7087;stroke-miterlimit:10;}
	.st14{fill:none;stroke:#F4442E;stroke-width:5.6693;stroke-miterlimit:10;}
	.st15{fill:none;stroke:#54C6EB;stroke-width:5.6693;stroke-miterlimit:10;}
	.st16{fill:none;stroke:#FFD449;stroke-width:5.6693;stroke-miterlimit:10;}
	.st17{fill:none;stroke:#09BC8A;stroke-width:2.8346;stroke-miterlimit:10;}
	.st18{clip-path:url(#SVGID_00000160880835667528958380000006558704284884290727_);}
	.st19{fill:#F4442E;}
	.st20{fill:#54C6EB;}
	.st21{fill:#FFD449;}
</style>
<g id="コース">
	<path class="st0" d="M419.1,177.4c0,0,95.3,117,98.6,121.4s4.6,11.9,2.6,19.5c-2,7.7-6.4,19.9-15.5,19.9s-13.3-3.2-15.9-7.6
		c-2.6-4.4-17.3-29.6-19.6-32.6s-2.7-5-7.8-7.5c-5-2.4-10.5-1.6-15.3-1.8c-4.7-0.1-14.8-2.9-17.8-16.1c-3.1-13.8-3.5-17.1-9-23.3
		c-10.3-11.5-29,1-41-14.4c-6.4-8.1-4.2-18.1,0.2-27.4c6.8-14.5,3-25.2-4.9-30.7s-18.9-11.4-36.9-10.9
		c-16.5,0.5-31.3,10.8-36.5,17.2c-5.3,6.5-24.7,29.7-25.8,31c-1.1,1.2-2.5,2.5-5,2.6c-2.5,0.1-30.7,2-32.8,2.1
		c-2.1,0.1-5.8-0.4-6.7-5.6s-11.5-60.7-12.5-66.7c-1-6-0.2-13.2,2.3-17.6c2.5-4.4,5.5-11.3,7.7-15.6c3.7-7.3-5.4-12.3-9.5-5.9
		c-2.2,3.3-15.3,24.4-18.5,28.6c-5.5,7.2-14.3,20.9-44.3,19.4c-24.5-1.2-58.9-13.3-71.1-44.9c-4.1-10.6-11.6-27.9-13.1-31.1
		c-1.4-3.2-4.9-8.6-13-8.6s-13.7,0.2-18,1.4c-4.3,1.2-12.7,4.2-12.7,16s13.3,21.1,19.6,26.2c6.4,5.2,35.3,25.6,52.9,33.4
		c17.6,7.8,128.2,47.8,131.7,49c4.6,1.6,7.8,2.4,16.5,0.3c2.9-0.7,10.9-3.5,14.5-5.3c6.1-3.2,14.6-7.3,30-22.7
		c7.8-7.7,27.8-24.4,30.6-26.3c2.9-2,4.7-1.1,6.9,1.2c2.2,2.3,3.1,3,4.1,4.1c1,1.1,4,2.1,7.1-0.5c3.2-2.6,9.2-10.8,24.3-10.8
		c15,0,31.6,12.8,41.2,24.8C416.1,173.8,419.1,177.4,419.1,177.4z"/>
</g>
<g id="セクター">
	<path class="st1" d="M287.1,199.2c-6.1,7.4-12,14.4-12.6,15c-1.1,1.2-2.5,2.5-5,2.6c-2.5,0.1-30.7,2-32.8,2.1
		c-2.1,0.1-5.8-0.4-6.7-5.6s-11.5-60.7-12.5-66.7c-1-6-0.2-13.2,2.3-17.6c2.5-4.4,5.5-11.3,7.7-15.6c3.7-7.3-5.4-12.3-9.5-5.9
		c-2.2,3.3-15.3,24.4-18.5,28.6c-5.5,7.2-14.3,20.9-44.3,19.4c-24.5-1.2-58.9-13.3-71.1-44.9c-4.1-10.6-11.6-27.9-13.1-31.1
		c-1.4-3.2-4.9-8.6-13-8.6s-13.7,0.2-18,1.4c-4.3,1.2-12.7,4.2-12.7,16s13.3,21.1,19.6,26.2c6.4,5.2,35.3,25.6,52.9,33.4
		c4.9,2.2,16.9,6.8,31.8,12.4"/>
	<path class="st2" d="M404.7,159.7c0.6,0.7,1.2,1.5,1.8,2.2c9.5,12,12.6,15.6,12.6,15.6s95.3,117,98.6,121.4s4.6,11.9,2.6,19.5
		c-2,7.7-6.4,19.9-15.5,19.9s-13.3-3.2-15.9-7.6c-2.6-4.4-17.3-29.6-19.6-32.6s-2.7-5-7.8-7.5c-5-2.4-10.5-1.6-15.3-1.8
		c-4.7-0.1-14.8-2.9-17.8-16.1c-3.1-13.8-3.5-17.1-9-23.3c-10.3-11.5-29,1-41-14.4c-6.4-8.1-4.2-18.1,0.2-27.4
		c6.8-14.5,3-25.2-4.9-30.7s-18.9-11.4-36.9-10.9c-16.5,0.5-31.3,10.8-36.5,17.2c-2.4,3-7.9,9.6-13.2,15.9"/>
	<g>
		<path class="st0" d="M131.5,160.5c38.9,14.6,97.3,35.7,99.9,36.5c4.6,1.6,7.8,2.4,16.5,0.3c2.9-0.7,10.9-3.5,14.5-5.3
			c6.1-3.2,14.6-7.3,30-22.7c7.8-7.7,27.8-24.4,30.6-26.3c2.9-2,4.7-1.1,6.9,1.2c2.2,2.3,3.1,3,4.1,4.1c1,1.1,4,2.1,7.1-0.5
			c3.2-2.6,9.2-10.8,24.3-10.8c14.1,0,29.6,11.3,39.3,22.6"/>
		<path class="st3" d="M131.5,160.5c38.9,14.6,97.3,35.7,99.9,36.5c4.6,1.6,7.8,2.4,16.5,0.3c2.9-0.7,10.9-3.5,14.5-5.3
			c6.1-3.2,14.6-7.3,30-22.7c7.8-7.7,27.8-24.4,30.6-26.3c2.9-2,4.7-1.1,6.9,1.2c2.2,2.3,3.1,3,4.1,4.1c1,1.1,4,2.1,7.1-0.5
			c3.2-2.6,9.2-10.8,24.3-10.8c14.1,0,29.6,11.3,39.3,22.6"/>
	</g>
</g>
<g id="DRS-ZONES">
  <!-- DRS Zone 1 — visible white for testing (dots run right→left, corrected order) -->
  <path id="drs-1" class="drs-zone"
    fill="none" stroke="#fff" opacity="0"
    d="M414.3,149.1 
		L418.3,153.8 L421.1,157.2 L423.8,160.6 L426.6,164 L429.4,167.3 L432.2,170.7 L435,174.1 L437.8,177.5 L440.6,180.9 L443.3,184.3 L446.1,187.7 L448.9,191.1 L451.7,194.5 L454.5,197.9 L457.3,201.3 L460.1,204.7 L462.8,208.1 L465.6,211.5 L468.4,214.8 L471.2,218.2 L474,221.6 L476.8,225 L479.6,228.4 L482.4,231.8 L485.1,235.2 L487.9,238.6 L490.7,242 L493.5,245.4 L496.3,248.8 L499.1,252.2 L501.9,255.6 L504.6,259 L507.4,262.3 L510.2,265.7 L513,269.1 L515.8,272.5 L518.6,275.9 L521.4,279.3 L524.1,282.7 L526.1,286.7
		"/>

  <!-- DRS Zone 2 — visible white for testing (dots run right→left, corrected order) -->
  <!-- <path id="drs-2" class="drs-zone"
    fill="none" stroke="#fff" opacity="1"
    d="M88.2,10.5 
		L93.2,10.3 L97.6,10.2 L102,10.1 L106.4,10.1 L110.8,10.1 L115.2,10.2 L119.6,10.4 L124,10.6 L128.4,10.8 L132.8,11.1 L137.2,11.5 L141.5,11.9 L145.9,12.4 L150.3,12.9 L154.7,13.4 L159,14 L163.4,14.7 L167.7,15.4 L172,16.2 L176.4,17 L180.7,17.8 L185,18.7 L189.3,19.7 L193.6,20.6 L197.9,21.5 L202.2,22.5 L206.5,23.5 L210.7,24.5 L215,25.5 L219.3,26.5 L223.6,27.5 L227.9,28.5 L232.1,29.5 L236.4,30.6 L240.7,31.6 L245,32.6 L249.3,33.6 L253.5,34.7 L257.8,35.7 L262.1,36.7 L266.4,37.6 L270.7,38.6 L275,39.4 L279.3,40.1 L283.7,40.7 L288.1,41.2 L292.5,41.7 L296.8,42.1 L301.2,42.6 L305.6,43 L310,43.5 L314.3,43.9 L318.7,44.3 L323.1,44.7 L327.5,45.1 L331.9,45.5 L336.2,45.9 L340.6,46.3 L345,46.6 L349.4,47 L353.8,47.3 L358.2,47.7 L362.5,48 L371.1,48.2
		"/> -->
  
  <!-- DRS Zone 3 — visible white for testing -->
  <!-- <path id="drs-3" class="drs-zone"
    fill="none" stroke="#fff" opacity="1"
    d="M504.9,272.5
		L498.4,274.5 L494,275.6 L489.7,276.6 L485.4,277.7 L481,278.7 L476.7,279.8 L472.4,280.8 L468.1,281.8 L463.7,282.9 L459.4,283.9 L455.1,285 L450.8,286 L446.4,287.1 L442.1,288.1 L437.8,289.2 L433.5,290.2 L429.1,291.2 L424.8,292.3 L420.5,293.3 L416.2,294.4 L411.8,295.4 L407.5,296.5 L403.2,297.5 L398.9,298.6 L394.5,299.6 L390.2,300.6 L385.9,301.6 L381.5,302.6 L377.2,303.6 L372.9,304.6 L368.5,305.6 L364.2,306.6 L359.9,307.6 L355.5,308.7 L351.2,309.7 L346.8,310.7 L342.5,311.7 L338.2,312.7 L333.8,313.7 L329.5,314.7 L325.2,315.7 L320.8,316.7 L316.5,317.7 L312.2,318.8 L307.8,319.8 L303.5,320.8 L299.2,321.8 L294.8,322.8 L290.5,323.8 L286.2,324.8 L281.8,325.8 L277.5,326.8 L273.2,327.8 L264.8,329.8
		"/> -->
</g>
<g id="コーナー番号">
	<g>
		<g>
			<circle class="st4" cx="538" cy="298.6" r="8.5"/>
			<circle class="st5" cx="538" cy="298.6" r="8.5"/>
		</g>
		<g>
			<path class="st6" d="M536.3,302.5v-1.6h1v-4.5h-0.9v-1.6h2.6v6.1h0.9v1.6H536.3z"/>
		</g>
	</g>
	<g>
		<g>
			<circle class="st4" cx="508.7" cy="358.4" r="8.5"/>
			<circle class="st5" cx="508.7" cy="358.4" r="8.5"/>
		</g>
		<g>
			<path class="st6" d="M506.6,362.3v-2.6c0-0.6,0.1-1,0.6-1.2l1.9-0.8v-1.6l-0.1-0.1h-0.5l-0.1,0.1v1.1h-1.7v-1.3
				c0-0.8,0.4-1.1,0.8-1.3h2.5c0.5,0.2,0.8,0.5,0.8,1.3v1.9c0,0.6-0.1,0.9-0.6,1.2l-1.8,0.8v0.9h2.4v1.6H506.6z"/>
		</g>
	</g>
	<g>
		<g>
			<circle class="st4" cx="473.8" cy="275.7" r="8.5"/>
			<circle class="st5" cx="473.8" cy="275.7" r="8.5"/>
		</g>
		<g>
			<path class="st6" d="M472.6,279.6c-0.5-0.2-0.8-0.5-0.8-1.3v-1h1.7v0.8l0.1,0.1h0.5l0.1-0.1v-1.6l-0.1-0.1h-1V275h1l0.1-0.1v-1.5
				l-0.1-0.1h-0.5l-0.1,0.1v0.8h-1.7v-1c0-0.8,0.4-1.1,0.8-1.3h2.5c0.5,0.2,0.8,0.5,0.8,1.3v1.3c0,0.6-0.2,0.9-0.6,1.2
				c0.4,0.3,0.6,0.6,0.6,1.2v1.4c0,0.8-0.4,1.1-0.8,1.3H472.6z"/>
		</g>
	</g>
	<g>
		<g>
			<circle class="st4" cx="423.8" cy="299.9" r="8.5"/>
			<circle class="st5" cx="423.8" cy="299.9" r="8.5"/>
		</g>
		<g>
			<path class="st6" d="M425.5,302.3v1.5h-1.7v-1.5h-2.2v-1.5l1.6-4.7h1.7l-1.6,4.6h0.5v-0.4l0.4-1h1.3v1.4h0.5v1.6H425.5z"/>
		</g>
	</g>
	<g>
		<g>
			<circle class="st4" cx="434" cy="235.1" r="8.5"/>
			<circle class="st5" cx="434" cy="235.1" r="8.5"/>
		</g>
		<g>
			<path class="st6" d="M432.8,239c-0.5-0.2-0.8-0.5-0.8-1.3v-1h1.6v0.8l0.1,0.1h0.6l0.1-0.1v-2.1l-0.1-0.1h-0.6l-0.1,0.1v0.4H432
				v-4.5h4v1.5h-2.4v1.6l0.4-0.4h1.3c0.5,0.2,0.8,0.5,0.8,1.3v2.4c0,0.8-0.4,1.1-0.8,1.3H432.8z"/>
		</g>
	</g>
	<g>
		<g>
			<circle class="st4" cx="362.5" cy="245" r="8.5"/>
			<circle class="st5" cx="362.5" cy="245" r="8.5"/>
		</g>
		<g>
			<path class="st6" d="M363.8,248.9h-2.5c-0.5-0.2-0.8-0.5-0.8-1.3v-5.1c0-0.8,0.4-1.1,0.8-1.3h2.5c0.5,0.2,0.8,0.5,0.8,1.3v1h-1.7
				v-0.8l-0.1-0.1h-0.5l-0.1,0.1v1.8l0.3-0.3h1.3c0.5,0.2,0.8,0.5,0.8,1.3v2.2C364.6,248.5,364.2,248.8,363.8,248.9z M362.8,247.5
				l0.1-0.1v-1.8l-0.1-0.1h-0.5l-0.1,0.1v1.8l0.1,0.1H362.8z"/>
		</g>
	</g>
	<g>
		<g>
			<circle class="st4" cx="360.4" cy="192.8" r="8.5"/>
			<circle class="st5" cx="360.4" cy="192.8" r="8.5"/>
		</g>
		<g>
			<path class="st6" d="M358.6,196.7l2.1-6.2h-2.4V189h4.1v1.2l-2.1,6.5H358.6z"/>
		</g>
	</g>
	<g>
		<g>
			<circle class="st4" cx="282.6" cy="233.6" r="8.5"/>
			<circle class="st5" cx="282.6" cy="233.6" r="8.5"/>
		</g>
		<g>
			<path class="st6" d="M281.4,237.5c-0.5-0.2-0.8-0.5-0.8-1.3v-1.4c0-0.6,0.2-0.9,0.6-1.2c-0.4-0.3-0.6-0.6-0.6-1.2v-1.3
				c0-0.8,0.4-1.1,0.8-1.3h2.5c0.5,0.2,0.8,0.5,0.8,1.3v1.3c0,0.6-0.2,0.9-0.6,1.2c0.4,0.3,0.6,0.6,0.6,1.2v1.4
				c0,0.8-0.4,1.1-0.8,1.3H281.4z M282.2,232.9l0.1,0.1h0.5l0.1-0.1v-1.5l-0.1-0.1h-0.5l-0.1,0.1V232.9z M283,236v-1.6l-0.1-0.1
				h-0.5l-0.1,0.1v1.6l0.1,0.1h0.5L283,236z"/>
		</g>
	</g>
	<g>
		<g>
			<circle class="st4" cx="223" cy="235.7" r="8.5"/>
			<circle class="st5" cx="223" cy="235.7" r="8.5"/>
		</g>
		<g>
			<path class="st6" d="M221.7,239.5c-0.5-0.2-0.8-0.5-0.8-1.3v-1h1.7v0.8l0.1,0.1h0.5l0.1-0.1v-1.8l-0.3,0.3h-1.3
				c-0.5-0.2-0.8-0.5-0.8-1.3v-2.2c0-0.8,0.4-1.1,0.8-1.3h2.5c0.5,0.2,0.8,0.5,0.8,1.3v5.1c0,0.8-0.4,1.1-0.8,1.3H221.7z
				 M223.3,235.2v-1.8l-0.1-0.1h-0.5l-0.1,0.1v1.8l0.1,0.1h0.5L223.3,235.2z"/>
		</g>
	</g>
	<g>
		<g>
			<circle class="st4" cx="131.8" cy="131.2" r="8.5"/>
			<circle class="st5" cx="131.8" cy="131.2" r="8.5"/>
		</g>
		<g>
			<path class="st6" d="M127.7,135.1v-1.6h1V129h-0.9v-1.6h2.6v6.1h0.9v1.6H127.7z"/>
			<path class="st6" d="M132,135.1v-2.6c0-0.6,0.1-1,0.6-1.2l1.9-0.8v-1.6l-0.1-0.1h-0.5l-0.1,0.1v1.1H132v-1.3
				c0-0.8,0.4-1.1,0.8-1.3h2.5c0.5,0.2,0.8,0.5,0.8,1.3v1.9c0,0.6-0.1,0.9-0.6,1.2l-1.9,0.8v0.9h2.4v1.6H132z"/>
		</g>
	</g>
	<g>
		<g>
			<circle class="st4" cx="76.3" cy="55.7" r="8.5"/>
			<circle class="st5" cx="76.3" cy="55.7" r="8.5"/>
		</g>
		<g>
			<path class="st6" d="M72.3,59.6V58h1v-4.5h-0.9V52H75V58h0.9v1.6H72.3z"/>
			<path class="st6" d="M77.4,59.6c-0.5-0.2-0.8-0.5-0.8-1.3v-1h1.7v0.8l0.1,0.1h0.5l0.1-0.1v-1.6l-0.1-0.1h-1v-1.3h1L79,55v-1.5
				l-0.1-0.1h-0.5l-0.1,0.1v0.8h-1.7v-1c0-0.8,0.4-1.1,0.8-1.3h2.5c0.5,0.2,0.8,0.5,0.8,1.3v1.3c0,0.6-0.2,0.9-0.6,1.2
				c0.4,0.3,0.6,0.6,0.6,1.2v1.4c0,0.8-0.4,1.1-0.8,1.3H77.4z"/>
		</g>
	</g>
	<g>
		<g>
			<circle class="st4" cx="10.5" cy="78.4" r="8.5"/>
			<circle class="st5" cx="10.5" cy="78.4" r="8.5"/>
		</g>
		<g>
			<path class="st6" d="M6.4,82.2v-1.6h1v-4.5H6.6v-1.6h2.6v6.1H10v1.6H6.4z"/>
			<path class="st6" d="M14.5,80.8v1.5h-1.7v-1.5h-2.2v-1.5l1.6-4.7h1.7l-1.6,4.6h0.5v-0.4l0.4-1h1.3v1.4H15v1.6H14.5z"/>
		</g>
	</g>
	<g>
		<g>
			<circle class="st4" cx="244" cy="178.8" r="8.5"/>
			<circle class="st5" cx="244" cy="178.8" r="8.5"/>
		</g>
		<g>
			<path class="st6" d="M240,182.6V181h1v-4.5h-0.9V175h2.6v6.1h0.9v1.6H240z"/>
			<path class="st6" d="M245.1,182.6c-0.5-0.2-0.8-0.5-0.8-1.3v-1h1.6v0.8l0.1,0.1h0.6l0.1-0.1v-2.1l-0.1-0.1H246l-0.1,0.1v0.4h-1.6
				V175h4v1.5h-2.4v1.6l0.4-0.4h1.3c0.5,0.2,0.8,0.5,0.8,1.3v2.4c0,0.8-0.4,1.1-0.8,1.3H245.1z"/>
		</g>
	</g>
	<g>
		<g>
			<circle class="st4" cx="313" cy="127.1" r="8.5"/>
			<circle class="st5" cx="313" cy="127.1" r="8.5"/>
		</g>
		<g>
			<path class="st6" d="M309,131v-1.6h1v-4.5h-0.9v-1.6h2.6v6.1h0.9v1.6H309z"/>
			<path class="st6" d="M316.6,131h-2.5c-0.5-0.2-0.8-0.5-0.8-1.3v-5.1c0-0.8,0.4-1.1,0.8-1.3h2.5c0.5,0.2,0.8,0.5,0.8,1.3v1h-1.7
				v-0.8l-0.1-0.1h-0.5l-0.1,0.1v1.8l0.3-0.3h1.3c0.5,0.2,0.8,0.5,0.8,1.3v2.2C317.5,130.5,317.1,130.8,316.6,131z M315.7,129.6
				l0.1-0.1v-1.8l-0.1-0.1h-0.5l-0.1,0.1v1.8l0.1,0.1H315.7z"/>
		</g>
	</g>
	<g>
		<g>
			<circle class="st4" cx="338.3" cy="126.1" r="8.5"/>
			<circle class="st5" cx="338.3" cy="126.1" r="8.5"/>
		</g>
		<g>
			<path class="st6" d="M334.2,130v-1.6h1v-4.5h-0.9v-1.6h2.6v6.1h0.9v1.6H334.2z"/>
			<path class="st6" d="M338.8,130l2.1-6.2h-2.4v-1.5h4.1v1.2l-2.1,6.5H338.8z"/>
		</g>
	</g>
	<g>
		<g>
			<circle class="st4" cx="374.4" cy="118.7" r="8.5"/>
			<circle class="st5" cx="374.4" cy="118.7" r="8.5"/>
		</g>
		<g>
			<path class="st6" d="M370.4,122.6V121h1v-4.5h-0.9v-1.6h2.6v6.1h0.9v1.6H370.4z"/>
			<path class="st6" d="M375.5,122.6c-0.5-0.2-0.8-0.5-0.8-1.3v-1.4c0-0.6,0.2-0.9,0.6-1.2c-0.4-0.3-0.6-0.6-0.6-1.2v-1.3
				c0-0.8,0.4-1.1,0.8-1.3h2.5c0.5,0.2,0.8,0.5,0.8,1.3v1.3c0,0.6-0.2,0.9-0.6,1.2c0.4,0.3,0.6,0.6,0.6,1.2v1.4
				c0,0.8-0.4,1.1-0.8,1.3H375.5z M376.4,118l0.1,0.1h0.5l0.1-0.1v-1.5l-0.1-0.1h-0.5l-0.1,0.1V118z M377.1,121.1v-1.6l-0.1-0.1
				h-0.5l-0.1,0.1v1.6l0.1,0.1h0.5L377.1,121.1z"/>
		</g>
	</g>
	<g>
		<g>
			<circle class="st4" cx="236.2" cy="141.9" r="8.5"/>
			<circle class="st5" cx="236.2" cy="141.9" r="8.5"/>
		</g>
		<g>
			<path class="st6" d="M232.2,145.8v-1.6h1v-4.5h-0.9v-1.6h2.6v6.1h0.9v1.6H232.2z"/>
			<path class="st6" d="M239.8,145.8h-2.5c-0.5-0.2-0.8-0.5-0.8-1.3v-5.1c0-0.8,0.4-1.1,0.8-1.3h2.5c0.5,0.2,0.8,0.5,0.8,1.3v5.1
				C240.7,145.3,240.3,145.6,239.8,145.8z M239,139.6l-0.1-0.1h-0.5l-0.1,0.1v4.7l0.1,0.1h0.5l0.1-0.1V139.6z"/>
		</g>
	</g>
	<g>
		<g>
			<circle class="st4" cx="236.8" cy="90" r="8.5"/>
			<circle class="st5" cx="236.8" cy="90" r="8.5"/>
		</g>
		<g>
			<path class="st6" d="M232.7,93.9v-1.6h1v-4.5h-0.9v-1.6h2.6v6.1h0.9v1.6H232.7z"/>
			<path class="st6" d="M237.4,93.9v-1.6h1v-4.5h-0.9v-1.6h2.6v6.1h0.9v1.6H237.4z"/>
		</g>
	</g>
</g>
<g id="DRS">


	<g>
		<path class="st7" d="M422,271.7"/>
	</g>

	<g>
		<g>
			<g>
				<g>
					<line class="st10" x1="419.3" y1="145.8" x2="410.3" y2="153.2"/>
				</g>
				<g>
					<path class="st7" d="M418.3,153.8c-0.5,0.4-1.2,0.3-1.6-0.1s-0.3-1.2,0.2-1.5s1.2-0.3,1.6,0.1
						C418.8,152.7,418.7,153.4,418.3,153.8z"/>
				</g>
				<g>
					<path class="st7" d="M421.1,157.2c-0.5,0.4-1.2,0.3-1.6-0.1c-0.4-0.5-0.3-1.2,0.2-1.5s1.2-0.3,1.6,0.1
						C421.6,156.1,421.5,156.8,421.1,157.2z"/>
				</g>
				<g>
					<path class="st7" d="M423.8,160.6c-0.5,0.4-1.2,0.3-1.6-0.1s-0.3-1.2,0.2-1.5s1.2-0.3,1.6,0.1S424.3,160.2,423.8,160.6z"/>
				</g>
				<g>
					<path class="st7" d="M426.6,164c-0.5,0.4-1.2,0.3-1.6-0.1c-0.4-0.5-0.3-1.2,0.2-1.5s1.2-0.3,1.6,0.1
						C427.2,162.9,427.1,163.6,426.6,164z"/>
				</g>
				<g>
					<path class="st7" d="M429.4,167.3c-0.5,0.4-1.2,0.3-1.6-0.1c-0.4-0.5-0.3-1.2,0.2-1.5s1.2-0.3,1.6,0.1S429.9,167,429.4,167.3z"
						/>
				</g>
				<g>
					<path class="st7" d="M432.2,170.7c-0.5,0.4-1.2,0.3-1.6-0.1c-0.4-0.5-0.3-1.2,0.2-1.5c0.5-0.4,1.2-0.3,1.6,0.1
						C432.7,169.7,432.7,170.3,432.2,170.7z"/>
				</g>
				<g>
					<path class="st7" d="M435,174.1c-0.5,0.4-1.2,0.3-1.6-0.1c-0.4-0.5-0.3-1.2,0.2-1.5c0.5-0.4,1.2-0.3,1.6,0.1
						C435.5,173,435.5,173.7,435,174.1z"/>
				</g>
				<g>
					<path class="st7" d="M437.8,177.5c-0.5,0.4-1.2,0.3-1.6-0.1c-0.4-0.5-0.3-1.2,0.2-1.5c0.5-0.4,1.2-0.3,1.6,0.1
						C438.3,176.4,438.2,177.1,437.8,177.5z"/>
				</g>
				<g>
					<path class="st7" d="M440.6,180.9c-0.5,0.4-1.2,0.3-1.6-0.1c-0.4-0.5-0.3-1.2,0.2-1.5c0.5-0.4,1.2-0.3,1.6,0.1
						C441.1,179.8,441,180.5,440.6,180.9z"/>
				</g>
				<g>
					<path class="st7" d="M443.3,184.3c-0.5,0.4-1.2,0.3-1.6-0.1s-0.3-1.2,0.2-1.5s1.2-0.3,1.6,0.1
						C443.9,183.2,443.8,183.9,443.3,184.3z"/>
				</g>
				<g>
					<path class="st7" d="M446.1,187.7c-0.5,0.4-1.2,0.3-1.6-0.1c-0.4-0.5-0.3-1.2,0.2-1.5s1.2-0.3,1.6,0.1
						C446.7,186.6,446.6,187.3,446.1,187.7z"/>
				</g>
				<g>
					<path class="st7" d="M448.9,191.1c-0.5,0.4-1.2,0.3-1.6-0.1s-0.3-1.2,0.2-1.5s1.2-0.3,1.6,0.1
						C449.5,190,449.4,190.7,448.9,191.1z"/>
				</g>
				<g>
					<path class="st7" d="M451.7,194.5c-0.5,0.4-1.2,0.3-1.6-0.1c-0.4-0.5-0.3-1.2,0.2-1.5s1.2-0.3,1.6,0.1
						C452.2,193.4,452.2,194.1,451.7,194.5z"/>
				</g>
				<g>
					<path class="st7" d="M454.5,197.9c-0.5,0.4-1.2,0.3-1.6-0.1s-0.3-1.2,0.2-1.5s1.2-0.3,1.6,0.1S455,197.5,454.5,197.9z"/>
				</g>
				<g>
					<path class="st7" d="M457.3,201.3c-0.5,0.4-1.2,0.3-1.6-0.1c-0.4-0.5-0.3-1.2,0.2-1.5s1.2-0.3,1.6,0.1
						C457.8,200.2,457.7,200.9,457.3,201.3z"/>
				</g>
				<g>
					<path class="st7" d="M460.1,204.7c-0.5,0.4-1.2,0.3-1.6-0.1c-0.4-0.5-0.3-1.2,0.2-1.5s1.2-0.3,1.6,0.1S460.5,204.3,460.1,204.7
						z"/>
				</g>
				<g>
					<path class="st7" d="M462.8,208.1c-0.5,0.4-1.2,0.3-1.6-0.1c-0.4-0.5-0.3-1.2,0.2-1.5c0.5-0.4,1.2-0.3,1.6,0.1
						C463.4,207,463.3,207.7,462.8,208.1z"/>
				</g>
				<g>
					<path class="st7" d="M465.6,211.5c-0.5,0.4-1.2,0.3-1.6-0.1c-0.4-0.5-0.3-1.2,0.2-1.5c0.5-0.4,1.2-0.3,1.6,0.1
						C466.2,210.4,466.1,211.1,465.6,211.5z"/>
				</g>
				<g>
					<path class="st7" d="M468.4,214.8c-0.5,0.4-1.2,0.3-1.6-0.1c-0.4-0.5-0.3-1.2,0.2-1.5c0.5-0.4,1.2-0.3,1.6,0.1
						C469,213.8,468.9,214.5,468.4,214.8z"/>
				</g>
				<g>
					<path class="st7" d="M471.2,218.2c-0.5,0.4-1.2,0.3-1.6-0.1c-0.4-0.5-0.3-1.2,0.2-1.5c0.5-0.4,1.2-0.3,1.6,0.1
						C471.7,217.2,471.7,217.9,471.2,218.2z"/>
				</g>
				<g>
					<path class="st7" d="M474,221.6c-0.5,0.4-1.2,0.3-1.6-0.1s-0.3-1.2,0.2-1.5s1.2-0.3,1.6,0.1C474.5,220.5,474.5,221.2,474,221.6
						z"/>
				</g>
				<g>
					<path class="st7" d="M476.8,225c-0.5,0.4-1.2,0.3-1.6-0.1c-0.4-0.5-0.3-1.2,0.2-1.5c0.5-0.4,1.2-0.3,1.6,0.1
						C477.3,223.9,477.3,224.6,476.8,225z"/>
				</g>
				<g>
					<path class="st7" d="M479.6,228.4c-0.5,0.4-1.2,0.3-1.6-0.1s-0.3-1.2,0.2-1.5s1.2-0.3,1.6,0.1S480,228,479.6,228.4z"/>
				</g>
				<g>
					<path class="st7" d="M482.4,231.8c-0.5,0.4-1.2,0.3-1.6-0.1c-0.4-0.5-0.3-1.2,0.2-1.5s1.2-0.3,1.6,0.1
						C482.9,230.7,482.8,231.4,482.4,231.8z"/>
				</g>
				<g>
					<path class="st7" d="M485.1,235.2c-0.5,0.4-1.2,0.3-1.6-0.1s-0.3-1.2,0.2-1.5s1.2-0.3,1.6,0.1S485.6,234.8,485.1,235.2z"/>
				</g>
				<g>
					<path class="st7" d="M487.9,238.6c-0.5,0.4-1.2,0.3-1.6-0.1c-0.4-0.5-0.3-1.2,0.2-1.5s1.2-0.3,1.6,0.1
						C488.5,237.5,488.4,238.2,487.9,238.6z"/>
				</g>
				<g>
					<path class="st7" d="M490.7,242c-0.5,0.4-1.2,0.3-1.6-0.1c-0.4-0.5-0.3-1.2,0.2-1.5s1.2-0.3,1.6,0.1S491.2,241.6,490.7,242z"/>
				</g>
				<g>
					<path class="st7" d="M493.5,245.4c-0.5,0.4-1.2,0.3-1.6-0.1c-0.4-0.5-0.3-1.2,0.2-1.5c0.5-0.4,1.2-0.3,1.6,0.1
						C494,244.3,494,245,493.5,245.4z"/>
				</g>
				<g>
					<path class="st7" d="M496.3,248.8c-0.5,0.4-1.2,0.3-1.6-0.1c-0.4-0.5-0.3-1.2,0.2-1.5c0.5-0.4,1.2-0.3,1.6,0.1
						C496.8,247.7,496.8,248.4,496.3,248.8z"/>
				</g>
				<g>
					<path class="st7" d="M499.1,252.2c-0.5,0.4-1.2,0.3-1.6-0.1c-0.4-0.5-0.3-1.2,0.2-1.5c0.5-0.4,1.2-0.3,1.6,0.1
						C499.6,251.1,499.5,251.8,499.1,252.2z"/>
				</g>
				<g>
					<path class="st7" d="M501.9,255.6c-0.5,0.4-1.2,0.3-1.6-0.1c-0.4-0.5-0.3-1.2,0.2-1.5c0.5-0.4,1.2-0.3,1.6,0.1
						C502.4,254.5,502.3,255.2,501.9,255.6z"/>
				</g>
				<g>
					<path class="st7" d="M504.6,259c-0.5,0.4-1.2,0.3-1.6-0.1s-0.3-1.2,0.2-1.5c0.5-0.4,1.2-0.3,1.6,0.1
						C505.2,257.9,505.1,258.6,504.6,259z"/>
				</g>
				<g>
					<path class="st7" d="M507.4,262.3c-0.5,0.4-1.2,0.3-1.6-0.1c-0.4-0.5-0.3-1.2,0.2-1.5s1.2-0.3,1.6,0.1
						C508,261.3,507.9,262,507.4,262.3z"/>
				</g>
				<g>
					<path class="st7" d="M510.2,265.7c-0.5,0.4-1.2,0.3-1.6-0.1s-0.3-1.2,0.2-1.5s1.2-0.3,1.6,0.1S510.7,265.4,510.2,265.7z"/>
				</g>
				<g>
					<path class="st7" d="M513,269.1c-0.5,0.4-1.2,0.3-1.6-0.1c-0.4-0.5-0.3-1.2,0.2-1.5c0.5-0.4,1.2-0.3,1.6,0.1
						C513.5,268.1,513.5,268.7,513,269.1z"/>
				</g>
				<g>
					<path class="st7" d="M515.8,272.5c-0.5,0.4-1.2,0.3-1.6-0.1c-0.4-0.5-0.3-1.2,0.2-1.5c0.5-0.4,1.2-0.3,1.6,0.1
						S516.3,272.1,515.8,272.5z"/>
				</g>
				<g>
					<path class="st7" d="M518.6,275.9c-0.5,0.4-1.2,0.3-1.6-0.1s-0.3-1.2,0.2-1.5c0.5-0.4,1.2-0.3,1.6,0.1S519,275.5,518.6,275.9z"
						/>
				</g>
				<g>
					<path class="st7" d="M521.4,279.3c-0.5,0.4-1.2,0.3-1.6-0.1c-0.4-0.5-0.3-1.2,0.2-1.5c0.5-0.4,1.2-0.3,1.6,0.1
						S521.8,278.9,521.4,279.3z"/>
				</g>
				<g>
					<path class="st7" d="M524.1,282.7c-0.5,0.4-1.2,0.3-1.6-0.1c-0.4-0.5-0.3-1.2,0.2-1.5c0.5-0.4,1.2-0.3,1.6,0.1
						C524.7,281.6,524.6,282.3,524.1,282.7z"/>
				</g>
				<g>
					<line class="st10" x1="530.7" y1="281.6" x2="521.7" y2="288.9"/>
				</g>
			</g>
		</g>
	</g>
</g>
<g id="アイコン">
	<g>
		
			<rect x="441" y="139.1" transform="matrix(-0.7487 0.6629 -0.6629 -0.7487 866.8575 -47.489)" class="st5" width="2.8" height="2.8"/>
		
			<rect x="436.8" y="142.9" transform="matrix(-0.7487 0.6629 -0.6629 -0.7487 861.9257 -38.1035)" class="st5" width="2.8" height="2.8"/>
		
			<rect x="437" y="138.9" transform="matrix(-0.7487 0.6629 -0.6629 -0.7487 859.6989 -45.2622)" class="st5" width="2.8" height="2.8"/>
		
			<rect x="432.8" y="142.6" transform="matrix(-0.7487 0.6629 -0.6629 -0.7487 854.767 -35.8767)" class="st5" width="2.8" height="2.8"/>
		
			<rect x="433.3" y="134.6" transform="matrix(-0.7487 0.6629 -0.6629 -0.7487 850.3133 -50.1941)" class="st5" width="2.8" height="2.8"/>
		
			<rect x="429" y="138.4" transform="matrix(-0.7487 0.6629 -0.6629 -0.7487 845.3815 -40.8085)" class="st5" width="2.8" height="2.8"/>
		
			<rect x="432.5" y="146.6" transform="matrix(-0.7487 0.6629 -0.6629 -0.7487 856.9938 -28.718)" class="st5" width="2.8" height="2.8"/>
		
			<rect x="434.6" y="144.8" transform="matrix(-0.7487 0.6629 -0.6629 -0.7487 859.4597 -33.4107)" class="st6" width="2.8" height="2.8"/>
		
			<rect x="438.9" y="141" transform="matrix(-0.7487 0.6629 -0.6629 -0.7487 864.3916 -42.7963)" class="st6" width="2.8" height="2.8"/>
		
			<rect x="439.1" y="137" transform="matrix(-0.7487 0.6629 -0.6629 -0.7487 862.1648 -49.955)" class="st6" width="2.8" height="2.8"/>
		
			<rect x="434.9" y="140.8" transform="matrix(-0.7487 0.6629 -0.6629 -0.7487 857.2329 -40.5694)" class="st6" width="2.8" height="2.8"/>
		
			<rect x="430.6" y="144.5" transform="matrix(-0.7487 0.6629 -0.6629 -0.7487 852.301 -31.1839)" class="st6" width="2.8" height="2.8"/>
		
			<rect x="430.9" y="140.5" transform="matrix(-0.7487 0.6629 -0.6629 -0.7487 850.0742 -38.3426)" class="st6" width="2.8" height="2.8"/>
		
			<rect x="435.1" y="136.8" transform="matrix(-0.7487 0.6629 -0.6629 -0.7487 855.0061 -47.7281)" class="st6" width="2.8" height="2.8"/>
		
			<rect x="427.1" y="136.3" transform="matrix(-0.7487 0.6629 -0.6629 -0.7487 840.6887 -43.2745)" class="st6" width="2.8" height="2.8"/>
		
			<rect x="431.4" y="132.5" transform="matrix(-0.7487 0.6629 -0.6629 -0.7487 845.6205 -52.66)" class="st6" width="2.8" height="2.8"/>
		
			<rect x="435.4" y="132.8" transform="matrix(-0.7487 0.6629 -0.6629 -0.7487 852.7792 -54.8868)" class="st6" width="2.8" height="2.8"/>
		
			<rect x="431.1" y="136.5" transform="matrix(-0.7487 0.6629 -0.6629 -0.7487 847.8474 -45.5013)" class="st6" width="2.8" height="2.8"/>
		
			<rect x="426.9" y="140.3" transform="matrix(-0.7487 0.6629 -0.6629 -0.7487 842.9155 -36.1158)" class="st6" width="2.8" height="2.8"/>
		
			<rect x="437.3" y="134.9" transform="matrix(-0.7487 0.6629 -0.6629 -0.7487 857.472 -52.4209)" class="st5" width="2.8" height="2.8"/>
		
			<rect x="433" y="138.6" transform="matrix(-0.7487 0.6629 -0.6629 -0.7487 852.5402 -43.0354)" class="st5" width="2.8" height="2.8"/>
		
			<rect x="429.3" y="134.4" transform="matrix(-0.7487 0.6629 -0.6629 -0.7487 843.1546 -47.9672)" class="st5" width="2.8" height="2.8"/>
		
			<rect x="428.8" y="142.4" transform="matrix(-0.7487 0.6629 -0.6629 -0.7487 847.6083 -33.6498)" class="st5" width="2.8" height="2.8"/>
		
			<rect x="433.5" y="130.6" transform="matrix(-0.7487 0.6629 -0.6629 -0.7487 848.0865 -57.3527)" class="st5" width="2.8" height="2.8"/>
		
			<rect x="425" y="138.2" transform="matrix(-0.7487 0.6629 -0.6629 -0.7487 838.2228 -38.5817)" class="st5" width="2.8" height="2.8"/>
	</g>
	<g>
		<defs>
			
				<rect id="SVGID_1_" x="442.9" y="175.9" transform="matrix(-0.6633 -0.7484 0.7484 -0.6633 620.3538 639.5245)" width="22.3" height="8.5"/>
		</defs>
		<clipPath id="SVGID_00000001632982459283958640000018106795181911239571_">
			<use xlink:href="#SVGID_1_"  style="overflow:visible;"/>
		</clipPath>
		<g style="clip-path:url(#SVGID_00000001632982459283958640000018106795181911239571_);">
			<polygon class="st19" points="452.8,168.1 454.7,170.2 453.1,179.1 444.1,179.6 442.2,177.5 451.2,177 			"/>
			<polygon class="st20" points="456.5,172.3 458.4,174.4 456.9,183.4 447.8,183.8 445.9,181.7 455,181.3 			"/>
			<polygon class="st21" points="460.3,176.6 462.2,178.7 460.6,187.6 451.6,188.1 449.7,186 458.8,185.5 			"/>
		</g>
	</g>
</g>
</svg>
